<svg xmlns="http://www.w3.org/2000/svg" width="380" height="840" viewBox="0 0 380 840"><defs><style>.cls-1{fill:#e5e5e5;}.cls-2{fill:#f5c408;}.cls-3{fill:#fff;}.cls-4{fill:#f5d660;}.cls-5{fill:#f5e9ba;}</style></defs><g id="Assets"><g id="Fadøl_Højre" data-name="Fadøl Højre"><path class="cls-1" d="M4.5,379.82,182.44,462a7.59,7.59,0,0,0,9.72-3.6L373.87,125.76,152.24,23.36.78,368.8C-1.11,373.11.54,378,4.5,379.82Z"/><path class="cls-2" d="M16.19,366.21l168.71,78a7.22,7.22,0,0,0,9.22-3.41L366.41,125.32,156.27,28.23,12.66,355.77A7.87,7.87,0,0,0,16.19,366.21Z"/><path class="cls-3" d="M139.58,11.89C145.51-.62,162.93-2.66,175.17,3A28.73,28.73,0,0,1,191.3,24.84c.43.13.86.27,1.29.43a29.1,29.1,0,0,1,27.07-1.72,27.76,27.76,0,0,1,12.88,12.21,24.7,24.7,0,0,1,2.63,2.36,30.19,30.19,0,0,1,23.11-5.52,25.59,25.59,0,0,1,6.58,2,24.88,24.88,0,0,1,4.79,2.91c8.21,6,12.5,16.2,11.68,26.74A20.94,20.94,0,0,1,292.59,66a21.29,21.29,0,0,1,11.3,13c9.12-7.41,21.47-9.65,32.18-4.7a28.63,28.63,0,0,1,7.2,4.77c9.29,7.83,13.26,20.91,10.05,33.59a28.65,28.65,0,0,1,9.76,2.53c15.17,7,21.27,25.92,13.62,42.24a37.3,37.3,0,0,1-1.92,3.53,18.79,18.79,0,0,1,2.09,19.88c-4.41,9.4-15.08,13.75-23.82,9.71a16.19,16.19,0,0,1-3.89-2.53,8.33,8.33,0,0,1-.77-.53l.44-.95a17.36,17.36,0,0,1-1.17-19.74,21.64,21.64,0,0,1-4.19-1.44c-11.25-5.2-16.17-18.68-11.71-31a29.63,29.63,0,0,1-23.72-.34c-10.71-5-16.94-15.77-17.1-27.47l-.56-.26a17.28,17.28,0,0,1-12.07-.87,16.87,16.87,0,0,1-6.37-5.1,14.1,14.1,0,0,1-18.11-10.63,25.42,25.42,0,0,1-24.67-11.69l-1.07-.49A26.75,26.75,0,0,1,206,77.35a26.47,26.47,0,0,1-14.27-16A20.5,20.5,0,0,1,178.19,60a20.18,20.18,0,0,1-10-10.09l-.28-.13A22.48,22.48,0,0,1,150,49.25a22.13,22.13,0,0,1-10.81-10.49C136.43,32.88,133.13,25.52,139.58,11.89Z"/><polygon class="cls-4" points="135.37 421.27 167.98 436.34 321.68 151.94 272.39 129.17 135.37 421.27"/><path class="cls-3" d="M126.69,39.38c5.92-12.51,23.34-14.55,35.58-8.9A28.77,28.77,0,0,1,178.4,52.34q.65.18,1.29.42A29.11,29.11,0,0,1,206.76,51a27.86,27.86,0,0,1,12.88,12.21,25.93,25.93,0,0,1,2.63,2.37,30.17,30.17,0,0,1,23.11-5.53A25.49,25.49,0,0,1,256.76,65c8.2,6,12.5,16.2,11.67,26.74a21,21,0,0,1,11.26,1.78,21.25,21.25,0,0,1,11.3,13c9.12-7.41,21.47-9.64,32.19-4.69a28.22,28.22,0,0,1,7.19,4.77c9.3,7.82,13.26,20.91,10.06,33.59a28.35,28.35,0,0,1,9.75,2.52c15.17,7,21.27,25.93,13.62,42.24a34.1,34.1,0,0,1-1.92,3.53A18.79,18.79,0,0,1,364,208.38c-4.41,9.41-15.08,13.75-23.82,9.71a15.79,15.79,0,0,1-3.89-2.53,6.38,6.38,0,0,1-.77-.53l.44-.94A16.82,16.82,0,0,1,333.86,196c.27-.58.58-1.14.9-1.68a21.91,21.91,0,0,1-4.19-1.45c-11.25-5.19-16.17-18.67-11.71-31a29.64,29.64,0,0,1-23.71-.35c-10.72-4.95-16.95-15.77-17.1-27.47l-.57-.26a17.28,17.28,0,0,1-12.07-.86,16.77,16.77,0,0,1-6.36-5.11,14.11,14.11,0,0,1-18.12-10.63,25.44,25.44,0,0,1-24.67-11.68l-1.06-.49a26.77,26.77,0,0,1-22.15-.26,26.48,26.48,0,0,1-14.27-16,20.56,20.56,0,0,1-23.52-11.41l-.27-.13a22.55,22.55,0,0,1-17.87-.54,22.1,22.1,0,0,1-10.8-10.49C123.53,60.38,120.23,53,126.69,39.38Z"/><ellipse class="cls-5" cx="170.3" cy="172.79" rx="7.04" ry="6.53" transform="translate(-61.21 245.34) rotate(-62.82)"/><ellipse class="cls-5" cx="166.07" cy="253.33" rx="7.04" ry="6.53" transform="translate(-135.15 285.32) rotate(-62.82)"/><ellipse class="cls-3" cx="172.69" cy="396.89" rx="7.04" ry="6.53" transform="translate(-259.25 369.18) rotate(-62.82)"/><ellipse class="cls-3" cx="249.1" cy="199.01" rx="7.04" ry="6.53" transform="translate(-41.74 329.68) rotate(-62.82)"/><ellipse class="cls-5" cx="165.26" cy="331.02" rx="7.04" ry="6.53" transform="translate(-204.69 326.79) rotate(-62.82)"/><ellipse class="cls-5" cx="69.48" cy="356.96" rx="7.04" ry="6.53" transform="translate(-279.79 255.69) rotate(-62.82)"/><ellipse class="cls-5" cx="79.49" cy="270.91" rx="7.04" ry="6.53" transform="translate(-197.81 217.86) rotate(-62.82)"/><ellipse class="cls-5" cx="108.8" cy="199.89" rx="7.04" ry="6.53" transform="translate(-118.72 205.35) rotate(-62.82)"/><ellipse class="cls-5" cx="148.41" cy="115.46" rx="7.04" ry="6.53" transform="translate(-22.1 194.73) rotate(-62.82)"/><path class="cls-1" d="M29.67,575.13,183.91,646.4a6.6,6.6,0,0,0,8.43-3.12L349.85,354.91,157.73,266.15,26.44,565.59A7.19,7.19,0,0,0,29.67,575.13Z"/><path class="cls-2" d="M39.8,563.34l146.25,67.57a6.25,6.25,0,0,0,8-3L343.38,354.53,161.23,270.37,36.74,554.29A6.82,6.82,0,0,0,39.8,563.34Z"/><path class="cls-3" d="M146.76,256.2c5.14-10.84,20.24-12.61,30.85-7.71a24.88,24.88,0,0,1,14,18.94c.38.11.75.23,1.12.37a25.22,25.22,0,0,1,23.47-1.49,24.13,24.13,0,0,1,11.16,10.58,23.45,23.45,0,0,1,2.28,2.05,26.17,26.17,0,0,1,20-4.79,21.94,21.94,0,0,1,5.7,1.75,21,21,0,0,1,4.16,2.52,26,26,0,0,1,10.12,23.18,18.13,18.13,0,0,1,9.76,1.54,18.42,18.42,0,0,1,9.8,11.28c7.9-6.43,18.61-8.36,27.9-4.07a25,25,0,0,1,6.24,4.13c8.05,6.79,11.49,18.13,8.71,29.12a24.57,24.57,0,0,1,8.45,2.19c13.16,6.08,18.44,22.47,11.81,36.61a29.82,29.82,0,0,1-1.66,3.06,16.29,16.29,0,0,1,1.81,17.24c-3.82,8.15-13.07,11.92-20.65,8.41a13.77,13.77,0,0,1-3.37-2.19,5.92,5.92,0,0,1-.67-.46l.38-.82A14.56,14.56,0,0,1,326.35,392c.24-.51.5-1,.78-1.46a19.12,19.12,0,0,1-3.64-1.25c-9.74-4.51-14-16.19-10.14-26.84a25.72,25.72,0,0,1-20.56-.29c-9.29-4.3-14.69-13.68-14.82-23.82l-.49-.22a15.06,15.06,0,0,1-10.47-.75,14.57,14.57,0,0,1-5.51-4.43,12.21,12.21,0,0,1-15.7-9.21,22.37,22.37,0,0,1-12-1.87,22.08,22.08,0,0,1-9.39-8.26l-.92-.43a23.4,23.4,0,0,1-31.57-14.1,17.68,17.68,0,0,1-11.69-1.16,17.49,17.49,0,0,1-8.7-8.74l-.24-.11a19.53,19.53,0,0,1-15.48-.46,19.17,19.17,0,0,1-9.37-9.1C144,274.4,141.17,268,146.76,256.2Z"/><polygon class="cls-4" points="143.11 611.07 171.38 624.13 304.61 377.61 261.88 357.86 143.11 611.07"/><path class="cls-3" d="M135.58,280c5.14-10.84,20.24-12.61,30.85-7.71a24.92,24.92,0,0,1,14,18.94c.38.11.75.23,1.12.37A25.27,25.27,0,0,1,205,290.14a24.23,24.23,0,0,1,11.16,10.58,23.54,23.54,0,0,1,2.28,2.06,26.13,26.13,0,0,1,20-4.79,21.91,21.91,0,0,1,5.7,1.74,22.26,22.26,0,0,1,4.16,2.52,26,26,0,0,1,10.12,23.18,18.13,18.13,0,0,1,9.76,1.54,18.42,18.42,0,0,1,9.8,11.28c7.9-6.42,18.61-8.36,27.9-4.07a25,25,0,0,1,6.24,4.14c8.05,6.78,11.49,18.12,8.71,29.11a24.57,24.57,0,0,1,8.45,2.19c13.16,6.08,18.44,22.47,11.81,36.62a32.07,32.07,0,0,1-1.66,3.06,16.27,16.27,0,0,1,1.81,17.23c-3.82,8.15-13.07,11.92-20.65,8.42a14.1,14.1,0,0,1-3.37-2.2,5.92,5.92,0,0,1-.67-.46l.38-.81a14.58,14.58,0,0,1-1.79-15.66c.24-.5.5-1,.78-1.46a19.12,19.12,0,0,1-3.64-1.25c-9.74-4.5-14-16.19-10.14-26.83a25.68,25.68,0,0,1-20.56-.3c-9.29-4.29-14.69-13.67-14.82-23.81l-.49-.23a15,15,0,0,1-10.47-.75,14.57,14.57,0,0,1-5.51-4.43,12.21,12.21,0,0,1-15.7-9.21,22.28,22.28,0,0,1-12-1.87,22,22,0,0,1-9.39-8.26l-.92-.42a23.24,23.24,0,0,1-19.2-.22,23,23,0,0,1-12.37-13.89,17.73,17.73,0,0,1-11.69-1.15,17.55,17.55,0,0,1-8.7-8.75l-.24-.11a19.53,19.53,0,0,1-15.48-.46,19.17,19.17,0,0,1-9.37-9.1C132.85,298.23,130,291.85,135.58,280Z"/><ellipse class="cls-5" cx="173.39" cy="395.68" rx="6.11" ry="5.66" transform="translate(-257.8 369.15) rotate(-62.82)"/><ellipse class="cls-5" cx="169.72" cy="465.49" rx="6.11" ry="5.66" transform="translate(-321.89 403.81) rotate(-62.82)"/><ellipse class="cls-3" cx="175.46" cy="589.93" rx="6.11" ry="5.66" transform="translate(-429.47 476.5) rotate(-62.82)"/><ellipse class="cls-3" cx="241.69" cy="418.41" rx="6.11" ry="5.66" transform="translate(-240.92 442.25) rotate(-62.82)"/><ellipse class="cls-5" cx="169.02" cy="532.83" rx="6.11" ry="5.66" transform="translate(-382.18 439.75) rotate(-62.82)"/><ellipse class="cls-5" cx="85.99" cy="555.32" rx="6.11" ry="5.66" transform="translate(-447.28 378.12) rotate(-62.82)"/><ellipse class="cls-5" cx="94.67" cy="480.73" rx="6.11" ry="5.66" transform="translate(-376.21 345.32) rotate(-62.82)"/><ellipse class="cls-5" cx="120.08" cy="419.17" rx="6.11" ry="5.66" transform="translate(-307.65 334.49) rotate(-62.82)"/><ellipse class="cls-5" cx="154.41" cy="345.98" rx="6.11" ry="5.66" transform="translate(-223.9 325.27) rotate(-62.82)"/><path class="cls-1" d="M19.47,777.49l134.28,62a5.72,5.72,0,0,0,7.33-2.71l137.12-251L131,508.5,16.66,769.18A6.27,6.27,0,0,0,19.47,777.49Z"/><path class="cls-2" d="M28.29,767.22,155.61,826a5.43,5.43,0,0,0,6.95-2.57l130-238L134,512.18,25.63,759.34A5.94,5.94,0,0,0,28.29,767.22Z"/><path class="cls-3" d="M121.41,499.84c4.46-9.44,17.61-11,26.85-6.71a21.67,21.67,0,0,1,12.17,16.49c.33.09.65.2,1,.32a22,22,0,0,1,20.43-1.3,21,21,0,0,1,9.72,9.21,21.3,21.3,0,0,1,2,1.79A22.8,22.8,0,0,1,211,515.47a19.14,19.14,0,0,1,8.58,3.71,22.68,22.68,0,0,1,8.81,20.18,15.81,15.81,0,0,1,17,11.16c6.88-5.59,16.2-7.27,24.29-3.54a21.39,21.39,0,0,1,5.43,3.6c7,5.91,10,15.78,7.59,25.35a21.59,21.59,0,0,1,7.36,1.9c11.45,5.3,16.05,19.57,10.27,31.88a26,26,0,0,1-1.44,2.66,14.16,14.16,0,0,1,1.57,15c-3.32,7.1-11.37,10.38-18,7.33a12.19,12.19,0,0,1-2.94-1.91,5.48,5.48,0,0,1-.58-.4l.33-.71a12.7,12.7,0,0,1-1.56-13.63c.21-.44.44-.86.68-1.27a16.2,16.2,0,0,1-3.16-1.09c-8.49-3.92-12.2-14.09-8.84-23.36a22.33,22.33,0,0,1-17.89-.26c-8.09-3.73-12.79-11.9-12.91-20.73l-.42-.19a13.12,13.12,0,0,1-9.11-.65,12.68,12.68,0,0,1-4.8-3.86,10.63,10.63,0,0,1-13.67-8A19.2,19.2,0,0,1,189,549.8l-.8-.37a20.19,20.19,0,0,1-16.71-.19,20,20,0,0,1-10.77-12.09,15.4,15.4,0,0,1-10.18-1,15.23,15.23,0,0,1-7.57-7.61l-.21-.1a17,17,0,0,1-13.48-.4,16.67,16.67,0,0,1-8.15-7.92C119,515.69,116.54,510.13,121.41,499.84Z"/><polygon class="cls-4" points="118.22 808.77 142.84 820.14 258.82 605.53 221.62 588.35 118.22 808.77"/><path class="cls-3" d="M111.67,520.59c4.47-9.44,17.62-11,26.86-6.71a21.67,21.67,0,0,1,12.17,16.49c.33.09.65.2,1,.32a21.94,21.94,0,0,1,20.43-1.3,21,21,0,0,1,9.72,9.21,20,20,0,0,1,2,1.79,22.77,22.77,0,0,1,17.44-4.17,19.64,19.64,0,0,1,5,1.52,19.37,19.37,0,0,1,3.62,2.19,22.68,22.68,0,0,1,8.81,20.18,15.79,15.79,0,0,1,8.49,1.34,16,16,0,0,1,8.53,9.82c6.88-5.59,16.2-7.28,24.29-3.54a21.56,21.56,0,0,1,5.43,3.6c7,5.9,10,15.78,7.58,25.35a21.25,21.25,0,0,1,7.36,1.9c11.46,5.29,16.06,19.56,10.28,31.88a27.14,27.14,0,0,1-1.44,2.66,14.18,14.18,0,0,1,1.57,15c-3.33,7.1-11.38,10.38-18,7.33a11.94,11.94,0,0,1-2.93-1.91,5.48,5.48,0,0,1-.58-.4l.33-.71A12.68,12.68,0,0,1,268,638.8a14,14,0,0,1,.68-1.27,16.2,16.2,0,0,1-3.16-1.09c-8.49-3.92-12.2-14.09-8.84-23.36a22.37,22.37,0,0,1-17.89-.26c-8.09-3.74-12.79-11.9-12.91-20.73l-.42-.19a13.09,13.09,0,0,1-9.12-.66,12.81,12.81,0,0,1-4.8-3.85,10.62,10.62,0,0,1-13.66-8,19.41,19.41,0,0,1-10.45-1.63,19.19,19.19,0,0,1-8.17-7.19l-.81-.37a20.17,20.17,0,0,1-16.7-.19A20,20,0,0,1,151,557.9a15.46,15.46,0,0,1-10.18-1,15.27,15.27,0,0,1-7.57-7.61l-.21-.1a17,17,0,0,1-13.48-.4,16.78,16.78,0,0,1-8.16-7.92C109.29,536.43,106.8,530.88,111.67,520.59Z"/><ellipse class="cls-5" cx="144.59" cy="621.27" rx="5.31" ry="4.93" transform="translate(-474.11 466.06) rotate(-62.82)"/><ellipse class="cls-5" cx="141.39" cy="682.04" rx="5.31" ry="4.93" transform="translate(-529.91 496.23) rotate(-62.82)"/><ellipse class="cls-3" cx="146.39" cy="790.37" rx="5.31" ry="4.93" transform="translate(-623.56 559.5) rotate(-62.82)"/><ellipse class="cls-3" cx="204.05" cy="641.05" rx="5.31" ry="4.93" transform="translate(-459.42 529.69) rotate(-62.82)"/><ellipse class="cls-5" cx="140.78" cy="740.66" rx="5.31" ry="4.93" transform="translate(-582.39 527.52) rotate(-62.82)"/><ellipse class="cls-5" cx="68.51" cy="760.24" rx="5.31" ry="4.93" transform="translate(-639.06 473.86) rotate(-62.82)"/><ellipse class="cls-5" cx="76.06" cy="695.3" rx="5.31" ry="4.93" transform="translate(-577.19 445.31) rotate(-62.82)"/><ellipse class="cls-5" cx="98.18" cy="641.71" rx="5.31" ry="4.93" transform="translate(-517.51 435.88) rotate(-62.82)"/><ellipse class="cls-5" cx="128.06" cy="578" rx="5.31" ry="4.93" transform="translate(-444.6 427.86) rotate(-62.82)"/></g></g></svg>