<svg xmlns="http://www.w3.org/2000/svg" width="380" height="840" viewBox="0 0 380 840"><defs><style>.cls-1{fill:#e5e5e5;}.cls-2{fill:#f5c408;}.cls-3{fill:#fff;}.cls-4{fill:#f5d660;}.cls-5{fill:#f5e9ba;}</style></defs><g id="Assets"><g id="Fadøl_Venstre" data-name="Fadøl Venstre"><path class="cls-1" d="M375.5,379.82,197.56,462a7.59,7.59,0,0,1-9.72-3.6L6.13,125.76,227.76,23.36,379.22,368.8C381.11,373.11,379.46,378,375.5,379.82Z"/><path class="cls-2" d="M363.81,366.21l-168.71,78a7.22,7.22,0,0,1-9.22-3.41L13.59,125.32,223.73,28.23,367.34,355.77A7.87,7.87,0,0,1,363.81,366.21Z"/><path class="cls-3" d="M240.42,11.89C234.49-.62,217.07-2.66,204.83,3A28.73,28.73,0,0,0,188.7,24.84c-.43.13-.86.27-1.29.43a29.1,29.1,0,0,0-27.07-1.72,27.76,27.76,0,0,0-12.88,12.21,24.7,24.7,0,0,0-2.63,2.36,30.19,30.19,0,0,0-23.11-5.52,25.59,25.59,0,0,0-6.58,2,24.88,24.88,0,0,0-4.79,2.91c-8.21,6-12.5,16.2-11.68,26.74A20.94,20.94,0,0,0,87.41,66a21.29,21.29,0,0,0-11.3,13C67,71.64,54.64,69.4,43.93,74.35a28.63,28.63,0,0,0-7.2,4.77C27.44,87,23.47,100,26.68,112.71a28.65,28.65,0,0,0-9.76,2.53c-15.17,7-21.27,25.92-13.62,42.24A37.3,37.3,0,0,0,5.22,161a18.79,18.79,0,0,0-2.09,19.88c4.41,9.4,15.08,13.75,23.82,9.71a16.19,16.19,0,0,0,3.89-2.53,8.33,8.33,0,0,0,.77-.53l-.44-.95a16.78,16.78,0,0,0,2.07-18.06,16.88,16.88,0,0,0-.9-1.68,21.64,21.64,0,0,0,4.19-1.44c11.25-5.2,16.17-18.68,11.71-31A29.63,29.63,0,0,0,72,134.11c10.71-5,16.94-15.77,17.1-27.47l.56-.26a17.28,17.28,0,0,0,12.07-.87,16.87,16.87,0,0,0,6.37-5.1,14.1,14.1,0,0,0,18.11-10.63,25.42,25.42,0,0,0,24.67-11.69l1.07-.49a26.75,26.75,0,0,0,22.14-.25,26.47,26.47,0,0,0,14.27-16A20.5,20.5,0,0,0,201.81,60a20.18,20.18,0,0,0,10-10.09l.28-.13A22.48,22.48,0,0,0,230,49.25a22.13,22.13,0,0,0,10.81-10.49C243.57,32.88,246.87,25.52,240.42,11.89Z"/><polygon class="cls-4" points="244.63 421.27 212.02 436.34 58.32 151.94 107.61 129.17 244.63 421.27"/><path class="cls-3" d="M253.31,39.38c-5.92-12.51-23.34-14.55-35.58-8.9A28.77,28.77,0,0,0,201.6,52.34q-.65.18-1.29.42A29.11,29.11,0,0,0,173.24,51a27.86,27.86,0,0,0-12.88,12.21,25.93,25.93,0,0,0-2.63,2.37,30.17,30.17,0,0,0-23.11-5.53A25.49,25.49,0,0,0,123.24,65c-8.2,6-12.5,16.2-11.67,26.74a21,21,0,0,0-11.26,1.78,21.25,21.25,0,0,0-11.3,13c-9.12-7.41-21.47-9.64-32.19-4.69a28.22,28.22,0,0,0-7.19,4.77c-9.3,7.82-13.26,20.91-10.06,33.59a28.35,28.35,0,0,0-9.75,2.52c-15.17,7-21.27,25.93-13.62,42.24a34.1,34.1,0,0,0,1.92,3.53A18.79,18.79,0,0,0,16,208.38c4.41,9.41,15.08,13.75,23.82,9.71a15.79,15.79,0,0,0,3.89-2.53,6.38,6.38,0,0,0,.77-.53l-.44-.94A16.82,16.82,0,0,0,46.14,196c-.27-.58-.58-1.14-.9-1.68a21.91,21.91,0,0,0,4.19-1.45c11.25-5.19,16.17-18.67,11.71-31a29.64,29.64,0,0,0,23.71-.35c10.72-4.95,17-15.77,17.1-27.47l.57-.26a17.28,17.28,0,0,0,12.07-.86A16.77,16.77,0,0,0,121,127.9a14.11,14.11,0,0,0,18.12-10.63,25.44,25.44,0,0,0,24.67-11.68l1.06-.49a26.77,26.77,0,0,0,22.15-.26,26.48,26.48,0,0,0,14.27-16,20.56,20.56,0,0,0,23.52-11.41l.27-.13a22.55,22.55,0,0,0,17.87-.54,22.1,22.1,0,0,0,10.8-10.49C256.47,60.38,259.77,53,253.31,39.38Z"/><ellipse class="cls-5" cx="209.7" cy="172.79" rx="6.53" ry="7.04" transform="translate(-55.78 114.89) rotate(-27.18)"/><ellipse class="cls-5" cx="213.93" cy="253.33" rx="6.53" ry="7.04" transform="translate(-92.11 125.72) rotate(-27.18)"/><ellipse class="cls-3" cx="207.31" cy="396.89" rx="6.53" ry="7.04" transform="translate(-158.42 138.55) rotate(-27.18)"/><ellipse class="cls-3" cx="130.9" cy="199.01" rx="6.53" ry="7.04" transform="translate(-76.46 81.79) rotate(-27.18)"/><ellipse class="cls-5" cx="214.74" cy="331.02" rx="6.53" ry="7.04" transform="translate(-127.5 134.67) rotate(-27.18)"/><ellipse class="cls-5" cx="310.52" cy="356.96" rx="6.53" ry="7.04" transform="translate(-128.78 181.29) rotate(-27.18)"/><ellipse class="cls-5" cx="300.51" cy="270.91" rx="6.53" ry="7.04" transform="translate(-90.57 167.21) rotate(-27.18)"/><ellipse class="cls-5" cx="271.2" cy="199.89" rx="6.53" ry="7.04" transform="translate(-61.36 145.98) rotate(-27.18)"/><ellipse class="cls-5" cx="231.59" cy="115.46" rx="6.53" ry="7.04" transform="translate(-27.17 118.56) rotate(-27.18)"/><path class="cls-1" d="M350.33,575.13,196.09,646.4a6.6,6.6,0,0,1-8.43-3.12L30.15,354.91l192.12-88.76L353.56,565.59A7.19,7.19,0,0,1,350.33,575.13Z"/><path class="cls-2" d="M340.2,563.34,194,630.91a6.25,6.25,0,0,1-8-3L36.62,354.53l182.15-84.16L343.26,554.29A6.82,6.82,0,0,1,340.2,563.34Z"/><path class="cls-3" d="M233.24,256.2c-5.14-10.84-20.24-12.61-30.85-7.71a24.88,24.88,0,0,0-14,18.94c-.38.11-.75.23-1.12.37a25.22,25.22,0,0,0-23.47-1.49,24.13,24.13,0,0,0-11.16,10.58,23.45,23.45,0,0,0-2.28,2.05,26.17,26.17,0,0,0-20-4.79,21.94,21.94,0,0,0-5.7,1.75,21,21,0,0,0-4.16,2.52,26,26,0,0,0-10.12,23.18,18.13,18.13,0,0,0-9.76,1.54,18.42,18.42,0,0,0-9.8,11.28c-7.9-6.43-18.61-8.36-27.9-4.07a25,25,0,0,0-6.24,4.13c-8.05,6.79-11.49,18.13-8.71,29.12a24.57,24.57,0,0,0-8.45,2.19c-13.16,6.08-18.44,22.47-11.81,36.61a29.82,29.82,0,0,0,1.66,3.06,16.29,16.29,0,0,0-1.81,17.24c3.82,8.15,13.07,11.92,20.65,8.41a13.77,13.77,0,0,0,3.37-2.19,5.92,5.92,0,0,0,.67-.46l-.38-.82A14.56,14.56,0,0,0,53.65,392c-.24-.51-.5-1-.78-1.46a19.12,19.12,0,0,0,3.64-1.25c9.74-4.51,14-16.19,10.14-26.84a25.72,25.72,0,0,0,20.56-.29c9.29-4.3,14.69-13.68,14.82-23.82l.49-.22a15.06,15.06,0,0,0,10.47-.75,14.57,14.57,0,0,0,5.51-4.43,12.21,12.21,0,0,0,15.7-9.21,22.37,22.37,0,0,0,12-1.87,22.08,22.08,0,0,0,9.39-8.26l.92-.43a23.4,23.4,0,0,0,31.57-14.1,17.68,17.68,0,0,0,11.69-1.16,17.49,17.49,0,0,0,8.7-8.74l.24-.11a19.53,19.53,0,0,0,15.48-.46,19.17,19.17,0,0,0,9.37-9.1C236,274.4,238.83,268,233.24,256.2Z"/><polygon class="cls-4" points="236.89 611.07 208.62 624.13 75.39 377.61 118.12 357.86 236.89 611.07"/><path class="cls-3" d="M244.42,280c-5.14-10.84-20.24-12.61-30.85-7.71a24.92,24.92,0,0,0-14,18.94c-.38.11-.75.23-1.12.37A25.27,25.27,0,0,0,175,290.14a24.23,24.23,0,0,0-11.16,10.58,23.54,23.54,0,0,0-2.28,2.06,26.13,26.13,0,0,0-20-4.79,21.91,21.91,0,0,0-5.7,1.74,22.26,22.26,0,0,0-4.16,2.52,26,26,0,0,0-10.12,23.18,18.13,18.13,0,0,0-9.76,1.54,18.42,18.42,0,0,0-9.8,11.28c-7.9-6.42-18.61-8.36-27.9-4.07a25,25,0,0,0-6.24,4.14c-8,6.78-11.49,18.12-8.71,29.11a24.57,24.57,0,0,0-8.45,2.19c-13.16,6.08-18.44,22.47-11.81,36.62a32.07,32.07,0,0,0,1.66,3.06,16.27,16.27,0,0,0-1.81,17.23c3.82,8.15,13.07,11.92,20.65,8.42a14.1,14.1,0,0,0,3.37-2.2,5.92,5.92,0,0,0,.67-.46l-.38-.81a14.58,14.58,0,0,0,1.79-15.66c-.24-.5-.5-1-.78-1.46a19.12,19.12,0,0,0,3.64-1.25c9.74-4.5,14-16.19,10.14-26.83a25.68,25.68,0,0,0,20.56-.3c9.29-4.29,14.69-13.67,14.82-23.81l.49-.23a15,15,0,0,0,10.47-.75,14.57,14.57,0,0,0,5.51-4.43,12.21,12.21,0,0,0,15.7-9.21,22.28,22.28,0,0,0,12-1.87,22,22,0,0,0,9.39-8.26l.92-.42a23.24,23.24,0,0,0,19.2-.22,23,23,0,0,0,12.37-13.89A17.73,17.73,0,0,0,211,321.74a17.55,17.55,0,0,0,8.7-8.75l.24-.11a19.53,19.53,0,0,0,15.48-.46,19.17,19.17,0,0,0,9.37-9.1C247.15,298.23,250,291.85,244.42,280Z"/><ellipse class="cls-5" cx="206.61" cy="395.68" rx="5.66" ry="6.11" transform="translate(-157.95 138.1) rotate(-27.18)"/><ellipse class="cls-5" cx="210.28" cy="465.49" rx="5.66" ry="6.11" transform="translate(-189.44 147.48) rotate(-27.18)"/><ellipse class="cls-3" cx="204.54" cy="589.93" rx="5.66" ry="6.11" transform="translate(-246.92 158.61) rotate(-27.18)"/><ellipse class="cls-3" cx="138.31" cy="418.41" rx="5.66" ry="6.11" transform="translate(-175.87 109.4) rotate(-27.18)"/><ellipse class="cls-5" cx="210.98" cy="532.83" rx="5.66" ry="6.11" transform="translate(-220.12 155.24) rotate(-27.18)"/><ellipse class="cls-5" cx="294.01" cy="555.32" rx="5.66" ry="6.11" transform="translate(-221.22 195.66) rotate(-27.18)"/><ellipse class="cls-5" cx="285.33" cy="480.73" rx="5.66" ry="6.11" transform="translate(-188.11 183.45) rotate(-27.18)"/><ellipse class="cls-5" cx="259.92" cy="419.17" rx="5.66" ry="6.11" transform="translate(-162.79 165.05) rotate(-27.18)"/><ellipse class="cls-5" cx="225.59" cy="345.98" rx="5.66" ry="6.11" transform="translate(-133.14 141.28) rotate(-27.18)"/><path class="cls-1" d="M360.53,777.49l-134.28,62a5.72,5.72,0,0,1-7.33-2.71L81.8,585.77,249,508.5l114.3,260.68A6.27,6.27,0,0,1,360.53,777.49Z"/><path class="cls-2" d="M351.71,767.22,224.39,826a5.43,5.43,0,0,1-6.95-2.57l-130-238L246,512.18,354.37,759.34A5.94,5.94,0,0,1,351.71,767.22Z"/><path class="cls-3" d="M258.59,499.84c-4.46-9.44-17.61-11-26.85-6.71a21.67,21.67,0,0,0-12.17,16.49c-.33.09-.65.2-1,.32a22,22,0,0,0-20.43-1.3,21,21,0,0,0-9.72,9.21,21.3,21.3,0,0,0-2,1.79A22.8,22.8,0,0,0,169,515.47a19.14,19.14,0,0,0-8.58,3.71,22.68,22.68,0,0,0-8.81,20.18,15.81,15.81,0,0,0-17,11.16c-6.88-5.59-16.2-7.27-24.29-3.54a21.39,21.39,0,0,0-5.43,3.6c-7,5.91-10,15.78-7.59,25.35a21.59,21.59,0,0,0-7.36,1.9c-11.45,5.3-16,19.57-10.27,31.88a26,26,0,0,0,1.44,2.66,14.16,14.16,0,0,0-1.57,15c3.32,7.1,11.37,10.38,18,7.33a12.19,12.19,0,0,0,2.94-1.91,5.48,5.48,0,0,0,.58-.4l-.33-.71a12.7,12.7,0,0,0,1.56-13.63c-.21-.44-.44-.86-.68-1.27a16.2,16.2,0,0,0,3.16-1.09c8.49-3.92,12.2-14.09,8.84-23.36a22.33,22.33,0,0,0,17.89-.26c8.09-3.73,12.79-11.9,12.91-20.73l.42-.19a13.12,13.12,0,0,0,9.11-.65,12.68,12.68,0,0,0,4.8-3.86,10.63,10.63,0,0,0,13.67-8A19.2,19.2,0,0,0,191,549.8l.8-.37a20.19,20.19,0,0,0,16.71-.19,20,20,0,0,0,10.77-12.09,15.4,15.4,0,0,0,10.18-1,15.23,15.23,0,0,0,7.57-7.61l.21-.1a17,17,0,0,0,13.48-.4,16.67,16.67,0,0,0,8.15-7.92C261,515.69,263.46,510.13,258.59,499.84Z"/><polygon class="cls-4" points="261.78 808.77 237.16 820.14 121.18 605.53 158.38 588.35 261.78 808.77"/><path class="cls-3" d="M268.33,520.59c-4.47-9.44-17.62-11-26.86-6.71a21.67,21.67,0,0,0-12.17,16.49c-.33.09-.65.2-1,.32a21.94,21.94,0,0,0-20.43-1.3,21,21,0,0,0-9.72,9.21,20,20,0,0,0-2,1.79,22.77,22.77,0,0,0-17.44-4.17,19.64,19.64,0,0,0-5,1.52,19.37,19.37,0,0,0-3.62,2.19,22.68,22.68,0,0,0-8.81,20.18,15.79,15.79,0,0,0-8.49,1.34,16,16,0,0,0-8.53,9.82c-6.88-5.59-16.2-7.28-24.29-3.54a21.56,21.56,0,0,0-5.43,3.6c-7,5.9-10,15.78-7.58,25.35a21.25,21.25,0,0,0-7.36,1.9c-11.46,5.29-16.06,19.56-10.28,31.88a27.14,27.14,0,0,0,1.44,2.66,14.18,14.18,0,0,0-1.57,15c3.33,7.1,11.38,10.38,18,7.33a11.94,11.94,0,0,0,2.93-1.91,5.48,5.48,0,0,0,.58-.4l-.33-.71A12.68,12.68,0,0,0,112,638.8a14,14,0,0,0-.68-1.27,16.2,16.2,0,0,0,3.16-1.09c8.49-3.92,12.2-14.09,8.84-23.36a22.37,22.37,0,0,0,17.89-.26c8.09-3.74,12.79-11.9,12.91-20.73l.42-.19a13.09,13.09,0,0,0,9.12-.66,12.81,12.81,0,0,0,4.8-3.85,10.62,10.62,0,0,0,13.66-8,19.41,19.41,0,0,0,10.45-1.63,19.19,19.19,0,0,0,8.17-7.19l.81-.37a20.17,20.17,0,0,0,16.7-.19A20,20,0,0,0,229,557.9a15.46,15.46,0,0,0,10.18-1,15.27,15.27,0,0,0,7.57-7.61l.21-.1a17,17,0,0,0,13.48-.4,16.78,16.78,0,0,0,8.16-7.92C270.71,536.43,273.2,530.88,268.33,520.59Z"/><ellipse class="cls-5" cx="235.41" cy="621.27" rx="4.93" ry="5.31" transform="translate(-257.82 176.17) rotate(-27.18)"/><ellipse class="cls-5" cx="238.61" cy="682.04" rx="4.93" ry="5.31" transform="translate(-285.24 184.34) rotate(-27.18)"/><ellipse class="cls-3" cx="233.61" cy="790.37" rx="4.93" ry="5.31" transform="translate(-335.28 194.03) rotate(-27.18)"/><ellipse class="cls-3" cx="175.95" cy="641.05" rx="4.93" ry="5.31" transform="translate(-273.43 151.19) rotate(-27.18)"/><ellipse class="cls-5" cx="239.22" cy="740.66" rx="4.93" ry="5.31" transform="translate(-311.95 191.1) rotate(-27.18)"/><ellipse class="cls-5" cx="311.49" cy="760.24" rx="4.93" ry="5.31" transform="translate(-312.91 226.28) rotate(-27.18)"/><ellipse class="cls-5" cx="303.94" cy="695.3" rx="4.93" ry="5.31" transform="translate(-284.08 215.66) rotate(-27.18)"/><ellipse class="cls-5" cx="281.82" cy="641.71" rx="4.93" ry="5.31" transform="translate(-262.04 199.63) rotate(-27.18)"/><ellipse class="cls-5" cx="251.94" cy="578" rx="4.93" ry="5.31" transform="translate(-236.23 178.94) rotate(-27.18)"/></g></g></svg>