<svg xmlns="http://www.w3.org/2000/svg" width="1290" height="218.42" viewBox="0 0 1290 218.42"><defs><style>.cls-1{fill:#bc0000;}.cls-2{fill:#fff;}</style></defs><g id="Assets"><g id="Dannebrog"><path class="cls-1" d="M1274.29,60.23l-44.45,7.05,15.69,98.22,44.47-7.06Q1282.14,109.35,1274.29,60.23Z"/><path class="cls-1" d="M1177.58,75.58l-1.24-7.76,44.48-7.06-8.38-52.47,7.77-1.23,8.39,52.47,44.45-7.06q-4.18-26.24-8.36-52.47L1168,15.35q12.63,79.23,25.31,158.45l44.48-7.06-15.69-98.22Z"/><path class="cls-2" d="M1274.29,60.23h0l-1.24-7.75h0l-44.45,7.06-8.39-52.47-7.77,1.23,8.38,52.47-44.48,7.06,1.24,7.76,44.48-7.06,15.69,98.22,7.78-1.24-15.69-98.22Z"/><path class="cls-1" d="M1087.56,102.93l-45-2.12-4.72,99.35,45,2.12Q1085.2,152.6,1087.56,102.93Z"/><path class="cls-1" d="M989.74,98.32l.37-7.85,45,2.13,2.52-53.08,7.87.38L1043,93l45,2.12q1.26-26.53,2.54-53.07L992.63,37.4q-3.82,80.13-7.61,160.26l45,2.13,4.72-99.35Z"/><path class="cls-2" d="M1087.56,102.93h0l.38-7.84h0L1043,93l2.52-53.07-7.87-.38-2.52,53.08-45-2.13-.37,7.85,45,2.12L1030,199.79l7.87.37,4.72-99.35Z"/><path class="cls-1" d="M907.35,119.1l-45-2.39L857.08,216l45,2.4Q904.69,168.76,907.35,119.1Z"/><path class="cls-1" d="M809.56,113.89l.42-7.84,45,2.4,2.85-53.06,7.86.42-2.84,53.05,44.95,2.4q1.43-26.54,2.86-53.06L812.83,53q-4.32,80.1-8.59,160.21l45,2.39,5.32-99.31Z"/><path class="cls-2" d="M907.35,119.1h0l.42-7.84h0l-44.95-2.4,2.84-53-7.86-.42L855,108.45l-45-2.4-.42,7.84,45,2.4-5.32,99.31,7.87.42,5.32-99.31Z"/><path class="cls-1" d="M710.08,88.68l-45-2.39-5.33,99.32,45,2.39Q707.43,138.33,710.08,88.68Z"/><path class="cls-1" d="M612.29,83.48l.42-7.85,45,2.4L660.53,25l7.86.42-2.84,53.06,45,2.39q1.43-26.52,2.86-53l-97.8-5.21q-4.32,80.1-8.59,160.21l45,2.4,5.32-99.32Z"/><path class="cls-2" d="M710.08,88.68h0l.42-7.84h0l-45-2.39,2.84-53.06L660.53,25,657.68,78l-45-2.4-.42,7.85,45,2.39-5.32,99.32,7.86.42,5.33-99.32Z"/><path class="cls-1" d="M526.77,96.26l-44.95-2.4-5.32,99.32,45,2.4Q524.11,145.92,526.77,96.26Z"/><path class="cls-1" d="M429,91.05l.42-7.84,45,2.4,2.85-53.06,7.86.42L482.24,86l45,2.4q1.42-26.53,2.86-53.06l-97.8-5.21q-4.32,80.12-8.59,160.22l45,2.39L474,93.45Z"/><path class="cls-2" d="M526.77,96.26h0l.42-7.84h0l-45-2.4,2.84-53-7.86-.42-2.85,53.06-45-2.4L429,91.05l45,2.4-5.32,99.31,7.87.42,5.32-99.32Z"/><path class="cls-1" d="M327.28,89.08l-44.95,2.44,5.44,99.31,45-2.45Q330,138.73,327.28,89.08Z"/><path class="cls-1" d="M229.49,94.4l-.43-7.84,45-2.45-2.91-53,7.87-.43,2.91,53.05,45-2.44Q325.4,54.71,324,28.18l-97.8,5.33q4.36,80.1,8.78,160.2l45-2.45L274.46,92Z"/><path class="cls-2" d="M327.28,89.08h0l-.43-7.85h0l-45,2.44L279,30.63l-7.87.43L274,84.11l-45,2.45.43,7.84,45-2.45,5.45,99.31,7.86-.43-5.44-99.31Z"/><path class="cls-1" d="M124.47,91.06l-42.7-14.2L50.19,171.2l42.72,14.21Z"/><path class="cls-1" d="M31.58,60.17l2.49-7.45L76.79,66.93l16.87-50.4L101.13,19,84.26,69.41,127,83.61q8.43-25.2,16.88-50.39L50.94,2.32Q25.44,78.41,0,154.51l42.72,14.21L74.3,74.37Z"/><path class="cls-2" d="M124.47,91.06h0L127,83.62h0L84.26,69.41,101.13,19l-7.47-2.48L76.79,66.93,34.07,52.72l-2.49,7.45L74.3,74.37,42.72,168.72l7.47,2.48L81.77,76.86Z"/></g></g></svg>