<svg xmlns="http://www.w3.org/2000/svg" width="1220" height="210.07" viewBox="0 0 1220 210.07"><defs><style>.cls-1{fill:#4d4d4d;}.cls-2{fill:#999;}</style></defs><g id="Assets"><g id="BG_Game_over" data-name="BG Game over"><path class="cls-1" d="M142.62,119.68c-12.51-4.54-27.34-4.74-39.09-.23C86.14,126.12,64.15,144.1,81.23,165c14.48,17.69,41.18,25.43,63.3,23.66,9.66-.77,17.25-2.86,23.57-10.69l-9.9-19.38Q142,161.2,125.73,164l-9.89-16.33q27.58-6.46,55.29-12.32,11.35,24.74,22.72,49.47c-6.26,16.85-23.82,20.61-39.07,21.13-31.2,1.05-74.38-10.85-96.87-35.68-26.36-29.09,11.08-57,35.54-67.8,17.63-7.8,39.77-8.13,58.05-.9C147.87,109,146.1,112.65,142.62,119.68Z"/><path class="cls-1" d="M300.37,174q-32.78,1.88-65.53,4.06c-.54,10.25-.78,15.24-1.15,25l-25.06.2c.86-46.29,3.63-92.44,7.54-138.57q14-4,28.13-7.73c37.06,45.87,69.77,94.56,99.63,145.37l-25.24.15Q309.66,188.09,300.37,174ZM239.89,90.49q-2.43,31.58-4.11,63.18,23.72-2.8,47.47-5.28C269.36,128.63,255,109.36,239.89,90.49Z"/><path class="cls-1" d="M443.44,70.08q-16.59,40.22-32,80.87l-4.74.25c-17.58-24.25-35.93-47.75-55.32-70.57l24.51,121.7-23.14.11Q334.4,121.31,316,40.17q15-3.16,30.13-6c19.49,21.94,37.95,44.59,55.66,68q15.27-41,31.73-81.51,15.1-1.87,30.27-3.41,9.44,92.34,18.85,184.69l-23.14.06Q451.48,136,443.44,70.08Z"/><path class="cls-1" d="M596,201.53q-45.94,0-91.91.11-7.86-93.46-15.73-186.92Q541,10.48,593.86,9.66l.39,35.08q-38.7.51-77.32,2.52Q518.36,69,519.77,90.7q36.15-1.41,72.29-1.8l.43,33.7q-35.28.29-70.55,1.29,1.41,21.31,2.79,42.63,35.43-.5,70.84-.62Z"/><path class="cls-1" d="M781.59,112.58c-5.35,38.52-28.56,93.23-74.92,93.34-48.51.11-61.31-61.1-60.32-98.73C647.49,64,669.15,6,721.72,10.13,772.16,14.13,787.47,70.22,781.59,112.58Zm-110.78-4.37c-.64,24.38,7.14,64.37,38.35,65.25,30.51.86,44.93-37.31,48-61.93,3.22-26.11-4.62-67.55-37.88-69.22C685.48,40.62,671.52,80.83,670.81,108.21Z"/><path class="cls-1" d="M847.86,202.82l-24-.09q-10.7-90.91-27-181,14.82,1.92,29.59,4.19,9.81,69.16,16.65,138.67c20.81-42,43.14-83.16,67.42-123.29q14.64,3.1,29.2,6.57C905.72,97.55,875.47,149.34,847.86,202.82Z"/><path class="cls-1" d="M1004.71,203.13q-45.91-.37-91.83-.66L955.3,51.65q51.54,13,102,29.42c-3.85,8.92-5.77,13.39-9.62,22.32q-37.32-10.12-75-18.72l-10.38,33.2q35.43,6,70.66,13.06l-9.2,21.6q-34.66-5-69.39-9.3-5.1,16.29-10.19,32.58,35.13,2.13,70.25,4.65C1010.58,189.52,1008.62,194.06,1004.71,203.13Z"/><path class="cls-1" d="M1131.34,204.32l-27.48-.29c-5.85-10.78-11.14-21.86-16.19-33-9.14-1.31-13.72-1.95-22.88-3.19l-18.9,35.67c-9.25-.09-13.88-.13-23.13-.2Q1050,145.44,1077.23,87.6c21.3,7.52,43.63,15,63.38,23.85,13.43,6,43.8,24.81,26.54,44.13-12.36,13.84-33.75,18-51.48,17.63,5.18,10.25,10.31,20.51,16.49,30.21Zm-38.85-88.8-18.09,34.15q18.38,3.63,36.71,7.56c11.14,2.15,24.31.56,31.6-8.53s-3.94-18.77-12.56-21Q1111.4,121.37,1092.49,115.52Z"/><path class="cls-2" d="M123.71,120.27c-13-4.72-27.59-4.49-40.67-.24-20.07,6.53-39.76,27-23.21,47.36,15,18.39,42.85,26.45,65.86,24.62,10.06-.81,17.95-3,24.53-11.12l-10.3-20.17q-16.9,2.75-33.79,5.64l-10.29-17q28.68-6.83,57.54-12.82Q165.19,162.28,177,188c-6.51,17.54-24.78,21.45-40.65,22-32.32,1.09-77.42-11.28-100.8-37.12-27.42-30.3,11.54-59.29,37-70.55,18.35-8.11,41.38-8.45,60.4-.94C129.18,109.18,127.33,113,123.71,120.27Z"/><path class="cls-2" d="M287.85,176.75q-34.11,2-68.19,4.23c-.57,10.65-.81,15.85-1.2,26l-26.08.2C193.26,159,196.15,111,200.23,63q14.6-4.19,29.27-8c38.57,47.72,72.6,98.38,103.67,151.26l-26.27.15Q297.59,191.41,287.85,176.75ZM224.91,89.9q-2.52,32.85-4.27,65.74,24.68-2.92,49.39-5.5C255.58,129.59,240.61,109.53,224.91,89.9Z"/><path class="cls-2" d="M436.7,68.67q-17.26,41.83-33.28,84.14l-4.93.26c-18.28-25.23-37.38-49.71-57.57-73.43l25.5,126.63-24.07.11L304.13,37.54q15.64-3.28,31.36-6.2C355.76,54.17,375,77.73,393.4,102.07q15.89-42.64,33-84.8,15.73-2,31.51-3.55,9.79,96.07,19.61,192.16l-24.09.07Z"/><path class="cls-2" d="M595.4,205.44q-47.82,0-95.64.11-8.17-97.25-16.37-194.49Q538.25,6.65,593.22,5.8q.19,18.25.4,36.51-40.27.52-80.46,2.62,1.49,22.59,3,45.19,37.61-1.47,75.22-1.88l.45,35.08q-36.72.29-73.41,1.34,1.46,22.17,2.9,44.35,36.86-.51,73.71-.65Q595.2,186.9,595.4,205.44Z"/><path class="cls-2" d="M788.54,112.89c-5.59,40.27-29.72,97-77.95,97.11-50.42.1-63.89-63.38-62.77-102.73,1.26-44,24.33-105.85,78.42-101C778.12,11,794.66,68.81,788.54,112.89Zm-115.27-4.55c-.68,25.38,7.43,67,39.91,67.89,31.74.9,46.75-38.82,49.9-64.43,3.35-27.17-4.8-70.3-39.41-72C688.53,38,674,79.78,673.27,108.34Z"/><path class="cls-2" d="M857.49,206.78l-25-.09q-11.12-94.6-28-188.31,15.42,2,30.79,4.36,10.21,72,17.32,144.28c21.66-43.73,44.88-86.52,70.15-128.28Q938,42,953.1,45.58C917.68,97.23,886.2,151.14,857.49,206.78Z"/><path class="cls-2" d="M1020.69,207.1q-47.78-.39-95.56-.69Q947.21,128,969.27,49.49q53.63,13.56,106.17,30.61c-4,9.29-6,13.93-10,23.22q-38.84-10.53-78-19.47Q982,101.12,976.6,118.39q36.87,6.27,73.53,13.59l-9.58,22.47q-36-5.22-72.2-9.67-5.29,17-10.6,33.9,36.57,2.22,73.11,4.83Z"/><path class="cls-2" d="M1152.44,208.34q-14.3-.17-28.6-.3c-6.09-11.23-11.49-22.78-16.84-34.37-9.51-1.36-14.28-2-23.81-3.32l-19.67,37.11-24.06-.21q28.33-60.18,56.68-120.36c22.16,7.81,45.24,15.68,65.94,24.82,14.53,6.41,45.45,25.89,27.62,45.92-12.85,14.44-35.11,18.74-53.56,18.34a324,324,0,0,0,17.15,31.43ZM1112,116q-9.4,17.76-18.82,35.53,19.13,3.77,38.19,7.86c11.6,2.24,25.31.58,32.89-8.87s-4.1-19.54-13.07-21.88Q1131.69,122,1112,116Z"/></g></g></svg>