<svg xmlns="http://www.w3.org/2000/svg" width="1920.5" height="1080.5" viewBox="0 0 1920.5 1080.5"><defs><style>.cls-1{fill:#f4f4f4;}.cls-2{fill:#999;}.cls-3{fill:#fce895;}.cls-4{fill:none;}.cls-5{fill:#606060;}.cls-6{fill:#dadada;}.cls-7{font-size:54px;font-family:NewYorkSmall-Regular, New York Small;}.cls-8{letter-spacing:-0.01em;}.cls-9{letter-spacing:0em;}.cls-10{letter-spacing:-0.01em;}.cls-11{letter-spacing:0em;}.cls-12{letter-spacing:-0.03em;}.cls-13{letter-spacing:-0.02em;}</style></defs><g id="Assets"><g id="Game_Over_Skærm" data-name="Game Over Skærm"><g id="BG"><polygon class="cls-1" points="1920.25 889.34 1920.25 1079.25 964.35 1079.25 1920.25 889.34"/><polygon class="cls-2" points="1920.25 888.32 1920.25 889.34 964.35 1079.25 961.78 1079.25 964.14 1078.27 1920.25 888.32"/><polygon class="cls-2" points="1920.25 682.73 1920.25 888.32 964.14 1078.27 1920.25 682.73"/><polygon class="cls-2" points="1920.25 681.64 1920.25 682.73 964.14 1078.27 961.63 1078.77 963.78 1077.33 1920.25 681.64"/><polygon class="cls-1" points="1920.25 439.03 1920.25 681.64 963.78 1077.33 1920.25 439.03"/><polygon class="cls-2" points="1920.25 437.84 1920.25 439.03 963.78 1077.33 961.4 1078.32 963.21 1076.52 1920.25 437.84"/><polygon class="cls-2" points="1920.25 120.66 1920.25 437.84 963.21 1076.52 1920.25 120.66"/><polygon class="cls-2" points="1920.25 119.25 1920.25 120.66 963.21 1076.52 961.09 1077.93 962.51 1075.81 1920.25 119.25"/><polygon class="cls-1" points="1920.25 0.27 1920.25 119.25 962.51 1075.81 1682.06 0.27 1920.25 0.27"/><polygon class="cls-2" points="1682.06 0.27 962.51 1075.81 960.69 1077.62 961.66 1075.29 1680.85 0.27 1682.06 0.27"/><polygon class="cls-2" points="1680.85 0.27 961.66 1075.29 1407.5 0.27 1680.85 0.27"/><polygon class="cls-2" points="1407.5 0.27 961.66 1075.29 960.25 1077.4 960.75 1074.88 1406.42 0.27 1407.5 0.27"/><polygon class="cls-1" points="1406.42 0.27 960.75 1074.88 1174.77 0.27 1406.42 0.27"/><polygon class="cls-2" points="1174.77 0.27 960.75 1074.88 959.77 1077.23 959.77 1074.68 1173.75 0.27 1174.77 0.27"/><polygon class="cls-2" points="1173.75 0.27 959.77 1074.68 959.77 0.27 1173.75 0.27"/><polygon class="cls-3" points="964.35 1079.25 959.37 1080.24 959.27 1079.75 959.46 1080.21 961.78 1079.25 964.35 1079.25"/><polygon class="cls-3" points="964.14 1078.27 961.78 1079.25 960.91 1079.25 961.63 1078.77 964.14 1078.27"/><polygon class="cls-3" points="963.78 1077.33 961.63 1078.77 960.78 1078.94 961.4 1078.32 963.78 1077.33"/><polygon class="cls-3" points="963.21 1076.52 961.4 1078.32 960.61 1078.65 961.09 1077.93 963.21 1076.52"/><polygon class="cls-3" points="960.69 1077.62 962.51 1075.81 961.09 1077.93 960.36 1078.41 960.69 1077.62"/><polygon class="cls-3" points="961.78 1079.25 959.46 1080.21 959.27 1079.75 959.28 1079.75 959.55 1080.16 960.91 1079.25 961.78 1079.25"/><polygon class="cls-3" points="961.66 1075.29 960.69 1077.62 960.08 1078.23 960.25 1077.4 961.66 1075.29"/><polygon class="cls-3" points="961.63 1078.77 960.91 1079.25 960.47 1079.25 960.78 1078.94 961.63 1078.77"/><polygon class="cls-3" points="961.4 1078.32 960.78 1078.94 960.36 1079.02 960.61 1078.65 961.4 1078.32"/><polygon class="cls-3" points="961.09 1077.93 960.61 1078.65 960.19 1078.82 960.36 1078.41 961.09 1077.93"/><polygon class="cls-3" points="960.91 1079.25 959.55 1080.16 959.28 1079.75 959.62 1080.1 960.47 1079.25 960.91 1079.25"/><polygon class="cls-3" points="960.78 1078.94 960.47 1079.25 960.2 1079.25 960.36 1079.02 960.78 1078.94"/><polygon class="cls-3" points="959.77 1077.23 960.75 1074.88 960.25 1077.4 959.77 1078.11 959.77 1077.23"/><polygon class="cls-3" points="960.69 1077.62 960.36 1078.41 960 1078.66 960.08 1078.23 960.69 1077.62"/><polygon class="cls-3" points="960.61 1078.65 960.36 1079.02 960.09 1079.08 960.19 1078.82 960.61 1078.65"/><polygon class="cls-3" points="960.47 1079.25 959.62 1080.1 959.28 1079.75 959.69 1080.02 960.2 1079.25 960.47 1079.25"/><polygon class="cls-3" points="960.36 1078.41 960.19 1078.82 959.94 1078.92 960 1078.66 960.36 1078.41"/><polygon class="cls-3" points="960.36 1079.02 960.2 1079.25 960.02 1079.25 960.09 1079.08 960.36 1079.02"/><polygon class="cls-3" points="960.25 1077.4 960.08 1078.23 959.77 1078.54 959.77 1078.11 960.25 1077.4"/><polygon class="cls-3" points="960.2 1079.25 959.69 1080.02 959.28 1079.75 959.73 1079.94 960.02 1079.25 960.2 1079.25"/><polygon class="cls-3" points="960.19 1078.82 960.09 1079.08 959.9 1079.11 959.94 1078.92 960.19 1078.82"/><polygon class="cls-3" points="960.09 1079.08 960.02 1079.25 959.88 1079.25 959.9 1079.11 960.09 1079.08"/><polygon class="cls-3" points="960.08 1078.23 960 1078.66 959.77 1078.81 959.77 1078.54 960.08 1078.23"/><polygon class="cls-3" points="960.02 1079.25 959.73 1079.94 959.28 1079.75 959.3 1079.75 959.76 1079.84 959.88 1079.25 960.02 1079.25"/><polygon class="cls-3" points="960 1078.66 959.94 1078.92 959.77 1078.99 959.77 1078.81 960 1078.66"/><polygon class="cls-3" points="959.94 1078.92 959.9 1079.11 959.77 1079.14 959.77 1078.99 959.94 1078.92"/><polygon class="cls-3" points="959.9 1079.11 959.88 1079.25 959.77 1079.25 959.77 1079.14 959.9 1079.11"/><polygon class="cls-3" points="959.88 1079.25 959.76 1079.84 959.3 1079.75 959.77 1079.75 959.77 1079.25 959.88 1079.25"/><polygon class="cls-3" points="959.77 1079.25 959.77 1079.75 959.3 1079.75 959.28 1079.75 959.28 1079.74 959.76 1079.65 959.68 1079.25 959.77 1079.25"/><polygon class="cls-3" points="959.77 1079.14 959.77 1079.25 959.68 1079.25 959.66 1079.16 959.77 1079.14"/><polygon class="cls-3" points="959.77 1078.99 959.77 1079.14 959.66 1079.16 959.64 1079.05 959.77 1078.99"/><polygon class="cls-3" points="959.77 1078.81 959.77 1078.99 959.64 1079.05 959.61 1078.91 959.77 1078.81"/><polygon class="cls-3" points="959.77 1078.54 959.77 1078.81 959.61 1078.91 959.58 1078.73 959.77 1078.54"/><polygon class="cls-3" points="959.77 1078.11 959.77 1078.54 959.58 1078.73 959.53 1078.47 959.77 1078.11"/><polygon class="cls-3" points="959.77 1077.23 959.77 1078.11 959.53 1078.47 959.44 1078.03 959.77 1077.23"/><polygon class="cls-3" points="959.77 1074.68 959.77 1077.23 959.44 1078.03 959.27 1077.19 959.77 1074.68"/><polygon class="cls-2" points="959.77 0.27 959.77 1074.68 959.27 1077.19 958.77 1074.68 958.77 0.27 959.77 0.27"/><polygon class="cls-3" points="959.68 1079.25 959.76 1079.65 959.28 1079.74 959.73 1079.55 959.69 1079.47 959.61 1079.25 959.68 1079.25"/><polygon class="cls-3" points="959.69 1079.47 959.73 1079.55 959.28 1079.74 959.69 1079.47"/><polygon class="cls-3" points="959.61 1079.25 959.69 1079.47 959.54 1079.25 959.61 1079.25"/><polygon class="cls-3" points="959.54 1079.25 959.69 1079.47 959.28 1079.74 959.62 1079.39 959.48 1079.25 959.54 1079.25"/><polygon class="cls-3" points="959.66 1079.16 959.68 1079.25 959.61 1079.25 959.58 1079.18 959.66 1079.16"/><polygon class="cls-3" points="959.64 1079.05 959.66 1079.16 959.58 1079.18 959.54 1079.09 959.64 1079.05"/><polygon class="cls-3" points="959.61 1078.91 959.64 1079.05 959.54 1079.09 959.5 1078.99 959.61 1078.91"/><polygon class="cls-3" points="959.48 1079.25 959.62 1079.39 959.28 1079.74 959.55 1079.33 959.43 1079.25 959.48 1079.25"/><polygon class="cls-3" points="959.58 1078.73 959.61 1078.91 959.5 1078.99 959.45 1078.86 959.58 1078.73"/><polygon class="cls-3" points="959.61 1079.25 959.54 1079.25 959.51 1079.19 959.58 1079.18 959.61 1079.25"/><polygon class="cls-3" points="959.53 1078.47 959.58 1078.73 959.45 1078.86 959.38 1078.7 959.53 1078.47"/><polygon class="cls-3" points="959.58 1079.18 959.51 1079.19 959.46 1079.12 959.54 1079.09 959.58 1079.18"/><polygon class="cls-3" points="959.55 1079.33 959.28 1079.74 959.27 1079.74 959.46 1079.28 959.39 1079.25 959.43 1079.25 959.55 1079.33"/><polygon class="cls-3" points="959.51 1079.19 959.54 1079.25 959.48 1079.25 959.44 1079.21 959.51 1079.19"/><polygon class="cls-3" points="959.5 1078.99 959.54 1079.09 959.46 1079.12 959.41 1079.05 959.5 1078.99"/><polygon class="cls-3" points="959.53 1078.47 959.38 1078.7 959.27 1078.44 959.44 1078.03 959.53 1078.47"/><polygon class="cls-3" points="959.51 1079.19 959.44 1079.21 959.38 1079.15 959.46 1079.12 959.51 1079.19"/><polygon class="cls-3" points="959.45 1078.86 959.5 1078.99 959.41 1079.05 959.35 1078.96 959.45 1078.86"/><polygon class="cls-3" points="959.44 1079.21 959.48 1079.25 959.43 1079.25 959.38 1079.22 959.44 1079.21"/><polygon class="cls-3" points="959.46 1079.28 959.27 1079.74 959.37 1079.26 959.32 1079.25 959.39 1079.25 959.46 1079.28"/><polygon class="cls-3" points="959.46 1079.12 959.38 1079.15 959.33 1079.1 959.41 1079.05 959.46 1079.12"/><polygon class="cls-3" points="959.45 1078.86 959.35 1078.96 959.27 1078.85 959.38 1078.7 959.45 1078.86"/><polygon class="cls-3" points="959.27 1077.19 959.44 1078.03 959.27 1078.44 959.1 1078.03 959.27 1077.19"/><polygon class="cls-3" points="959.38 1079.15 959.44 1079.21 959.38 1079.22 959.32 1079.18 959.38 1079.15"/><polygon class="cls-3" points="959.43 1079.25 959.39 1079.25 959.33 1079.23 959.38 1079.22 959.43 1079.25"/><polygon class="cls-3" points="959.35 1078.96 959.41 1079.05 959.33 1079.1 959.27 1079.04 959.35 1078.96"/><polygon class="cls-3" points="959.39 1079.25 959.32 1079.25 959.27 1079.24 959.33 1079.23 959.39 1079.25"/><polygon class="cls-3" points="959.38 1079.15 959.32 1079.18 959.27 1079.14 959.33 1079.1 959.38 1079.15"/><polygon class="cls-3" points="959.32 1079.18 959.38 1079.22 959.33 1079.23 959.27 1079.2 959.32 1079.18"/><polygon class="cls-3" points="959.27 1078.44 959.38 1078.7 959.27 1078.85 959.17 1078.69 959.27 1078.44"/><polygon class="cls-3" points="959.37 1079.26 959.27 1079.74 959.27 1079.25 959.32 1079.25 959.37 1079.26"/><polygon class="cls-3" points="959.27 1078.85 959.35 1078.96 959.27 1079.04 959.2 1078.97 959.27 1078.85"/><polygon class="cls-3" points="959.27 1079.04 959.33 1079.1 959.27 1079.14 959.21 1079.1 959.27 1079.04"/><polygon class="cls-3" points="959.27 1079.2 959.33 1079.23 959.27 1079.24 959.21 1079.23 959.27 1079.2"/><polygon class="cls-3" points="959.27 1079.14 959.32 1079.18 959.27 1079.2 959.22 1079.18 959.27 1079.14"/><polygon class="cls-3" points="959.32 1079.25 959.27 1079.25 959.22 1079.25 959.27 1079.24 959.32 1079.25"/><rect class="cls-3" x="959.27" y="1079.74" width="0.01" height="0.01"/><polygon class="cls-3" points="959.17 1078.69 959.27 1078.85 959.2 1078.97 959.09 1078.86 959.17 1078.69"/><polygon class="cls-3" points="959.27 1079.25 959.27 1079.74 959.17 1079.26 959.22 1079.25 959.27 1079.25"/><polygon class="cls-3" points="958.77 1074.68 959.27 1077.19 959.1 1078.03 958.77 1077.23 958.77 1074.68"/><polygon class="cls-3" points="959.1 1078.03 959.27 1078.44 959.17 1078.69 959.02 1078.46 959.1 1078.03"/><polygon class="cls-3" points="959.2 1078.97 959.27 1079.04 959.21 1079.1 959.14 1079.05 959.2 1078.97"/><polygon class="cls-3" points="959.27 1079.74 959.27 1079.75 959.26 1079.75 959.24 1079.75 958.78 1079.65 959.26 1079.74 959.27 1079.74"/><polygon class="cls-3" points="959.27 1079.75 959.17 1080.24 954.2 1079.25 956.76 1079.25 956.77 1079.25 959.08 1080.21 959.27 1079.75"/><polygon class="cls-3" points="959.27 1079.14 959.22 1079.18 959.16 1079.15 959.21 1079.1 959.27 1079.14"/><polygon class="cls-3" points="959.27 1079.74 959.08 1079.28 959.15 1079.25 959.22 1079.25 959.17 1079.26 959.27 1079.74"/><polygon class="cls-3" points="959.08 1079.28 959.27 1079.74 959.26 1079.74 958.99 1079.33 959.11 1079.25 959.15 1079.25 959.08 1079.28"/><polygon class="cls-3" points="959.27 1079.75 959.08 1080.21 956.77 1079.25 958 1079.5 958.99 1080.16 959.26 1079.75 959.27 1079.75"/><polygon class="cls-3" points="959.27 1079.2 959.21 1079.23 959.16 1079.22 959.22 1079.18 959.27 1079.2"/><polygon class="cls-3" points="959.27 1079.24 959.22 1079.25 959.15 1079.25 959.21 1079.23 959.27 1079.24"/><polygon class="cls-3" points="958.99 1079.33 959.26 1079.74 958.92 1079.39 958.99 1079.33"/><polygon class="cls-3" points="959.26 1079.75 958.99 1080.16 958 1079.5 958.4 1079.58 958.92 1080.1 959.26 1079.75"/><polygon class="cls-3" points="959.26 1079.75 958.92 1080.1 958.4 1079.58 958.59 1079.61 958.81 1079.94 958.86 1080.02 959.26 1079.75"/><polygon class="cls-3" points="958.92 1079.39 959.26 1079.74 958.86 1079.47 958.92 1079.39"/><polygon class="cls-3" points="958.86 1079.47 959.26 1079.74 958.81 1079.55 958.93 1079.25 959.01 1079.25 958.92 1079.39 958.86 1079.47"/><polygon class="cls-3" points="959.26 1079.75 958.86 1080.02 958.81 1079.94 959.26 1079.75"/><polygon class="cls-3" points="959.26 1079.74 958.78 1079.65 958.86 1079.25 958.93 1079.25 958.81 1079.55 959.26 1079.74"/><polygon class="cls-3" points="959.26 1079.75 958.81 1079.94 958.68 1079.63 958.74 1079.64 958.78 1079.84 959.24 1079.75 959.26 1079.75"/><polygon class="cls-3" points="958.78 1079.65 959.24 1079.75 958.77 1079.75 958.77 1079.65 958.78 1079.65"/><polygon class="cls-3" points="959.24 1079.75 958.78 1079.84 958.74 1079.64 958.77 1079.65 958.77 1079.75 959.24 1079.75"/><polygon class="cls-3" points="959.22 1079.18 959.16 1079.22 959.1 1079.21 959.16 1079.15 959.22 1079.18"/><polygon class="cls-3" points="959.21 1079.1 959.16 1079.15 959.09 1079.13 959.14 1079.05 959.21 1079.1"/><polygon class="cls-3" points="959.21 1079.23 959.15 1079.25 959.11 1079.25 959.16 1079.22 959.21 1079.23"/><polygon class="cls-3" points="959.09 1078.86 959.2 1078.97 959.14 1079.05 959.04 1078.99 959.09 1078.86"/><polygon class="cls-3" points="959.02 1078.46 959.17 1078.69 959.09 1078.86 958.96 1078.73 959.02 1078.46"/><polygon class="cls-3" points="959.16 1079.15 959.1 1079.21 959.04 1079.2 959.09 1079.13 959.16 1079.15"/><polygon class="cls-3" points="959.16 1079.22 959.11 1079.25 959.06 1079.25 959.1 1079.21 959.16 1079.22"/><polygon class="cls-3" points="959.14 1079.05 959.09 1079.13 959 1079.09 959.04 1078.99 959.14 1079.05"/><polygon class="cls-3" points="959.11 1079.25 958.99 1079.33 959.06 1079.25 959.11 1079.25"/><polygon class="cls-3" points="959.1 1078.03 959.02 1078.46 958.77 1078.09 958.77 1077.23 959.1 1078.03"/><polygon class="cls-3" points="959.1 1079.21 959.06 1079.25 959.01 1079.25 959.04 1079.2 959.1 1079.21"/><polygon class="cls-3" points="959.09 1078.86 959.04 1078.99 958.93 1078.91 958.96 1078.73 959.09 1078.86"/><polygon class="cls-3" points="959 1079.09 959.09 1079.13 959.04 1079.2 958.96 1079.18 959 1079.09"/><polygon class="cls-3" points="959.06 1079.25 958.99 1079.33 958.92 1079.39 959.01 1079.25 959.06 1079.25"/><polygon class="cls-3" points="958.96 1079.18 959.04 1079.2 959.01 1079.25 958.93 1079.25 958.96 1079.18"/><polygon class="cls-3" points="959.04 1078.99 959 1079.09 958.9 1079.05 958.93 1078.91 959.04 1078.99"/><polygon class="cls-3" points="959.02 1078.46 958.96 1078.73 958.77 1078.54 958.77 1078.09 959.02 1078.46"/><polygon class="cls-3" points="959 1079.09 958.96 1079.18 958.88 1079.16 958.9 1079.05 959 1079.09"/><polygon class="cls-3" points="958.96 1079.18 958.93 1079.25 958.86 1079.25 958.88 1079.16 958.96 1079.18"/><polygon class="cls-3" points="958.96 1078.73 958.93 1078.91 958.77 1078.81 958.77 1078.54 958.96 1078.73"/><polygon class="cls-3" points="958.93 1078.91 958.9 1079.05 958.77 1078.99 958.77 1078.81 958.93 1078.91"/><polygon class="cls-3" points="958.9 1079.05 958.88 1079.16 958.77 1079.14 958.77 1078.99 958.9 1079.05"/><polygon class="cls-3" points="958.88 1079.16 958.86 1079.25 958.77 1079.25 958.77 1079.14 958.88 1079.16"/><polygon class="cls-3" points="958.86 1079.25 958.78 1079.65 958.77 1079.65 958.77 1079.25 958.86 1079.25"/><polygon class="cls-3" points="958.68 1079.63 958.81 1079.94 958.59 1079.61 958.68 1079.63"/><polygon class="cls-3" points="958.77 1079.25 958.77 1079.65 958.74 1079.64 958.66 1079.25 958.77 1079.25"/><polygon class="cls-3" points="958.77 1079.14 958.77 1079.25 958.66 1079.25 958.64 1079.11 958.77 1079.14"/><polygon class="cls-3" points="958.77 1078.99 958.77 1079.14 958.64 1079.11 958.6 1078.92 958.77 1078.99"/><polygon class="cls-3" points="958.77 1078.81 958.77 1078.99 958.6 1078.92 958.54 1078.66 958.77 1078.81"/><polygon class="cls-3" points="958.77 1078.54 958.77 1078.81 958.54 1078.66 958.46 1078.23 958.77 1078.54"/><polygon class="cls-3" points="958.77 1078.09 958.77 1078.54 958.46 1078.23 958.29 1077.37 958.77 1078.09"/><polygon class="cls-3" points="958.77 1077.23 958.77 1078.09 958.29 1077.37 957.79 1074.88 958.77 1077.23"/><polygon class="cls-2" points="958.77 1074.68 958.77 1077.23 957.79 1074.88 743.78 0.27 744.8 0.27 958.77 1074.68"/><polygon class="cls-1" points="958.77 0.27 958.77 1074.68 744.8 0.27 958.77 0.27"/><polygon class="cls-3" points="958.66 1079.25 958.74 1079.64 958.68 1079.63 958.52 1079.25 958.66 1079.25"/><polygon class="cls-3" points="958.52 1079.25 958.68 1079.63 958.59 1079.61 958.35 1079.25 958.52 1079.25"/><polygon class="cls-3" points="958.64 1079.11 958.66 1079.25 958.52 1079.25 958.45 1079.08 958.64 1079.11"/><polygon class="cls-3" points="958.64 1079.11 958.45 1079.08 958.35 1078.82 958.6 1078.92 958.64 1079.11"/><polygon class="cls-3" points="958.54 1078.66 958.6 1078.92 958.35 1078.82 958.18 1078.41 958.54 1078.66"/><polygon class="cls-3" points="958.59 1079.61 958.4 1079.58 958.07 1079.25 958.35 1079.25 958.59 1079.61"/><polygon class="cls-3" points="958.46 1078.23 958.54 1078.66 958.18 1078.41 957.85 1077.62 958.46 1078.23"/><polygon class="cls-3" points="958.45 1079.08 958.52 1079.25 958.35 1079.25 958.2 1079.03 958.45 1079.08"/><polygon class="cls-3" points="958.46 1078.23 957.85 1077.62 956.87 1075.25 958.29 1077.37 958.46 1078.23"/><polygon class="cls-3" points="958.35 1078.82 958.45 1079.08 958.2 1079.03 957.95 1078.65 958.35 1078.82"/><polygon class="cls-3" points="958.4 1079.58 958 1079.5 957.63 1079.25 958.07 1079.25 958.4 1079.58"/><polygon class="cls-3" points="958.35 1078.82 957.95 1078.65 957.47 1077.94 958.18 1078.41 958.35 1078.82"/><polygon class="cls-3" points="958.35 1079.25 958.07 1079.25 957.76 1078.94 958.2 1079.03 958.35 1079.25"/><polygon class="cls-2" points="957.79 1074.88 958.29 1077.37 956.87 1075.25 511.05 0.27 512.13 0.27 957.79 1074.88"/><polygon class="cls-3" points="957.95 1078.65 958.2 1079.03 957.76 1078.94 957.14 1078.32 957.95 1078.65"/><polygon class="cls-3" points="958.18 1078.41 957.47 1077.94 956.07 1075.84 957.85 1077.62 958.18 1078.41"/><polygon class="cls-3" points="958.07 1079.25 957.63 1079.25 956.91 1078.77 957.76 1078.94 958.07 1079.25"/><polygon class="cls-3" points="958 1079.5 956.77 1079.25 957.63 1079.25 958 1079.5"/><polygon class="cls-3" points="957.95 1078.65 957.14 1078.32 955.34 1076.52 957.47 1077.94 957.95 1078.65"/><polygon class="cls-2" points="957.85 1077.62 956.07 1075.84 236.5 0.27 237.7 0.27 956.87 1075.25 957.85 1077.62"/><polygon class="cls-2" points="743.78 0.27 957.79 1074.88 512.13 0.27 743.78 0.27"/><polygon class="cls-3" points="957.76 1078.94 956.91 1078.77 954.76 1077.33 957.14 1078.32 957.76 1078.94"/><polygon class="cls-3" points="957.63 1079.25 956.77 1079.25 956.76 1079.25 954.41 1078.27 956.91 1078.77 957.63 1079.25"/><polygon class="cls-2" points="956.07 1075.84 957.47 1077.94 955.34 1076.52 0.25 122.61 0.25 121.2 956.07 1075.84"/><polygon class="cls-2" points="957.14 1078.32 954.76 1077.33 0.25 440.34 0.25 439.14 955.34 1076.52 957.14 1078.32"/><polygon class="cls-2" points="956.91 1078.77 954.41 1078.27 0.25 683.54 0.25 682.46 954.76 1077.33 956.91 1078.77"/><polygon class="cls-1" points="956.87 1075.25 237.7 0.27 511.05 0.27 956.87 1075.25"/><polygon class="cls-2" points="956.76 1079.25 954.2 1079.25 0.25 889.73 0.25 889.22 956.76 1079.25"/><polygon class="cls-2" points="956.76 1079.25 0.25 889.22 0.25 888.71 954.41 1078.27 956.76 1079.25"/><path class="cls-2" d="M236.5.27,956.06,1075.84.25,121.2V.25l.33,0Z"/><polygon class="cls-1" points="955.34 1076.52 0.25 439.14 0.25 122.61 955.34 1076.52"/><polygon class="cls-2" points="954.76 1077.33 0.25 682.46 0.25 440.34 954.76 1077.33"/><polygon class="cls-1" points="954.41 1078.27 0.25 888.71 0.25 683.54 954.41 1078.27"/><polygon class="cls-2" points="954.2 1079.25 0.25 1079.25 0.25 889.73 954.2 1079.25"/><rect class="cls-4" x="0.25" y="0.25" width="1920" height="1079"/></g><g id="Tekst_Boks" data-name="Tekst Boks"><rect class="cls-5" x="448.47" y="407.42" width="1020.91" height="526.9" rx="71.11"/><rect class="cls-6" x="462.69" y="416.77" width="990.25" height="504.16" rx="71.11"/></g><text class="cls-7" transform="translate(622.42 540.75)">Har man hørt en loppe <tspan class="cls-8" x="590.94" y="0">g</tspan><tspan x="620.6" y="0">ø?!</tspan><tspan x="-37.8" y="64.8">Sjældent har man set no</tspan><tspan class="cls-8" x="578.56" y="64.8">g</tspan><tspan x="608.23" y="64.8">et s</tspan><tspan class="cls-9" x="696.32" y="64.8">å</tspan><tspan x="725.32" y="64.8"> </tspan><tspan class="cls-10" x="205.02" y="129.6">f</tspan><tspan x="223.11" y="129.6">o</tspan><tspan class="cls-11" x="255.35" y="129.6">r</tspan><tspan x="277.98" y="129.6">ag</tspan><tspan class="cls-10" x="337.3" y="129.6">t</tspan><tspan x="356.42" y="129.6">eligt! </tspan><tspan x="-10.69" y="194.4">Bl</tspan><tspan class="cls-10" x="41.78" y="194.4">i</tspan><tspan x="57.1" y="194.4">v hjemme eller p</tspan><tspan class="cls-12" x="480.87" y="194.4">rø</tspan><tspan x="532.68" y="194.4">v i</tspan><tspan class="cls-8" x="591.3" y="194.4">g</tspan><tspan x="620.96" y="194.4">en, </tspan><tspan x="211.19" y="259.2">op til di</tspan><tspan class="cls-13" x="404.12" y="259.2">g</tspan><tspan x="432.99" y="259.2">...</tspan></text></g></g></svg>