<svg xmlns="http://www.w3.org/2000/svg" width="1920.5" height="1080.5" viewBox="0 0 1920.5 1080.5"><defs><style>.cls-1{fill:#f4f4f4;}.cls-2{fill:#999;}.cls-3{fill:#fce895;}.cls-4{fill:none;}.cls-5{opacity:0.87;}</style></defs><g id="Skærme"><g id="Game_Over_Taxa" data-name="Game Over Taxa"><g id="BG"><polygon class="cls-1" points="1916.3 890.13 1916.3 1079.86 963.77 1079.86 1916.3 890.13"/><polygon class="cls-2" points="1916.3 889.11 1916.3 890.13 963.77 1079.86 961.21 1079.86 963.56 1078.88 1916.3 889.11"/><polygon class="cls-2" points="1916.3 683.7 1916.3 889.11 963.56 1078.88 1916.3 683.7"/><polygon class="cls-2" points="1916.3 682.62 1916.3 683.7 963.56 1078.88 961.06 1079.38 963.2 1077.94 1916.3 682.62"/><polygon class="cls-1" points="1916.3 440.23 1916.3 682.62 963.2 1077.94 1916.3 440.23"/><polygon class="cls-2" points="1916.3 439.04 1916.3 440.23 963.2 1077.94 960.83 1078.93 962.63 1077.13 1916.3 439.04"/><polygon class="cls-2" points="1916.3 122.15 1916.3 439.04 962.63 1077.13 1916.3 122.15"/><polygon class="cls-2" points="1916.3 120.75 1916.3 122.15 962.63 1077.13 960.52 1078.54 961.93 1076.42 1916.3 120.75"/><polygon class="cls-1" points="1916.3 1.87 1916.3 120.75 961.93 1076.42 1678.94 1.87 1916.3 1.87"/><polygon class="cls-2" points="1678.94 1.87 961.93 1076.42 960.12 1078.23 961.09 1075.9 1677.73 1.87 1678.94 1.87"/><polygon class="cls-2" points="1677.73 1.87 961.09 1075.9 1405.35 1.87 1677.73 1.87"/><polygon class="cls-2" points="1405.35 1.87 961.09 1075.9 959.68 1078.01 960.18 1075.49 1404.28 1.87 1405.35 1.87"/><polygon class="cls-1" points="1404.28 1.87 960.18 1075.49 1173.44 1.87 1404.28 1.87"/><polygon class="cls-2" points="1173.44 1.87 960.18 1075.49 959.2 1077.84 959.2 1075.29 1172.43 1.87 1173.44 1.87"/><polygon class="cls-2" points="1172.43 1.87 959.2 1075.29 959.2 1.87 1172.43 1.87"/><polygon class="cls-3" points="963.77 1079.86 958.8 1080.85 958.71 1080.36 958.89 1080.82 961.21 1079.86 963.77 1079.86"/><polygon class="cls-3" points="963.56 1078.88 961.21 1079.86 960.34 1079.86 961.06 1079.38 963.56 1078.88"/><polygon class="cls-3" points="963.2 1077.94 961.06 1079.38 960.21 1079.55 960.83 1078.93 963.2 1077.94"/><polygon class="cls-3" points="962.63 1077.13 960.83 1078.93 960.04 1079.26 960.52 1078.54 962.63 1077.13"/><polygon class="cls-3" points="960.12 1078.23 961.93 1076.42 960.52 1078.54 959.79 1079.02 960.12 1078.23"/><polygon class="cls-3" points="961.21 1079.86 958.89 1080.82 958.71 1080.36 958.72 1080.36 958.99 1080.77 960.34 1079.86 961.21 1079.86"/><polygon class="cls-3" points="961.09 1075.9 960.12 1078.23 959.51 1078.84 959.68 1078.01 961.09 1075.9"/><polygon class="cls-3" points="961.06 1079.38 960.34 1079.86 959.9 1079.86 960.21 1079.55 961.06 1079.38"/><polygon class="cls-3" points="960.83 1078.93 960.21 1079.55 959.79 1079.63 960.04 1079.26 960.83 1078.93"/><polygon class="cls-3" points="960.52 1078.54 960.04 1079.26 959.62 1079.43 959.79 1079.02 960.52 1078.54"/><polygon class="cls-3" points="960.34 1079.86 958.99 1080.77 958.72 1080.36 959.05 1080.71 959.9 1079.86 960.34 1079.86"/><polygon class="cls-3" points="960.21 1079.55 959.9 1079.86 959.63 1079.86 959.79 1079.63 960.21 1079.55"/><polygon class="cls-3" points="959.2 1077.84 960.18 1075.49 959.68 1078.01 959.2 1078.72 959.2 1077.84"/><polygon class="cls-3" points="960.12 1078.23 959.79 1079.02 959.43 1079.27 959.51 1078.84 960.12 1078.23"/><polygon class="cls-3" points="960.04 1079.26 959.79 1079.63 959.52 1079.69 959.62 1079.43 960.04 1079.26"/><polygon class="cls-3" points="959.9 1079.86 959.05 1080.71 958.72 1080.36 959.12 1080.63 959.63 1079.86 959.9 1079.86"/><polygon class="cls-3" points="959.79 1079.02 959.62 1079.43 959.37 1079.53 959.43 1079.27 959.79 1079.02"/><polygon class="cls-3" points="959.79 1079.63 959.63 1079.86 959.45 1079.86 959.52 1079.69 959.79 1079.63"/><polygon class="cls-3" points="959.68 1078.01 959.51 1078.84 959.2 1079.15 959.2 1078.72 959.68 1078.01"/><polygon class="cls-3" points="959.63 1079.86 959.12 1080.63 958.72 1080.36 959.16 1080.55 959.45 1079.86 959.63 1079.86"/><polygon class="cls-3" points="959.62 1079.43 959.52 1079.69 959.33 1079.72 959.37 1079.53 959.62 1079.43"/><polygon class="cls-3" points="959.52 1079.69 959.45 1079.86 959.31 1079.86 959.33 1079.72 959.52 1079.69"/><polygon class="cls-3" points="959.51 1078.84 959.43 1079.27 959.2 1079.42 959.2 1079.15 959.51 1078.84"/><polygon class="cls-3" points="959.45 1079.86 959.16 1080.55 958.72 1080.36 958.74 1080.36 959.19 1080.45 959.31 1079.86 959.45 1079.86"/><polygon class="cls-3" points="959.43 1079.27 959.37 1079.53 959.2 1079.6 959.2 1079.42 959.43 1079.27"/><polygon class="cls-3" points="959.37 1079.53 959.33 1079.72 959.2 1079.75 959.2 1079.6 959.37 1079.53"/><polygon class="cls-3" points="959.33 1079.72 959.31 1079.86 959.2 1079.86 959.2 1079.75 959.33 1079.72"/><polygon class="cls-3" points="959.31 1079.86 959.19 1080.45 958.74 1080.36 959.2 1080.36 959.2 1079.86 959.31 1079.86"/><polygon class="cls-3" points="959.2 1079.86 959.2 1080.36 958.74 1080.36 958.72 1080.36 958.72 1080.35 959.19 1080.26 959.11 1079.86 959.2 1079.86"/><polygon class="cls-3" points="959.2 1079.75 959.2 1079.86 959.11 1079.86 959.09 1079.77 959.2 1079.75"/><polygon class="cls-3" points="959.2 1079.6 959.2 1079.75 959.09 1079.77 959.07 1079.66 959.2 1079.6"/><polygon class="cls-3" points="959.2 1079.42 959.2 1079.6 959.07 1079.66 959.04 1079.52 959.2 1079.42"/><polygon class="cls-3" points="959.2 1079.15 959.2 1079.42 959.04 1079.52 959.01 1079.34 959.2 1079.15"/><polygon class="cls-3" points="959.2 1078.72 959.2 1079.15 959.01 1079.34 958.97 1079.08 959.2 1078.72"/><polygon class="cls-3" points="959.2 1077.84 959.2 1078.72 958.97 1079.08 958.88 1078.64 959.2 1077.84"/><polygon class="cls-3" points="959.2 1075.29 959.2 1077.84 958.88 1078.64 958.71 1077.8 959.2 1075.29"/><polygon class="cls-2" points="959.2 1.87 959.2 1075.29 958.71 1077.8 958.21 1075.29 958.21 1.87 959.2 1.87"/><polygon class="cls-3" points="959.11 1079.86 959.19 1080.26 958.72 1080.35 959.16 1080.16 959.12 1080.08 959.04 1079.86 959.11 1079.86"/><polygon class="cls-3" points="959.12 1080.08 959.16 1080.16 958.72 1080.35 959.12 1080.08"/><polygon class="cls-3" points="959.04 1079.86 959.12 1080.08 958.98 1079.86 959.04 1079.86"/><polygon class="cls-3" points="958.98 1079.86 959.12 1080.08 958.72 1080.35 959.05 1080 958.91 1079.86 958.98 1079.86"/><polygon class="cls-3" points="959.09 1079.77 959.11 1079.86 959.04 1079.86 959.01 1079.79 959.09 1079.77"/><polygon class="cls-3" points="959.07 1079.66 959.09 1079.77 959.01 1079.79 958.98 1079.7 959.07 1079.66"/><polygon class="cls-3" points="959.04 1079.52 959.07 1079.66 958.98 1079.7 958.93 1079.6 959.04 1079.52"/><polygon class="cls-3" points="958.91 1079.86 959.05 1080 958.72 1080.35 958.99 1079.94 958.87 1079.86 958.91 1079.86"/><polygon class="cls-3" points="959.01 1079.34 959.04 1079.52 958.93 1079.6 958.88 1079.47 959.01 1079.34"/><polygon class="cls-3" points="959.04 1079.86 958.98 1079.86 958.95 1079.8 959.01 1079.79 959.04 1079.86"/><polygon class="cls-3" points="958.97 1079.08 959.01 1079.34 958.88 1079.47 958.82 1079.31 958.97 1079.08"/><polygon class="cls-3" points="959.01 1079.79 958.95 1079.8 958.89 1079.73 958.98 1079.7 959.01 1079.79"/><polygon class="cls-3" points="958.99 1079.94 958.72 1080.35 958.71 1080.35 958.89 1079.89 958.83 1079.86 958.87 1079.86 958.99 1079.94"/><polygon class="cls-3" points="958.95 1079.8 958.98 1079.86 958.91 1079.86 958.88 1079.82 958.95 1079.8"/><polygon class="cls-3" points="958.93 1079.6 958.98 1079.7 958.89 1079.73 958.85 1079.66 958.93 1079.6"/><polygon class="cls-3" points="958.97 1079.08 958.82 1079.31 958.71 1079.05 958.88 1078.64 958.97 1079.08"/><polygon class="cls-3" points="958.95 1079.8 958.88 1079.82 958.82 1079.76 958.89 1079.73 958.95 1079.8"/><polygon class="cls-3" points="958.88 1079.47 958.93 1079.6 958.85 1079.66 958.79 1079.57 958.88 1079.47"/><polygon class="cls-3" points="958.88 1079.82 958.91 1079.86 958.87 1079.86 958.82 1079.83 958.88 1079.82"/><polygon class="cls-3" points="958.89 1079.89 958.71 1080.35 958.8 1079.87 958.76 1079.86 958.83 1079.86 958.89 1079.89"/><polygon class="cls-3" points="958.89 1079.73 958.82 1079.76 958.77 1079.71 958.85 1079.66 958.89 1079.73"/><polygon class="cls-3" points="958.88 1079.47 958.79 1079.57 958.71 1079.46 958.82 1079.31 958.88 1079.47"/><polygon class="cls-3" points="958.71 1077.8 958.88 1078.64 958.71 1079.05 958.54 1078.64 958.71 1077.8"/><polygon class="cls-3" points="958.82 1079.76 958.88 1079.82 958.82 1079.83 958.76 1079.79 958.82 1079.76"/><polygon class="cls-3" points="958.87 1079.86 958.83 1079.86 958.77 1079.84 958.82 1079.83 958.87 1079.86"/><polygon class="cls-3" points="958.79 1079.57 958.85 1079.66 958.77 1079.71 958.71 1079.65 958.79 1079.57"/><polygon class="cls-3" points="958.83 1079.86 958.76 1079.86 958.71 1079.85 958.77 1079.84 958.83 1079.86"/><polygon class="cls-3" points="958.82 1079.76 958.76 1079.79 958.71 1079.75 958.77 1079.71 958.82 1079.76"/><polygon class="cls-3" points="958.76 1079.79 958.82 1079.83 958.77 1079.84 958.71 1079.81 958.76 1079.79"/><polygon class="cls-3" points="958.71 1079.05 958.82 1079.31 958.71 1079.46 958.61 1079.3 958.71 1079.05"/><polygon class="cls-3" points="958.8 1079.87 958.71 1080.35 958.71 1079.86 958.76 1079.86 958.8 1079.87"/><polygon class="cls-3" points="958.71 1079.46 958.79 1079.57 958.71 1079.65 958.64 1079.58 958.71 1079.46"/><polygon class="cls-3" points="958.71 1079.65 958.77 1079.71 958.71 1079.75 958.65 1079.71 958.71 1079.65"/><polygon class="cls-3" points="958.71 1079.81 958.77 1079.84 958.71 1079.85 958.65 1079.84 958.71 1079.81"/><polygon class="cls-3" points="958.71 1079.75 958.76 1079.79 958.71 1079.81 958.66 1079.79 958.71 1079.75"/><polygon class="cls-3" points="958.76 1079.86 958.71 1079.86 958.66 1079.86 958.71 1079.85 958.76 1079.86"/><rect class="cls-3" x="958.71" y="1080.35" width="0.01" height="0.01"/><polygon class="cls-3" points="958.61 1079.3 958.71 1079.46 958.64 1079.58 958.53 1079.47 958.61 1079.3"/><polygon class="cls-3" points="958.71 1079.86 958.71 1080.35 958.61 1079.87 958.66 1079.86 958.71 1079.86"/><polygon class="cls-3" points="958.21 1075.29 958.71 1077.8 958.54 1078.64 958.21 1077.84 958.21 1075.29"/><polygon class="cls-3" points="958.54 1078.64 958.71 1079.05 958.61 1079.3 958.46 1079.07 958.54 1078.64"/><polygon class="cls-3" points="958.64 1079.58 958.71 1079.65 958.65 1079.71 958.58 1079.66 958.64 1079.58"/><polygon class="cls-3" points="958.71 1080.35 958.71 1080.36 958.7 1080.36 958.68 1080.36 958.22 1080.26 958.7 1080.35 958.71 1080.35"/><polygon class="cls-3" points="958.71 1080.36 958.61 1080.85 953.64 1079.86 956.21 1079.86 956.22 1079.86 958.52 1080.82 958.71 1080.36"/><polygon class="cls-3" points="958.71 1079.75 958.66 1079.79 958.6 1079.76 958.65 1079.71 958.71 1079.75"/><polygon class="cls-3" points="958.71 1080.35 958.52 1079.89 958.59 1079.86 958.66 1079.86 958.61 1079.87 958.71 1080.35"/><polygon class="cls-3" points="958.52 1079.89 958.71 1080.35 958.7 1080.35 958.43 1079.94 958.55 1079.86 958.59 1079.86 958.52 1079.89"/><polygon class="cls-3" points="958.71 1080.36 958.52 1080.82 956.22 1079.86 957.44 1080.11 958.43 1080.77 958.7 1080.36 958.71 1080.36"/><polygon class="cls-3" points="958.71 1079.81 958.65 1079.84 958.6 1079.83 958.66 1079.79 958.71 1079.81"/><polygon class="cls-3" points="958.71 1079.85 958.66 1079.86 958.59 1079.86 958.65 1079.84 958.71 1079.85"/><polygon class="cls-3" points="958.43 1079.94 958.7 1080.35 958.36 1080 958.43 1079.94"/><polygon class="cls-3" points="958.7 1080.36 958.43 1080.77 957.44 1080.11 957.84 1080.19 958.36 1080.71 958.7 1080.36"/><polygon class="cls-3" points="958.7 1080.36 958.36 1080.71 957.84 1080.19 958.03 1080.22 958.25 1080.55 958.3 1080.63 958.7 1080.36"/><polygon class="cls-3" points="958.36 1080 958.7 1080.35 958.3 1080.08 958.36 1080"/><polygon class="cls-3" points="958.3 1080.08 958.7 1080.35 958.25 1080.16 958.37 1079.86 958.45 1079.86 958.36 1080 958.3 1080.08"/><polygon class="cls-3" points="958.7 1080.36 958.3 1080.63 958.25 1080.55 958.7 1080.36"/><polygon class="cls-3" points="958.7 1080.35 958.22 1080.26 958.3 1079.86 958.37 1079.86 958.25 1080.16 958.7 1080.35"/><polygon class="cls-3" points="958.7 1080.36 958.25 1080.55 958.12 1080.24 958.18 1080.25 958.22 1080.45 958.68 1080.36 958.7 1080.36"/><polygon class="cls-3" points="958.22 1080.26 958.68 1080.36 958.21 1080.36 958.21 1080.26 958.22 1080.26"/><polygon class="cls-3" points="958.68 1080.36 958.22 1080.45 958.18 1080.25 958.21 1080.26 958.21 1080.36 958.68 1080.36"/><polygon class="cls-3" points="958.66 1079.79 958.6 1079.83 958.54 1079.82 958.6 1079.76 958.66 1079.79"/><polygon class="cls-3" points="958.65 1079.71 958.6 1079.76 958.53 1079.74 958.58 1079.66 958.65 1079.71"/><polygon class="cls-3" points="958.65 1079.84 958.59 1079.86 958.55 1079.86 958.6 1079.83 958.65 1079.84"/><polygon class="cls-3" points="958.53 1079.47 958.64 1079.58 958.58 1079.66 958.48 1079.6 958.53 1079.47"/><polygon class="cls-3" points="958.46 1079.07 958.61 1079.3 958.53 1079.47 958.4 1079.34 958.46 1079.07"/><polygon class="cls-3" points="958.6 1079.76 958.54 1079.82 958.48 1079.81 958.53 1079.74 958.6 1079.76"/><polygon class="cls-3" points="958.6 1079.83 958.55 1079.86 958.5 1079.86 958.54 1079.82 958.6 1079.83"/><polygon class="cls-3" points="958.58 1079.66 958.53 1079.74 958.44 1079.7 958.48 1079.6 958.58 1079.66"/><polygon class="cls-3" points="958.55 1079.86 958.43 1079.94 958.5 1079.86 958.55 1079.86"/><polygon class="cls-3" points="958.54 1078.64 958.46 1079.07 958.21 1078.7 958.21 1077.84 958.54 1078.64"/><polygon class="cls-3" points="958.54 1079.82 958.5 1079.86 958.45 1079.86 958.48 1079.81 958.54 1079.82"/><polygon class="cls-3" points="958.53 1079.47 958.48 1079.6 958.37 1079.52 958.4 1079.34 958.53 1079.47"/><polygon class="cls-3" points="958.44 1079.7 958.53 1079.74 958.48 1079.81 958.4 1079.79 958.44 1079.7"/><polygon class="cls-3" points="958.5 1079.86 958.43 1079.94 958.36 1080 958.45 1079.86 958.5 1079.86"/><polygon class="cls-3" points="958.4 1079.79 958.48 1079.81 958.45 1079.86 958.37 1079.86 958.4 1079.79"/><polygon class="cls-3" points="958.48 1079.6 958.44 1079.7 958.34 1079.66 958.37 1079.52 958.48 1079.6"/><polygon class="cls-3" points="958.46 1079.07 958.4 1079.34 958.21 1079.15 958.21 1078.7 958.46 1079.07"/><polygon class="cls-3" points="958.44 1079.7 958.4 1079.79 958.32 1079.77 958.34 1079.66 958.44 1079.7"/><polygon class="cls-3" points="958.4 1079.79 958.37 1079.86 958.3 1079.86 958.32 1079.77 958.4 1079.79"/><polygon class="cls-3" points="958.4 1079.34 958.37 1079.52 958.21 1079.42 958.21 1079.15 958.4 1079.34"/><polygon class="cls-3" points="958.37 1079.52 958.34 1079.66 958.21 1079.6 958.21 1079.42 958.37 1079.52"/><polygon class="cls-3" points="958.34 1079.66 958.32 1079.77 958.21 1079.75 958.21 1079.6 958.34 1079.66"/><polygon class="cls-3" points="958.32 1079.77 958.3 1079.86 958.21 1079.86 958.21 1079.75 958.32 1079.77"/><polygon class="cls-3" points="958.3 1079.86 958.22 1080.26 958.21 1080.26 958.21 1079.86 958.3 1079.86"/><polygon class="cls-3" points="958.12 1080.24 958.25 1080.55 958.03 1080.22 958.12 1080.24"/><polygon class="cls-3" points="958.21 1079.86 958.21 1080.26 958.18 1080.25 958.1 1079.86 958.21 1079.86"/><polygon class="cls-3" points="958.21 1079.75 958.21 1079.86 958.1 1079.86 958.08 1079.72 958.21 1079.75"/><polygon class="cls-3" points="958.21 1079.6 958.21 1079.75 958.08 1079.72 958.04 1079.53 958.21 1079.6"/><polygon class="cls-3" points="958.21 1079.42 958.21 1079.6 958.04 1079.53 957.98 1079.27 958.21 1079.42"/><polygon class="cls-3" points="958.21 1079.15 958.21 1079.42 957.98 1079.27 957.9 1078.84 958.21 1079.15"/><polygon class="cls-3" points="958.21 1078.7 958.21 1079.15 957.9 1078.84 957.73 1077.98 958.21 1078.7"/><polygon class="cls-3" points="958.21 1077.84 958.21 1078.7 957.73 1077.98 957.23 1075.49 958.21 1077.84"/><polygon class="cls-2" points="958.21 1075.29 958.21 1077.84 957.23 1075.49 743.97 1.87 744.99 1.87 958.21 1075.29"/><polygon class="cls-1" points="958.21 1.87 958.21 1075.29 744.99 1.87 958.21 1.87"/><polygon class="cls-3" points="958.1 1079.86 958.18 1080.25 958.12 1080.24 957.96 1079.86 958.1 1079.86"/><polygon class="cls-3" points="957.96 1079.86 958.12 1080.24 958.03 1080.22 957.79 1079.86 957.96 1079.86"/><polygon class="cls-3" points="958.08 1079.72 958.1 1079.86 957.96 1079.86 957.89 1079.69 958.08 1079.72"/><polygon class="cls-3" points="958.08 1079.72 957.89 1079.69 957.79 1079.43 958.04 1079.53 958.08 1079.72"/><polygon class="cls-3" points="957.98 1079.27 958.04 1079.53 957.79 1079.43 957.62 1079.02 957.98 1079.27"/><polygon class="cls-3" points="958.03 1080.22 957.84 1080.19 957.51 1079.86 957.79 1079.86 958.03 1080.22"/><polygon class="cls-3" points="957.9 1078.84 957.98 1079.27 957.62 1079.02 957.29 1078.23 957.9 1078.84"/><polygon class="cls-3" points="957.89 1079.69 957.96 1079.86 957.79 1079.86 957.64 1079.64 957.89 1079.69"/><polygon class="cls-3" points="957.9 1078.84 957.29 1078.23 956.3 1075.86 957.73 1077.98 957.9 1078.84"/><polygon class="cls-3" points="957.79 1079.43 957.89 1079.69 957.64 1079.64 957.39 1079.26 957.79 1079.43"/><polygon class="cls-3" points="957.84 1080.19 957.44 1080.11 957.07 1079.86 957.51 1079.86 957.84 1080.19"/><polygon class="cls-3" points="957.79 1079.43 957.39 1079.26 956.91 1078.55 957.62 1079.02 957.79 1079.43"/><polygon class="cls-3" points="957.79 1079.86 957.51 1079.86 957.2 1079.55 957.64 1079.64 957.79 1079.86"/><polygon class="cls-2" points="957.23 1075.49 957.73 1077.98 956.3 1075.86 512.06 1.87 513.14 1.87 957.23 1075.49"/><polygon class="cls-3" points="957.39 1079.26 957.64 1079.64 957.2 1079.55 956.58 1078.93 957.39 1079.26"/><polygon class="cls-3" points="957.62 1079.02 956.91 1078.55 955.51 1076.45 957.29 1078.23 957.62 1079.02"/><polygon class="cls-3" points="957.51 1079.86 957.07 1079.86 956.36 1079.38 957.2 1079.55 957.51 1079.86"/><polygon class="cls-3" points="957.44 1080.11 956.22 1079.86 957.07 1079.86 957.44 1080.11"/><polygon class="cls-3" points="957.39 1079.26 956.58 1078.93 954.78 1077.13 956.91 1078.55 957.39 1079.26"/><polygon class="cls-2" points="957.29 1078.23 955.51 1076.45 238.48 1.87 239.68 1.87 956.3 1075.86 957.29 1078.23"/><polygon class="cls-2" points="743.97 1.87 957.23 1075.49 513.14 1.87 743.97 1.87"/><polygon class="cls-3" points="957.2 1079.55 956.36 1079.38 954.21 1077.94 956.58 1078.93 957.2 1079.55"/><polygon class="cls-3" points="957.07 1079.86 956.22 1079.86 956.21 1079.86 953.86 1078.88 956.36 1079.38 957.07 1079.86"/><polygon class="cls-2" points="955.51 1076.45 956.91 1078.55 954.78 1077.13 3.07 124.11 3.07 122.69 955.51 1076.45"/><polygon class="cls-2" points="956.58 1078.93 954.21 1077.94 3.07 441.54 3.07 440.34 954.78 1077.13 956.58 1078.93"/><polygon class="cls-2" points="956.36 1079.38 953.86 1078.88 3.07 684.51 3.07 683.43 954.21 1077.94 956.36 1079.38"/><polygon class="cls-1" points="956.3 1075.86 239.68 1.87 512.06 1.87 956.3 1075.86"/><polygon class="cls-2" points="956.21 1079.86 953.64 1079.86 3.07 890.51 3.07 890 956.21 1079.86"/><polygon class="cls-2" points="956.21 1079.86 3.07 890 3.07 889.5 953.86 1078.88 956.21 1079.86"/><path class="cls-2" d="M238.48,1.87l717,1074.58L3.07,122.69V1.85l.33,0Z"/><polygon class="cls-1" points="954.78 1077.13 3.07 440.34 3.07 124.11 954.78 1077.13"/><polygon class="cls-2" points="954.21 1077.94 3.07 683.43 3.07 441.54 954.21 1077.94"/><polygon class="cls-1" points="953.86 1078.88 3.07 889.5 3.07 684.51 953.86 1078.88"/><polygon class="cls-2" points="953.64 1079.86 3.07 1079.86 3.07 890.51 953.64 1079.86"/><rect class="cls-4" x="3.06" y="1.85" width="1913.23" height="1078.01"/></g><rect class="cls-5" x="0.21" y="0.86" width="1920.08" height="1079"/></g></g></svg>