<svg xmlns="http://www.w3.org/2000/svg" width="1028" height="243" viewBox="0 0 1028 243"><defs><style>.cls-1{fill:#efb126;}.cls-2{fill:#d8992a;}.cls-3{fill:none;stroke:#fff;stroke-linecap:round;stroke-miterlimit:10;stroke-width:8px;}.cls-4{fill:#fff;}</style></defs><g id="Assets"><g id="Halo"><path class="cls-1" d="M520,67.8C289.69,48.49,101,56.92,98.52,86.64s182.24,69.46,412.56,88.77,419,10.89,421.49-18.83S750.32,87.12,520,67.8Zm-12.8,92.92C302.8,143.58,138.56,112,140.37,90.15s169-25.64,373.39-8.5,368.65,48.74,366.84,70.57S711.62,177.86,507.21,160.72Z"/><path class="cls-2" d="M517.77,169.72c-230.32-19.31-415-59.06-412.56-88.78a7.94,7.94,0,0,1,1.36-3.7c-5,2.85-7.77,6-8,9.4-2.47,29.71,182.24,69.46,412.56,88.77C731.52,193.9,913.82,187,931.21,160.28,892.81,182.17,721.6,186.81,517.77,169.72Z"/><line class="cls-3" x1="70.4" y1="104.07" x2="5.33" y2="107.36"/><line class="cls-3" x1="83" y1="67.78" x2="4" y2="42.76"/><line class="cls-3" x1="111.42" y1="40.45" x2="65.21" y2="4"/><line class="cls-3" x1="958.85" y1="138.81" x2="1024" y2="137.8"/><line class="cls-3" x1="945" y1="174.64" x2="1023.08" y2="202.41"/><line class="cls-3" x1="915.65" y1="200.95" x2="960.56" y2="239"/><path class="cls-4" d="M220.73,67.94c-24.48,1.31-49.78,3.64-73.79,8.76-2.39.51-3.63-.46-4.07-2.6h0c-.44-2.13.2-3.51,2.62-4,24.35-5.24,50.06-7.72,74.91-8.85,2.47-.11,3.43,1,3.56,3.18h0C224.1,66.57,223.17,67.81,220.73,67.94Z"/></g></g></svg>