<svg xmlns="http://www.w3.org/2000/svg" width="1217.35" height="280.57" viewBox="0 0 1217.35 280.57"><defs><style>.cls-1{fill:#f15a24;}.cls-2{fill:#f7931e;}</style></defs><g id="Assets"><g id="Level_complete" data-name="Level complete"><path class="cls-1" d="M31,162l52.54,65.3q22-1.94,44-3.75L138,240.62q-29.64.28-59.28.61L14,169.54C20.79,166.47,24.19,165,31,162Z"/><path class="cls-1" d="M212.12,240q-31.58.25-63.16.55-29.7-51.35-59.41-102.67,34.32-13.08,69.12-24.64l9.77,23.18q-25.65,7.13-51.1,14.9l13.34,25.07q24.07-5.51,48.27-10.45l9.42,22.16q-23.77,3.51-47.49,7.45c5.23,9.84,7.85,14.76,13.09,24.6q24.1-1.94,48.22-3.69Z"/><path class="cls-1" d="M271.76,240.15l-16.51.09a1364.83,1364.83,0,0,0-87.94-129.83c7.88-2.53,11.83-3.76,19.75-6.17,23.26,33.65,45,68.18,65.57,103.53q-5.65-59.7-8.74-119.58c8-2.08,12-3.09,20-5C265.13,135.56,267.61,187.88,271.76,240.15Z"/><path class="cls-1" d="M379.4,238.9q-31.61.15-63.22.34L274.6,80.56q35.58-8.27,71.43-15,3,15.86,6.1,31.7-26.31,4.16-52.49,9,4.55,18.7,9.1,37.41,24.58-3.42,49.24-6.3,3,15.19,5.9,30.4-24.11,2-48.18,4.49,4.47,18.36,8.93,36.71,24.28-1.2,48.57-2.22Q376.3,222.81,379.4,238.9Z"/><path class="cls-1" d="M378.11,60q12.19,73.79,24.37,147.59,22.26-.74,44.51-1.36l4.08,32.36q-29.68.09-59.37.23Q375.85,151,360,63.05C367.24,61.8,370.86,61.19,378.11,60Z"/><path class="cls-1" d="M560.23,213.79c-6.41,13.21-14.53,28.74-30.93,29.07-39.61.81-51.35-69.53-54.21-97.9C472,114.48,473,42.38,516.81,40.64,534.42,40,545.1,55.1,553.69,68.71c-4.45,9.67-6.63,14.5-10.92,24.15C537,85,530.24,74.69,519,75.55c-28.63,2.18-28.87,48.13-27.06,68.57,1.77,19.86,9.11,64.7,35.27,64.39,10.62-.12,16.33-11.89,20.84-20Q554.23,201.08,560.23,213.79Z"/><path class="cls-1" d="M656.4,141.58c-1,26.12-6.88,101.27-46.64,101.28-40,0-45.73-74.42-46.6-101-1-29.41,2.34-104.16,46.77-104.12S657.56,112.2,656.4,141.58Zm-76.37.55c.59,18.47,4.33,66.74,29.76,66.73s29.18-48.65,29.74-67c.61-19.87-1.94-70.43-29.63-70.45C581.93,71.41,579.39,122.05,580,142.13Z"/><path class="cls-1" d="M752.43,101.47q-19.41,40.28-37.09,81.3l-3.27-.09Q701,139.83,688.72,97.33L680.83,238.7l-15.93,0q4.23-97.67,8.47-195.33c8.44.38,12.66.6,21.09,1.1Q707,86.66,718.3,129.19q17.61-40.32,36.82-79.89c8.35.84,12.52,1.29,20.86,2.26q-10.83,93.64-21.67,187.29l-15.92,0Z"/><path class="cls-1" d="M817.78,186.14c-9.94-.54-14.92-.8-24.87-1.27l-7.68,53.81-15.93-.05L793.12,53.37c15.18,2,30.46,3.9,45.47,6.29C887.24,67.42,863.4,187.66,817.78,186.14Zm-20.36-32.88c10.18.73,15.27,1.13,25.45,2,23,.31,34-57.87,10.43-63.37-10.65-1.43-16-2.11-26.64-3.38Z"/><path class="cls-1" d="M904,72q-15.35,69-30.71,138,22.2,1,44.39,2.13-3.72,13.62-7.45,27.24-29.67-.18-59.35-.33L886,68.32C893.18,69.73,896.78,70.45,904,72Z"/><path class="cls-1" d="M984.38,239.8q-31.61-.24-63.19-.44,22-76.63,44-153.28,35.44,9.15,70.42,19.8c-3.75,9.79-5.62,14.69-9.37,24.49q-25.82-6.57-51.76-12.48L964,152.11q24.4,4.08,48.73,8.72l-9,23.63q-23.9-3.33-47.83-6.21l-10.37,33.58q24.21,1.46,48.39,3.1Z"/><path class="cls-1" d="M1069.23,140.54q-14.45-4.22-29-8.15c3.6-8.89,5.4-13.34,9-22.24q38.38,12.46,76.07,26.75l-10.15,17.75q-14.33-4.65-28.75-9l-47.06,94.61-15.92-.13Q1046.34,190.32,1069.23,140.54Z"/><path class="cls-1" d="M1138.63,241.23q-31.56-.34-63.13-.65l60-99.73q34.24,13.62,67.81,28.69l-11.83,13.11q-24.95-9.32-50.12-18l-14.1,21.4q23.87,6,47.59,12.55l-11.34,12.74q-23.48-4.69-47-8.94l-13.83,21q24,2.11,48,4.45Z"/><path class="cls-2" d="M17.36,162.48l53.78,66.84q22.49-2,45-3.84L126.89,243q-30.33.28-60.67.62L0,170.23C6.93,167.08,10.4,165.53,17.36,162.48Z"/><path class="cls-2" d="M202.76,242.32q-32.32.26-64.65.56-30.41-52.55-60.8-105.09,35.11-13.38,70.74-25.22l10,23.73q-26.26,7.29-52.31,15.25l13.65,25.66q24.65-5.62,49.41-10.7l9.64,22.69q-24.33,3.59-48.61,7.62L143.25,222q24.66-2,49.35-3.79C196.67,227.86,198.7,232.68,202.76,242.32Z"/><path class="cls-2" d="M263.81,242.5l-16.9.1a1393.25,1393.25,0,0,0-90-132.89c8.07-2.59,12.11-3.86,20.21-6.32,23.81,34.45,46,69.79,67.12,106Q238.44,148.25,235.28,87c8.18-2.13,12.28-3.17,20.48-5.18C257,135.45,259.57,189,263.81,242.5Z"/><path class="cls-2" d="M374,241.23q-32.36.15-64.71.34Q288,160.36,266.72,79.15q36.42-8.46,73.11-15.36Q343,80,346.08,96.24q-26.94,4.24-53.73,9.17,4.65,19.16,9.32,38.3,25.15-3.5,50.4-6.45,3,15.56,6,31.12-24.69,2.07-49.32,4.59,4.56,18.79,9.14,37.58,24.85-1.23,49.71-2.28Q370.82,224.76,374,241.23Z"/><path class="cls-2" d="M372.68,58.13q12.46,75.54,24.94,151.08,22.77-.77,45.56-1.4l4.17,33.13q-30.39.1-60.77.23-16.21-90-32.45-179.94C361.54,60,365.25,59.33,372.68,58.13Z"/><path class="cls-2" d="M559.08,215.52c-6.56,13.53-14.87,29.42-31.66,29.76-40.54.83-52.56-71.17-55.48-100.21-3.14-31.19-2.15-105,42.7-106.78,18-.71,29,14.8,37.75,28.73-4.56,9.9-6.79,14.85-11.18,24.72-5.9-8.1-12.82-18.6-24.36-17.72-29.3,2.24-29.55,49.28-27.69,70.19,1.8,20.33,9.32,66.22,36.09,65.91C536.12,210,542,198,546.58,189.62Q552.94,202.51,559.08,215.52Z"/><path class="cls-2" d="M657.52,141.61c-1,26.7-7.07,103.66-47.74,103.67-41,0-46.81-76.52-47.69-103.42-1-30.1,2.39-106.62,47.87-106.58S658.71,111.54,657.52,141.61Zm-78.17.56c.75,19,4.43,68.32,30.46,68.31s30-49.71,30.44-68.57c.52-20.1-1.18-71.6-30.32-72.1S578.58,122.58,579.35,142.17Z"/><path class="cls-2" d="M755.82,100.55q-19.87,41.22-38,83.22l-3.35-.09q-11.31-43.86-23.89-87.36-4,72.35-8.08,144.7l-16.3,0L674.9,41.07c8.63.38,13,.6,21.58,1.11q12.82,43.21,24.4,86.75,18-41.28,37.69-81.78c8.54.86,12.82,1.32,21.35,2.31q-11.08,95.87-22.18,191.72l-16.3-.05Q748.63,170.84,755.82,100.55Z"/><path class="cls-2" d="M822.71,187.22c-10.18-.55-15.27-.81-25.46-1.3L789.39,241l-16.3-.05L797.47,51.32c15.54,2,31.16,4,46.54,6.44C893.74,65.66,869.41,188.88,822.71,187.22Zm-20.84-33.66c10.42.76,15.63,1.16,26,2,23.36-.35,35-59.63,10.67-64.86-10.89-1.47-16.35-2.16-27.27-3.46Z"/><path class="cls-2" d="M911,70.34,879.51,211.56q22.72,1,45.43,2.19-3.81,13.94-7.61,27.88-30.37-.19-60.75-.34,18-87.33,35.92-174.67C899.89,68.06,903.58,68.8,911,70.34Z"/><path class="cls-2" d="M993.24,242.15l-64.68-.45q22.53-78.45,45.07-156.9,36.29,9.36,72.08,20.27l-9.6,25.06q-26.4-6.72-53-12.77-5.4,17.52-10.81,35,25,4.19,49.88,8.92c-3.68,9.67-5.51,14.51-9.19,24.19q-24.45-3.41-48.95-6.35-5.31,17.17-10.61,34.37,24.76,1.48,49.52,3.17C999.08,226.87,997.14,232,993.24,242.15Z"/><path class="cls-2" d="M1080.1,140.55q-14.8-4.32-29.7-8.34l9.23-22.77q39.28,12.75,77.87,27.37L1127.11,155q-14.67-4.76-29.43-9.22l-48.18,96.84-16.28-.14Q1056.65,191.52,1080.1,140.55Z"/><path class="cls-2" d="M1151.13,243.61q-32.31-.35-64.62-.66,30.72-51,61.43-102.08,35,13.92,69.41,29.36l-12.11,13.42q-25.54-9.53-51.3-18.38l-14.43,21.91q24.42,6.15,48.71,12.85l-11.62,13q-24-4.8-48.12-9.14l-14.16,21.5q24.57,2.18,49.11,4.56Z"/></g></g></svg>