<svg xmlns="http://www.w3.org/2000/svg" xmlns:xlink="http://www.w3.org/1999/xlink" width="1920.39" height="1080.18" viewBox="0 0 1920.39 1080.18"><defs><style>.cls-1{isolation:isolate;}.cls-2{fill:#bfb290;}.cls-12,.cls-3{fill:#6b4f36;}.cls-4{fill:#4c3828;}.cls-5{opacity:0.52;mix-blend-mode:multiply;}.cls-6{fill:#4c4b4a;}.cls-7{fill:#a67c52;}.cls-8{fill:#3d2713;}.cls-10,.cls-9{fill:none;stroke:#000;}.cls-10,.cls-12,.cls-9{stroke-miterlimit:10;}.cls-10{stroke-linecap:round;stroke-width:0.75px;}.cls-11{fill:#6b4f3c;}.cls-12{stroke:#261b14;}</style></defs><g class="cls-1"><g id="Assets"><g id="Baggrund_m._alt" data-name="Baggrund m. alt"><g id="BG"><rect class="cls-2" x="3.39" width="1917.01" height="480.5"/><g id="Bar"><rect class="cls-3" x="0.39" y="224.5" width="1917.01" height="19.92"/><rect class="cls-3" x="0.39" y="451.32" width="1917.01" height="33.35"/><rect class="cls-4" x="0.39" y="484.67" width="1917.01" height="152.18"/></g><image class="cls-5" width="448" height="307" transform="translate(1018.69 -16.37)" xlink:href="spil_baggrund1.png"/><rect class="cls-6" x="1125.89" y="4.17" width="6.1" height="136.92"/><rect class="cls-6" x="1345.31" y="4.17" width="6.1" height="136.92"/><path class="cls-3" d="M1435,214.13l-360.65,36.45a5.51,5.51,0,0,1-5.95-5.11L1053,79.3a5.63,5.63,0,0,1,4.9-6.2l360.66-36.45a5.53,5.53,0,0,1,6,5.11l15.4,166.17A5.62,5.62,0,0,1,1435,214.13Z"/><path class="cls-7" d="M1424.7,206.33,1083,240.85a5.5,5.5,0,0,1-6-5.1L1063.29,87.11a5.63,5.63,0,0,1,4.9-6.2l341.68-34.53a5.51,5.51,0,0,1,6,5.11l13.77,148.63A5.63,5.63,0,0,1,1424.7,206.33Z"/><path class="cls-8" d="M1150.15,139.77l-.19-2c4-.78,4.39-1.3,4.17-3.7l-2.6-28c-.22-2.4-.67-2.84-4.77-2.81l-.19-2,14.87-1.5.19,2c-4.3.84-4.79,1.48-4.55,4l2.84,30.6,6-.82c5.7-.76,7.79-1.92,8.71-10l1.79-.18.67,11.68Z"/><path class="cls-8" d="M1173.13,112.54l-.19-2,12.62-1.27.19,2c-3.47.68-4,1.32-2.68,4.18l6.53,14,4.15-15c.84-3.1.15-3.62-3.4-3.56l-.19-2,10.17-1,.19,2c-2.57.66-3,1-4.15,4.81l-4.71,16.18-1.45,5-3.13,12.71-4.6.46v-.1c1.32-3.29,3.45-8.73,5.15-13.16l-9.68-19.24C1176.4,113.31,1175.68,112.82,1173.13,112.54Z"/><path class="cls-8" d="M1212.49,105.92a12.78,12.78,0,0,1,5.51.55l9.23-1.45.26,2.81-6.57.34a7.66,7.66,0,0,1,3.25,5.78c.53,5.79-4.28,9.83-9.85,10.4a18.5,18.5,0,0,1-3.17,0c-2.18,1-2.94,2.18-2.82,3.49.16,1.71,1.64,2.45,4.22,2.19l6.37-.65c5.82-.58,9.51,1.63,9.92,6.11.51,5.44-4.49,10-12.43,10.79s-12.61-1.63-13-5.74c-.25-2.67,1.88-5,6.24-6.42-2.89,0-5.18-1.36-5.42-3.93s1.56-4.62,4.91-6.26a8.1,8.1,0,0,1-6.81-7.49C1201.83,110.85,1206.3,106.55,1212.49,105.92Zm1.6,15.92c3.12-.32,5.34-3.29,5-7.11-.39-4.24-2.91-6.65-6.62-6.27-3.34.33-5.36,3.34-5,7.13C1207.86,120,1210.74,122.18,1214.09,121.84Zm2.24,21.64c5.34-.54,8.42-3.17,8.13-6.26-.22-2.41-2-3.81-6.14-3.4l-6.74.69c-2.56.77-3.87,2.51-3.66,4.76C1208.19,142.2,1211.24,144,1216.33,143.48Z"/><path class="cls-8" d="M1233,107.27l-3.5.35-.13-1.41,7-7.12.89-.09.48,5.12,8.08-1,.26,2.8-8.11.71,1.41,15.16c.44,4.75,2.64,5.92,5.42,5.64a7,7,0,0,0,3.59-1.38l.18,2c-1.05,1.43-3.39,2.66-6.17,2.95-3.86.39-7.38-1.47-7.94-7.5Z"/><path class="cls-8" d="M1261.11,101c6.92-.7,11.14,3.29,11.8,10.41.06.67.1,1.36.09,1.85l-17.68,1.78c.89,6.84,5.28,10.75,11.33,10.14a10.25,10.25,0,0,0,6.61-3.25l.19,2c-1.63,2.4-4.9,4.4-9.25,4.84-7.2.73-13.17-3.87-14-12.46C1249.46,108.06,1253.93,101.76,1261.11,101Zm-6,11.7,12.85-1.3v-.06c-.49-5.33-2.9-8-6.68-7.59S1255,107,1255.13,112.74Z"/><path class="cls-8" d="M1285.19,103a9.79,9.79,0,0,1,8.06-5.2c5.29-.53,9.21,2.25,9.71,7.69l1.33,14.35c.15,1.6.57,1.94,4,2l.19,2L1296.14,125l-.19-2c3.08-.66,3.43-1,3.29-2.57l-1.2-13c-.41-4.38-3-6.49-6.73-6.11a7,7,0,0,0-5.8,3.63l1.55,16.7c.14,1.52.55,1.83,3.73,1.86l.19,2-12.32,1.24-.19-2c3.32-.69,3.69-1.1,3.54-2.7L1280.43,105c-.14-1.44-.4-1.76-1.91-2l-2.1-.31-.16-1.78,8.56-2Z"/><path class="cls-8" d="M1320,95.06c4-.4,7,.26,8.62,1.18l.83,6.64-1.79.19c-1.08-3.83-4-5.58-7.37-5.24-3.2.32-5.23,2-5,4.47s2.28,3.37,5.61,4l2.12.38c4.88.86,8,2.94,8.39,7.37.45,4.77-3.76,8.32-9.33,8.88a17.35,17.35,0,0,1-9.71-1.49l-.83-6.78,1.78-.19a7.56,7.56,0,0,0,8.45,5.7c3.4-.35,5.38-2.33,5.15-4.81s-1.77-3.48-5.49-4.15l-2.15-.38c-4.83-.86-8.08-2.87-8.48-7.17C1310.33,98.94,1314,95.67,1320,95.06Z"/><path class="cls-8" d="M1219.73,196.87l.19,2-14.26,1.44-.19-2c4-.78,4.39-1.31,4.17-3.71l-2.59-28c-.22-2.4-.68-2.84-4.77-2.8l-.19-2,14.26-1.44.19,2.06c-3.75.75-4.19,1.25-4,3.58l1.13,12.14,4.62-.47,7.21-11.29c2.38-3.79,1.85-4.76-2.5-4.65l-.18-2,12.82-1.3.19,2c-2.74.76-4.36,2.21-7.89,7.2-2,2.79-3.89,5.59-5.66,8.25l9.42,12.35c4,5.18,5.5,6.45,7.62,6.8l.18,1.87-7.54.76-13.4-17.63-4.67.47,1.26,13.63C1215.39,196.47,1215.91,196.88,1219.73,196.87Z"/><path class="cls-8" d="M1247.66,174.36c2.82-4.08,5-6.22,7.37-6.45a2.6,2.6,0,0,1,3.08,2.65,3.46,3.46,0,0,1-.3,1.94,10.67,10.67,0,0,0-2.56,0c-2.94.3-6.13,1.78-7.31,3.51l1.41,15.21c.19,2,.62,2.25,4.41,2.22l.19,2-13,1.31-.19-2c3.31-.69,3.69-1.1,3.54-2.7l-1.59-17.1c-.13-1.44-.39-1.77-1.91-2l-2.09-.3-.17-1.79,8.56-2Z"/><path class="cls-8" d="M1261.33,181.36c-.77-8.3,4.37-14.64,11.91-15.4,7.31-.74,13.36,4.41,14.11,12.52.77,8.3-4.4,14.64-11.94,15.4C1268.13,194.62,1262.08,189.47,1261.33,181.36Zm20.62-1.79c-.65-7.1-4.39-11.25-8.86-10.79-4.65.46-7,4.82-6.36,11.49.65,7.1,4.34,11.25,8.84,10.8C1280.24,190.59,1282.57,186.24,1282,179.57Z"/><path class="cls-9" d="M1420,96.86c-27,2.73-51-17.91-53.6-46.09"/><path class="cls-9" d="M1416.75,61.51c-8.29.84-15.67-5.5-16.47-14.16"/><path class="cls-9" d="M1417.67,71.34c-13.5,1.37-25.5-9-26.81-23"/><path class="cls-9" d="M1418.89,84.55c-20.48,2.07-38.69-13.59-40.68-35"/><line class="cls-10" x1="1414.26" y1="47.65" x2="1371.86" y2="69.76"/><line class="cls-10" x1="1401.89" y1="95.16" x2="1414.26" y2="47.65"/><line class="cls-10" x1="1383.09" y1="84.52" x2="1414.26" y2="47.65"/><g id="Gulv"><rect class="cls-11" x="0.39" y="636.85" width="1916.68" height="434.67"/><line class="cls-12" x1="1911.54" y1="636.85" x2="1911.54" y2="1071.53"/><line class="cls-12" x1="1627.36" y1="636.85" x2="1892.08" y2="1071.53"/><line class="cls-12" x1="1729.27" y1="636.85" x2="1917.4" y2="877.59"/><line class="cls-12" x1="1814.64" y1="636.85" x2="1917.07" y2="719.18"/><line class="cls-12" x1="1513.03" y1="636.85" x2="1716.57" y2="1071.53"/><line class="cls-12" x1="1398.49" y1="636.85" x2="1568.58" y2="1080"/><line class="cls-12" x1="1281.44" y1="627.68" x2="1420.03" y2="1071.53"/><line class="cls-12" x1="1166.21" y1="637.87" x2="1262.06" y2="1071.53"/><line class="cls-12" x1="1034.04" y1="637.19" x2="1102.87" y2="1071.53"/><line class="cls-12" x1="290.43" y1="636.85" x2="25.71" y2="1071.53"/><line class="cls-12" x1="188.52" y1="636.85" x2="0.39" y2="877.59"/><line class="cls-12" x1="103.15" y1="636.85" x2="0.72" y2="719.18"/><line class="cls-12" x1="404.76" y1="636.85" x2="201.22" y2="1071.53"/><line class="cls-12" x1="519.3" y1="636.85" x2="349.21" y2="1080"/><line class="cls-12" x1="636.35" y1="627.68" x2="497.76" y2="1071.53"/><line class="cls-12" x1="751.59" y1="637.87" x2="655.73" y2="1071.53"/><line class="cls-12" x1="883.76" y1="637.19" x2="814.92" y2="1071.53"/></g></g></g></g></g></svg>