<svg xmlns="http://www.w3.org/2000/svg" xmlns:xlink="http://www.w3.org/1999/xlink" width="1920.39" height="1080.18" viewBox="0 0 1920.39 1080.18"><defs><style>.cls-1{fill:#bfb290;}.cls-2,.cls-5{fill:#6b4f36;}.cls-3{fill:#4c3828;}.cls-4{fill:#6b4f3c;}.cls-5{stroke:#261b14;}.cls-32,.cls-33,.cls-5{stroke-miterlimit:10;}.cls-6,.cls-9{fill:#cee0e0;}.cls-6{opacity:0.5;}.cls-7{fill:#e5f9f9;opacity:0.25;}.cls-8{fill:#e6ffff;opacity:0.6;}.cls-9{opacity:0.8;}.cls-10{fill:#1a371b;}.cls-10,.cls-11,.cls-12,.cls-13,.cls-14,.cls-15,.cls-16,.cls-17,.cls-18,.cls-19,.cls-20,.cls-21,.cls-22,.cls-23,.cls-24,.cls-25,.cls-26,.cls-27{fill-rule:evenodd;}.cls-11{fill:#9b8a5a;}.cls-12,.cls-26,.cls-27{fill:#fff;}.cls-12{fill-opacity:0.38;}.cls-13{fill:#0e1f0f;}.cls-14{fill:#908b7b;}.cls-15{fill:#bf764d;}.cls-16{fill:#3c4f71;}.cls-17{fill:#ad6168;}.cls-18{fill:#6a6839;}.cls-19{fill:#518687;}.cls-20{fill:#4d4c28;}.cls-21{fill:#312952;}.cls-22{fill:#7f403e;}.cls-23{fill:#1d1830;}.cls-24{fill:#757676;}.cls-25{fill:#8a8a8a;}.cls-26{fill-opacity:0.34;}.cls-27{fill-opacity:0.19;}.cls-28{filter:url(#AI_BevelShadow_1);}.cls-29{fill:#4c4b4a;}.cls-30{fill:#a67c52;}.cls-31{fill:#3d2713;}.cls-32,.cls-33{fill:none;stroke:#000;}.cls-33{stroke-linecap:round;stroke-width:0.75px;}</style><filter id="AI_BevelShadow_1" x="-20%" y="-20%" width="140%" height="140%" name="AI_BevelShadow_1"><feGaussianBlur result="blur" stdDeviation="4" in="SourceAlpha"/><feOffset result="offsetBlur" dx="4" dy="4" in="blur"/><feSpecularLighting result="specOut" surfaceScale="5" specularExponent="10" in="blur"><fePointLight x="-5000" y="-10000" z="-20000"/></feSpecularLighting><feComposite result="specOut" operator="in" in="specOut" in2="SourceAlpha"/><feComposite result="litPaint" operator="arithmetic" k2="1" k3="1" in="SourceGraphic" in2="specOut"/><feMerge><feMergeNode in="offsetBlur"/><feMergeNode in="litPaint"/></feMerge></filter></defs><g id="Assets"><g id="Baggrund_m._alt" data-name="Baggrund m. alt"><g id="BG"><rect class="cls-1" x="0.39" width="1920" height="480.5"/><g id="Bar"><rect class="cls-2" x="0.39" y="224.5" width="1920" height="19.92"/><rect class="cls-2" x="0.39" y="451.32" width="1920" height="33.35"/><rect class="cls-3" x="0.39" y="484.67" width="1920" height="152.18"/></g><g id="Gulv"><rect class="cls-4" x="0.39" y="636.85" width="1920" height="443.32"/><line class="cls-5" x1="1627.36" y1="636.85" x2="1897.35" y2="1080.18"/><line class="cls-5" x1="1729.27" y1="636.85" x2="1920.39" y2="881.42"/><line class="cls-5" x1="1814.64" y1="636.85" x2="1917.07" y2="719.18"/><line class="cls-5" x1="1513.03" y1="636.85" x2="1720.62" y2="1080.18"/><line class="cls-5" x1="1398.49" y1="636.85" x2="1568.58" y2="1080"/><line class="cls-5" x1="1284.31" y1="636.85" x2="1422.73" y2="1080.18"/><line class="cls-5" x1="1166.21" y1="637.87" x2="1263.98" y2="1080.18"/><line class="cls-5" x1="1034.04" y1="637.19" x2="1104.24" y2="1080.18"/><line class="cls-5" x1="290.43" y1="636.85" x2="20.44" y2="1080.18"/><line class="cls-5" x1="188.52" y1="636.85" x2="0.39" y2="877.59"/><line class="cls-5" x1="103.15" y1="636.85" x2="0.72" y2="719.18"/><line class="cls-5" x1="404.76" y1="636.85" x2="197.17" y2="1080.18"/><line class="cls-5" x1="519.3" y1="636.85" x2="349.21" y2="1080"/><line class="cls-5" x1="633.49" y1="636.85" x2="495.06" y2="1080.18"/><line class="cls-5" x1="751.59" y1="637.87" x2="653.82" y2="1080.18"/><line class="cls-5" x1="883.76" y1="637.19" x2="813.55" y2="1080.18"/></g><g id="kander"><path class="cls-6" d="M700.35,322.85,668.2,355a1.72,1.72,0,0,1-2.37,0l-64.64-57,40-40,59.08,62.22A1.92,1.92,0,0,1,700.35,322.85Z"/><path class="cls-7" d="M696.78,320.86l-30.47,30.48a1.66,1.66,0,0,1-2.26,0l-61.72-54.5,38-38,56.45,59.43A1.83,1.83,0,0,1,696.78,320.86Z"/><polygon class="cls-8" points="675.85 341.8 669.17 348.47 606.52 292.65 616.61 282.56 675.85 341.8"/><path class="cls-9" d="M685.57,304.65l10.36-10.36a4.51,4.51,0,0,0,0-6.38L669.1,261.08a4.51,4.51,0,0,0-6.38,0l-9.5,9.5,4,4.26,3.68-3.67a4,4,0,0,1,5.66,0l19,19a4,4,0,0,1,0,5.66l-4.31,4.32Z"/><path class="cls-9" d="M661.64,262.16l-1.4,1.4a4.5,4.5,0,0,1,6.37,0l26.83,26.84a4.5,4.5,0,0,1,0,6.37l1.41-1.4a4.51,4.51,0,0,0,0-6.38L668,262.16A4.51,4.51,0,0,0,661.64,262.16Z"/><path class="cls-6" d="M519.67,322.85,487.52,355a1.72,1.72,0,0,1-2.37,0l-64.64-57,40-40,59.08,62.22A1.92,1.92,0,0,1,519.67,322.85Z"/><path class="cls-7" d="M516.1,320.86l-30.47,30.48a1.66,1.66,0,0,1-2.26,0l-61.72-54.5,38-38,56.45,59.43A1.83,1.83,0,0,1,516.1,320.86Z"/><polygon class="cls-8" points="495.17 341.8 488.49 348.47 425.84 292.65 435.93 282.56 495.17 341.8"/><path class="cls-9" d="M504.89,304.65l10.36-10.36a4.51,4.51,0,0,0,0-6.38l-26.83-26.83a4.51,4.51,0,0,0-6.38,0l-9.5,9.5,4,4.26,3.68-3.67a4,4,0,0,1,5.66,0l19,19a4,4,0,0,1,0,5.66l-4.31,4.32Z"/><path class="cls-9" d="M481,262.16l-1.4,1.4a4.5,4.5,0,0,1,6.37,0l26.83,26.84a4.5,4.5,0,0,1,0,6.37l1.41-1.4a4.51,4.51,0,0,0,0-6.38l-26.83-26.83A4.51,4.51,0,0,0,481,262.16Z"/><path class="cls-6" d="M338.08,322.85,305.93,355a1.72,1.72,0,0,1-2.37,0l-64.64-57,40-40L338,320.17A1.93,1.93,0,0,1,338.08,322.85Z"/><path class="cls-7" d="M334.51,320.86,304,351.34a1.65,1.65,0,0,1-2.25,0l-61.72-54.5,38-38,56.45,59.43A1.83,1.83,0,0,1,334.51,320.86Z"/><polygon class="cls-8" points="313.58 341.8 306.9 348.47 244.25 292.65 254.34 282.56 313.58 341.8"/><path class="cls-9" d="M323.3,304.65l10.36-10.36a4.51,4.51,0,0,0,0-6.38l-26.84-26.83a4.5,4.5,0,0,0-6.37,0l-9.5,9.5,4.05,4.26,3.67-3.67a4,4,0,0,1,5.67,0l19,19a4,4,0,0,1,0,5.66L319,300.16Z"/><path class="cls-9" d="M299.37,262.16l-1.41,1.4a4.51,4.51,0,0,1,6.38,0l26.83,26.84a4.5,4.5,0,0,1,0,6.37l1.41-1.4a4.51,4.51,0,0,0,0-6.38l-26.83-26.83A4.51,4.51,0,0,0,299.37,262.16Z"/><path class="cls-6" d="M155.1,322.85,123,355a1.72,1.72,0,0,1-2.37,0L56,298l40-40,59.08,62.22A1.92,1.92,0,0,1,155.1,322.85Z"/><path class="cls-7" d="M151.54,320.86l-30.48,30.48a1.66,1.66,0,0,1-2.26,0l-61.71-54.5,38-38,56.45,59.43A1.83,1.83,0,0,1,151.54,320.86Z"/><polygon class="cls-8" points="130.6 341.8 123.93 348.47 61.28 292.65 71.37 282.56 130.6 341.8"/><path class="cls-9" d="M140.33,304.65l10.35-10.36a4.51,4.51,0,0,0,0-6.38l-26.83-26.83a4.5,4.5,0,0,0-6.37,0l-9.5,9.5,4,4.26,3.67-3.67a4,4,0,0,1,5.67,0l19,19a4,4,0,0,1,0,5.66l-4.32,4.32Z"/><path class="cls-9" d="M116.4,262.16l-1.41,1.4a4.51,4.51,0,0,1,6.38,0L148.2,290.4a4.5,4.5,0,0,1,0,6.37l1.4-1.4a4.51,4.51,0,0,0,0-6.38l-26.83-26.83A4.5,4.5,0,0,0,116.4,262.16Z"/><path class="cls-6" d="M1444.81,322.85,1412.67,355a1.73,1.73,0,0,1-2.38,0l-64.63-57,40-40,59.08,62.22A1.91,1.91,0,0,1,1444.81,322.85Z"/><path class="cls-7" d="M1441.25,320.86l-30.48,30.48a1.66,1.66,0,0,1-2.26,0l-61.72-54.5,38-38,56.44,59.43A1.82,1.82,0,0,1,1441.25,320.86Z"/><polygon class="cls-8" points="1420.31 341.8 1413.63 348.47 1350.99 292.65 1361.08 282.56 1420.31 341.8"/><path class="cls-9" d="M1430,304.65l10.36-10.36a4.51,4.51,0,0,0,0-6.38l-26.83-26.83a4.51,4.51,0,0,0-6.38,0l-9.49,9.5,4,4.26,3.68-3.67a4,4,0,0,1,5.67,0l19,19a4,4,0,0,1,0,5.66l-4.31,4.32Z"/><path class="cls-9" d="M1406.1,262.16l-1.4,1.4a4.51,4.51,0,0,1,6.38,0l26.83,26.84a4.5,4.5,0,0,1,0,6.37l1.4-1.4a4.51,4.51,0,0,0,0-6.38l-26.83-26.83A4.51,4.51,0,0,0,1406.1,262.16Z"/><path class="cls-6" d="M1264.13,322.85,1232,355a1.73,1.73,0,0,1-2.38,0L1165,298l40-40,59.08,62.22A1.91,1.91,0,0,1,1264.13,322.85Z"/><path class="cls-7" d="M1260.57,320.86l-30.48,30.48a1.66,1.66,0,0,1-2.26,0l-61.72-54.5,38-38,56.44,59.43A1.82,1.82,0,0,1,1260.57,320.86Z"/><polygon class="cls-8" points="1239.63 341.8 1232.95 348.47 1170.31 292.65 1180.4 282.56 1239.63 341.8"/><path class="cls-9" d="M1249.35,304.65l10.36-10.36a4.51,4.51,0,0,0,0-6.38l-26.83-26.83a4.51,4.51,0,0,0-6.38,0l-9.49,9.5,4,4.26,3.68-3.67a4,4,0,0,1,5.67,0l19,19a4,4,0,0,1,0,5.66l-4.31,4.32Z"/><path class="cls-9" d="M1225.42,262.16l-1.4,1.4a4.51,4.51,0,0,1,6.38,0l26.83,26.84a4.5,4.5,0,0,1,0,6.37l1.4-1.4a4.51,4.51,0,0,0,0-6.38l-26.83-26.83A4.51,4.51,0,0,0,1225.42,262.16Z"/><path class="cls-6" d="M1082.54,322.85,1050.4,355a1.73,1.73,0,0,1-2.38,0l-64.63-57,40-40,59.08,62.22A1.91,1.91,0,0,1,1082.54,322.85Z"/><path class="cls-7" d="M1079,320.86l-30.48,30.48a1.66,1.66,0,0,1-2.26,0l-61.72-54.5,38-38,56.44,59.43A1.82,1.82,0,0,1,1079,320.86Z"/><polygon class="cls-8" points="1058.04 341.8 1051.37 348.47 988.72 292.65 998.81 282.56 1058.04 341.8"/><path class="cls-9" d="M1067.76,304.65l10.36-10.36a4.51,4.51,0,0,0,0-6.38l-26.83-26.83a4.51,4.51,0,0,0-6.38,0l-9.49,9.5,4,4.26,3.68-3.67a4,4,0,0,1,5.66,0l19,19a4,4,0,0,1,0,5.66l-4.31,4.32Z"/><path class="cls-9" d="M1043.83,262.16l-1.4,1.4a4.51,4.51,0,0,1,6.38,0l26.83,26.84a4.5,4.5,0,0,1,0,6.37l1.4-1.4a4.51,4.51,0,0,0,0-6.38l-26.83-26.83A4.51,4.51,0,0,0,1043.83,262.16Z"/><path class="cls-6" d="M899.57,322.85,867.42,355a1.72,1.72,0,0,1-2.37,0l-64.64-57,40-40,59.08,62.22A1.92,1.92,0,0,1,899.57,322.85Z"/><path class="cls-7" d="M896,320.86l-30.48,30.48a1.66,1.66,0,0,1-2.26,0l-61.72-54.5,38-38L896,318.31A1.84,1.84,0,0,1,896,320.86Z"/><polygon class="cls-8" points="875.07 341.8 868.39 348.47 805.75 292.65 815.84 282.56 875.07 341.8"/><path class="cls-9" d="M884.79,304.65l10.36-10.36a4.51,4.51,0,0,0,0-6.38l-26.83-26.83a4.51,4.51,0,0,0-6.38,0l-9.5,9.5,4,4.26,3.68-3.67a4,4,0,0,1,5.66,0l19,19a4,4,0,0,1,0,5.66l-4.31,4.32Z"/><path class="cls-9" d="M860.86,262.16l-1.4,1.4a4.5,4.5,0,0,1,6.37,0l26.83,26.84a4.48,4.48,0,0,1,0,6.37l1.41-1.4a4.51,4.51,0,0,0,0-6.38l-26.83-26.83A4.51,4.51,0,0,0,860.86,262.16Z"/><path class="cls-6" d="M1819.48,322.85,1787.34,355a1.72,1.72,0,0,1-2.37,0l-64.64-57,40-40,59.08,62.22A1.92,1.92,0,0,1,1819.48,322.85Z"/><path class="cls-7" d="M1815.92,320.86l-30.48,30.48a1.66,1.66,0,0,1-2.26,0l-61.71-54.5,38-38,56.45,59.43A1.83,1.83,0,0,1,1815.92,320.86Z"/><polygon class="cls-8" points="1794.98 341.8 1788.31 348.47 1725.66 292.65 1735.75 282.56 1794.98 341.8"/><path class="cls-9" d="M1804.71,304.65l10.35-10.36a4.51,4.51,0,0,0,0-6.38l-26.83-26.83a4.5,4.5,0,0,0-6.37,0l-9.5,9.5,4.05,4.26,3.67-3.67a4,4,0,0,1,5.67,0l19,19a4,4,0,0,1,0,5.66l-4.32,4.32Z"/><path class="cls-9" d="M1780.78,262.16l-1.41,1.4a4.51,4.51,0,0,1,6.38,0l26.83,26.84a4.5,4.5,0,0,1,0,6.37l1.4-1.4a4.51,4.51,0,0,0,0-6.38l-26.83-26.83A4.5,4.5,0,0,0,1780.78,262.16Z"/><path class="cls-6" d="M1636.51,322.85,1604.37,355a1.73,1.73,0,0,1-2.38,0l-64.63-57,40-40,59.08,62.22A1.91,1.91,0,0,1,1636.51,322.85Z"/><path class="cls-7" d="M1633,320.86l-30.48,30.48a1.66,1.66,0,0,1-2.26,0l-61.72-54.5,38-38,56.44,59.43A1.82,1.82,0,0,1,1633,320.86Z"/><polygon class="cls-8" points="1612.01 341.8 1605.34 348.47 1542.69 292.65 1552.78 282.56 1612.01 341.8"/><path class="cls-9" d="M1621.73,304.65l10.36-10.36a4.51,4.51,0,0,0,0-6.38l-26.83-26.83a4.51,4.51,0,0,0-6.38,0l-9.49,9.5,4,4.26,3.67-3.67a4,4,0,0,1,5.67,0l19,19a4,4,0,0,1,0,5.66l-4.31,4.32Z"/><path class="cls-9" d="M1597.8,262.16l-1.4,1.4a4.51,4.51,0,0,1,6.38,0l26.83,26.84a4.5,4.5,0,0,1,0,6.37l1.4-1.4a4.51,4.51,0,0,0,0-6.38l-26.83-26.83A4.51,4.51,0,0,0,1597.8,262.16Z"/></g><g id="Beer2"><path class="cls-10" d="M201.13,79s-1.51,3.47-1.44,4.94A2,2,0,0,0,201,85.78s-4.33,23.88-4.28,40.85c0,0-8.18,10.76-8.18,15.05l-.05,73.72a9.64,9.64,0,0,0,1.71,2.82l0,5.18c0,1,1.52,1.88,2.05,1.88,0,0,23.08,0,31.83-.19a2.62,2.62,0,0,0,2-1.94c.07-.21,0-3.9.07-4.76,0-.58,1.71-2.08,1.71-3.26s-.07-71.33-.14-74.09-7.61-13.22-8.5-15.54c.9-16.19-4-39.62-4-39.62s1.36-1,1.39-1.49a53.92,53.92,0,0,0-1.51-5.62c.13,0,1-.15,1.17-.38a6.87,6.87,0,0,0-.14-1.93,10.81,10.81,0,0,0-2.46-1.63l-11,0a5.37,5.37,0,0,0-2.57,1.53,2.77,2.77,0,0,0-.19,2.12C200.18,78.88,201.13,79,201.13,79Z"/><path class="cls-11" d="M201,85.81c0,.1-2.07,11.57-3.32,24.23h21.1a243,243,0,0,0-3.52-24.16Z"/><path class="cls-11" d="M188.55,149.85l0,55.24h39.37c0-17.52-.06-48.1-.11-55.24Z"/><path class="cls-12" d="M204.77,74.82a5.26,5.26,0,0,0-2.57,1.52,2.75,2.75,0,0,0-.19,2.13c.26.41,1.21.53,1.21.53s-1.52,3.47-1.44,4.94a2,2,0,0,0,1.32,1.84s-4.33,23.88-4.28,40.85c0,0-8.18,10.76-8.18,15.05l0,73.72a9.64,9.64,0,0,0,1.71,2.82l0,5.18c0,1,1.52,1.88,2,1.88h4.34c-.54,0-2-.83-2-1.87l0-5.18A9.64,9.64,0,0,1,195,215.4l.05-73.72c0-4.29,8.17-15.05,8.17-15.05,0-17,4.29-40.85,4.29-40.85a2,2,0,0,1-1.32-1.84c-.07-1.47,1.44-4.94,1.44-4.94s-1-.12-1.21-.53a2.79,2.79,0,0,1,.19-2.13,5.41,5.41,0,0,1,2.55-1.52Z"/><path class="cls-13" d="M202.68,74.82a5.26,5.26,0,0,0-2.57,1.52,2.75,2.75,0,0,0-.19,2.13c.26.41,1.21.53,1.21.53s-1.51,3.47-1.44,4.94A2.11,2.11,0,0,0,201,85.81l14.27.07c.34-.26,1.37-1.11,1.39-1.49a53.92,53.92,0,0,0-1.51-5.62c.13,0,1-.15,1.17-.38a6.5,6.5,0,0,0-.15-1.93,10.54,10.54,0,0,0-2.45-1.63Z"/><path class="cls-14" d="M202.68,74.82a5.26,5.26,0,0,0-2.57,1.52,2.75,2.75,0,0,0-.19,2.13,1.86,1.86,0,0,0,1.22.53l14-.23c.13,0,1-.15,1.17-.38a6.5,6.5,0,0,0-.15-1.93,10.54,10.54,0,0,0-2.45-1.63Z"/></g><g id="Beer1"><path class="cls-15" d="M152.91,78.31s-1.51,3.48-1.44,4.94a2,2,0,0,0,1.32,1.84S148.46,109,148.51,126c0,0-8.18,10.75-8.18,15l0,73.72a9.64,9.64,0,0,0,1.71,2.82v5.19c0,1,1.52,1.87,2.05,1.87,0,0,23.08,0,31.83-.19a2.63,2.63,0,0,0,2-1.93c.08-.22,0-3.91.08-4.77,0-.58,1.7-2.08,1.7-3.26s-.06-71.33-.14-74.09-7.61-13.22-8.5-15.54c.91-16.19-4-39.62-4-39.62s1.36-1,1.4-1.49a56.53,56.53,0,0,0-1.51-5.62c.12,0,1-.15,1.16-.38a6.55,6.55,0,0,0-.14-1.93,10.59,10.59,0,0,0-2.46-1.63h-11a5.3,5.3,0,0,0-2.57,1.52,2.75,2.75,0,0,0-.18,2.13C152,78.19,152.91,78.31,152.91,78.31Z"/><path class="cls-16" d="M152.79,85.12c0,.1-2.06,11.57-3.32,24.23h21.1a243,243,0,0,0-3.52-24.16Z"/><path class="cls-16" d="M140.34,149.16l0,55.24h39.36c0-17.52,0-48.1-.11-55.24Z"/><path class="cls-17" d="M154.46,74.13a5.3,5.3,0,0,0-2.57,1.52,2.79,2.79,0,0,0-.19,2.13c.26.41,1.21.53,1.21.53s-1.51,3.47-1.44,4.94a2.12,2.12,0,0,0,1.32,1.87l14.26.07c.34-.26,1.37-1.11,1.4-1.49a56.27,56.27,0,0,0-1.52-5.62c.13,0,1-.15,1.17-.38a6.87,6.87,0,0,0-.14-1.93,10.81,10.81,0,0,0-2.46-1.63Z"/><path class="cls-16" d="M154.46,74.13a5.3,5.3,0,0,0-2.57,1.52,2.79,2.79,0,0,0-.19,2.13,1.88,1.88,0,0,0,1.22.53l14-.23c.13,0,1-.15,1.17-.38a6.87,6.87,0,0,0-.14-1.93,10.81,10.81,0,0,0-2.46-1.63Z"/><path class="cls-12" d="M156.55,74.13A5.26,5.26,0,0,0,154,75.65a2.79,2.79,0,0,0-.19,2.13c.26.41,1.21.53,1.21.53s-1.51,3.47-1.44,4.94a2,2,0,0,0,1.32,1.84s-4.32,23.88-4.28,40.85c0,0-8.17,10.76-8.17,15.05l-.05,73.72a9.64,9.64,0,0,0,1.71,2.82v5.19c0,1,1.52,1.87,2.05,1.87h4.34c-.55,0-2-.83-2-1.86l0-5.19a9.5,9.5,0,0,1-1.7-2.82l0-73.72c0-4.29,8.18-15.05,8.18-15.05-.05-17,4.28-40.85,4.28-40.85a2,2,0,0,1-1.32-1.84c-.07-1.47,1.44-4.94,1.44-4.94s-1-.12-1.21-.53a2.79,2.79,0,0,1,.19-2.13,5.46,5.46,0,0,1,2.55-1.52Z"/></g><g id="Beer2-2" data-name="Beer2"><path class="cls-18" d="M252.14,114.26s-1.52,2.62-1.45,3.72,1.33,1.39,1.33,1.39-4.33,18-4.29,30.81c0,0-8.17,8.12-8.17,11.35l-.05,55.61a7.2,7.2,0,0,0,1.71,2.13v3.91c0,.79,1.52,1.41,2.05,1.41,0,0,23.09,0,31.84-.14.8,0,2-.93,2-1.46.07-.16,0-3,.07-3.6,0-.43,1.7-1.56,1.7-2.46s-.06-53.8-.13-55.88-7.62-10-8.51-11.72c.91-12.21-4-29.89-4-29.89s1.37-.77,1.4-1.12a34.74,34.74,0,0,0-1.51-4.24,3,3,0,0,0,1.16-.28c0-.27,0-1.32-.14-1.46a11.47,11.47,0,0,0-2.45-1.23h-11a6,6,0,0,0-2.58,1.15,1.62,1.62,0,0,0-.18,1.6C251.19,114.17,252.14,114.26,252.14,114.26Z"/><path class="cls-19" d="M252,119.39c0,.08-2.06,8.73-3.31,18.28h21.1a142.85,142.85,0,0,0-3.53-18.23Z"/><path class="cls-19" d="M239.56,167.7l0,41.66h39.37c0-13.21-.06-36.28-.11-41.66Z"/><path class="cls-20" d="M253.69,111.1a6,6,0,0,0-2.58,1.15,1.62,1.62,0,0,0-.18,1.6c.25.32,1.2.41,1.2.41s-1.51,2.62-1.44,3.72a1.72,1.72,0,0,0,1.32,1.41l14.26.06c.35-.2,1.37-.84,1.4-1.13a34.74,34.74,0,0,0-1.51-4.24,2.87,2.87,0,0,0,1.16-.29,3.74,3.74,0,0,0-.14-1.45,11.47,11.47,0,0,0-2.45-1.23Z"/><path class="cls-19" d="M253.69,111.1a6,6,0,0,0-2.58,1.15,1.62,1.62,0,0,0-.18,1.6,2.18,2.18,0,0,0,1.21.41l14-.18a2.87,2.87,0,0,0,1.16-.29,3.74,3.74,0,0,0-.14-1.45,11.47,11.47,0,0,0-2.45-1.23Z"/><path class="cls-12" d="M255.78,111.1a6,6,0,0,0-2.58,1.15,1.62,1.62,0,0,0-.18,1.6c.25.32,1.2.41,1.2.41s-1.51,2.62-1.44,3.72,1.32,1.39,1.32,1.39-4.32,18-4.28,30.81c0,0-8.17,8.12-8.17,11.35l-.05,55.61a7.2,7.2,0,0,0,1.71,2.13v3.91c0,.79,1.52,1.41,2.05,1.41h4.34c-.54,0-2-.62-2-1.4v-3.91a7.2,7.2,0,0,1-1.71-2.13l0-55.61c0-3.23,8.18-11.35,8.18-11.35-.05-12.8,4.28-30.81,4.28-30.81s-1.24-.28-1.31-1.39,1.44-3.72,1.44-3.72-1-.09-1.21-.41a1.62,1.62,0,0,1,.18-1.6,6,6,0,0,1,2.56-1.15Z"/></g><g id="Beer2-3" data-name="Beer2"><path class="cls-21" d="M107.07,78.31s-1.52,3.48-1.44,4.94A2,2,0,0,0,107,85.09S102.62,109,102.67,126c0,0-8.18,10.75-8.18,15l0,73.72a9.64,9.64,0,0,0,1.71,2.82v5.19c0,1,1.53,1.87,2,1.87,0,0,23.09,0,31.84-.19a2.64,2.64,0,0,0,2-1.93c.07-.22,0-3.91.07-4.77,0-.58,1.71-2.08,1.71-3.26s-.07-71.33-.14-74.09-7.62-13.22-8.51-15.54c.91-16.19-4-39.62-4-39.62s1.37-1,1.4-1.49a56.53,56.53,0,0,0-1.51-5.62c.13,0,1-.15,1.17-.38a6.53,6.53,0,0,0-.15-1.93,10.54,10.54,0,0,0-2.45-1.63h-11a5.26,5.26,0,0,0-2.57,1.52,2.75,2.75,0,0,0-.19,2.13C106.12,78.19,107.07,78.31,107.07,78.31Z"/><path class="cls-22" d="M106.94,85.12c0,.1-2.06,11.57-3.31,24.23h21.1a243,243,0,0,0-3.52-24.16Z"/><path class="cls-22" d="M94.49,149.16l0,55.24h39.37c0-17.52-.06-48.1-.11-55.24Z"/><path class="cls-12" d="M110.71,74.13a5.26,5.26,0,0,0-2.57,1.52,2.7,2.7,0,0,0-.19,2.13c.26.41,1.21.53,1.21.53s-1.52,3.47-1.44,4.94A2,2,0,0,0,109,85.09s-4.33,23.88-4.28,40.85c0,0-8.18,10.76-8.18,15.05l0,73.72a9.64,9.64,0,0,0,1.71,2.82v5.19c0,1,1.52,1.87,2,1.87h4.34c-.54,0-2-.83-2-1.86l0-5.19a9.64,9.64,0,0,1-1.71-2.82l0-73.72c0-4.29,8.17-15.05,8.17-15.05,0-17,4.29-40.85,4.29-40.85a2,2,0,0,1-1.32-1.84c-.08-1.47,1.44-4.94,1.44-4.94s-1-.12-1.21-.53a2.7,2.7,0,0,1,.19-2.13,5.37,5.37,0,0,1,2.55-1.52Z"/><path class="cls-23" d="M108.62,74.13a5.26,5.26,0,0,0-2.57,1.52,2.7,2.7,0,0,0-.19,2.13c.26.41,1.21.53,1.21.53s-1.52,3.47-1.44,4.94a2.1,2.1,0,0,0,1.31,1.87l14.27.07c.34-.26,1.36-1.11,1.39-1.49a53.92,53.92,0,0,0-1.51-5.62c.12,0,1-.15,1.16-.38a6.2,6.2,0,0,0-.14-1.93,10.54,10.54,0,0,0-2.45-1.63Z"/><path class="cls-22" d="M108.62,74.13a5.26,5.26,0,0,0-2.57,1.52,2.7,2.7,0,0,0-.19,2.13,1.85,1.85,0,0,0,1.21.53l14-.23c.12,0,1-.15,1.16-.38a6.2,6.2,0,0,0-.14-1.93,10.54,10.54,0,0,0-2.45-1.63Z"/></g><g id="Beer2-4" data-name="Beer2"><path class="cls-10" d="M1054.21,79s-1.51,3.47-1.44,4.94a2,2,0,0,0,1.32,1.84s-4.33,23.88-4.28,40.85c0,0-8.18,10.76-8.18,15.05l-.05,73.72a9.64,9.64,0,0,0,1.71,2.82l0,5.18c0,1,1.52,1.88,2,1.88,0,0,23.08,0,31.83-.19a2.64,2.64,0,0,0,2-1.94c.07-.21,0-3.9.07-4.76,0-.58,1.71-2.08,1.71-3.26s-.07-71.33-.14-74.09-7.62-13.22-8.51-15.54c.91-16.19-4-39.62-4-39.62s1.37-1,1.4-1.49a53.92,53.92,0,0,0-1.51-5.62c.13,0,1-.15,1.17-.38a6.87,6.87,0,0,0-.14-1.93,10.81,10.81,0,0,0-2.46-1.63l-11,0a5.37,5.37,0,0,0-2.57,1.53,2.77,2.77,0,0,0-.19,2.12C1053.26,78.88,1054.21,79,1054.21,79Z"/><path class="cls-11" d="M1054.09,85.81c0,.1-2.07,11.57-3.32,24.23h21.1a243,243,0,0,0-3.52-24.16Z"/><path class="cls-11" d="M1041.63,149.85l0,55.24H1081c0-17.52-.06-48.1-.11-55.24Z"/><path class="cls-12" d="M1057.85,74.82a5.26,5.26,0,0,0-2.57,1.52,2.75,2.75,0,0,0-.19,2.13c.26.41,1.21.53,1.21.53s-1.52,3.47-1.44,4.94a2,2,0,0,0,1.32,1.84s-4.33,23.88-4.28,40.85c0,0-8.18,10.76-8.18,15.05l0,73.72a9.64,9.64,0,0,0,1.71,2.82l0,5.18c0,1,1.52,1.88,2,1.88h4.34c-.54,0-2-.83-2-1.87l0-5.18a9.64,9.64,0,0,1-1.71-2.82l0-73.72c0-4.29,8.17-15.05,8.17-15.05,0-17,4.29-40.85,4.29-40.85a2,2,0,0,1-1.32-1.84c-.07-1.47,1.44-4.94,1.44-4.94s-1-.12-1.21-.53a2.79,2.79,0,0,1,.19-2.13,5.41,5.41,0,0,1,2.55-1.52Z"/><path class="cls-13" d="M1055.76,74.82a5.26,5.26,0,0,0-2.57,1.52,2.75,2.75,0,0,0-.19,2.13c.26.41,1.21.53,1.21.53s-1.52,3.47-1.44,4.94a2.11,2.11,0,0,0,1.31,1.87l14.27.07c.34-.26,1.37-1.11,1.39-1.49a53.92,53.92,0,0,0-1.51-5.62c.13,0,1-.15,1.17-.38a6.5,6.5,0,0,0-.15-1.93,10.54,10.54,0,0,0-2.45-1.63Z"/><path class="cls-14" d="M1055.76,74.82a5.26,5.26,0,0,0-2.57,1.52,2.75,2.75,0,0,0-.19,2.13,1.86,1.86,0,0,0,1.22.53l14-.23c.13,0,1-.15,1.17-.38a6.5,6.5,0,0,0-.15-1.93,10.54,10.54,0,0,0-2.45-1.63Z"/></g><g id="Beer1-2" data-name="Beer1"><path class="cls-15" d="M1006,78.31s-1.51,3.48-1.44,4.94a2,2,0,0,0,1.32,1.84s-4.33,23.88-4.28,40.86c0,0-8.18,10.75-8.18,15l0,73.72a9.64,9.64,0,0,0,1.71,2.82v5.19c0,1,1.52,1.87,2,1.87,0,0,23.08,0,31.83-.19a2.63,2.63,0,0,0,2-1.93c.08-.22,0-3.91.08-4.77,0-.58,1.7-2.08,1.7-3.26s-.06-71.33-.14-74.09-7.61-13.22-8.5-15.54c.91-16.19-4-39.62-4-39.62s1.36-1,1.4-1.49a56.53,56.53,0,0,0-1.51-5.62c.12,0,1-.15,1.16-.38a6.55,6.55,0,0,0-.14-1.93,10.81,10.81,0,0,0-2.46-1.63h-11a5.3,5.3,0,0,0-2.57,1.52,2.75,2.75,0,0,0-.18,2.13C1005,78.19,1006,78.31,1006,78.31Z"/><path class="cls-16" d="M1005.87,85.12c0,.1-2.06,11.57-3.32,24.23h21.1a243,243,0,0,0-3.52-24.16Z"/><path class="cls-16" d="M993.42,149.16l0,55.24h39.36c0-17.52,0-48.1-.11-55.24Z"/><path class="cls-17" d="M1007.54,74.13a5.26,5.26,0,0,0-2.57,1.52,2.79,2.79,0,0,0-.19,2.13c.26.41,1.21.53,1.21.53s-1.51,3.47-1.44,4.94a2.12,2.12,0,0,0,1.32,1.87l14.26.07c.34-.26,1.37-1.11,1.4-1.49a56.27,56.27,0,0,0-1.52-5.62c.13,0,1-.15,1.17-.38a6.87,6.87,0,0,0-.14-1.93,10.81,10.81,0,0,0-2.46-1.63Z"/><path class="cls-16" d="M1007.54,74.13a5.26,5.26,0,0,0-2.57,1.52,2.79,2.79,0,0,0-.19,2.13,1.88,1.88,0,0,0,1.22.53l14-.23c.13,0,1-.15,1.17-.38a6.87,6.87,0,0,0-.14-1.93,10.81,10.81,0,0,0-2.46-1.63Z"/><path class="cls-12" d="M1009.63,74.13a5.26,5.26,0,0,0-2.57,1.52,2.79,2.79,0,0,0-.19,2.13c.26.41,1.21.53,1.21.53s-1.51,3.47-1.44,4.94a2,2,0,0,0,1.32,1.84s-4.32,23.88-4.28,40.85c0,0-8.17,10.76-8.17,15.05l0,73.72a9.64,9.64,0,0,0,1.71,2.82v5.19c0,1,1.52,1.87,2.05,1.87h4.34c-.55,0-2-.83-2-1.86l0-5.19a9.5,9.5,0,0,1-1.7-2.82l0-73.72c0-4.29,8.18-15.05,8.18-15.05,0-17,4.28-40.85,4.28-40.85a2,2,0,0,1-1.32-1.84c-.07-1.47,1.44-4.94,1.44-4.94s-1-.12-1.21-.53a2.79,2.79,0,0,1,.19-2.13,5.46,5.46,0,0,1,2.55-1.52Z"/></g><g id="Beer2-5" data-name="Beer2"><path class="cls-18" d="M1105.22,114.26s-1.52,2.62-1.45,3.72,1.33,1.39,1.33,1.39-4.33,18-4.29,30.81c0,0-8.17,8.12-8.17,11.35l-.05,55.61a7.2,7.2,0,0,0,1.71,2.13v3.91c0,.79,1.52,1.41,2,1.41,0,0,23.09,0,31.84-.14.8,0,2-.93,2-1.46.07-.16,0-3,.07-3.6,0-.43,1.7-1.56,1.7-2.46s-.06-53.8-.13-55.88-7.62-10-8.51-11.72c.91-12.21-4-29.89-4-29.89s1.37-.77,1.4-1.12a34.74,34.74,0,0,0-1.51-4.24,3,3,0,0,0,1.16-.28c0-.27,0-1.32-.14-1.46a11.47,11.47,0,0,0-2.45-1.23h-11a6,6,0,0,0-2.58,1.15,1.62,1.62,0,0,0-.18,1.6C1104.27,114.17,1105.22,114.26,1105.22,114.26Z"/><path class="cls-19" d="M1105.09,119.39c0,.08-2.06,8.73-3.31,18.28h21.1a142.85,142.85,0,0,0-3.53-18.23Z"/><path class="cls-19" d="M1092.64,167.7l0,41.66H1132c0-13.21-.06-36.28-.11-41.66Z"/><path class="cls-20" d="M1106.77,111.1a6,6,0,0,0-2.58,1.15,1.62,1.62,0,0,0-.18,1.6c.25.32,1.2.41,1.2.41s-1.51,2.62-1.44,3.72a1.72,1.72,0,0,0,1.32,1.41l14.26.06c.35-.2,1.37-.84,1.4-1.13a34.74,34.74,0,0,0-1.51-4.24,2.87,2.87,0,0,0,1.16-.29,3.74,3.74,0,0,0-.14-1.45,11.47,11.47,0,0,0-2.45-1.23Z"/><path class="cls-19" d="M1106.77,111.1a6,6,0,0,0-2.58,1.15,1.62,1.62,0,0,0-.18,1.6,2.18,2.18,0,0,0,1.21.41l14-.18a2.87,2.87,0,0,0,1.16-.29,3.74,3.74,0,0,0-.14-1.45,11.47,11.47,0,0,0-2.45-1.23Z"/><path class="cls-12" d="M1108.86,111.1a6,6,0,0,0-2.58,1.15,1.62,1.62,0,0,0-.18,1.6c.25.32,1.2.41,1.2.41s-1.51,2.62-1.44,3.72,1.32,1.39,1.32,1.39-4.32,18-4.28,30.81c0,0-8.17,8.12-8.17,11.35l0,55.61a7.2,7.2,0,0,0,1.71,2.13v3.91c0,.79,1.52,1.41,2,1.41h4.34c-.54,0-2-.62-2-1.4v-3.91a7.2,7.2,0,0,1-1.71-2.13l0-55.61c0-3.23,8.18-11.35,8.18-11.35,0-12.8,4.28-30.81,4.28-30.81s-1.24-.28-1.32-1.39,1.45-3.72,1.45-3.72-1-.09-1.21-.41a1.62,1.62,0,0,1,.18-1.6,6,6,0,0,1,2.55-1.15Z"/></g><g id="Beer2-6" data-name="Beer2"><path class="cls-21" d="M960.15,78.31s-1.52,3.48-1.44,4.94A2,2,0,0,0,960,85.09S955.7,109,955.75,126c0,0-8.18,10.75-8.18,15l-.05,73.72a9.64,9.64,0,0,0,1.71,2.82v5.19c0,1,1.53,1.87,2,1.87,0,0,23.09,0,31.84-.19a2.64,2.64,0,0,0,2-1.93c.07-.22,0-3.91.07-4.77,0-.58,1.71-2.08,1.71-3.26s-.07-71.33-.14-74.09-7.62-13.22-8.51-15.54c.91-16.19-4-39.62-4-39.62s1.37-1,1.4-1.49a56.53,56.53,0,0,0-1.51-5.62c.13,0,1-.15,1.17-.38a6.53,6.53,0,0,0-.15-1.93,10.54,10.54,0,0,0-2.45-1.63h-11a5.26,5.26,0,0,0-2.57,1.52,2.75,2.75,0,0,0-.19,2.13C959.2,78.19,960.15,78.31,960.15,78.31Z"/><path class="cls-22" d="M960,85.12c0,.1-2.06,11.57-3.31,24.23h21.1a243,243,0,0,0-3.52-24.16Z"/><path class="cls-22" d="M947.57,149.16l0,55.24H986.9c0-17.52-.06-48.1-.11-55.24Z"/><path class="cls-12" d="M963.79,74.13a5.26,5.26,0,0,0-2.57,1.52,2.7,2.7,0,0,0-.19,2.13c.26.41,1.21.53,1.21.53s-1.52,3.47-1.44,4.94a2,2,0,0,0,1.32,1.84s-4.33,23.88-4.28,40.85c0,0-8.18,10.76-8.18,15.05l0,73.72a9.64,9.64,0,0,0,1.71,2.82v5.19c0,1,1.52,1.87,2,1.87h4.34c-.54,0-2-.83-2-1.86v-5.19a9.64,9.64,0,0,1-1.71-2.82L954,141c0-4.29,8.17-15.05,8.17-15.05,0-17,4.29-40.85,4.29-40.85a2,2,0,0,1-1.32-1.84c-.08-1.47,1.44-4.94,1.44-4.94s-1-.12-1.21-.53a2.7,2.7,0,0,1,.19-2.13,5.37,5.37,0,0,1,2.55-1.52Z"/><path class="cls-23" d="M961.7,74.13a5.26,5.26,0,0,0-2.57,1.52,2.7,2.7,0,0,0-.19,2.13c.26.41,1.21.53,1.21.53s-1.52,3.47-1.44,4.94A2.1,2.1,0,0,0,960,85.12l14.27.07c.34-.26,1.36-1.11,1.39-1.49a53.92,53.92,0,0,0-1.51-5.62c.12,0,1-.15,1.16-.38a6.2,6.2,0,0,0-.14-1.93,10.54,10.54,0,0,0-2.45-1.63Z"/><path class="cls-22" d="M961.7,74.13a5.26,5.26,0,0,0-2.57,1.52,2.7,2.7,0,0,0-.19,2.13,1.85,1.85,0,0,0,1.21.53l14-.23c.12,0,1-.15,1.16-.38a6.2,6.2,0,0,0-.14-1.93,10.54,10.54,0,0,0-2.45-1.63Z"/></g><g id="Beer2-7" data-name="Beer2"><path class="cls-10" d="M471.8,79s-1.52,3.47-1.44,4.94a2,2,0,0,0,1.32,1.84s-4.33,23.88-4.29,40.85c0,0-8.17,10.76-8.17,15.05l-.05,73.72a9.64,9.64,0,0,0,1.71,2.82v5.18c0,1,1.52,1.88,2.05,1.88,0,0,23.09,0,31.84-.19a2.64,2.64,0,0,0,2-1.94c.07-.21,0-3.9.07-4.76,0-.58,1.71-2.08,1.71-3.26s-.07-71.33-.14-74.09-7.62-13.22-8.51-15.54c.91-16.19-4-39.62-4-39.62s1.37-1,1.4-1.49a56.53,56.53,0,0,0-1.51-5.62c.12,0,1-.15,1.17-.38a6.5,6.5,0,0,0-.15-1.93,10.54,10.54,0,0,0-2.45-1.63l-11,0a5.44,5.44,0,0,0-2.58,1.53,2.73,2.73,0,0,0-.18,2.12C470.85,78.88,471.8,79,471.8,79Z"/><path class="cls-11" d="M471.67,85.81c0,.1-2.06,11.57-3.31,24.23h21.1a241.24,241.24,0,0,0-3.53-24.16Z"/><path class="cls-11" d="M459.22,149.85l0,55.24h39.37c0-17.52-.06-48.1-.11-55.24Z"/><path class="cls-12" d="M475.44,74.82a5.32,5.32,0,0,0-2.58,1.52,2.75,2.75,0,0,0-.18,2.13c.25.41,1.21.53,1.21.53s-1.52,3.47-1.45,4.94a2,2,0,0,0,1.32,1.84s-4.32,23.88-4.27,40.85c0,0-8.18,10.76-8.18,15.05l-.05,73.72a9.64,9.64,0,0,0,1.71,2.82v5.18c0,1,1.52,1.88,2,1.88h4.34c-.54,0-2-.83-2-1.87v-5.18a9.64,9.64,0,0,1-1.71-2.82l.05-73.72c0-4.29,8.17-15.05,8.17-15.05,0-17,4.29-40.85,4.29-40.85a2,2,0,0,1-1.32-1.84c-.08-1.47,1.44-4.94,1.44-4.94s-.95-.12-1.21-.53a2.7,2.7,0,0,1,.19-2.13,5.37,5.37,0,0,1,2.55-1.52Z"/><path class="cls-13" d="M473.35,74.82a5.32,5.32,0,0,0-2.58,1.52,2.75,2.75,0,0,0-.18,2.13c.25.41,1.21.53,1.21.53s-1.52,3.47-1.45,4.94a2.13,2.13,0,0,0,1.32,1.87l14.26.07c.35-.26,1.37-1.11,1.4-1.49a56.53,56.53,0,0,0-1.51-5.62c.12,0,1-.15,1.16-.38a6.52,6.52,0,0,0-.14-1.93,10.54,10.54,0,0,0-2.45-1.63Z"/><path class="cls-14" d="M473.35,74.82a5.32,5.32,0,0,0-2.58,1.52,2.75,2.75,0,0,0-.18,2.13,1.85,1.85,0,0,0,1.21.53l14-.23c.12,0,1-.15,1.16-.38a6.52,6.52,0,0,0-.14-1.93,10.54,10.54,0,0,0-2.45-1.63Z"/></g><g id="Beer1-3" data-name="Beer1"><path class="cls-15" d="M431.39,108a14.05,14.05,0,0,0-1.15,3.94,1.58,1.58,0,0,0,1.05,1.46s-3.45,19-3.41,32.55c0,0-6.52,8.57-6.52,12l0,58.74a7.68,7.68,0,0,0,1.36,2.25V223c0,.83,1.21,1.49,1.63,1.49,0,0,18.4,0,25.37-.15a2.1,2.1,0,0,0,1.6-1.54c.06-.17,0-3.12.06-3.8,0-.46,1.36-1.65,1.36-2.6s-.06-56.83-.11-59-6.07-10.53-6.78-12.38c.72-12.9-3.18-31.57-3.18-31.57s1.09-.82,1.11-1.18a44.07,44.07,0,0,0-1.2-4.48c.1,0,.8-.12.93-.31a4.93,4.93,0,0,0-.12-1.53,8.38,8.38,0,0,0-1.95-1.3h-8.8a4.26,4.26,0,0,0-2.05,1.21,2.18,2.18,0,0,0-.14,1.69C430.63,107.86,431.39,108,431.39,108Z"/><path class="cls-16" d="M431.29,113.38c0,.08-1.64,9.21-2.64,19.3h16.81c-.9-10-2.81-19.25-2.81-19.25Z"/><path class="cls-16" d="M421.37,164.4l0,44H452.7c0-14,0-38.33-.09-44Z"/><path class="cls-17" d="M432.62,104.62a4.26,4.26,0,0,0-2.05,1.21,2.22,2.22,0,0,0-.15,1.69c.21.34,1,.43,1,.43a14.05,14.05,0,0,0-1.15,3.94,1.65,1.65,0,0,0,1.05,1.48l11.36.06c.28-.2,1.09-.88,1.11-1.19a43.81,43.81,0,0,0-1.2-4.47c.1,0,.8-.12.93-.31a5.22,5.22,0,0,0-.12-1.53,8.38,8.38,0,0,0-1.95-1.3Z"/><path class="cls-16" d="M432.62,104.62a4.26,4.26,0,0,0-2.05,1.21,2.22,2.22,0,0,0-.15,1.69,1.47,1.47,0,0,0,1,.43l11.17-.18c.1,0,.8-.12.93-.31a5.22,5.22,0,0,0-.12-1.53,8.38,8.38,0,0,0-1.95-1.3Z"/><path class="cls-12" d="M434.29,104.62a4.21,4.21,0,0,0-2.05,1.21,2.13,2.13,0,0,0-.15,1.69c.2.34,1,.43,1,.43a14.05,14.05,0,0,0-1.15,3.94,1.58,1.58,0,0,0,1.05,1.46s-3.44,19-3.4,32.55c0,0-6.52,8.57-6.52,12l0,58.74a7.7,7.7,0,0,0,1.37,2.25V223c0,.83,1.21,1.49,1.64,1.49h3.45c-.43,0-1.61-.66-1.61-1.48v-4.13a7.56,7.56,0,0,1-1.36-2.25l0-58.74c0-3.42,6.52-12,6.52-12,0-13.52,3.41-32.55,3.41-32.55a1.58,1.58,0,0,1-1.05-1.46,14.05,14.05,0,0,1,1.15-3.94s-.76-.09-1-.43a2.22,2.22,0,0,1,.15-1.69,4.33,4.33,0,0,1,2-1.21Z"/></g><g id="Beer2-8" data-name="Beer2"><path class="cls-18" d="M514.45,114.26s-1.51,2.62-1.44,3.72,1.32,1.39,1.32,1.39-4.33,18-4.28,30.81c0,0-8.18,8.12-8.18,11.35l0,55.61a7,7,0,0,0,1.71,2.13v3.91c0,.79,1.52,1.41,2.05,1.41,0,0,23.08,0,31.83-.14.81,0,2-.93,2-1.46.08-.16,0-3,.08-3.6,0-.43,1.7-1.56,1.7-2.46s-.06-53.8-.14-55.88-7.61-10-8.5-11.72c.91-12.21-4-29.89-4-29.89s1.36-.77,1.4-1.12a34.62,34.62,0,0,0-1.52-4.24,3.07,3.07,0,0,0,1.17-.28,3.77,3.77,0,0,0-.14-1.46,11.78,11.78,0,0,0-2.46-1.23H516a5.91,5.91,0,0,0-2.57,1.15,1.64,1.64,0,0,0-.19,1.6C513.5,114.17,514.45,114.26,514.45,114.26Z"/><path class="cls-19" d="M514.33,119.39c0,.08-2.06,8.73-3.32,18.28h21.1a141.84,141.84,0,0,0-3.52-18.23Z"/><path class="cls-19" d="M501.88,167.7l0,41.66H541.2c0-13.21-.05-36.28-.11-41.66Z"/><path class="cls-20" d="M516,111.1a5.87,5.87,0,0,0-2.57,1.15,1.64,1.64,0,0,0-.19,1.6c.26.32,1.21.41,1.21.41s-1.51,2.62-1.44,3.72a1.71,1.71,0,0,0,1.32,1.41l14.26.06c.34-.2,1.37-.84,1.4-1.13a34.62,34.62,0,0,0-1.52-4.24,2.92,2.92,0,0,0,1.17-.29c0-.26,0-1.31-.15-1.45a11.47,11.47,0,0,0-2.45-1.23Z"/><path class="cls-19" d="M516,111.1a5.87,5.87,0,0,0-2.57,1.15,1.64,1.64,0,0,0-.19,1.6,2.21,2.21,0,0,0,1.22.41l14-.18a2.92,2.92,0,0,0,1.17-.29c0-.26,0-1.31-.15-1.45a11.47,11.47,0,0,0-2.45-1.23Z"/><path class="cls-12" d="M518.09,111.1a5.87,5.87,0,0,0-2.57,1.15,1.64,1.64,0,0,0-.19,1.6c.26.32,1.21.41,1.21.41S515,116.88,515.1,118s1.32,1.39,1.32,1.39-4.32,18-4.28,30.81c0,0-8.18,8.12-8.18,11.35l0,55.61a7.2,7.2,0,0,0,1.71,2.13v3.91c0,.79,1.52,1.41,2.05,1.41H512c-.54,0-2-.62-2-1.4l0-3.91a7.08,7.08,0,0,1-1.7-2.13l0-55.61c0-3.23,8.18-11.35,8.18-11.35,0-12.8,4.28-30.81,4.28-30.81s-1.25-.28-1.32-1.39,1.44-3.72,1.44-3.72-.95-.09-1.21-.41a1.64,1.64,0,0,1,.19-1.6,6,6,0,0,1,2.55-1.15Z"/></g><g id="Beer2-9" data-name="Beer2"><path class="cls-21" d="M390.89,78.31s-1.51,3.48-1.44,4.94a2,2,0,0,0,1.32,1.84S386.44,109,386.49,126c0,0-8.18,10.75-8.18,15l-.05,73.72a9.64,9.64,0,0,0,1.71,2.82l0,5.19c0,1,1.52,1.87,2.05,1.87,0,0,23.08,0,31.83-.19a2.63,2.63,0,0,0,2-1.93c.07-.22.05-3.91.07-4.77,0-.58,1.71-2.08,1.71-3.26s-.07-71.33-.14-74.09-7.61-13.22-8.5-15.54c.9-16.19-4-39.62-4-39.62s1.36-1,1.39-1.49a53.92,53.92,0,0,0-1.51-5.62c.13,0,1-.15,1.17-.38a6.9,6.9,0,0,0-.14-1.93,10.81,10.81,0,0,0-2.46-1.63h-11a5.26,5.26,0,0,0-2.57,1.52,2.79,2.79,0,0,0-.19,2.13C389.94,78.19,390.89,78.31,390.89,78.31Z"/><path class="cls-22" d="M390.77,85.12c0,.1-2.07,11.57-3.32,24.23h21.1A243,243,0,0,0,405,85.19Z"/><path class="cls-22" d="M378.31,149.16l0,55.24h39.36c0-17.52-.05-48.1-.11-55.24Z"/><path class="cls-12" d="M394.53,74.13A5.26,5.26,0,0,0,392,75.65a2.75,2.75,0,0,0-.19,2.13c.26.41,1.21.53,1.21.53s-1.51,3.47-1.44,4.94a2,2,0,0,0,1.32,1.84s-4.33,23.88-4.28,40.85c0,0-8.18,10.76-8.18,15.05l0,73.72a9.54,9.54,0,0,0,1.72,2.82v5.19c0,1,1.52,1.87,2,1.87h4.34c-.54,0-2-.83-2-1.86l0-5.19a9.5,9.5,0,0,1-1.7-2.82l0-73.72c0-4.29,8.18-15.05,8.18-15.05-.05-17,4.28-40.85,4.28-40.85a2,2,0,0,1-1.32-1.84c-.07-1.47,1.44-4.94,1.44-4.94s-.95-.12-1.21-.53a2.79,2.79,0,0,1,.19-2.13,5.41,5.41,0,0,1,2.55-1.52Z"/><path class="cls-23" d="M392.44,74.13a5.26,5.26,0,0,0-2.57,1.52,2.75,2.75,0,0,0-.19,2.13c.26.41,1.21.53,1.21.53s-1.51,3.47-1.44,4.94a2.1,2.1,0,0,0,1.31,1.87l14.27.07c.34-.26,1.37-1.11,1.39-1.49a53.92,53.92,0,0,0-1.51-5.62c.13,0,1-.15,1.17-.38a6.5,6.5,0,0,0-.15-1.93,10.54,10.54,0,0,0-2.45-1.63Z"/><path class="cls-22" d="M392.44,74.13a5.26,5.26,0,0,0-2.57,1.52,2.75,2.75,0,0,0-.19,2.13,1.86,1.86,0,0,0,1.22.53l14-.23c.13,0,1-.15,1.17-.38a6.5,6.5,0,0,0-.15-1.93,10.54,10.54,0,0,0-2.45-1.63Z"/></g><g id="Beer2-10" data-name="Beer2"><path class="cls-10" d="M653.37,44.76s-1.86,4.27-1.77,6.07a2.43,2.43,0,0,0,1.62,2.26S647.9,82.45,648,103.32c0,0-10.06,13.22-10.06,18.5l0,90.63a11.75,11.75,0,0,0,2.1,3.47v6.37c0,1.28,1.87,2.3,2.52,2.3,0,0,28.38,0,39.14-.23a3.25,3.25,0,0,0,2.47-2.38c.09-.26.06-4.81.09-5.86,0-.71,2.1-2.55,2.1-4s-.08-87.68-.17-91.09-9.36-16.25-10.46-19.1c1.12-19.9-4.9-48.7-4.9-48.7s1.67-1.27,1.71-1.83a68.37,68.37,0,0,0-1.85-6.92c.15,0,1.24-.18,1.43-.46a7.7,7.7,0,0,0-.18-2.37,13.17,13.17,0,0,0-3-2l-13.57,0a6.56,6.56,0,0,0-3.17,1.88,3.42,3.42,0,0,0-.23,2.61C652.2,44.61,653.37,44.76,653.37,44.76Z"/><path class="cls-11" d="M653.22,53.13c0,.13-2.54,14.22-4.08,29.79h25.94a298.76,298.76,0,0,0-4.33-29.7Z"/><path class="cls-11" d="M637.91,131.86l0,67.91h48.4c0-21.54-.07-59.13-.14-67.91Z"/><path class="cls-12" d="M657.84,39.61a6.66,6.66,0,0,0-3.16,1.88,3.38,3.38,0,0,0-.23,2.61c.32.52,1.49.66,1.49.66s-1.87,4.27-1.77,6.07a2.43,2.43,0,0,0,1.62,2.26s-5.32,29.36-5.26,50.23c0,0-10,13.22-10,18.5l-.07,90.62a11.76,11.76,0,0,0,2.11,3.47v6.38c0,1.28,1.87,2.3,2.52,2.3h5.33c-.66,0-2.49-1-2.49-2.29l0-6.38a11.72,11.72,0,0,1-2.09-3.47l.05-90.62c0-5.28,10-18.5,10-18.5,0-20.87,5.27-50.23,5.27-50.23a2.43,2.43,0,0,1-1.62-2.26c-.09-1.8,1.77-6.07,1.77-6.07s-1.17-.14-1.49-.66a3.42,3.42,0,0,1,.23-2.61,6.71,6.71,0,0,1,3.14-1.87Z"/><path class="cls-13" d="M655.27,39.61a6.66,6.66,0,0,0-3.16,1.88,3.38,3.38,0,0,0-.23,2.61c.32.52,1.49.66,1.49.66s-1.86,4.27-1.77,6.07a2.59,2.59,0,0,0,1.61,2.3l17.54.09c.42-.32,1.68-1.37,1.72-1.84a70.58,70.58,0,0,0-1.86-6.91c.15,0,1.24-.18,1.43-.46a8,8,0,0,0-.18-2.37,12.79,12.79,0,0,0-3-2Z"/><path class="cls-14" d="M655.27,39.61a6.66,6.66,0,0,0-3.16,1.88,3.38,3.38,0,0,0-.23,2.61,2.26,2.26,0,0,0,1.5.66l17.23-.29c.15,0,1.24-.18,1.43-.46a8,8,0,0,0-.18-2.37,12.79,12.79,0,0,0-3-2Z"/></g><g id="Beer1-4" data-name="Beer1"><path class="cls-15" d="M713.4,108a14.05,14.05,0,0,0-1.15,3.94,1.56,1.56,0,0,0,1,1.46s-3.45,19-3.41,32.55c0,0-6.52,8.57-6.52,12l0,58.74a7.57,7.57,0,0,0,1.37,2.25V223c0,.83,1.21,1.49,1.63,1.49,0,0,18.39,0,25.37-.15a2.1,2.1,0,0,0,1.6-1.54c.05-.17,0-3.12.05-3.8,0-.46,1.36-1.65,1.36-2.6s-.05-56.83-.11-59-6.06-10.53-6.77-12.38c.72-12.9-3.18-31.57-3.18-31.57s1.08-.82,1.11-1.18a44.07,44.07,0,0,0-1.2-4.48c.1,0,.8-.12.93-.31a5.25,5.25,0,0,0-.12-1.53,8.38,8.38,0,0,0-2-1.3h-8.8a4.26,4.26,0,0,0-2,1.21,2.22,2.22,0,0,0-.15,1.69C712.64,107.86,713.4,108,713.4,108Z"/><path class="cls-16" d="M713.3,113.38c0,.08-1.65,9.21-2.65,19.3h16.82c-.9-10-2.81-19.25-2.81-19.25Z"/><path class="cls-16" d="M703.37,164.4l0,44h31.37c0-14-.05-38.33-.09-44Z"/><path class="cls-17" d="M714.63,104.62a4.26,4.26,0,0,0-2,1.21,2.22,2.22,0,0,0-.15,1.69c.21.34,1,.43,1,.43a14.13,14.13,0,0,0-1.14,3.94,1.66,1.66,0,0,0,1,1.48l11.37.06c.27-.2,1.09-.88,1.11-1.19a43.81,43.81,0,0,0-1.2-4.47c.1,0,.8-.12.92-.31a4.92,4.92,0,0,0-.11-1.53,8.38,8.38,0,0,0-2-1.3Z"/><path class="cls-16" d="M714.63,104.62a4.26,4.26,0,0,0-2,1.21,2.22,2.22,0,0,0-.15,1.69,1.45,1.45,0,0,0,1,.43l11.17-.18c.1,0,.8-.12.92-.31a4.92,4.92,0,0,0-.11-1.53,8.38,8.38,0,0,0-2-1.3Z"/><path class="cls-12" d="M716.29,104.62a4.19,4.19,0,0,0-2,1.21,2.13,2.13,0,0,0-.15,1.69c.2.34,1,.43,1,.43a14.05,14.05,0,0,0-1.15,3.94,1.58,1.58,0,0,0,1.05,1.46s-3.44,19-3.41,32.55c0,0-6.51,8.57-6.51,12l0,58.74a7.81,7.81,0,0,0,1.36,2.25V223c0,.83,1.21,1.49,1.63,1.49h3.46c-.43,0-1.61-.66-1.61-1.48l0-4.13a7.81,7.81,0,0,1-1.36-2.25l0-58.74c0-3.42,6.51-12,6.51-12,0-13.52,3.42-32.55,3.42-32.55a1.56,1.56,0,0,1-1.05-1.46,14.13,14.13,0,0,1,1.14-3.94s-.75-.09-1-.43a2.22,2.22,0,0,1,.15-1.69,4.33,4.33,0,0,1,2-1.21Z"/></g><g id="Beer2-11" data-name="Beer2"><path class="cls-18" d="M773.18,114.26s-1.51,2.62-1.44,3.72,1.32,1.39,1.32,1.39-4.33,18-4.28,30.81c0,0-8.18,8.12-8.18,11.35l-.05,55.61a7.2,7.2,0,0,0,1.71,2.13l0,3.91c0,.79,1.52,1.41,2.05,1.41,0,0,23.08,0,31.83-.14.81,0,2-.93,2-1.46.07-.16.05-3,.07-3.6,0-.43,1.71-1.56,1.71-2.46s-.07-53.8-.14-55.88-7.61-10-8.5-11.72c.9-12.21-4-29.89-4-29.89s1.36-.77,1.39-1.12a33.14,33.14,0,0,0-1.51-4.24,3.07,3.07,0,0,0,1.17-.28,4,4,0,0,0-.14-1.46,11.78,11.78,0,0,0-2.46-1.23h-11a5.87,5.87,0,0,0-2.57,1.15,1.64,1.64,0,0,0-.19,1.6C772.23,114.17,773.18,114.26,773.18,114.26Z"/><path class="cls-19" d="M773.06,119.39c0,.08-2.06,8.73-3.32,18.28h21.1a141.84,141.84,0,0,0-3.52-18.23Z"/><path class="cls-19" d="M760.6,167.7l0,41.66h39.36c0-13.21,0-36.28-.11-41.66Z"/><path class="cls-20" d="M774.73,111.1a5.87,5.87,0,0,0-2.57,1.15,1.64,1.64,0,0,0-.19,1.6c.26.32,1.21.41,1.21.41s-1.51,2.62-1.44,3.72a1.7,1.7,0,0,0,1.32,1.41l14.26.06c.34-.2,1.37-.84,1.4-1.13a34.62,34.62,0,0,0-1.52-4.24,2.92,2.92,0,0,0,1.17-.29c0-.26,0-1.31-.15-1.45a11.47,11.47,0,0,0-2.45-1.23Z"/><path class="cls-19" d="M774.73,111.1a5.87,5.87,0,0,0-2.57,1.15,1.64,1.64,0,0,0-.19,1.6,2.18,2.18,0,0,0,1.22.41l14-.18a2.92,2.92,0,0,0,1.17-.29c0-.26,0-1.31-.15-1.45a11.47,11.47,0,0,0-2.45-1.23Z"/><path class="cls-12" d="M776.82,111.1a5.87,5.87,0,0,0-2.57,1.15,1.62,1.62,0,0,0-.19,1.6c.26.32,1.21.41,1.21.41s-1.51,2.62-1.44,3.72,1.32,1.39,1.32,1.39-4.33,18-4.28,30.81c0,0-8.18,8.12-8.18,11.35l-.05,55.61a7.33,7.33,0,0,0,1.72,2.13v3.91c0,.79,1.52,1.41,2,1.41h4.34c-.54,0-2-.62-2-1.4l0-3.91a7.08,7.08,0,0,1-1.7-2.13l0-55.61c0-3.23,8.18-11.35,8.18-11.35-.05-12.8,4.28-30.81,4.28-30.81s-1.25-.28-1.32-1.39,1.44-3.72,1.44-3.72-1-.09-1.21-.41a1.64,1.64,0,0,1,.19-1.6,6,6,0,0,1,2.55-1.15Z"/></g><g id="Beer2-12" data-name="Beer2"><path class="cls-21" d="M818.78,78.31s-1.52,3.48-1.44,4.94a2,2,0,0,0,1.32,1.84S814.33,109,814.38,126c0,0-8.18,10.75-8.18,15l-.05,73.72a9.64,9.64,0,0,0,1.71,2.82v5.19c0,1,1.53,1.87,2.06,1.87,0,0,23.08,0,31.83-.19a2.64,2.64,0,0,0,2-1.93c.07-.22.05-3.91.07-4.77,0-.58,1.71-2.08,1.71-3.26s-.07-71.33-.14-74.09-7.62-13.22-8.51-15.54c.91-16.19-4-39.62-4-39.62s1.37-1,1.4-1.49a53.92,53.92,0,0,0-1.51-5.62c.13,0,1-.15,1.17-.38a6.53,6.53,0,0,0-.15-1.93,10.54,10.54,0,0,0-2.45-1.63h-11a5.26,5.26,0,0,0-2.57,1.52,2.79,2.79,0,0,0-.19,2.13C817.83,78.19,818.78,78.31,818.78,78.31Z"/><path class="cls-22" d="M818.66,85.12c0,.1-2.07,11.57-3.32,24.23h21.1a243,243,0,0,0-3.52-24.16Z"/><path class="cls-22" d="M806.2,149.16l0,55.24h39.37c0-17.52-.06-48.1-.11-55.24Z"/><path class="cls-12" d="M822.42,74.13a5.26,5.26,0,0,0-2.57,1.52,2.7,2.7,0,0,0-.19,2.13c.26.41,1.21.53,1.21.53s-1.52,3.47-1.44,4.94a2,2,0,0,0,1.32,1.84s-4.33,23.88-4.28,40.85c0,0-8.18,10.76-8.18,15.05l0,73.72a9.64,9.64,0,0,0,1.71,2.82v5.19c0,1,1.52,1.87,2,1.87h4.34c-.54,0-2-.83-2-1.86l0-5.19a9.64,9.64,0,0,1-1.71-2.82l0-73.72c0-4.29,8.17-15.05,8.17-15.05,0-17,4.29-40.85,4.29-40.85a2,2,0,0,1-1.32-1.84c-.07-1.47,1.44-4.94,1.44-4.94s-1-.12-1.21-.53a2.75,2.75,0,0,1,.19-2.13,5.37,5.37,0,0,1,2.55-1.52Z"/><path class="cls-23" d="M820.33,74.13a5.26,5.26,0,0,0-2.57,1.52,2.7,2.7,0,0,0-.19,2.13c.26.41,1.21.53,1.21.53s-1.52,3.47-1.44,4.94a2.1,2.1,0,0,0,1.31,1.87l14.27.07c.34-.26,1.37-1.11,1.39-1.49a53.92,53.92,0,0,0-1.51-5.62c.13,0,1-.15,1.17-.38a6.5,6.5,0,0,0-.15-1.93,10.54,10.54,0,0,0-2.45-1.63Z"/><path class="cls-22" d="M820.33,74.13a5.26,5.26,0,0,0-2.57,1.52,2.7,2.7,0,0,0-.19,2.13,1.86,1.86,0,0,0,1.22.53l14-.23c.13,0,1-.15,1.17-.38a6.5,6.5,0,0,0-.15-1.93,10.54,10.54,0,0,0-2.45-1.63Z"/></g><g id="Beer2-13" data-name="Beer2"><path class="cls-10" d="M1433.19,44.76s-1.86,4.27-1.77,6.07a2.43,2.43,0,0,0,1.62,2.26s-5.32,29.36-5.26,50.23c0,0-10.06,13.22-10.06,18.5l0,90.63a11.75,11.75,0,0,0,2.1,3.47v6.37c0,1.28,1.87,2.3,2.52,2.3,0,0,28.38,0,39.14-.23a3.25,3.25,0,0,0,2.47-2.38c.09-.26.06-4.81.09-5.86,0-.71,2.1-2.55,2.1-4s-.08-87.68-.17-91.09-9.36-16.25-10.46-19.1c1.12-19.9-4.9-48.7-4.9-48.7s1.67-1.27,1.71-1.83a68.37,68.37,0,0,0-1.85-6.92c.15,0,1.24-.18,1.43-.46a7.7,7.7,0,0,0-.18-2.37,13.17,13.17,0,0,0-3-2l-13.57,0a6.56,6.56,0,0,0-3.17,1.88,3.42,3.42,0,0,0-.23,2.61C1432,44.61,1433.19,44.76,1433.19,44.76Z"/><path class="cls-11" d="M1433,53.13c0,.13-2.54,14.22-4.08,29.79h25.94a298.76,298.76,0,0,0-4.33-29.7Z"/><path class="cls-11" d="M1417.73,131.86l0,67.91h48.4c0-21.54-.07-59.13-.14-67.91Z"/><path class="cls-12" d="M1437.66,39.61a6.66,6.66,0,0,0-3.16,1.88,3.38,3.38,0,0,0-.23,2.61c.32.52,1.49.66,1.49.66s-1.87,4.27-1.77,6.07a2.43,2.43,0,0,0,1.62,2.26s-5.32,29.36-5.26,50.23c0,0-10,13.22-10,18.5l-.07,90.62a11.76,11.76,0,0,0,2.11,3.47v6.38c0,1.28,1.87,2.3,2.52,2.3h5.33c-.66,0-2.49-1-2.49-2.29l0-6.38a11.72,11.72,0,0,1-2.09-3.47l.05-90.62c0-5.28,10-18.5,10-18.5,0-20.87,5.27-50.23,5.27-50.23a2.43,2.43,0,0,1-1.62-2.26c-.09-1.8,1.77-6.07,1.77-6.07s-1.17-.14-1.49-.66a3.42,3.42,0,0,1,.23-2.61,6.66,6.66,0,0,1,3.14-1.87Z"/><path class="cls-13" d="M1435.09,39.61a6.66,6.66,0,0,0-3.16,1.88,3.38,3.38,0,0,0-.23,2.61c.32.52,1.49.66,1.49.66s-1.86,4.27-1.77,6.07a2.59,2.59,0,0,0,1.61,2.3l17.54.09c.42-.32,1.68-1.37,1.72-1.84a70.58,70.58,0,0,0-1.86-6.91c.15,0,1.24-.18,1.43-.46a8,8,0,0,0-.18-2.37,12.79,12.79,0,0,0-3-2Z"/><path class="cls-14" d="M1435.09,39.61a6.66,6.66,0,0,0-3.16,1.88,3.38,3.38,0,0,0-.23,2.61,2.26,2.26,0,0,0,1.5.66l17.23-.29c.15,0,1.24-.18,1.43-.46a8,8,0,0,0-.18-2.37,12.79,12.79,0,0,0-3-2Z"/></g><g id="Beer1-5" data-name="Beer1"><path class="cls-15" d="M1493.22,108a14.05,14.05,0,0,0-1.15,3.94,1.56,1.56,0,0,0,1,1.46s-3.45,19-3.41,32.55c0,0-6.52,8.57-6.52,12l0,58.74a7.57,7.57,0,0,0,1.37,2.25V223c0,.83,1.21,1.49,1.63,1.49,0,0,18.39,0,25.37-.15a2.1,2.1,0,0,0,1.6-1.54c0-.17,0-3.12,0-3.8,0-.46,1.36-1.65,1.36-2.6s0-56.83-.11-59-6.06-10.53-6.77-12.38c.72-12.9-3.18-31.57-3.18-31.57s1.08-.82,1.11-1.18a44.07,44.07,0,0,0-1.2-4.48c.1,0,.8-.12.93-.31a5.25,5.25,0,0,0-.12-1.53,8.38,8.38,0,0,0-2-1.3h-8.8a4.26,4.26,0,0,0-2,1.21,2.22,2.22,0,0,0-.15,1.69C1492.46,107.86,1493.22,108,1493.22,108Z"/><path class="cls-16" d="M1493.12,113.38c0,.08-1.65,9.21-2.65,19.3h16.82c-.9-10-2.81-19.25-2.81-19.25Z"/><path class="cls-16" d="M1483.19,164.4l0,44h31.37c0-14,0-38.33-.09-44Z"/><path class="cls-17" d="M1494.45,104.62a4.26,4.26,0,0,0-2,1.21,2.22,2.22,0,0,0-.15,1.69c.21.34,1,.43,1,.43a14.13,14.13,0,0,0-1.14,3.94,1.66,1.66,0,0,0,1,1.48l11.37.06c.27-.2,1.09-.88,1.11-1.19a43.81,43.81,0,0,0-1.2-4.47c.1,0,.8-.12.92-.31a4.92,4.92,0,0,0-.11-1.53,8.38,8.38,0,0,0-2-1.3Z"/><path class="cls-16" d="M1494.45,104.62a4.26,4.26,0,0,0-2,1.21,2.22,2.22,0,0,0-.15,1.69,1.45,1.45,0,0,0,1,.43l11.17-.18c.1,0,.8-.12.92-.31a4.92,4.92,0,0,0-.11-1.53,8.38,8.38,0,0,0-2-1.3Z"/><path class="cls-12" d="M1496.11,104.62a4.19,4.19,0,0,0-2,1.21,2.13,2.13,0,0,0-.15,1.69c.2.34,1,.43,1,.43a14.05,14.05,0,0,0-1.15,3.94,1.58,1.58,0,0,0,1,1.46s-3.44,19-3.41,32.55c0,0-6.51,8.57-6.51,12l0,58.74a7.81,7.81,0,0,0,1.36,2.25V223c0,.83,1.21,1.49,1.63,1.49h3.46c-.43,0-1.61-.66-1.61-1.48l0-4.13a7.81,7.81,0,0,1-1.36-2.25l0-58.74c0-3.42,6.51-12,6.51-12,0-13.52,3.42-32.55,3.42-32.55a1.56,1.56,0,0,1-1-1.46,14.13,14.13,0,0,1,1.14-3.94s-.75-.09-1-.43a2.22,2.22,0,0,1,.15-1.69,4.33,4.33,0,0,1,2-1.21Z"/></g><g id="Beer2-14" data-name="Beer2"><path class="cls-18" d="M1553,114.26s-1.51,2.62-1.44,3.72,1.32,1.39,1.32,1.39-4.33,18-4.28,30.81c0,0-8.18,8.12-8.18,11.35l-.05,55.61a7.2,7.2,0,0,0,1.71,2.13l0,3.91c0,.79,1.52,1.41,2.05,1.41,0,0,23.08,0,31.83-.14.81,0,2-.93,2-1.46.07-.16,0-3,.07-3.6,0-.43,1.71-1.56,1.71-2.46s-.07-53.8-.14-55.88-7.61-10-8.5-11.72c.9-12.21-4-29.89-4-29.89s1.36-.77,1.39-1.12a33.14,33.14,0,0,0-1.51-4.24,3.07,3.07,0,0,0,1.17-.28,4,4,0,0,0-.14-1.46,11.78,11.78,0,0,0-2.46-1.23h-11a5.87,5.87,0,0,0-2.57,1.15,1.64,1.64,0,0,0-.19,1.6C1552.05,114.17,1553,114.26,1553,114.26Z"/><path class="cls-19" d="M1552.88,119.39c0,.08-2.06,8.73-3.32,18.28h21.1a141.84,141.84,0,0,0-3.52-18.23Z"/><path class="cls-19" d="M1540.42,167.7l0,41.66h39.36c0-13.21,0-36.28-.11-41.66Z"/><path class="cls-20" d="M1554.55,111.1a5.87,5.87,0,0,0-2.57,1.15,1.64,1.64,0,0,0-.19,1.6c.26.32,1.21.41,1.21.41s-1.51,2.62-1.44,3.72a1.7,1.7,0,0,0,1.32,1.41l14.26.06c.34-.2,1.37-.84,1.4-1.13a34.62,34.62,0,0,0-1.52-4.24,2.92,2.92,0,0,0,1.17-.29c0-.26,0-1.31-.15-1.45a11.47,11.47,0,0,0-2.45-1.23Z"/><path class="cls-19" d="M1554.55,111.1a5.87,5.87,0,0,0-2.57,1.15,1.64,1.64,0,0,0-.19,1.6,2.18,2.18,0,0,0,1.22.41l14-.18a2.92,2.92,0,0,0,1.17-.29c0-.26,0-1.31-.15-1.45a11.47,11.47,0,0,0-2.45-1.23Z"/><path class="cls-12" d="M1556.64,111.1a5.87,5.87,0,0,0-2.57,1.15,1.62,1.62,0,0,0-.19,1.6c.26.32,1.21.41,1.21.41s-1.51,2.62-1.44,3.72,1.32,1.39,1.32,1.39-4.33,18-4.28,30.81c0,0-8.18,8.12-8.18,11.35l0,55.61a7.33,7.33,0,0,0,1.72,2.13v3.91c0,.79,1.52,1.41,2,1.41h4.34c-.54,0-2-.62-2-1.4l0-3.91a7.08,7.08,0,0,1-1.7-2.13l0-55.61c0-3.23,8.18-11.35,8.18-11.35,0-12.8,4.28-30.81,4.28-30.81s-1.25-.28-1.32-1.39,1.44-3.72,1.44-3.72-1-.09-1.21-.41a1.64,1.64,0,0,1,.19-1.6,6,6,0,0,1,2.55-1.15Z"/></g><g id="Beer2-15" data-name="Beer2"><path class="cls-21" d="M1598.6,78.31s-1.52,3.48-1.44,4.94a2,2,0,0,0,1.32,1.84S1594.15,109,1594.2,126c0,0-8.18,10.75-8.18,15l0,73.72a9.64,9.64,0,0,0,1.71,2.82v5.19c0,1,1.53,1.87,2.06,1.87,0,0,23.08,0,31.83-.19a2.64,2.64,0,0,0,2-1.93c.07-.22.05-3.91.07-4.77,0-.58,1.71-2.08,1.71-3.26s-.07-71.33-.14-74.09-7.62-13.22-8.51-15.54c.91-16.19-4-39.62-4-39.62s1.37-1,1.4-1.49a53.92,53.92,0,0,0-1.51-5.62c.13,0,1-.15,1.17-.38a6.53,6.53,0,0,0-.15-1.93,10.54,10.54,0,0,0-2.45-1.63h-11a5.26,5.26,0,0,0-2.57,1.52,2.79,2.79,0,0,0-.19,2.13C1597.65,78.19,1598.6,78.31,1598.6,78.31Z"/><path class="cls-22" d="M1598.48,85.12c0,.1-2.07,11.57-3.32,24.23h21.1a243,243,0,0,0-3.52-24.16Z"/><path class="cls-22" d="M1586,149.16l0,55.24h39.37c0-17.52-.06-48.1-.11-55.24Z"/><path class="cls-12" d="M1602.24,74.13a5.26,5.26,0,0,0-2.57,1.52,2.7,2.7,0,0,0-.19,2.13c.26.41,1.21.53,1.21.53s-1.52,3.47-1.44,4.94a2,2,0,0,0,1.32,1.84s-4.33,23.88-4.28,40.85c0,0-8.18,10.76-8.18,15.05l0,73.72a9.64,9.64,0,0,0,1.71,2.82v5.19c0,1,1.52,1.87,2,1.87h4.34c-.54,0-2-.83-2-1.86l0-5.19a9.64,9.64,0,0,1-1.71-2.82l0-73.72c0-4.29,8.17-15.05,8.17-15.05,0-17,4.29-40.85,4.29-40.85a2,2,0,0,1-1.32-1.84c-.07-1.47,1.44-4.94,1.44-4.94s-1-.12-1.21-.53a2.75,2.75,0,0,1,.19-2.13,5.37,5.37,0,0,1,2.55-1.52Z"/><path class="cls-23" d="M1600.15,74.13a5.26,5.26,0,0,0-2.57,1.52,2.7,2.7,0,0,0-.19,2.13c.26.41,1.21.53,1.21.53s-1.52,3.47-1.44,4.94a2.1,2.1,0,0,0,1.31,1.87l14.27.07c.34-.26,1.37-1.11,1.39-1.49a53.92,53.92,0,0,0-1.51-5.62c.13,0,1-.15,1.17-.38a6.5,6.5,0,0,0-.15-1.93,10.54,10.54,0,0,0-2.45-1.63Z"/><path class="cls-22" d="M1600.15,74.13a5.26,5.26,0,0,0-2.57,1.52,2.7,2.7,0,0,0-.19,2.13,1.86,1.86,0,0,0,1.22.53l14-.23c.13,0,1-.15,1.17-.38a6.5,6.5,0,0,0-.15-1.93,10.54,10.54,0,0,0-2.45-1.63Z"/></g><g id="Beer2-16" data-name="Beer2"><path class="cls-10" d="M935.32,271.49s-1.86,4.27-1.77,6.07a2.44,2.44,0,0,0,1.63,2.26s-5.33,29.36-5.27,50.23c0,0-10,13.22-10,18.5l-.06,90.62a11.87,11.87,0,0,0,2.1,3.47l0,6.37c0,1.29,1.87,2.31,2.52,2.31,0,0,28.38,0,39.14-.23a3.26,3.26,0,0,0,2.47-2.38c.09-.26.05-4.81.09-5.86,0-.71,2.09-2.55,2.09-4s-.08-87.69-.17-91.09-9.36-16.25-10.45-19.1c1.11-19.9-4.91-48.71-4.91-48.71s1.68-1.26,1.72-1.83a67.85,67.85,0,0,0-1.86-6.91c.16,0,1.24-.18,1.44-.46a8.37,8.37,0,0,0-.18-2.37,12.7,12.7,0,0,0-3-2l-13.57,0a6.5,6.5,0,0,0-3.16,1.88,3.33,3.33,0,0,0-.23,2.61C934.16,271.34,935.32,271.49,935.32,271.49Z"/><path class="cls-11" d="M935.17,279.86c0,.12-2.53,14.22-4.08,29.78H957a295.92,295.92,0,0,0-4.33-29.7Z"/><path class="cls-11" d="M919.86,358.59l-.05,67.91h48.4c0-21.54-.07-59.13-.13-67.91Z"/><path class="cls-12" d="M939.8,266.34a6.5,6.5,0,0,0-3.16,1.88,3.37,3.37,0,0,0-.24,2.61c.32.51,1.49.66,1.49.66s-1.86,4.27-1.77,6.07a2.43,2.43,0,0,0,1.62,2.26s-5.31,29.36-5.26,50.22c0,0-10.05,13.23-10.05,18.51l-.06,90.62a12,12,0,0,0,2.1,3.47l0,6.37c0,1.29,1.87,2.3,2.51,2.3h5.34c-.67,0-2.49-1-2.49-2.3l0-6.37a11.75,11.75,0,0,1-2.1-3.47l.06-90.62c0-5.28,10.05-18.51,10.05-18.51-.06-20.86,5.26-50.22,5.26-50.22a2.43,2.43,0,0,1-1.62-2.26c-.09-1.8,1.77-6.07,1.77-6.07s-1.17-.15-1.48-.66a3.33,3.33,0,0,1,.23-2.61,6.48,6.48,0,0,1,3.13-1.87Z"/><path class="cls-13" d="M937.23,266.34a6.5,6.5,0,0,0-3.16,1.88,3.33,3.33,0,0,0-.23,2.61c.31.51,1.48.66,1.48.66s-1.86,4.27-1.77,6.07a2.59,2.59,0,0,0,1.62,2.29l17.53.09c.43-.31,1.69-1.36,1.72-1.83a67.85,67.85,0,0,0-1.86-6.91c.15,0,1.24-.18,1.43-.47a8,8,0,0,0-.17-2.36,12.9,12.9,0,0,0-3-2Z"/><path class="cls-14" d="M937.23,266.34a6.5,6.5,0,0,0-3.16,1.88,3.33,3.33,0,0,0-.23,2.61,2.28,2.28,0,0,0,1.49.66l17.23-.29c.15,0,1.24-.18,1.43-.47a8,8,0,0,0-.17-2.36,12.9,12.9,0,0,0-3-2Z"/></g><g id="Beer2-17" data-name="Beer2"><path class="cls-21" d="M1206,424.06s-3.47-1.52-4.94-1.44a2,2,0,0,0-1.84,1.32s-23.88-4.33-40.85-4.28c0,0-10.76-8.18-15-8.18l-73.72-.05a9.64,9.64,0,0,0-2.82,1.71h-5.18c-1,0-1.87,1.53-1.87,2.05,0,0,0,23.09.18,31.84a2.65,2.65,0,0,0,1.94,2c.21.07,3.91,0,4.76.07.58,0,2.08,1.71,3.27,1.71s71.32-.07,74.09-.14,13.21-7.62,15.53-8.51c16.19.91,39.62-4,39.62-4s1,1.37,1.49,1.4a56.53,56.53,0,0,0,5.62-1.51c0,.13.15,1,.38,1.17a6.5,6.5,0,0,0,1.93-.15,10.24,10.24,0,0,0,1.63-2.45c0-.13,0-10.79,0-11a5.37,5.37,0,0,0-1.53-2.57,2.73,2.73,0,0,0-2.12-.19C1206.08,423.11,1206,424.06,1206,424.06Z"/><path class="cls-22" d="M1199.15,423.93c-.1,0-11.57-2.06-24.23-3.31v21.1a242.4,242.4,0,0,0,24.16-3.52Z"/><path class="cls-22" d="M1135.11,411.48l-55.24,0v39.37c17.52,0,48.1-.06,55.24-.11Z"/><path class="cls-12" d="M1210.15,427.7a5.37,5.37,0,0,0-1.53-2.57,2.68,2.68,0,0,0-2.12-.19c-.42.26-.54,1.21-.54,1.21s-3.47-1.52-4.94-1.44a2,2,0,0,0-1.84,1.32s-23.88-4.33-40.85-4.28c0,0-10.76-8.18-15-8.18l-73.72-.05a9.64,9.64,0,0,0-2.82,1.71h-5.18c-1,0-1.87,1.52-1.87,2.05v4.34c0-.54.83-2,1.87-2l5.18,0a9.64,9.64,0,0,1,2.82-1.71l73.72.05c4.29,0,15,8.17,15,8.17,17,0,40.85,4.29,40.85,4.29a2,2,0,0,1,1.84-1.32c1.47-.08,4.94,1.44,4.94,1.44s.12-.95.54-1.21a2.68,2.68,0,0,1,2.12.19,5.29,5.29,0,0,1,1.52,2.55C1210.14,430,1210.15,427.8,1210.15,427.7Z"/><path class="cls-23" d="M1210.15,425.61a5.37,5.37,0,0,0-1.53-2.57,2.68,2.68,0,0,0-2.12-.19c-.42.26-.54,1.21-.54,1.21s-3.47-1.52-4.94-1.44a2.08,2.08,0,0,0-1.86,1.31l-.08,14.27c.26.34,1.11,1.36,1.49,1.39a53.92,53.92,0,0,0,5.62-1.51c0,.12.15,1,.38,1.16a6.2,6.2,0,0,0,1.93-.14,10.24,10.24,0,0,0,1.63-2.45C1210.14,436.52,1210.15,425.86,1210.15,425.61Z"/><path class="cls-22" d="M1210.15,425.61a5.37,5.37,0,0,0-1.53-2.57,2.68,2.68,0,0,0-2.12-.19,1.85,1.85,0,0,0-.54,1.21l.23,14c0,.12.15,1,.38,1.16a6.2,6.2,0,0,0,1.93-.14,10.24,10.24,0,0,0,1.63-2.45C1210.14,436.52,1210.15,425.86,1210.15,425.61Z"/></g><g id="Beer2-18" data-name="Beer2"><path class="cls-21" d="M1365.52,424.06s-3.48-1.52-4.94-1.44a2,2,0,0,0-1.84,1.32s-23.88-4.33-40.86-4.28c0,0-10.75-8.18-15-8.18l-73.72-.05a9.51,9.51,0,0,0-2.82,1.71h-5.19c-1,0-1.87,1.53-1.87,2.05,0,0,0,23.09.18,31.84a2.65,2.65,0,0,0,1.94,2c.22.07,3.91,0,4.77.07.58,0,2.07,1.71,3.26,1.71s71.32-.07,74.09-.14,13.22-7.62,15.54-8.51c16.18.91,39.62-4,39.62-4s1,1.37,1.49,1.4a56.53,56.53,0,0,0,5.62-1.51c0,.13.15,1,.38,1.17a6.53,6.53,0,0,0,1.93-.15,10.54,10.54,0,0,0,1.63-2.45c0-.13,0-10.79,0-11a5.26,5.26,0,0,0-1.52-2.57,2.75,2.75,0,0,0-2.13-.19C1365.64,423.11,1365.52,424.06,1365.52,424.06Z"/><path class="cls-22" d="M1358.71,423.93c-.1,0-11.57-2.06-24.23-3.31v21.1a243,243,0,0,0,24.16-3.52Z"/><path class="cls-22" d="M1294.67,411.48l-55.24,0v39.37c17.52,0,48.1-.06,55.24-.11Z"/><path class="cls-12" d="M1369.7,427.7a5.26,5.26,0,0,0-1.52-2.57,2.7,2.7,0,0,0-2.13-.19c-.42.26-.53,1.21-.53,1.21s-3.48-1.52-4.94-1.44a2,2,0,0,0-1.84,1.32s-23.88-4.33-40.86-4.28c0,0-10.75-8.18-15-8.18l-73.72-.05a9.64,9.64,0,0,0-2.82,1.71h-5.19c-1,0-1.87,1.52-1.87,2.05,0,0,0,3.17,0,4.34,0-.54.83-2,1.86-2l5.19,0a9.64,9.64,0,0,1,2.82-1.71l73.72.05c4.29,0,15,8.17,15,8.17,17,0,40.86,4.29,40.86,4.29a2,2,0,0,1,1.84-1.32c1.46-.08,4.94,1.44,4.94,1.44s.11-.95.53-1.21a2.7,2.7,0,0,1,2.13.19,5.37,5.37,0,0,1,1.52,2.55Z"/><path class="cls-23" d="M1369.7,425.61a5.26,5.26,0,0,0-1.52-2.57,2.7,2.7,0,0,0-2.13-.19c-.42.26-.53,1.21-.53,1.21s-3.48-1.52-4.94-1.44a2.1,2.1,0,0,0-1.87,1.31l-.07,14.27c.26.34,1.11,1.36,1.49,1.39a53.92,53.92,0,0,0,5.62-1.51c0,.12.15,1,.38,1.16a6.23,6.23,0,0,0,1.93-.14,10.18,10.18,0,0,0,1.62-2.45C1369.69,436.52,1369.7,425.86,1369.7,425.61Z"/><path class="cls-22" d="M1369.7,425.61a5.26,5.26,0,0,0-1.52-2.57,2.7,2.7,0,0,0-2.13-.19,1.85,1.85,0,0,0-.53,1.21l.23,14c0,.12.15,1,.38,1.16a6.23,6.23,0,0,0,1.93-.14,10.18,10.18,0,0,0,1.62-2.45C1369.69,436.52,1369.7,425.86,1369.7,425.61Z"/></g><g id="Beer2-19" data-name="Beer2"><path class="cls-21" d="M994.51,305s-1.51,3.47-1.44,4.94a2,2,0,0,0,1.32,1.84s-4.33,23.88-4.28,40.85c0,0-8.18,10.76-8.18,15.05l0,73.72a9.64,9.64,0,0,0,1.71,2.82v5.18c0,1.05,1.52,1.88,2,1.88,0,0,23.08,0,31.83-.19a2.62,2.62,0,0,0,2-1.94c.08-.21,0-3.9.08-4.76,0-.58,1.7-2.08,1.7-3.26s-.06-71.33-.14-74.1-7.61-13.21-8.5-15.53c.91-16.19-4-39.62-4-39.62s1.36-1,1.4-1.49a56.27,56.27,0,0,0-1.52-5.62c.13,0,1-.15,1.17-.38a6.52,6.52,0,0,0-.14-1.93,10.81,10.81,0,0,0-2.46-1.63l-11,0a5.41,5.41,0,0,0-2.57,1.53,2.77,2.77,0,0,0-.19,2.12C993.56,304.92,994.51,305,994.51,305Z"/><path class="cls-22" d="M994.39,311.85c0,.1-2.06,11.57-3.32,24.23h21.1a243,243,0,0,0-3.52-24.16Z"/><path class="cls-22" d="M981.94,375.89l0,55.24h39.36c0-17.52,0-48.1-.11-55.24Z"/><path class="cls-12" d="M998.15,300.86a5.26,5.26,0,0,0-2.57,1.52,2.77,2.77,0,0,0-.19,2.12c.26.42,1.21.54,1.21.54s-1.51,3.47-1.44,4.94a2,2,0,0,0,1.32,1.84s-4.32,23.88-4.28,40.85c0,0-8.17,10.76-8.17,15.05l0,73.72a9.64,9.64,0,0,0,1.71,2.82v5.18c0,1.05,1.52,1.87,2,1.87h4.34c-.55,0-2-.83-2-1.87l0-5.18a9.5,9.5,0,0,1-1.7-2.82l0-73.72c0-4.29,8.18-15.05,8.18-15.05,0-17,4.28-40.85,4.28-40.85a2,2,0,0,1-1.32-1.84c-.07-1.47,1.44-4.94,1.44-4.94s-1-.12-1.21-.54a2.77,2.77,0,0,1,.19-2.12,5.46,5.46,0,0,1,2.55-1.52Z"/><path class="cls-23" d="M996.06,300.86a5.26,5.26,0,0,0-2.57,1.52,2.77,2.77,0,0,0-.19,2.12c.26.42,1.21.54,1.21.54s-1.51,3.47-1.44,4.94a2.13,2.13,0,0,0,1.32,1.87l14.26.07c.34-.26,1.37-1.11,1.4-1.49a56.27,56.27,0,0,0-1.52-5.62c.13,0,1-.15,1.17-.38a6.87,6.87,0,0,0-.14-1.93,10.81,10.81,0,0,0-2.46-1.63Z"/><path class="cls-22" d="M996.06,300.86a5.26,5.26,0,0,0-2.57,1.52,2.77,2.77,0,0,0-.19,2.12,1.83,1.83,0,0,0,1.22.54l14-.23c.13,0,1-.15,1.17-.38a6.87,6.87,0,0,0-.14-1.93,10.81,10.81,0,0,0-2.46-1.63Z"/></g><g id="Beer2-20" data-name="Beer2"><path class="cls-24" d="M437.18,314.56h9v15h-9Z"/><path class="cls-25" d="M428.64,326.76H455a2.12,2.12,0,0,1,2.12,2.12V449.2a2.12,2.12,0,0,1-2.12,2.12H428.64a2.12,2.12,0,0,1-2.12-2.12V328.88A2.12,2.12,0,0,1,428.64,326.76Z"/><path class="cls-25" d="M423,292.61c0-12.67,8.46-22.94,18.9-22.94s18.89,10.27,18.89,22.94-8.46,22.94-18.89,22.94S423,305.28,423,292.61Z"/><path class="cls-15" d="M425.4,292.92c0-11.29,7.4-20.44,16.54-20.44s16.55,9.15,16.55,20.44-7.41,20.43-16.55,20.43S425.4,304.21,425.4,292.92Z"/><path class="cls-26" d="M431.58,326.76a2.12,2.12,0,0,0-2.12,2.13v120.3a2.12,2.12,0,0,0,2.12,2.13h4.19a2.12,2.12,0,0,1-2.12-2.13V328.89a2.12,2.12,0,0,1,2.12-2.13Z"/><path class="cls-27" d="M441.53,272.51c-8,0-14.58,9-14.58,20.17s7.46,20.85,14.55,20.66h1.05c-7.58-.67-13.76-9.91-13.76-20.66s6.53-19.49,14.12-20.16C442.21,272.49,441.53,272.51,441.53,272.51Z"/></g><g id="Beer2-21" data-name="Beer2"><path class="cls-24" d="M482.51,314.54h9v15h-9Z"/><path class="cls-25" d="M474,326.75H500.3a2.12,2.12,0,0,1,2.12,2.12V449.2a2.12,2.12,0,0,1-2.12,2.12H474a2.12,2.12,0,0,1-2.12-2.12V328.87A2.12,2.12,0,0,1,474,326.75Z"/><path class="cls-25" d="M468.36,292.59c0-12.67,8.46-22.95,18.89-22.95s18.9,10.28,18.9,22.95-8.46,22.94-18.9,22.94S468.36,305.26,468.36,292.59Z"/><path class="cls-16" d="M470.73,292.9c0-11.29,7.41-20.44,16.55-20.44s16.55,9.15,16.55,20.44-7.41,20.44-16.55,20.44S470.73,304.19,470.73,292.9Z"/><path class="cls-26" d="M476.91,326.75a2.12,2.12,0,0,0-2.12,2.12V449.19a2.12,2.12,0,0,0,2.12,2.13h4.2a2.13,2.13,0,0,1-2.13-2.13V328.87a2.12,2.12,0,0,1,2.13-2.12Z"/><path class="cls-27" d="M486.86,272.48c-8,0-14.58,9-14.58,20.17s7.46,20.86,14.55,20.68h1.06c-7.59-.66-13.77-9.91-13.77-20.67s6.53-19.48,14.12-20.15C487.54,272.46,486.86,272.48,486.86,272.48Z"/></g><g id="Beer2-22" data-name="Beer2"><path class="cls-24" d="M527.33,314.56h9v15h-9Z"/><path class="cls-25" d="M518.79,326.76h26.33a2.12,2.12,0,0,1,2.12,2.12V449.2a2.12,2.12,0,0,1-2.12,2.12H518.79a2.12,2.12,0,0,1-2.12-2.12V328.88A2.12,2.12,0,0,1,518.79,326.76Z"/><path class="cls-25" d="M513.17,292.61c0-12.67,8.46-22.94,18.9-22.94S551,279.94,551,292.61s-8.46,22.94-18.89,22.94S513.17,305.28,513.17,292.61Z"/><path class="cls-22" d="M515.54,292.92c0-11.29,7.41-20.44,16.55-20.44s16.55,9.15,16.55,20.44-7.41,20.43-16.55,20.43S515.54,304.21,515.54,292.92Z"/><path class="cls-26" d="M521.73,326.76a2.12,2.12,0,0,0-2.12,2.13v120.3a2.12,2.12,0,0,0,2.12,2.13h4.19a2.12,2.12,0,0,1-2.12-2.13V328.89a2.12,2.12,0,0,1,2.12-2.13Z"/><path class="cls-27" d="M531.68,272.51c-8,0-14.58,9-14.58,20.17s7.46,20.85,14.55,20.66h1.05c-7.59-.67-13.76-9.91-13.76-20.66s6.53-19.49,14.12-20.16C532.36,272.49,531.68,272.51,531.68,272.51Z"/></g><g id="Beer2-23" data-name="Beer2"><path class="cls-24" d="M251.15,314.56h9v15h-9Z"/><path class="cls-25" d="M242.62,326.76h26.32a2.12,2.12,0,0,1,2.12,2.12V449.2a2.12,2.12,0,0,1-2.12,2.12H242.62a2.12,2.12,0,0,1-2.13-2.12V328.88A2.12,2.12,0,0,1,242.62,326.76Z"/><path class="cls-25" d="M237,292.61c0-12.67,8.46-22.94,18.89-22.94s18.9,10.27,18.9,22.94-8.46,22.94-18.9,22.94S237,305.28,237,292.61Z"/><path class="cls-15" d="M239.37,292.92c0-11.29,7.41-20.44,16.55-20.44s16.54,9.15,16.54,20.44-7.41,20.43-16.54,20.43S239.37,304.21,239.37,292.92Z"/><path class="cls-26" d="M245.55,326.76a2.12,2.12,0,0,0-2.12,2.13v120.3a2.12,2.12,0,0,0,2.12,2.13h4.19a2.12,2.12,0,0,1-2.12-2.13V328.89a2.12,2.12,0,0,1,2.12-2.13Z"/><path class="cls-27" d="M255.5,272.51c-8,0-14.58,9-14.58,20.17s7.46,20.85,14.55,20.66h1c-7.58-.67-13.76-9.91-13.76-20.66s6.53-19.49,14.12-20.16C256.18,272.49,255.5,272.51,255.5,272.51Z"/></g><g id="Beer2-24" data-name="Beer2"><path class="cls-24" d="M296.48,314.54h9v15h-9Z"/><path class="cls-25" d="M288,326.75h26.32a2.12,2.12,0,0,1,2.13,2.12V449.2a2.12,2.12,0,0,1-2.13,2.12H288a2.12,2.12,0,0,1-2.12-2.12V328.87A2.12,2.12,0,0,1,288,326.75Z"/><path class="cls-25" d="M282.33,292.59c0-12.67,8.46-22.95,18.89-22.95s18.9,10.28,18.9,22.95-8.46,22.94-18.9,22.94S282.33,305.26,282.33,292.59Z"/><path class="cls-16" d="M284.7,292.9c0-11.29,7.41-20.44,16.55-20.44s16.55,9.15,16.55,20.44-7.41,20.44-16.55,20.44S284.7,304.19,284.7,292.9Z"/><path class="cls-26" d="M290.88,326.75a2.12,2.12,0,0,0-2.12,2.12V449.19a2.12,2.12,0,0,0,2.12,2.13h4.2a2.13,2.13,0,0,1-2.13-2.13V328.87a2.12,2.12,0,0,1,2.13-2.12Z"/><path class="cls-27" d="M300.83,272.48c-8,0-14.58,9-14.58,20.17s7.46,20.86,14.55,20.68h1.06c-7.59-.66-13.76-9.91-13.76-20.67s6.53-19.48,14.11-20.15C301.52,272.46,300.83,272.48,300.83,272.48Z"/></g><g id="Beer2-25" data-name="Beer2"><path class="cls-24" d="M341.3,314.56h9v15h-9Z"/><path class="cls-25" d="M332.76,326.76h26.33a2.12,2.12,0,0,1,2.12,2.12V449.2a2.12,2.12,0,0,1-2.12,2.12H332.76a2.12,2.12,0,0,1-2.12-2.12V328.88A2.12,2.12,0,0,1,332.76,326.76Z"/><path class="cls-25" d="M327.14,292.61c0-12.67,8.46-22.94,18.9-22.94s18.89,10.27,18.89,22.94-8.45,22.94-18.89,22.94S327.14,305.28,327.14,292.61Z"/><path class="cls-22" d="M329.52,292.92c0-11.29,7.4-20.44,16.54-20.44s16.55,9.15,16.55,20.44-7.41,20.43-16.55,20.43S329.52,304.21,329.52,292.92Z"/><path class="cls-26" d="M335.7,326.76a2.12,2.12,0,0,0-2.12,2.13v120.3a2.12,2.12,0,0,0,2.12,2.13h4.19a2.12,2.12,0,0,1-2.12-2.13V328.89a2.12,2.12,0,0,1,2.12-2.13Z"/><path class="cls-27" d="M345.65,272.51c-8,0-14.58,9-14.58,20.17s7.46,20.85,14.55,20.66h1.05c-7.58-.67-13.76-9.91-13.76-20.66s6.53-19.49,14.12-20.16C346.33,272.49,345.65,272.51,345.65,272.51Z"/></g><g id="Beer2-26" data-name="Beer2"><path class="cls-24" d="M1499.74,314.56h9v15h-9Z"/><path class="cls-25" d="M1491.21,326.76h26.32a2.11,2.11,0,0,1,2.12,2.12V449.2a2.11,2.11,0,0,1-2.12,2.12h-26.32a2.12,2.12,0,0,1-2.12-2.12V328.88A2.12,2.12,0,0,1,1491.21,326.76Z"/><path class="cls-25" d="M1485.59,292.61c0-12.67,8.46-22.94,18.9-22.94s18.89,10.27,18.89,22.94-8.46,22.94-18.89,22.94S1485.59,305.28,1485.59,292.61Z"/><path class="cls-15" d="M1488,292.92c0-11.29,7.41-20.44,16.55-20.44s16.55,9.15,16.55,20.44-7.41,20.43-16.55,20.43S1488,304.21,1488,292.92Z"/><path class="cls-26" d="M1494.15,326.76a2.13,2.13,0,0,0-2.13,2.13v120.3a2.13,2.13,0,0,0,2.13,2.13h4.19a2.12,2.12,0,0,1-2.12-2.13V328.89a2.12,2.12,0,0,1,2.12-2.13Z"/><path class="cls-27" d="M1504.09,272.51c-8,0-14.57,9-14.57,20.17s7.46,20.85,14.55,20.66h1c-7.59-.67-13.76-9.91-13.76-20.66s6.53-19.49,14.11-20.16C1504.78,272.49,1504.09,272.51,1504.09,272.51Z"/></g><g id="Beer2-27" data-name="Beer2"><path class="cls-24" d="M1545.08,314.54h9v15h-9Z"/><path class="cls-25" d="M1536.54,326.75h26.33a2.12,2.12,0,0,1,2.12,2.12V449.2a2.12,2.12,0,0,1-2.12,2.12h-26.33a2.12,2.12,0,0,1-2.12-2.12V328.87A2.12,2.12,0,0,1,1536.54,326.75Z"/><path class="cls-25" d="M1530.92,292.59c0-12.67,8.46-22.95,18.9-22.95s18.9,10.28,18.9,22.95-8.46,22.94-18.9,22.94S1530.92,305.26,1530.92,292.59Z"/><path class="cls-16" d="M1533.29,292.9c0-11.29,7.41-20.44,16.55-20.44s16.56,9.15,16.56,20.44-7.41,20.44-16.56,20.44S1533.29,304.19,1533.29,292.9Z"/><path class="cls-26" d="M1539.48,326.75a2.12,2.12,0,0,0-2.12,2.12V449.19a2.12,2.12,0,0,0,2.12,2.13h4.19a2.12,2.12,0,0,1-2.12-2.13V328.87a2.12,2.12,0,0,1,2.12-2.12Z"/><path class="cls-27" d="M1549.43,272.48c-8,0-14.58,9-14.58,20.17s7.46,20.86,14.55,20.68h1c-7.58-.66-13.76-9.91-13.76-20.67s6.53-19.48,14.12-20.15C1550.11,272.46,1549.43,272.48,1549.43,272.48Z"/></g><g id="Beer2-28" data-name="Beer2"><path class="cls-24" d="M1589.89,314.56h9v15h-9Z"/><path class="cls-25" d="M1581.36,326.76h26.32a2.12,2.12,0,0,1,2.12,2.12V449.2a2.12,2.12,0,0,1-2.12,2.12h-26.32a2.12,2.12,0,0,1-2.12-2.12V328.88A2.12,2.12,0,0,1,1581.36,326.76Z"/><path class="cls-25" d="M1575.74,292.61c0-12.67,8.46-22.94,18.89-22.94s18.9,10.27,18.9,22.94-8.46,22.94-18.9,22.94S1575.74,305.28,1575.74,292.61Z"/><path class="cls-22" d="M1578.11,292.92c0-11.29,7.41-20.44,16.55-20.44s16.55,9.15,16.55,20.44-7.41,20.43-16.55,20.43S1578.11,304.21,1578.11,292.92Z"/><path class="cls-26" d="M1584.3,326.76a2.13,2.13,0,0,0-2.13,2.13v120.3a2.13,2.13,0,0,0,2.13,2.13h4.19a2.14,2.14,0,0,1-2.13-2.13V328.89a2.13,2.13,0,0,1,2.13-2.13Z"/><path class="cls-27" d="M1594.24,272.51c-8,0-14.57,9-14.57,20.17s7.46,20.85,14.54,20.66h1.06c-7.59-.67-13.76-9.91-13.76-20.66s6.53-19.49,14.11-20.16C1594.93,272.49,1594.24,272.51,1594.24,272.51Z"/></g><g class="cls-28"><rect class="cls-29" x="1125.89" y="4.17" width="6.1" height="136.92"/><rect class="cls-29" x="1345.31" y="4.17" width="6.1" height="136.92"/><path class="cls-2" d="M1435,214.13l-360.65,36.45a5.51,5.51,0,0,1-5.95-5.11L1053,79.3a5.63,5.63,0,0,1,4.9-6.2l360.66-36.45a5.53,5.53,0,0,1,6,5.11l15.4,166.17A5.62,5.62,0,0,1,1435,214.13Z"/><path class="cls-30" d="M1424.7,206.33,1083,240.85a5.5,5.5,0,0,1-6-5.1L1063.29,87.11a5.63,5.63,0,0,1,4.9-6.2l341.68-34.53a5.51,5.51,0,0,1,6,5.11l13.77,148.63A5.63,5.63,0,0,1,1424.7,206.33Z"/><path class="cls-31" d="M1150.17,139.72l-.19-2c4-.78,4.39-1.31,4.17-3.71l-2.59-28c-.23-2.4-.68-2.84-4.78-2.8l-.19-2,14.87-1.5.19,2c-4.3.84-4.79,1.48-4.55,4l2.84,30.6,6-.82c5.7-.77,7.79-1.92,8.71-10l1.79-.18.67,11.67Z"/><path class="cls-31" d="M1173.15,112.48l-.19-2,12.62-1.28.19,2c-3.47.67-4,1.32-2.68,4.18l6.52,14,4.16-15c.84-3.11.15-3.63-3.4-3.57l-.19-2,10.17-1,.19,2c-2.57.66-3.06,1-4.15,4.81l-4.71,16.17-1.45,5-3.13,12.7-4.6.47v-.11c1.32-3.28,3.45-8.72,5.15-13.15L1178,116.33C1176.42,113.26,1175.7,112.77,1173.15,112.48Z"/><path class="cls-31" d="M1212.51,105.87a12.79,12.79,0,0,1,5.51.54l9.23-1.44.26,2.8-6.57.34a7.63,7.63,0,0,1,3.24,5.79c.54,5.79-4.27,9.83-9.84,10.39a17.36,17.36,0,0,1-3.17,0c-2.18,1-2.94,2.18-2.82,3.49.16,1.71,1.64,2.44,4.22,2.18l6.36-.64c5.83-.59,9.52,1.62,9.93,6.11.51,5.44-4.49,10-12.43,10.79s-12.61-1.64-13-5.75c-.25-2.66,1.88-5,6.24-6.42-2.89,0-5.18-1.36-5.42-3.92s1.56-4.63,4.91-6.26a8.12,8.12,0,0,1-6.81-7.5C1201.85,110.8,1206.32,106.49,1212.51,105.87Zm1.6,15.91c3.12-.31,5.34-3.28,5-7.1-.39-4.24-2.91-6.65-6.62-6.28-3.35.34-5.36,3.34-5,7.13C1207.88,119.94,1210.76,122.12,1214.11,121.78Zm2.24,21.64c5.34-.54,8.42-3.16,8.13-6.26-.22-2.4-2-3.8-6.14-3.39l-6.74.68c-2.56.77-3.87,2.52-3.66,4.76C1208.21,142.15,1211.26,143.94,1216.35,143.42Z"/><path class="cls-31" d="M1233,107.21l-3.5.36-.13-1.42,7-7.12.89-.09.48,5.12,8.08-1,.26,2.81-8.11.71,1.41,15.15c.44,4.75,2.64,5.93,5.42,5.65a6.91,6.91,0,0,0,3.59-1.39l.18,2a9,9,0,0,1-6.17,2.94c-3.86.39-7.38-1.46-7.94-7.49Z"/><path class="cls-31" d="M1261.13,101c6.92-.7,11.14,3.29,11.8,10.41.06.67.1,1.37.09,1.85L1255.34,115c.89,6.83,5.28,10.75,11.33,10.14a10.3,10.3,0,0,0,6.61-3.25l.19,2c-1.63,2.4-4.9,4.4-9.25,4.84-7.2.73-13.17-3.86-14-12.45C1249.48,108,1254,101.71,1261.13,101Zm-6,11.7,12.85-1.3v0c-.49-5.34-2.9-8-6.68-7.59S1255.06,107,1255.15,112.68Z"/><path class="cls-31" d="M1285.21,102.91a9.79,9.79,0,0,1,8.06-5.2c5.29-.54,9.21,2.24,9.71,7.69l1.33,14.35c.15,1.6.57,1.94,4,1.94l.19,2L1296.16,125l-.19-2c3.08-.67,3.43-1,3.29-2.57l-1.2-13c-.41-4.37-3-6.48-6.73-6.1a6.93,6.93,0,0,0-5.8,3.63l1.54,16.7c.15,1.52.56,1.83,3.74,1.86l.18,2-12.31,1.24-.19-2c3.32-.68,3.69-1.1,3.54-2.7l-1.58-17.1c-.14-1.44-.4-1.77-1.92-2l-2.09-.3-.16-1.79,8.56-2Z"/><path class="cls-31" d="M1320,95c4-.4,7,.27,8.62,1.18l.82,6.65-1.78.18c-1.08-3.82-4-5.58-7.38-5.23-3.19.32-5.22,2-5,4.46s2.28,3.38,5.61,4l2.12.38c4.88.85,8,2.93,8.39,7.36.45,4.78-3.76,8.33-9.33,8.89a17.34,17.34,0,0,1-9.71-1.5l-.84-6.78,1.79-.18a7.54,7.54,0,0,0,8.45,5.69c3.4-.34,5.38-2.32,5.15-4.8s-1.77-3.49-5.49-4.16l-2.15-.37c-4.83-.86-8.08-2.88-8.48-7.17C1310.35,98.89,1314,95.61,1320,95Z"/><path class="cls-31" d="M1219.75,196.82l.19,2-14.26,1.44-.19-2c4-.79,4.4-1.31,4.17-3.71l-2.59-28c-.22-2.4-.67-2.84-4.77-2.8l-.19-2,14.26-1.44.19,2.05c-3.75.76-4.19,1.26-4,3.58l1.13,12.14,4.62-.47,7.21-11.28c2.38-3.8,1.85-4.77-2.5-4.65l-.18-2,12.82-1.3.19,2c-2.74.76-4.36,2.22-7.89,7.21-2,2.79-3.9,5.59-5.66,8.25l9.42,12.35c4,5.17,5.5,6.44,7.62,6.79l.18,1.87-7.54.76L1218.6,180l-4.67.48,1.26,13.63C1215.41,196.42,1215.93,196.82,1219.75,196.82Z"/><path class="cls-31" d="M1247.68,174.31c2.82-4.09,5-6.22,7.37-6.46a2.61,2.61,0,0,1,3.08,2.65,3.41,3.41,0,0,1-.31,1.95,9.63,9.63,0,0,0-2.55,0c-2.94.29-6.13,1.77-7.31,3.51l1.41,15.21c.19,2,.62,2.25,4.41,2.22l.19,2-13,1.31-.19-2c3.31-.69,3.69-1.11,3.54-2.71l-1.59-17.1c-.13-1.44-.39-1.76-1.91-2l-2.09-.3-.17-1.78,8.56-2Z"/><path class="cls-31" d="M1261.35,181.3c-.77-8.3,4.37-14.63,11.91-15.4,7.31-.73,13.35,4.42,14.11,12.53.77,8.3-4.4,14.64-11.93,15.4C1268.15,194.56,1262.11,189.41,1261.35,181.3Zm20.62-1.79c-.65-7.1-4.39-11.24-8.86-10.79-4.65.47-7,4.83-6.37,11.5.66,7.09,4.35,11.25,8.85,10.79C1280.26,190.54,1282.59,186.18,1282,179.51Z"/><path class="cls-32" d="M1420,96.86c-27,2.73-51-17.91-53.6-46.09"/><path class="cls-32" d="M1416.75,61.51c-8.29.84-15.67-5.5-16.47-14.16"/><path class="cls-32" d="M1417.67,71.34c-13.5,1.37-25.5-9-26.81-23"/><path class="cls-32" d="M1418.89,84.55c-20.48,2.07-38.69-13.59-40.68-35"/><line class="cls-33" x1="1414.26" y1="47.65" x2="1371.86" y2="69.76"/><line class="cls-33" x1="1401.89" y1="95.16" x2="1414.26" y2="47.65"/><line class="cls-33" x1="1383.09" y1="84.52" x2="1414.26" y2="47.65"/></g></g></g></g></svg>