<svg xmlns="http://www.w3.org/2000/svg" xmlns:xlink="http://www.w3.org/1999/xlink" width="1920.39" height="1080.18" viewBox="0 0 1920.39 1080.18"><defs><style>.cls-1{isolation:isolate;}.cls-2{fill:#bfb290;}.cls-12,.cls-3{fill:#6b4f36;}.cls-4{fill:#4c3828;}.cls-5{opacity:0.52;mix-blend-mode:multiply;}.cls-6{fill:#4c4b4a;}.cls-7{fill:#a67c52;}.cls-8{fill:#3d2713;}.cls-10,.cls-9{fill:none;stroke:#000;}.cls-10,.cls-12,.cls-9{stroke-miterlimit:10;}.cls-10{stroke-linecap:round;stroke-width:0.75px;}.cls-11{fill:#6b4f3c;}.cls-12{stroke:#261b14;}</style></defs><g class="cls-1"><g id="Assets"><g id="Baggrund_m._alt" data-name="Baggrund m. alt"><g id="BG"><rect class="cls-2" x="0.39" width="1920" height="480.5"/><g id="Bar"><rect class="cls-3" x="0.39" y="224.5" width="1920" height="19.92"/><rect class="cls-3" x="0.39" y="451.32" width="1920" height="33.35"/><rect class="cls-4" x="0.39" y="484.67" width="1920" height="152.18"/></g><image class="cls-5" width="448" height="307" transform="translate(1018.69 -16.37)" xlink:href="spil_baggrund1.png"/><rect class="cls-6" x="1125.89" y="4.17" width="6.1" height="136.92"/><rect class="cls-6" x="1345.31" y="4.17" width="6.1" height="136.92"/><path class="cls-3" d="M1435,214.13l-360.65,36.45a5.51,5.51,0,0,1-5.95-5.11L1053,79.3a5.63,5.63,0,0,1,4.9-6.2l360.66-36.45a5.53,5.53,0,0,1,6,5.11l15.4,166.17A5.62,5.62,0,0,1,1435,214.13Z"/><path class="cls-7" d="M1424.7,206.33,1083,240.85a5.5,5.5,0,0,1-6-5.1L1063.29,87.11a5.63,5.63,0,0,1,4.9-6.2l341.68-34.53a5.51,5.51,0,0,1,6,5.11l13.77,148.63A5.63,5.63,0,0,1,1424.7,206.33Z"/><path class="cls-8" d="M1150.17,139.72l-.19-2c4-.78,4.39-1.31,4.17-3.71l-2.59-28c-.23-2.4-.68-2.84-4.78-2.8l-.19-2,14.87-1.5.19,2c-4.3.84-4.79,1.48-4.55,4l2.84,30.6,6-.82c5.7-.77,7.79-1.92,8.71-10l1.79-.18.67,11.67Z"/><path class="cls-8" d="M1173.15,112.48l-.19-2,12.62-1.28.19,2c-3.47.67-4,1.32-2.68,4.18l6.52,14,4.16-15c.84-3.11.15-3.63-3.4-3.57l-.19-2,10.17-1,.19,2c-2.57.66-3.06,1-4.15,4.81l-4.71,16.17-1.45,5-3.13,12.7-4.6.47v-.11c1.32-3.28,3.45-8.72,5.15-13.15L1178,116.33C1176.42,113.26,1175.7,112.77,1173.15,112.48Z"/><path class="cls-8" d="M1212.51,105.87a12.79,12.79,0,0,1,5.51.54l9.23-1.44.26,2.8-6.57.34a7.63,7.63,0,0,1,3.24,5.79c.54,5.79-4.27,9.83-9.84,10.39a17.36,17.36,0,0,1-3.17,0c-2.18,1-2.94,2.18-2.82,3.49.16,1.71,1.64,2.44,4.22,2.18l6.36-.64c5.83-.59,9.52,1.62,9.93,6.11.51,5.44-4.49,10-12.43,10.79s-12.61-1.64-13-5.75c-.25-2.66,1.88-5,6.24-6.42-2.89,0-5.18-1.36-5.42-3.92s1.56-4.63,4.91-6.26a8.12,8.12,0,0,1-6.81-7.5C1201.85,110.8,1206.32,106.49,1212.51,105.87Zm1.6,15.91c3.12-.31,5.34-3.28,5-7.1-.39-4.24-2.91-6.65-6.62-6.28-3.35.34-5.36,3.34-5,7.13C1207.88,119.94,1210.76,122.12,1214.11,121.78Zm2.24,21.64c5.34-.54,8.42-3.16,8.13-6.26-.22-2.4-2-3.8-6.14-3.39l-6.74.68c-2.56.77-3.87,2.52-3.66,4.76C1208.21,142.15,1211.26,143.94,1216.35,143.42Z"/><path class="cls-8" d="M1233,107.21l-3.5.36-.13-1.42,7-7.12.89-.09.48,5.12,8.08-1,.26,2.81-8.11.71,1.41,15.15c.44,4.75,2.64,5.93,5.42,5.65a6.91,6.91,0,0,0,3.59-1.39l.18,2a9,9,0,0,1-6.17,2.94c-3.86.39-7.38-1.46-7.94-7.49Z"/><path class="cls-8" d="M1261.13,101c6.92-.7,11.14,3.29,11.8,10.41.06.67.1,1.37.09,1.85L1255.34,115c.89,6.83,5.28,10.75,11.33,10.14a10.3,10.3,0,0,0,6.61-3.25l.19,2c-1.63,2.4-4.9,4.4-9.25,4.84-7.2.73-13.17-3.86-14-12.45C1249.48,108,1254,101.71,1261.13,101Zm-6,11.7,12.85-1.3v0c-.49-5.34-2.9-8-6.68-7.59S1255.06,107,1255.15,112.68Z"/><path class="cls-8" d="M1285.21,102.91a9.79,9.79,0,0,1,8.06-5.2c5.29-.54,9.21,2.24,9.71,7.69l1.33,14.35c.15,1.6.57,1.94,4,1.94l.19,2L1296.16,125l-.19-2c3.08-.67,3.43-1,3.29-2.57l-1.2-13c-.41-4.37-3-6.48-6.73-6.1a6.93,6.93,0,0,0-5.8,3.63l1.54,16.7c.15,1.52.56,1.83,3.74,1.86l.18,2-12.31,1.24-.19-2c3.32-.68,3.69-1.1,3.54-2.7l-1.58-17.1c-.14-1.44-.4-1.77-1.92-2l-2.09-.3-.16-1.79,8.56-2Z"/><path class="cls-8" d="M1320,95c4-.4,7,.27,8.62,1.18l.82,6.65-1.78.18c-1.08-3.82-4-5.58-7.38-5.23-3.19.32-5.22,2-5,4.46s2.28,3.38,5.61,4l2.12.38c4.88.85,8,2.93,8.39,7.36.45,4.78-3.76,8.33-9.33,8.89a17.34,17.34,0,0,1-9.71-1.5l-.84-6.78,1.79-.18a7.54,7.54,0,0,0,8.45,5.69c3.4-.34,5.38-2.32,5.15-4.8s-1.77-3.49-5.49-4.16l-2.15-.37c-4.83-.86-8.08-2.88-8.48-7.17C1310.35,98.89,1314,95.61,1320,95Z"/><path class="cls-8" d="M1219.75,196.82l.19,2-14.26,1.44-.19-2c4-.79,4.4-1.31,4.17-3.71l-2.59-28c-.22-2.4-.67-2.84-4.77-2.8l-.19-2,14.26-1.44.19,2.05c-3.75.76-4.19,1.26-4,3.58l1.13,12.14,4.62-.47,7.21-11.28c2.38-3.8,1.85-4.77-2.5-4.65l-.18-2,12.82-1.3.19,2c-2.74.76-4.36,2.22-7.89,7.21-2,2.79-3.9,5.59-5.66,8.25l9.42,12.35c4,5.17,5.5,6.44,7.62,6.79l.18,1.87-7.54.76L1218.6,180l-4.67.48,1.26,13.63C1215.41,196.42,1215.93,196.82,1219.75,196.82Z"/><path class="cls-8" d="M1247.68,174.31c2.82-4.09,5-6.22,7.37-6.46a2.61,2.61,0,0,1,3.08,2.65,3.41,3.41,0,0,1-.31,1.95,9.63,9.63,0,0,0-2.55,0c-2.94.29-6.13,1.77-7.31,3.51l1.41,15.21c.19,2,.62,2.25,4.41,2.22l.19,2-13,1.31-.19-2c3.31-.69,3.69-1.11,3.54-2.71l-1.59-17.1c-.13-1.44-.39-1.76-1.91-2l-2.09-.3-.17-1.78,8.56-2Z"/><path class="cls-8" d="M1261.35,181.3c-.77-8.3,4.37-14.63,11.91-15.4,7.31-.73,13.35,4.42,14.11,12.53.77,8.3-4.4,14.64-11.93,15.4C1268.15,194.56,1262.11,189.41,1261.35,181.3Zm20.62-1.79c-.65-7.1-4.39-11.24-8.86-10.79-4.65.47-7,4.83-6.37,11.5.66,7.09,4.35,11.25,8.85,10.79C1280.26,190.54,1282.59,186.18,1282,179.51Z"/><path class="cls-9" d="M1420,96.86c-27,2.73-51-17.91-53.6-46.09"/><path class="cls-9" d="M1416.75,61.51c-8.29.84-15.67-5.5-16.47-14.16"/><path class="cls-9" d="M1417.67,71.34c-13.5,1.37-25.5-9-26.81-23"/><path class="cls-9" d="M1418.89,84.55c-20.48,2.07-38.69-13.59-40.68-35"/><line class="cls-10" x1="1414.26" y1="47.65" x2="1371.86" y2="69.76"/><line class="cls-10" x1="1401.89" y1="95.16" x2="1414.26" y2="47.65"/><line class="cls-10" x1="1383.09" y1="84.52" x2="1414.26" y2="47.65"/><g id="Gulv"><rect class="cls-11" x="0.39" y="636.85" width="1920" height="443.32"/><line class="cls-12" x1="1627.36" y1="636.85" x2="1897.35" y2="1080.18"/><line class="cls-12" x1="1729.27" y1="636.85" x2="1920.39" y2="881.42"/><line class="cls-12" x1="1814.64" y1="636.85" x2="1917.07" y2="719.18"/><line class="cls-12" x1="1513.03" y1="636.85" x2="1720.62" y2="1080.18"/><line class="cls-12" x1="1398.49" y1="636.85" x2="1568.58" y2="1080"/><line class="cls-12" x1="1284.31" y1="636.85" x2="1422.73" y2="1080.18"/><line class="cls-12" x1="1166.21" y1="637.87" x2="1263.98" y2="1080.18"/><line class="cls-12" x1="1034.04" y1="637.19" x2="1104.24" y2="1080.18"/><line class="cls-12" x1="290.43" y1="636.85" x2="20.44" y2="1080.18"/><line class="cls-12" x1="188.52" y1="636.85" x2="0.39" y2="877.59"/><line class="cls-12" x1="103.15" y1="636.85" x2="0.72" y2="719.18"/><line class="cls-12" x1="404.76" y1="636.85" x2="197.17" y2="1080.18"/><line class="cls-12" x1="519.3" y1="636.85" x2="349.21" y2="1080"/><line class="cls-12" x1="633.49" y1="636.85" x2="495.06" y2="1080.18"/><line class="cls-12" x1="751.59" y1="637.87" x2="653.82" y2="1080.18"/><line class="cls-12" x1="883.76" y1="637.19" x2="813.55" y2="1080.18"/></g></g></g></g></g></svg>