<svg xmlns="http://www.w3.org/2000/svg" width="1400" height="510.67" viewBox="0 0 1400 510.67"><defs><style>.cls-1{fill:#303030;}.cls-2{fill:#545454;}.cls-3{fill:#363636;}.cls-4{fill:#13140c;}.cls-5{fill:#473757;}.cls-6{fill:#503e62;}.cls-7{fill:#e0bfa3;}.cls-8{fill:#ccae94;}.cls-9{fill:#c9ac93;}.cls-10,.cls-19{fill:#fff;}.cls-11{fill:#e6e6e6;}.cls-12{fill:#050505;}.cls-13{fill:#789e3a;}.cls-14{fill:#57191c;}.cls-15{fill:#b54744;}.cls-16{fill:#212121;}.cls-17{fill:#fff58b;}.cls-18{fill:#efff9e;}.cls-19{font-size:93px;font-family:NexaBold, Nexa Bold;}</style></defs><g id="Assets"><g id="taxa"><path id="skygge" d="M17.54,294c2.66-3.5,13.3-26.36,29.47-39.11,69.59-54.89,306.36-70.67,310.8-70.67,5.33,0,124.08-148.89,395.16-148.89,276.39,0,440,100.89,448.89,100.89s66.32,24.13,166.5,47.11c32,7.34,36.63,188.67,27.52,214.67-7.78,22.23-95.46,41.33-115,42.67-12.22.83-1186.82,0-1186.82,0s-52-11.33-79-20.34c-6-2-10.7-7.86-11.49-12C-9.48,340.23,17.54,294,17.54,294Z"/><g id="dæk"><ellipse class="cls-1" cx="219.5" cy="398" rx="112.55" ry="112.67"/><ellipse class="cls-1" cx="1153.9" cy="398" rx="112.55" ry="112.67"/><ellipse class="cls-2" cx="1153.9" cy="398" rx="79.59" ry="79.67"/><ellipse class="cls-2" cx="219.5" cy="398" rx="79.59" ry="79.67"/></g><path id="chassi" class="cls-3" d="M1368.36,183.33c-100.18-23-157.62-47.11-166.5-47.11S1029.36,35.33,753,35.33c-271.08,0-389.83,148.89-395.16,148.89-4.44,0-241.21,15.78-310.8,70.67C30.84,267.64,20.2,290.5,17.54,294c0,0-27,46.23-14,114.33.79,4.14,5.5,10,11.49,12,22.62,7.55,62.82,16.73,75.26,19.5V398A127.94,127.94,0,0,1,218.17,270h0A127.94,127.94,0,0,1,346,398v42.82c200.43.11,479.62.24,680.66.21V398a127.94,127.94,0,0,1,127.87-128h0a127.94,127.94,0,0,1,127.87,128v42.53c22.21-2.13,105.85-20.84,113.44-42.53C1405,372,1400.32,190.67,1368.36,183.33Z"/><path id="forrude" d="M360,183.33S371.68,190,376,190c2.22,0,73.71-69.33,179.16-119.11l-1.33-5.33S466.59,94.22,360,183.33Z"/><path id="rude2" class="cls-4" d="M777.7,68.22l-9.78,107.5a2.92,2.92,0,0,0,3,3.19l198.76-5.64a2.91,2.91,0,0,0,2.83-2.83l2.19-73a2.91,2.91,0,0,0-1.84-2.8c-11.78-4.65-78.26-28.76-192.23-29A2.93,2.93,0,0,0,777.7,68.22Z"/><g id="Ansigt_-_Stiv" data-name="Ansigt - Stiv"><g id="Hår"><g id="Skygger"><path class="cls-5" d="M864.64,44.4c-12.83,28.79-19.09,76.09-19.09,76.09s1.68-4.17,4.26-10.28c2.61-15.49,8.26-44.16,17-64.3Z"/><path class="cls-5" d="M912.51,76.47c-.75-7.09-11.62-12.19-21.24-14.42,8.89,2.49,18,7.29,18.67,13.75,1.19,11.31-8.71,58.86-8.71,58.86q3-6.81,5.35-13.44C909.41,106.26,913.28,83.78,912.51,76.47Z"/></g><path class="cls-6" d="M919.59,57.08,863.52,47c-12.07,28.95-18,73.47-18,73.47s23.16-57.39,29.72-59.82,33.47,3.83,34.67,15.13-8.71,58.86-8.71,58.86C915,103,919.5,73.62,919.59,57.08Z"/></g><g id="Øre"><ellipse class="cls-7" cx="897.6" cy="136.61" rx="10.78" ry="14.14" transform="translate(540.48 971.36) rotate(-75.49)"/><ellipse class="cls-7" cx="847.53" cy="123.68" rx="10.78" ry="14.14" transform="translate(515.46 913.2) rotate(-75.49)"/><path class="cls-8" d="M848.07,132.21c-7.57-2-12.49-8.21-11-14a8.89,8.89,0,0,1,3-4.54,9.76,9.76,0,0,0-6.25,6.46c-1.48,5.77,3.44,12,11,14,5.18,1.34,10.2.27,13.36-2.36A16.6,16.6,0,0,1,848.07,132.21Z"/></g><g id="Hoved"><path id="Hoved-2" data-name="Hoved" class="cls-7" d="M891.71,56.44c-15.36-4-30.85,4.61-34.59,19.14l-17.38,67.47c-3.74,14.54,5.68,29.54,21,33.5s30.85-4.61,34.59-19.14l17.38-67.47C916.49,75.4,907.08,60.41,891.71,56.44Z"/><path id="Skygge-2" data-name="Skygge" class="cls-9" d="M864,174.64c-15.36-4-24.78-19-21-33.5l17.38-67.47a26.17,26.17,0,0,1,10.52-15,26.42,26.42,0,0,0-13.75,16.91l-17.38,67.47c-3.74,14.54,5.68,29.54,21,33.5a29.27,29.27,0,0,0,24.07-4.15A29.52,29.52,0,0,1,864,174.64Z"/></g><g id="Øjne"><ellipse id="Venstre_Øje" data-name="Venstre Øje" class="cls-10" cx="861.21" cy="102.28" rx="15.39" ry="15.33" transform="translate(600.01 929.28) rotate(-79.25)"/><ellipse id="Højre_øje" data-name="Højre øje" class="cls-10" cx="894.56" cy="110.89" rx="15.39" ry="15.33" transform="matrix(0.19, -0.98, 0.98, 0.19, 618.68, 969.04)"/><path class="cls-11" d="M858.62,116.37A15.4,15.4,0,0,1,853.48,89a15.36,15.36,0,1,0,16.71,25.74A15.21,15.21,0,0,1,858.62,116.37Z"/><path class="cls-11" d="M891.94,125a15.4,15.4,0,0,1-5.14-27.36,15.36,15.36,0,1,0,16.71,25.74A15.3,15.3,0,0,1,891.94,125Z"/><rect class="cls-12" x="855.57" y="105.31" width="1.09" height="5.22" rx="0.54" transform="translate(54.12 -210.5) rotate(14.47)"/><rect class="cls-12" x="855.57" y="105.26" width="1.09" height="5.31" rx="0.54" transform="translate(1174.15 -694.23) rotate(104.44)"/><path class="cls-12" d="M854,109.15h0a.55.55,0,0,1,.19-.75l3.24-1.91a.54.54,0,0,1,.74.19h0a.55.55,0,0,1-.19.75l-3.24,1.91A.53.53,0,0,1,854,109.15Z"/><path class="cls-12" d="M857.1,109.72h0a.53.53,0,0,1-.74-.22l-1.44-2.65a.54.54,0,0,1,.21-.74h0a.54.54,0,0,1,.74.22l1.44,2.65A.54.54,0,0,1,857.1,109.72Z"/><rect class="cls-12" x="899.08" y="103.86" width="1.09" height="5.22" rx="0.54" transform="translate(55.14 -221.42) rotate(14.47)"/><rect class="cls-12" x="899.08" y="103.81" width="1.09" height="5.31" rx="0.54" transform="translate(1227.1 -738.17) rotate(104.44)"/><path class="cls-12" d="M897.54,107.7h0a.53.53,0,0,1,.19-.74L901,105a.55.55,0,0,1,.75.19h0a.56.56,0,0,1-.2.75l-3.23,1.91A.53.53,0,0,1,897.54,107.7Z"/><path class="cls-12" d="M900.6,108.27h0a.53.53,0,0,1-.73-.21l-1.45-2.66a.56.56,0,0,1,.22-.74h0a.55.55,0,0,1,.74.22l1.44,2.65A.55.55,0,0,1,900.6,108.27Z"/></g><g id="Træk"><g id="Næse"><path class="cls-12" d="M880.44,123.45c-2,12.17-15.73,14.52-13.3.3.1-.59.3-.66.57-.72h0c.27-.07.73.06.6.58-3.13,12.71,9.61,10.89,10.93-.82.06-.48.58-.42.8-.32h0A.93.93,0,0,1,880.44,123.45Z"/></g></g><g id="Mund"><path class="cls-13" d="M872.82,159.66a5.53,5.53,0,0,0-.07,3.73c.75,1.58,1.28.47,2.12,1.22s1.13,2.71,1,3.84-1,5.47.14,6.24c2.32,1.6,3-3.83,3.36-4.27a.55.55,0,0,1,.83,0c.33.43-.35,1.88,0,2.32.14.16.31.19.42.11a1.53,1.53,0,0,0,.53-.78c.33-.92,1.28-5.07,2.14-5.95a6.63,6.63,0,0,0,1.65-2.18C885.1,163.41,877.32,159.09,872.82,159.66Z"/><path class="cls-13" d="M880.19,164a5.54,5.54,0,0,1-1.74,3.29c-1.42,1-1.35-.21-2.45,0s-2.3,1.82-2.75,2.87-1.78,5.26-3.14,5.39c-2.8.28-.79-4.81-.87-5.36a.56.56,0,0,0-.73-.4c-.49.21-.6,1.81-1.14,2a.33.33,0,0,1-.42-.11,1.52,1.52,0,0,1-.08-.94c.15-1,1.32-5,1-6.25a6.7,6.7,0,0,1-.39-2.7C867.62,161.32,876.52,161.3,880.19,164Z"/><path class="cls-13" d="M846.94,154.23a3.68,3.68,0,0,0,0,2.48c.49,1,.85.31,1.41.81a3.62,3.62,0,0,1,.68,2.55c-.08.75-.66,3.63.09,4.15,1.54,1.06,2-2.55,2.23-2.84a.37.37,0,0,1,.55,0c.22.28-.23,1.25,0,1.54a.21.21,0,0,0,.28.07,1,1,0,0,0,.34-.52c.22-.61.86-3.36,1.43-3.95a4.3,4.3,0,0,0,1.09-1.45C855.11,156.73,849.94,153.85,846.94,154.23Z"/><path class="cls-14" d="M888,166.22a200.64,200.64,0,0,1-44.39-10.69c-5-1.85-7.25-7.11-5.24-11.55h0A9.34,9.34,0,0,1,850,139.09,183,183,0,0,0,891,148.75c5.07.6,8.9,4.79,8.32,9.66h0C898.72,163.28,893.55,166.92,888,166.22Z"/><path class="cls-15" d="M860.21,160.81s.84-4.54,4.67-5.47,3.24,1.81,2.83,2.2-1.67.14-2.41.11-2,1.34-2.4,2.2-.69,1.51-.69,1.51l-.94-.25Z"/></g></g><path class="cls-3" d="M1368.36,183.33c-100.18-23-157.62-47.11-166.5-47.11S1029.36,35.33,753,35.33c-271.08,0-389.83,148.89-395.16,148.89-4.44,0-241.21,15.78-310.8,70.67C30.84,267.64,20.2,290.5,17.54,294c0,0-27,46.23-14,114.33.79,4.14,5.5,10,11.49,12,22.62,7.55,62.82,16.73,75.26,19.5V398A127.94,127.94,0,0,1,218.17,270h0A127.94,127.94,0,0,1,346,398v42.82c200.43.11,479.62.24,680.66.21V398a127.94,127.94,0,0,1,127.87-128h0a127.94,127.94,0,0,1,127.87,128v42.53c22.21-2.13,105.85-20.84,113.44-42.53C1405,372,1400.32,190.67,1368.36,183.33Zm-279-8.3L438.17,198.89s-13.76-1.33-10.21-17.33c0,0,75-129.78,331.23-126.23s333,84.89,337,105.34C1097.64,168.1,1097.5,173,1089.33,175Z"/><path class="cls-3" d="M1368.36,183.33c-100.18-23-157.62-47.11-166.5-47.11S1029.36,35.33,753,35.33c-271.08,0-389.83,148.89-395.16,148.89-4.44,0-241.21,15.78-310.8,70.67C30.84,267.64,20.2,290.5,17.54,294c0,0-27,46.23-14,114.33.79,4.14,5.5,10,11.49,12,22.62,7.55,62.82,16.73,75.26,19.5V398A127.94,127.94,0,0,1,218.17,270h0A127.94,127.94,0,0,1,346,398v42.82c200.43.11,479.62.24,680.66.21V398a127.94,127.94,0,0,1,127.87-128h0a127.94,127.94,0,0,1,127.87,128v42.53c22.21-2.13,105.85-20.84,113.44-42.53C1405,372,1400.32,190.67,1368.36,183.33Zm-279-8.3L438.17,198.89s-13.76-1.33-10.21-17.33c0,0,75-129.78,331.23-126.23s333,84.89,337,105.34C1097.64,168.1,1097.5,173,1089.33,175Z"/><path class="cls-16" d="M1096.18,160.67c-4-20.45-80.81-101.78-337-105.34S428,181.56,428,181.56c-3.55,16,10.21,17.33,10.21,17.33L1089.33,175C1097.5,173,1097.64,168.1,1096.18,160.67ZM972.5,170.44a2.91,2.91,0,0,1-2.83,2.83l-198.76,5.64a2.92,2.92,0,0,1-3-3.19l9.78-107.5a2.93,2.93,0,0,1,2.92-2.66c114,.27,180.45,24.38,192.23,29a2.91,2.91,0,0,1,1.84,2.8Z"/><path id="rude1" d="M440.26,185.36c21-23.61,125.35-129.06,304-121.36L720.1,179.6a2.68,2.68,0,0,1-2.54,2.13l-275.22,8.09A2.68,2.68,0,0,1,440.26,185.36Z"/><g id="håndtag"><rect x="642.75" y="233" width="73.93" height="15.33" rx="7.67"/><rect x="972.08" y="233" width="73.93" height="15.33" rx="7.67"/></g><polygon class="cls-17" points="751.42 0 767.91 0 777.57 36 740.98 36 751.42 0"/><g id="Skilt"><ellipse class="cls-2" cx="744.31" cy="339.5" rx="196.47" ry="79.5"/><polygon class="cls-18" points="747.87 342.83 757.11 361.58 777.77 364.58 762.82 379.17 766.35 399.77 747.87 390.04 729.39 399.77 732.92 379.17 717.97 364.58 738.63 361.58 747.87 342.83"/><polygon class="cls-18" points="805.26 358.92 810.66 375.74 827.56 380.81 813.25 391.15 813.65 408.82 799.41 398.39 782.75 404.23 788.25 387.44 777.56 373.39 795.21 373.44 805.26 358.92"/><polygon class="cls-18" points="689.64 358.93 699.72 373.43 717.37 373.33 706.71 387.41 712.25 404.18 695.58 398.38 681.36 408.85 681.72 391.18 667.38 380.88 684.27 375.76 689.64 358.93"/><text class="cls-19" transform="translate(619.57 357.56)">TAXA</text></g></g></g></svg>