<svg xmlns="http://www.w3.org/2000/svg" xmlns:xlink="http://www.w3.org/1999/xlink" width="265" height="865" viewBox="0 0 265 865"><defs><style>.cls-1{fill:none;}.cls-2{fill:#7e4222;}.cls-3{fill:#66351b;}.cls-4{fill:#def9ff;}.cls-5{clip-path:url(#clip-path);}.cls-6{fill:#e5e5e5;}.cls-7{fill:#f5c408;}.cls-8{fill:#fff;}.cls-9{fill:#f5e9ba;}</style><clipPath id="clip-path"><path class="cls-1" d="M240.1,167.77c0-65.16-48.17-118-107.6-118s-107.6,52.83-107.6,118c0,44.86,37.32,69.42,38.12,103.83,0,19.75-.05,31.72-.05,51.64V739c0,42.11,31.13,76.25,69.53,76.25h0c38.4,0,69.53-34.14,69.53-76.25V323.24c0-19.92-.69-25.61-.69-51.64C201.34,233.13,240.1,212.63,240.1,167.77Z"/></clipPath></defs><g id="Assets"><rect class="cls-2" width="265" height="865" rx="132.5"/><path class="cls-3" d="M220.3,33.52A133.53,133.53,0,0,1,253.57,122V720c0,73.72-59.32,133.48-132.5,133.48h0A131.42,131.42,0,0,1,33.28,820a131.72,131.72,0,0,0,99.22,45h0C205.68,865,265,805.24,265,731.52v-598A133.58,133.58,0,0,0,220.3,33.52Z"/><path class="cls-4" d="M240.1,167.77c0-65.16-48.17-118-107.6-118s-107.6,52.83-107.6,118c0,44.86,37.32,69.42,38.12,103.83,0,19.75-.05,31.72-.05,51.64V739c0,42.11,31.13,76.25,69.53,76.25h0c38.4,0,69.53-34.14,69.53-76.25V323.24c0-19.92-.69-25.61-.69-51.64C201.34,233.13,240.1,212.63,240.1,167.77Z"/><path class="cls-3" d="M245.82,170.65c0-48.93-27.16-90.89-65.85-108.77,35.62,19.23,60.13,59.41,60.13,105.89,0,44.86-38.76,65.36-38.76,103.83,0,26,.69,31.72.69,51.64V739c0,42.11-31.13,76.25-69.53,76.25h0a64,64,0,0,1-26.08-5.57,64.38,64.38,0,0,0,31.79,8.44h0c38.41,0,69.54-34.13,69.54-76.24V326.12c0-19.92-.69-25.62-.69-51.64C207.06,236,245.82,215.51,245.82,170.65Z"/><g class="cls-5"><path class="cls-6" d="M210.29,348.47H68.94a5.48,5.48,0,0,1-5.25-5.35L47,67H223l-6.91,275.3A6.06,6.06,0,0,1,210.29,348.47Z"/><path class="cls-7" d="M247.07,436.48H35.91c-4.13,0-7.56-3.5-7.83-8L3.06,16h263L255.74,427.28C255.61,432.4,251.77,436.48,247.07,436.48Z"/><path class="cls-7" d="M206.83,594.22H72.8a5.19,5.19,0,0,1-5-5.08L52,327.35H218.88l-6.55,261A5.75,5.75,0,0,1,206.83,594.22Z"/><path class="cls-8" d="M234.78,57.28c0-10.1-10.79-16.79-20.51-16.79A20.81,20.81,0,0,0,197.05,50c-.32-.05-.65-.08-1-.11a20.79,20.79,0,0,0-17.15-9.43,20,20,0,0,0-12.15,4.15,19.75,19.75,0,0,0-2.44.76,21.65,21.65,0,0,0-13.4-10.73A17.75,17.75,0,0,0,146,34a18.41,18.41,0,0,0-4,.45A21.94,21.94,0,0,0,126.2,48.59a15,15,0,0,0-7.9-2.27,15.35,15.35,0,0,0-11.36,5.16c-3.68-7.7-11.06-13-19.58-13a20.4,20.4,0,0,0-6.16,1c-8.46,2.34-15,9.79-16.85,19.18a20,20,0,0,0-7.14-1.31C45.16,57.35,35.38,68,35.38,81.17a28.29,28.29,0,0,0,.17,2.93A13.82,13.82,0,0,0,28.1,96.63c0,7.58,5.63,13.73,12.58,13.73a11.45,11.45,0,0,0,3.32-.49,5.45,5.45,0,0,0,.66-.11V109a12.37,12.37,0,0,0,6.89-11.34,12.81,12.81,0,0,0-.08-1.39,15.88,15.88,0,0,0,3.18.33c8.93,0,16.27-7.43,17.13-16.93a21.13,21.13,0,0,0,15.58,7c8.52,0,15.9-5.26,19.58-13h.45a12.33,12.33,0,0,0,8.15,3.13,12.13,12.13,0,0,0,5.72-1.44,10.12,10.12,0,0,0,6.85,2.71,10.37,10.37,0,0,0,8.23-4.21A18.12,18.12,0,0,0,156,73.73h.85a19.3,19.3,0,0,0,28.75.37,14.71,14.71,0,0,0,18.86-.37h.22a16,16,0,0,0,11.82,5.12,15.87,15.87,0,0,0,10.27-3.65C230.41,72.16,234.82,68.29,234.78,57.28Z"/><path class="cls-8" d="M234.78,79.45c0-10.1-10.79-16.79-20.51-16.79a20.81,20.81,0,0,0-17.22,9.54c-.32,0-.65-.08-1-.11a20.79,20.79,0,0,0-17.15-9.43,20,20,0,0,0-12.15,4.15,19.75,19.75,0,0,0-2.44.76,21.65,21.65,0,0,0-13.4-10.73,17.75,17.75,0,0,0-4.91-.68,18.41,18.41,0,0,0-4,.45A21.94,21.94,0,0,0,126.2,70.76a15,15,0,0,0-7.9-2.27,15.35,15.35,0,0,0-11.36,5.16c-3.68-7.7-11.06-13-19.58-13a20.4,20.4,0,0,0-6.16,1c-8.46,2.34-15,9.79-16.85,19.18a20,20,0,0,0-7.14-1.31c-12.05,0-21.83,10.66-21.83,23.82a28.29,28.29,0,0,0,.17,2.93A13.82,13.82,0,0,0,28.1,118.8c0,7.58,5.63,13.73,12.58,13.73A11.45,11.45,0,0,0,44,132a5.45,5.45,0,0,0,.66-.11v-.76a12.37,12.37,0,0,0,6.89-11.34,12.81,12.81,0,0,0-.08-1.39,15.88,15.88,0,0,0,3.18.33c8.93,0,16.27-7.43,17.13-16.93a21.13,21.13,0,0,0,15.58,7c8.52,0,15.9-5.26,19.58-13h.45A12.33,12.33,0,0,0,115.54,99a12.13,12.13,0,0,0,5.72-1.44,10.12,10.12,0,0,0,6.85,2.71,10.37,10.37,0,0,0,8.23-4.21A18.12,18.12,0,0,0,156,95.9h.85a19.3,19.3,0,0,0,28.75.37,14.71,14.71,0,0,0,18.86-.37h.22A16,16,0,0,0,216.52,101a15.87,15.87,0,0,0,10.27-3.65C230.41,94.33,234.82,90.46,234.78,79.45Z"/><ellipse class="cls-9" cx="167.88" cy="179.72" rx="5.23" ry="5.71"/><ellipse class="cls-9" cx="143.58" cy="240.39" rx="5.23" ry="5.71"/><ellipse class="cls-8" cx="89.99" cy="343.72" rx="5.23" ry="5.71"/><ellipse class="cls-8" cx="101.88" cy="172.23" rx="5.23" ry="5.71"/><ellipse class="cls-9" cx="117.77" cy="297.8" rx="5.23" ry="5.71"/><ellipse class="cls-9" cx="178.34" cy="349.42" rx="5.23" ry="5.71"/><ellipse class="cls-9" cx="200.33" cy="282.74" rx="5.23" ry="5.71"/><ellipse class="cls-9" cx="203.24" cy="220.55" rx="5.23" ry="5.71"/><ellipse class="cls-9" cx="203.24" cy="145" rx="5.23" ry="5.71"/><ellipse class="cls-9" cx="165.44" cy="437.49" rx="4.71" ry="5.14"/><ellipse class="cls-9" cx="143.54" cy="492.16" rx="4.71" ry="5.14"/><ellipse class="cls-8" cx="95.26" cy="585.26" rx="4.71" ry="5.14"/><ellipse class="cls-8" cx="105.97" cy="430.74" rx="4.71" ry="5.14"/><ellipse class="cls-9" cx="120.28" cy="543.89" rx="4.71" ry="5.14"/><ellipse class="cls-9" cx="174.87" cy="590.41" rx="4.71" ry="5.14"/><ellipse class="cls-9" cx="194.68" cy="530.31" rx="4.71" ry="5.14"/><ellipse class="cls-9" cx="197.3" cy="474.27" rx="4.71" ry="5.14"/><ellipse class="cls-9" cx="197.3" cy="406.2" rx="4.71" ry="5.14"/><ellipse class="cls-9" cx="125.14" cy="376.67" rx="4.71" ry="5.14"/><ellipse class="cls-9" cx="103.24" cy="431.34" rx="4.71" ry="5.14"/><ellipse class="cls-8" cx="54.95" cy="524.45" rx="4.71" ry="5.14"/><ellipse class="cls-8" cx="65.67" cy="369.92" rx="4.71" ry="5.14"/><ellipse class="cls-9" cx="79.98" cy="483.07" rx="4.71" ry="5.14"/><ellipse class="cls-9" cx="134.56" cy="529.59" rx="4.71" ry="5.14"/><ellipse class="cls-9" cx="154.38" cy="469.5" rx="4.71" ry="5.14"/><ellipse class="cls-9" cx="156.99" cy="413.46" rx="4.71" ry="5.14"/><ellipse class="cls-9" cx="156.99" cy="345.38" rx="4.71" ry="5.14"/><path class="cls-7" d="M213.1,825.92H61.84a5.86,5.86,0,0,1-5.62-5.74L38.3,524.73H226.7l-7.4,294.6A6.49,6.49,0,0,1,213.1,825.92Z"/><ellipse class="cls-9" cx="154.58" cy="551.76" rx="4.71" ry="5.14"/><ellipse class="cls-9" cx="132.68" cy="606.43" rx="4.71" ry="5.14"/><ellipse class="cls-8" cx="84.39" cy="699.54" rx="4.71" ry="5.14"/><ellipse class="cls-8" cx="95.11" cy="545.02" rx="4.71" ry="5.14"/><ellipse class="cls-9" cx="109.42" cy="658.16" rx="4.71" ry="5.14"/><ellipse class="cls-9" cx="164" cy="704.68" rx="4.71" ry="5.14"/><ellipse class="cls-9" cx="183.82" cy="644.59" rx="4.71" ry="5.14"/><ellipse class="cls-9" cx="186.44" cy="588.55" rx="4.71" ry="5.14"/><ellipse class="cls-9" cx="186.44" cy="520.47" rx="4.71" ry="5.14"/><ellipse class="cls-9" cx="153.73" cy="765.1" rx="4.71" ry="5.14"/><ellipse class="cls-9" cx="131.82" cy="819.77" rx="4.71" ry="5.14"/><ellipse class="cls-8" cx="94.25" cy="758.35" rx="4.71" ry="5.14"/><ellipse class="cls-9" cx="182.96" cy="857.93" rx="4.71" ry="5.14"/><ellipse class="cls-9" cx="185.58" cy="801.89" rx="4.71" ry="5.14"/><ellipse class="cls-9" cx="185.58" cy="733.81" rx="4.71" ry="5.14"/></g><path class="cls-8" d="M91.9,738.66V323.36c0-19.91,0-31.86,0-51.59-.8-34.38-38.08-58.91-38.08-103.73,0-61.86,37.52-106.28,92.79-111.16h0C87.29,56.88,36.35,103,36.35,168c0,44.82,37.29,69.35,38.08,103.73,0,19.73-.05,31.68-.05,51.59v415.3c0,42.06,25.29,63,63.66,63h0C103.81,796.9,91.9,777.47,91.9,738.66Z"/></g></svg>