<svg xmlns="http://www.w3.org/2000/svg" xmlns:xlink="http://www.w3.org/1999/xlink" width="265" height="865" viewBox="0 0 265 865"><defs><style>.cls-1{fill:none;}.cls-2{fill:#7e4222;}.cls-3{fill:#66351b;}.cls-4{fill:#def9ff;}.cls-5{clip-path:url(#clip-path);}.cls-6{fill:#e5e5e5;}.cls-7{fill:#f5c408;}.cls-8{fill:#fff;}.cls-9{fill:#f5e9ba;}.cls-10{clip-path:url(#clip-path-2);}</style><clipPath id="clip-path"><path class="cls-1" d="M240.1,167.77c0-65.16-48.17-118-107.6-118s-107.6,52.83-107.6,118c0,44.86,37.32,69.42,38.12,103.83,0,19.75-.05,31.72-.05,51.64V739c0,42.11,31.13,76.25,69.53,76.25h0c38.4,0,69.53-34.14,69.53-76.25V323.24c0-19.92-.69-25.61-.69-51.64C201.34,233.13,240.1,212.63,240.1,167.77Z"/></clipPath><clipPath id="clip-path-2"><path class="cls-1" d="M240.1-764.09c0-65.17-48.17-118-107.6-118s-107.6,52.82-107.6,118c0,44.86,37.32,69.41,38.12,103.83,0,19.75-.05,31.71-.05,51.64v415.73c0,42.1,31.13,76.24,69.53,76.24h0c38.4,0,69.53-34.14,69.53-76.24V-608.62c0-19.93-.69-25.62-.69-51.64C201.34-698.73,240.1-719.23,240.1-764.09Z"/></clipPath></defs><g id="Assets"><rect class="cls-2" width="265" height="865" rx="132.5"/><path class="cls-3" d="M220.3,33.52A133.53,133.53,0,0,1,253.57,122V720c0,73.72-59.32,133.48-132.5,133.48h0A131.42,131.42,0,0,1,33.28,820a131.72,131.72,0,0,0,99.22,45h0C205.68,865,265,805.24,265,731.52v-598A133.58,133.58,0,0,0,220.3,33.52Z"/><path class="cls-4" d="M240.1,167.77c0-65.16-48.17-118-107.6-118s-107.6,52.83-107.6,118c0,44.86,37.32,69.42,38.12,103.83,0,19.75-.05,31.72-.05,51.64V739c0,42.11,31.13,76.25,69.53,76.25h0c38.4,0,69.53-34.14,69.53-76.25V323.24c0-19.92-.69-25.61-.69-51.64C201.34,233.13,240.1,212.63,240.1,167.77Z"/><path class="cls-3" d="M245.82,170.65c0-48.93-27.16-90.89-65.85-108.77,35.62,19.23,60.13,59.41,60.13,105.89,0,44.86-38.76,65.36-38.76,103.83,0,26,.69,31.72.69,51.64V739c0,42.11-31.13,76.25-69.53,76.25h0a64,64,0,0,1-26.08-5.57,64.38,64.38,0,0,0,31.79,8.44h0c38.41,0,69.54-34.13,69.54-76.24V326.12c0-19.92-.69-25.62-.69-51.64C207.06,236,245.82,215.51,245.82,170.65Z"/><g class="cls-5"><path class="cls-6" d="M202.12,722.58H60.77a5.47,5.47,0,0,1-5.25-5.36L38.77,441.12H214.83l-6.91,275.3A6.06,6.06,0,0,1,202.12,722.58Z"/><path class="cls-7" d="M198.66,710h-134a5.19,5.19,0,0,1-5-5.08L43.78,443.11H210.71l-6.55,261A5.75,5.75,0,0,1,198.66,710Z"/><path class="cls-7" d="M198.66,894.32h-134a5.19,5.19,0,0,1-5-5.08L43.78,627.44H210.71l-6.55,261A5.75,5.75,0,0,1,198.66,894.32Z"/><path class="cls-8" d="M226.61,437.39c0-10.1-10.79-16.79-20.51-16.79a20.81,20.81,0,0,0-17.22,9.54c-.32-.05-.65-.09-1-.11a20.79,20.79,0,0,0-17.15-9.43,20,20,0,0,0-12.15,4.14,19.78,19.78,0,0,0-2.44.77,21.67,21.67,0,0,0-13.4-10.74,18.14,18.14,0,0,0-4.91-.68,17.82,17.82,0,0,0-4,.46A21.92,21.92,0,0,0,118,428.7a14.89,14.89,0,0,0-7.9-2.27,15.32,15.32,0,0,0-11.36,5.16c-3.68-7.7-11.06-13-19.58-13a20.35,20.35,0,0,0-6.16.95c-8.46,2.34-15.05,9.8-16.85,19.18A20.24,20.24,0,0,0,49,437.45c-12,0-21.83,10.67-21.83,23.83a28.09,28.09,0,0,0,.17,2.92,13.83,13.83,0,0,0-7.45,12.54c0,7.58,5.63,13.73,12.58,13.73a11.8,11.8,0,0,0,3.32-.49,4.67,4.67,0,0,0,.66-.12v-.76a12.36,12.36,0,0,0,6.88-11.33,12.81,12.81,0,0,0-.07-1.39,15.88,15.88,0,0,0,3.18.32c8.93,0,16.27-7.42,17.13-16.93a21.1,21.1,0,0,0,15.58,7c8.52,0,15.9-5.27,19.58-13h.45a12.32,12.32,0,0,0,8.15,3.12,12.12,12.12,0,0,0,5.72-1.43,10.12,10.12,0,0,0,6.85,2.71,10.37,10.37,0,0,0,8.23-4.21,18.18,18.18,0,0,0,19.68-.19h.85a19.29,19.29,0,0,0,28.75.36,14.69,14.69,0,0,0,18.86-.36h.22a16.26,16.26,0,0,0,22.09,1.47C222.24,452.27,226.65,448.4,226.61,437.39Z"/><path class="cls-8" d="M226.61,459.56c0-10.1-10.79-16.79-20.51-16.79a20.81,20.81,0,0,0-17.22,9.54c-.32-.05-.65-.09-1-.11a20.79,20.79,0,0,0-17.15-9.43,20,20,0,0,0-12.15,4.14,19.78,19.78,0,0,0-2.44.77,21.67,21.67,0,0,0-13.4-10.74,18.14,18.14,0,0,0-4.91-.68,17.82,17.82,0,0,0-4,.46A21.92,21.92,0,0,0,118,450.87a14.89,14.89,0,0,0-7.9-2.27,15.32,15.32,0,0,0-11.36,5.16c-3.68-7.7-11.06-13-19.58-13a20.35,20.35,0,0,0-6.16.95c-8.46,2.34-15.05,9.8-16.85,19.18A20.24,20.24,0,0,0,49,459.62c-12,0-21.83,10.67-21.83,23.83a28.09,28.09,0,0,0,.17,2.92,13.83,13.83,0,0,0-7.45,12.54c0,7.58,5.63,13.73,12.58,13.73a11.8,11.8,0,0,0,3.32-.49,4.67,4.67,0,0,0,.66-.12v-.76a12.36,12.36,0,0,0,6.88-11.33,12.81,12.81,0,0,0-.07-1.39,15.88,15.88,0,0,0,3.18.32c8.93,0,16.27-7.42,17.13-16.93a21.1,21.1,0,0,0,15.58,7c8.52,0,15.9-5.27,19.58-13h.45a12.32,12.32,0,0,0,8.15,3.12,12.12,12.12,0,0,0,5.72-1.43,10.12,10.12,0,0,0,6.85,2.71,10.37,10.37,0,0,0,8.23-4.21,18.18,18.18,0,0,0,19.68-.19h.85a19.29,19.29,0,0,0,28.75.36,14.69,14.69,0,0,0,18.86-.36h.22a16.26,16.26,0,0,0,22.09,1.47C222.24,474.44,226.65,470.57,226.61,459.56Z"/><ellipse class="cls-9" cx="157.27" cy="534.62" rx="4.71" ry="5.14"/><ellipse class="cls-9" cx="135.37" cy="589.29" rx="4.71" ry="5.14"/><ellipse class="cls-8" cx="87.09" cy="682.4" rx="4.71" ry="5.14"/><ellipse class="cls-8" cx="97.8" cy="527.87" rx="4.71" ry="5.14"/><ellipse class="cls-9" cx="112.11" cy="641.02" rx="4.71" ry="5.14"/><ellipse class="cls-9" cx="166.7" cy="687.54" rx="4.71" ry="5.14"/><ellipse class="cls-9" cx="186.51" cy="627.44" rx="4.71" ry="5.14"/><ellipse class="cls-9" cx="189.13" cy="571.41" rx="4.71" ry="5.14"/><ellipse class="cls-9" cx="189.13" cy="503.33" rx="4.71" ry="5.14"/><ellipse class="cls-9" cx="157.27" cy="737.59" rx="4.71" ry="5.14"/><ellipse class="cls-9" cx="135.37" cy="792.26" rx="4.71" ry="5.14"/><ellipse class="cls-8" cx="97.8" cy="730.84" rx="4.71" ry="5.14"/><ellipse class="cls-9" cx="112.11" cy="843.99" rx="4.71" ry="5.14"/><ellipse class="cls-9" cx="186.51" cy="830.41" rx="4.71" ry="5.14"/><ellipse class="cls-9" cx="189.13" cy="774.37" rx="4.71" ry="5.14"/><ellipse class="cls-9" cx="189.13" cy="706.3" rx="4.71" ry="5.14"/></g><path class="cls-8" d="M91.9,738.66V323.36c0-19.91,0-31.86,0-51.59-.8-34.38-38.08-58.91-38.08-103.73,0-61.86,37.52-106.28,92.79-111.16h0C87.29,56.88,36.35,103,36.35,168c0,44.82,37.29,69.35,38.08,103.73,0,19.73-.05,31.68-.05,51.59v415.3c0,42.06,25.29,63,63.66,63h0C103.81,796.9,91.9,777.47,91.9,738.66Z"/><g class="cls-10"><path class="cls-6" d="M202.12,194.71H60.77a5.47,5.47,0,0,1-5.25-5.35L38.77-86.75H214.83l-6.91,275.31A6.06,6.06,0,0,1,202.12,194.71Z"/><path class="cls-7" d="M198.66,182.12h-134a5.19,5.19,0,0,1-5-5.08L43.78-84.75H210.71l-6.55,261A5.75,5.75,0,0,1,198.66,182.12Z"/><ellipse class="cls-9" cx="157.27" cy="6.75" rx="4.71" ry="5.14"/><ellipse class="cls-9" cx="135.37" cy="61.42" rx="4.71" ry="5.14"/><ellipse class="cls-8" cx="87.09" cy="154.53" rx="4.71" ry="5.14"/><ellipse class="cls-8" cx="97.8" rx="4.71" ry="5.14"/><ellipse class="cls-9" cx="112.11" cy="113.15" rx="4.71" ry="5.14"/><ellipse class="cls-9" cx="166.7" cy="159.67" rx="4.71" ry="5.14"/><ellipse class="cls-9" cx="186.51" cy="99.58" rx="4.71" ry="5.14"/><ellipse class="cls-9" cx="189.13" cy="43.54" rx="4.71" ry="5.14"/></g></g></svg>