<svg xmlns="http://www.w3.org/2000/svg" xmlns:xlink="http://www.w3.org/1999/xlink" width="265" height="865" viewBox="0 0 265 865"><defs><style>.cls-1{fill:none;}.cls-2{fill:#7e4222;}.cls-3{fill:#66351b;}.cls-4{fill:#def9ff;}.cls-5{clip-path:url(#clip-path);}.cls-6{fill:#e5e5e5;}.cls-7{fill:#f5c408;}.cls-8{fill:#fff;}.cls-9{fill:#f5e9ba;}</style><clipPath id="clip-path"><path class="cls-1" d="M240.1,167.77c0-65.16-48.17-118-107.6-118s-107.6,52.83-107.6,118c0,44.86,37.32,69.42,38.12,103.83,0,19.75-.05,31.72-.05,51.64V739c0,42.11,31.13,76.25,69.53,76.25h0c38.4,0,69.53-34.14,69.53-76.25V323.24c0-19.92-.69-25.61-.69-51.64C201.34,233.13,240.1,212.63,240.1,167.77Z"/></clipPath></defs><g id="Assets"><rect class="cls-2" width="265" height="865" rx="132.5"/><path class="cls-3" d="M220.3,33.52A133.53,133.53,0,0,1,253.57,122V720c0,73.72-59.32,133.48-132.5,133.48h0A131.42,131.42,0,0,1,33.28,820a131.72,131.72,0,0,0,99.22,45h0C205.68,865,265,805.24,265,731.52v-598A133.58,133.58,0,0,0,220.3,33.52Z"/><path class="cls-4" d="M240.1,167.77c0-65.16-48.17-118-107.6-118s-107.6,52.83-107.6,118c0,44.86,37.32,69.42,38.12,103.83,0,19.75-.05,31.72-.05,51.64V739c0,42.11,31.13,76.25,69.53,76.25h0c38.4,0,69.53-34.14,69.53-76.25V323.24c0-19.92-.69-25.61-.69-51.64C201.34,233.13,240.1,212.63,240.1,167.77Z"/><path class="cls-3" d="M245.82,170.65c0-48.93-27.16-90.89-65.85-108.77,35.62,19.23,60.13,59.41,60.13,105.89,0,44.86-38.76,65.36-38.76,103.83,0,26,.69,31.72.69,51.64V739c0,42.11-31.13,76.25-69.53,76.25h0a64,64,0,0,1-26.08-5.57,64.38,64.38,0,0,0,31.79,8.44h0c38.41,0,69.54-34.13,69.54-76.24V326.12c0-19.92-.69-25.62-.69-51.64C207.06,236,245.82,215.51,245.82,170.65Z"/><g class="cls-5"><path class="cls-6" d="M202.12,852.6H60.77a5.47,5.47,0,0,1-5.25-5.36L38.77,571.14H214.83l-6.91,275.3A6.06,6.06,0,0,1,202.12,852.6Z"/><path class="cls-7" d="M198.66,840h-134a5.19,5.19,0,0,1-5-5.08L43.78,573.13H210.71l-6.55,261A5.75,5.75,0,0,1,198.66,840Z"/><path class="cls-8" d="M226.61,567.41c0-10.11-10.79-16.79-20.51-16.79a20.81,20.81,0,0,0-17.22,9.54c-.32,0-.65-.09-1-.12a20.81,20.81,0,0,0-17.15-9.42,20,20,0,0,0-12.15,4.14,19.78,19.78,0,0,0-2.44.77,21.67,21.67,0,0,0-13.4-10.74,18.14,18.14,0,0,0-4.91-.68,17.82,17.82,0,0,0-4,.46A21.93,21.93,0,0,0,118,558.71a15,15,0,0,0-7.9-2.27,15.33,15.33,0,0,0-11.36,5.17c-3.68-7.7-11.06-13-19.58-13a20.35,20.35,0,0,0-6.16,1c-8.46,2.34-15.05,9.8-16.85,19.18A20.24,20.24,0,0,0,49,567.47c-12,0-21.83,10.67-21.83,23.82a28.13,28.13,0,0,0,.17,2.93,13.83,13.83,0,0,0-7.45,12.54c0,7.58,5.63,13.72,12.58,13.72a11.79,11.79,0,0,0,3.32-.48s.25,0,.66-.12v-.76a12.36,12.36,0,0,0,6.88-11.33,12.68,12.68,0,0,0-.07-1.39,15.88,15.88,0,0,0,3.18.32c8.93,0,16.27-7.42,17.13-16.93a21.1,21.1,0,0,0,15.58,7c8.52,0,15.9-5.27,19.58-13h.45a12.32,12.32,0,0,0,8.15,3.12,12.13,12.13,0,0,0,5.72-1.44,10.12,10.12,0,0,0,6.85,2.71,10.34,10.34,0,0,0,8.23-4.21,18.15,18.15,0,0,0,19.68-.18h.85a19.29,19.29,0,0,0,28.75.36,14.69,14.69,0,0,0,18.86-.36h.22a16.26,16.26,0,0,0,22.09,1.47C222.24,582.29,226.65,578.42,226.61,567.41Z"/><path class="cls-8" d="M226.61,589.58c0-10.11-10.79-16.79-20.51-16.79a20.81,20.81,0,0,0-17.22,9.54c-.32-.05-.65-.09-1-.12a20.81,20.81,0,0,0-17.15-9.42,20,20,0,0,0-12.15,4.14,19.78,19.78,0,0,0-2.44.77A21.67,21.67,0,0,0,142.77,567a18.14,18.14,0,0,0-4.91-.68,17.82,17.82,0,0,0-4,.46A21.93,21.93,0,0,0,118,580.88a15,15,0,0,0-7.9-2.27,15.33,15.33,0,0,0-11.36,5.17c-3.68-7.7-11.06-13-19.58-13a20.35,20.35,0,0,0-6.16,1C64.57,574.11,58,581.57,56.18,591A20.24,20.24,0,0,0,49,589.64c-12,0-21.83,10.67-21.83,23.82a28.13,28.13,0,0,0,.17,2.93,13.83,13.83,0,0,0-7.45,12.54c0,7.58,5.63,13.72,12.58,13.72a11.79,11.79,0,0,0,3.32-.48s.25,0,.66-.12v-.76A12.36,12.36,0,0,0,43.37,630a12.68,12.68,0,0,0-.07-1.39,15.88,15.88,0,0,0,3.18.32c8.93,0,16.27-7.42,17.13-16.93a21.1,21.1,0,0,0,15.58,7c8.52,0,15.9-5.27,19.58-13h.45a12.32,12.32,0,0,0,8.15,3.12,12.13,12.13,0,0,0,5.72-1.44,10.12,10.12,0,0,0,6.85,2.71,10.34,10.34,0,0,0,8.23-4.21,18.15,18.15,0,0,0,19.68-.18h.85a19.29,19.29,0,0,0,28.75.36,14.69,14.69,0,0,0,18.86-.36h.22a16.26,16.26,0,0,0,22.09,1.47C222.24,604.46,226.65,600.59,226.61,589.58Z"/><ellipse class="cls-9" cx="157.27" cy="664.64" rx="4.71" ry="5.14"/><ellipse class="cls-9" cx="135.37" cy="719.31" rx="4.71" ry="5.14"/><ellipse class="cls-8" cx="87.09" cy="812.42" rx="4.71" ry="5.14"/><ellipse class="cls-8" cx="97.8" cy="657.89" rx="4.71" ry="5.14"/><ellipse class="cls-9" cx="112.11" cy="771.04" rx="4.71" ry="5.14"/><ellipse class="cls-9" cx="166.7" cy="817.56" rx="4.71" ry="5.14"/><ellipse class="cls-9" cx="186.51" cy="757.46" rx="4.71" ry="5.14"/><ellipse class="cls-9" cx="189.13" cy="701.43" rx="4.71" ry="5.14"/><ellipse class="cls-9" cx="189.13" cy="633.35" rx="4.71" ry="5.14"/></g><path class="cls-8" d="M91.9,738.66V323.36c0-19.91,0-31.86,0-51.59-.8-34.38-38.08-58.91-38.08-103.73,0-61.86,37.52-106.28,92.79-111.16h0C87.29,56.88,36.35,103,36.35,168c0,44.82,37.29,69.35,38.08,103.73,0,19.73-.05,31.68-.05,51.59v415.3c0,42.06,25.29,63,63.66,63h0C103.81,796.9,91.9,777.47,91.9,738.66Z"/></g></svg>