<svg xmlns="http://www.w3.org/2000/svg" xmlns:xlink="http://www.w3.org/1999/xlink" width="265" height="865" viewBox="0 0 265 865"><defs><style>.cls-1{fill:none;}.cls-2{fill:#7e4222;}.cls-3{fill:#66351b;}.cls-4{fill:#def9ff;}.cls-5{clip-path:url(#clip-path);}.cls-6{fill:#e5e5e5;}.cls-7{fill:#f5c408;}.cls-8{fill:#fff;}.cls-9{fill:#f5e9ba;}</style><clipPath id="clip-path"><path class="cls-1" d="M240.1,167.77c0-65.16-48.17-118-107.6-118s-107.6,52.83-107.6,118c0,44.86,37.32,69.42,38.12,103.83,0,19.75-.05,31.72-.05,51.64V739c0,42.11,31.13,76.25,69.53,76.25h0c38.4,0,69.53-34.14,69.53-76.25V323.24c0-19.92-.69-25.61-.69-51.64C201.34,233.13,240.1,212.63,240.1,167.77Z"/></clipPath></defs><g id="Assets"><rect class="cls-2" width="265" height="865" rx="132.5"/><path class="cls-3" d="M220.3,33.52A133.53,133.53,0,0,1,253.57,122V720c0,73.72-59.32,133.48-132.5,133.48h0A131.42,131.42,0,0,1,33.28,820a131.72,131.72,0,0,0,99.22,45h0C205.68,865,265,805.24,265,731.52v-598A133.58,133.58,0,0,0,220.3,33.52Z"/><path class="cls-4" d="M240.1,167.77c0-65.16-48.17-118-107.6-118s-107.6,52.83-107.6,118c0,44.86,37.32,69.42,38.12,103.83,0,19.75-.05,31.72-.05,51.64V739c0,42.11,31.13,76.25,69.53,76.25h0c38.4,0,69.53-34.14,69.53-76.25V323.24c0-19.92-.69-25.61-.69-51.64C201.34,233.13,240.1,212.63,240.1,167.77Z"/><path class="cls-3" d="M245.82,170.65c0-48.93-27.16-90.89-65.85-108.77,35.62,19.23,60.13,59.41,60.13,105.89,0,44.86-38.76,65.36-38.76,103.83,0,26,.69,31.72.69,51.64V739c0,42.11-31.13,76.25-69.53,76.25h0a64,64,0,0,1-26.08-5.57,64.38,64.38,0,0,0,31.79,8.44h0c38.41,0,69.54-34.13,69.54-76.24V326.12c0-19.92-.69-25.62-.69-51.64C207.06,236,245.82,215.51,245.82,170.65Z"/><g class="cls-5"><path class="cls-6" d="M211.35,493.92H70a5.48,5.48,0,0,1-5.25-5.36L48,212.46H224.06l-6.91,275.3A6.07,6.07,0,0,1,211.35,493.92Z"/><path class="cls-7" d="M214.87,519.78H66.13a5.77,5.77,0,0,1-5.52-5.64L43,223.62H228.24L221,513.3A6.38,6.38,0,0,1,214.87,519.78Z"/><path class="cls-7" d="M207.89,739.66h-134a5.19,5.19,0,0,1-5-5.08L53,472.79H219.94l-6.55,261A5.75,5.75,0,0,1,207.89,739.66Z"/><path class="cls-8" d="M235.84,208.73c0-10.11-10.79-16.8-20.51-16.8a20.79,20.79,0,0,0-17.22,9.55c-.32,0-.65-.09-1-.12A20.83,20.83,0,0,0,180,191.93a20,20,0,0,0-12.15,4.15,19.78,19.78,0,0,0-2.44.77A21.67,21.67,0,0,0,152,186.11a18.14,18.14,0,0,0-4.91-.68,17.82,17.82,0,0,0-4,.46A21.93,21.93,0,0,0,127.26,200a15,15,0,0,0-7.9-2.27A15.33,15.33,0,0,0,108,202.93c-3.69-7.7-11.06-13-19.58-13a20.35,20.35,0,0,0-6.16,1c-8.46,2.34-15.06,9.8-16.85,19.18a20.28,20.28,0,0,0-7.14-1.31c-12.05,0-21.83,10.67-21.83,23.82a28.29,28.29,0,0,0,.17,2.93,13.83,13.83,0,0,0-7.45,12.54c0,7.58,5.63,13.72,12.58,13.72a11.79,11.79,0,0,0,3.32-.48s.25,0,.66-.12v-.76a12.36,12.36,0,0,0,6.88-11.33,12.68,12.68,0,0,0-.07-1.39,15.88,15.88,0,0,0,3.18.32c8.93,0,16.27-7.42,17.12-16.93a21.14,21.14,0,0,0,15.59,7c8.52,0,15.9-5.27,19.58-13h.45a12.32,12.32,0,0,0,8.15,3.12,12.06,12.06,0,0,0,5.71-1.44,10.16,10.16,0,0,0,6.86,2.71,10.32,10.32,0,0,0,8.22-4.21,18.17,18.17,0,0,0,19.69-.18h.85a19.29,19.29,0,0,0,28.75.36,14.69,14.69,0,0,0,18.86-.36h.22a16.26,16.26,0,0,0,22.09,1.47C231.47,223.61,235.88,219.74,235.84,208.73Z"/><path class="cls-8" d="M235.84,230.9c0-10.11-10.79-16.8-20.51-16.8a20.79,20.79,0,0,0-17.22,9.55c-.32-.05-.65-.09-1-.12A20.83,20.83,0,0,0,180,214.1a20,20,0,0,0-12.15,4.15,19.78,19.78,0,0,0-2.44.77A21.67,21.67,0,0,0,152,208.28a18.14,18.14,0,0,0-4.91-.68,17.82,17.82,0,0,0-4,.46,21.93,21.93,0,0,0-15.81,14.14,15,15,0,0,0-7.9-2.27A15.33,15.33,0,0,0,108,225.1c-3.69-7.7-11.06-13-19.58-13a20.35,20.35,0,0,0-6.16,1c-8.46,2.34-15.06,9.8-16.85,19.18A20.28,20.28,0,0,0,58.27,231c-12.05,0-21.83,10.67-21.83,23.82a28.29,28.29,0,0,0,.17,2.93,13.83,13.83,0,0,0-7.45,12.54c0,7.58,5.63,13.72,12.58,13.72a11.79,11.79,0,0,0,3.32-.48s.25,0,.66-.12v-.76a12.36,12.36,0,0,0,6.88-11.33,12.68,12.68,0,0,0-.07-1.39,15.88,15.88,0,0,0,3.18.32c8.93,0,16.27-7.42,17.12-16.93a21.14,21.14,0,0,0,15.59,7c8.52,0,15.9-5.27,19.58-13h.45a12.32,12.32,0,0,0,8.15,3.12,12.06,12.06,0,0,0,5.71-1.44,10.16,10.16,0,0,0,6.86,2.71,10.35,10.35,0,0,0,8.22-4.21,18.17,18.17,0,0,0,19.69-.18h.85a19.29,19.29,0,0,0,28.75.36,14.69,14.69,0,0,0,18.86-.36h.22a16.26,16.26,0,0,0,22.09,1.47C231.47,245.78,235.88,241.91,235.84,230.9Z"/><ellipse class="cls-9" cx="168.94" cy="325.17" rx="5.23" ry="5.71"/><ellipse class="cls-9" cx="144.64" cy="385.84" rx="5.23" ry="5.71"/><ellipse class="cls-8" cx="91.05" cy="489.16" rx="5.23" ry="5.71"/><ellipse class="cls-8" cx="102.94" cy="317.68" rx="5.23" ry="5.71"/><ellipse class="cls-9" cx="118.82" cy="443.24" rx="5.23" ry="5.71"/><ellipse class="cls-9" cx="179.4" cy="494.87" rx="5.23" ry="5.71"/><ellipse class="cls-9" cx="201.39" cy="428.18" rx="5.23" ry="5.71"/><ellipse class="cls-9" cx="204.29" cy="365.99" rx="5.23" ry="5.71"/><ellipse class="cls-9" cx="204.29" cy="290.44" rx="5.23" ry="5.71"/><ellipse class="cls-9" cx="166.5" cy="582.93" rx="4.71" ry="5.14"/><ellipse class="cls-9" cx="144.6" cy="637.6" rx="4.71" ry="5.14"/><ellipse class="cls-8" cx="96.32" cy="730.71" rx="4.71" ry="5.14"/><ellipse class="cls-8" cx="107.03" cy="576.18" rx="4.71" ry="5.14"/><ellipse class="cls-9" cx="121.34" cy="689.33" rx="4.71" ry="5.14"/><ellipse class="cls-9" cx="175.92" cy="735.85" rx="4.71" ry="5.14"/><ellipse class="cls-9" cx="195.74" cy="675.76" rx="4.71" ry="5.14"/><ellipse class="cls-9" cx="198.36" cy="619.72" rx="4.71" ry="5.14"/><ellipse class="cls-9" cx="198.36" cy="551.64" rx="4.71" ry="5.14"/><ellipse class="cls-9" cx="126.2" cy="522.11" rx="4.71" ry="5.14"/><ellipse class="cls-9" cx="104.29" cy="576.79" rx="4.71" ry="5.14"/><ellipse class="cls-8" cx="56.01" cy="669.89" rx="4.71" ry="5.14"/><ellipse class="cls-8" cx="66.72" cy="515.37" rx="4.71" ry="5.14"/><ellipse class="cls-9" cx="81.03" cy="628.52" rx="4.71" ry="5.14"/><ellipse class="cls-9" cx="135.62" cy="675.03" rx="4.71" ry="5.14"/><ellipse class="cls-9" cx="155.43" cy="614.94" rx="4.71" ry="5.14"/><ellipse class="cls-9" cx="158.05" cy="558.9" rx="4.71" ry="5.14"/><ellipse class="cls-9" cx="158.05" cy="490.82" rx="4.71" ry="5.14"/><path class="cls-7" d="M207.89,909.61h-134a5.19,5.19,0,0,1-5-5.08L53,642.74H219.94l-6.55,261A5.75,5.75,0,0,1,207.89,909.61Z"/><ellipse class="cls-9" cx="126.2" cy="692.07" rx="4.71" ry="5.14"/><ellipse class="cls-9" cx="104.29" cy="746.74" rx="4.71" ry="5.14"/><ellipse class="cls-8" cx="56.01" cy="839.85" rx="4.71" ry="5.14"/><ellipse class="cls-8" cx="66.72" cy="685.32" rx="4.71" ry="5.14"/><ellipse class="cls-9" cx="81.03" cy="798.47" rx="4.71" ry="5.14"/><ellipse class="cls-9" cx="135.62" cy="844.99" rx="4.71" ry="5.14"/><ellipse class="cls-9" cx="155.43" cy="784.89" rx="4.71" ry="5.14"/><ellipse class="cls-9" cx="158.05" cy="728.86" rx="4.71" ry="5.14"/><ellipse class="cls-9" cx="158.05" cy="660.78" rx="4.71" ry="5.14"/></g><path class="cls-8" d="M91.9,738.66V323.36c0-19.91,0-31.86,0-51.59-.8-34.38-38.08-58.91-38.08-103.73,0-61.86,37.52-106.28,92.79-111.16h0C87.29,56.88,36.35,103,36.35,168c0,44.82,37.29,69.35,38.08,103.73,0,19.73-.05,31.68-.05,51.59v415.3c0,42.06,25.29,63,63.66,63h0C103.81,796.9,91.9,777.47,91.9,738.66Z"/></g></svg>