<svg xmlns="http://www.w3.org/2000/svg" xmlns:xlink="http://www.w3.org/1999/xlink" width="265" height="865" viewBox="0 0 265 865"><defs><style>.cls-1{fill:none;}.cls-2{fill:#7e4222;}.cls-3{fill:#66351b;}.cls-4{fill:#def9ff;}.cls-5{clip-path:url(#clip-path);}.cls-6{fill:#e5e5e5;}.cls-7{fill:#f5c408;}.cls-8{fill:#fff;}.cls-9{fill:#f5e9ba;}</style><clipPath id="clip-path"><path class="cls-1" d="M240.1,167.77c0-65.16-48.17-118-107.6-118s-107.6,52.83-107.6,118c0,44.86,37.32,69.42,38.12,103.83,0,19.75-.05,31.72-.05,51.64V739c0,42.11,31.13,76.25,69.53,76.25h0c38.4,0,69.53-34.14,69.53-76.25V323.24c0-19.92-.69-25.61-.69-51.64C201.34,233.13,240.1,212.63,240.1,167.77Z"/></clipPath></defs><g id="Assets"><rect class="cls-2" width="265" height="865" rx="132.5"/><path class="cls-3" d="M220.3,33.52A133.53,133.53,0,0,1,253.57,122V720c0,73.72-59.32,133.48-132.5,133.48h0A131.42,131.42,0,0,1,33.28,820a131.72,131.72,0,0,0,99.22,45h0C205.68,865,265,805.24,265,731.52v-598A133.58,133.58,0,0,0,220.3,33.52Z"/><path class="cls-4" d="M240.1,167.77c0-65.16-48.17-118-107.6-118s-107.6,52.83-107.6,118c0,44.86,37.32,69.42,38.12,103.83,0,19.75-.05,31.72-.05,51.64V739c0,42.11,31.13,76.25,69.53,76.25h0c38.4,0,69.53-34.14,69.53-76.25V323.24c0-19.92-.69-25.61-.69-51.64C201.34,233.13,240.1,212.63,240.1,167.77Z"/><path class="cls-3" d="M245.82,170.65c0-48.93-27.16-90.89-65.85-108.77,35.62,19.23,60.13,59.41,60.13,105.89,0,44.86-38.76,65.36-38.76,103.83,0,26,.69,31.72.69,51.64V739c0,42.11-31.13,76.25-69.53,76.25h0a64,64,0,0,1-26.08-5.57,64.38,64.38,0,0,0,31.79,8.44h0c38.41,0,69.54-34.13,69.54-76.24V326.12c0-19.92-.69-25.62-.69-51.64C207.06,236,245.82,215.51,245.82,170.65Z"/><g class="cls-5"><path class="cls-6" d="M207.09,775.27H65.73a5.47,5.47,0,0,1-5.24-5.36L43.74,493.8H219.8l-6.91,275.31A6.08,6.08,0,0,1,207.09,775.27Z"/><path class="cls-7" d="M203.62,762.67H69.6a5.2,5.2,0,0,1-5-5.08L48.74,495.8H215.68l-6.56,261A5.75,5.75,0,0,1,203.62,762.67Z"/><path class="cls-7" d="M203.62,840H69.6a5.2,5.2,0,0,1-5-5.08L48.74,573.13H215.68l-6.56,261A5.75,5.75,0,0,1,203.62,840Z"/><path class="cls-8" d="M231.57,490.07c0-10.1-10.78-16.79-20.5-16.79a20.82,20.82,0,0,0-17.23,9.54l-1-.11a20.79,20.79,0,0,0-17.15-9.43,20.06,20.06,0,0,0-12.15,4.15,20.3,20.3,0,0,0-2.44.76,21.61,21.61,0,0,0-13.39-10.73,17.81,17.81,0,0,0-4.91-.68,18.34,18.34,0,0,0-4,.45A21.94,21.94,0,0,0,123,481.38a14.94,14.94,0,0,0-7.89-2.27,15.36,15.36,0,0,0-11.37,5.17c-3.68-7.71-11.06-13-19.57-13a20.3,20.3,0,0,0-6.16,1c-8.46,2.34-15.06,9.8-16.85,19.18A20.06,20.06,0,0,0,54,490.14C42,490.14,32.18,500.8,32.18,514a25.76,25.76,0,0,0,.17,2.93,13.82,13.82,0,0,0-7.45,12.53c0,7.58,5.63,13.73,12.58,13.73a11.72,11.72,0,0,0,3.31-.48s.25,0,.67-.12v-.76a12.38,12.38,0,0,0,6.88-11.34c0-.47,0-.93-.07-1.39a15.88,15.88,0,0,0,3.18.33c8.93,0,16.27-7.43,17.12-16.93a21.09,21.09,0,0,0,15.59,7c8.51,0,15.89-5.26,19.58-13h.44a12.32,12.32,0,0,0,8.15,3.13,12.13,12.13,0,0,0,5.72-1.44,10.16,10.16,0,0,0,6.85,2.71,10.36,10.36,0,0,0,8.23-4.21,18.14,18.14,0,0,0,19.69-.19h.84a19.29,19.29,0,0,0,28.76.37,14.66,14.66,0,0,0,18.85-.37h.22a16,16,0,0,0,11.83,5.12A15.87,15.87,0,0,0,223.59,508C227.2,505,231.61,501.08,231.57,490.07Z"/><path class="cls-8" d="M231.57,512.24c0-10.1-10.78-16.79-20.5-16.79A20.82,20.82,0,0,0,193.84,505l-1-.11a20.79,20.79,0,0,0-17.15-9.43,20.06,20.06,0,0,0-12.15,4.15,20.3,20.3,0,0,0-2.44.76,21.61,21.61,0,0,0-13.39-10.73,17.81,17.81,0,0,0-4.91-.68,18.34,18.34,0,0,0-4,.45A21.94,21.94,0,0,0,123,503.55a14.94,14.94,0,0,0-7.89-2.27,15.36,15.36,0,0,0-11.37,5.17c-3.68-7.71-11.06-13-19.57-13a20.3,20.3,0,0,0-6.16,1c-8.46,2.34-15.06,9.8-16.85,19.18A20.06,20.06,0,0,0,54,512.31C42,512.31,32.18,523,32.18,536.13a25.76,25.76,0,0,0,.17,2.93,13.82,13.82,0,0,0-7.45,12.53c0,7.58,5.63,13.73,12.58,13.73a11.72,11.72,0,0,0,3.31-.48s.25,0,.67-.12V564a12.38,12.38,0,0,0,6.88-11.34c0-.47,0-.93-.07-1.39a15.88,15.88,0,0,0,3.18.33c8.93,0,16.27-7.43,17.12-16.93a21.09,21.09,0,0,0,15.59,7c8.51,0,15.89-5.26,19.58-13h.44a12.32,12.32,0,0,0,8.15,3.13,12.13,12.13,0,0,0,5.72-1.44,10.16,10.16,0,0,0,6.85,2.71,10.36,10.36,0,0,0,8.23-4.21,18.14,18.14,0,0,0,19.69-.19h.84a19.29,19.29,0,0,0,28.76.37,14.66,14.66,0,0,0,18.85-.37h.22a16,16,0,0,0,11.83,5.12,15.87,15.87,0,0,0,10.27-3.65C227.2,527.12,231.61,523.25,231.57,512.24Z"/><ellipse class="cls-9" cx="162.24" cy="587.3" rx="4.71" ry="5.14"/><ellipse class="cls-9" cx="140.34" cy="641.97" rx="4.71" ry="5.14"/><ellipse class="cls-8" cx="92.05" cy="735.08" rx="4.71" ry="5.14"/><ellipse class="cls-8" cx="102.77" cy="580.56" rx="4.71" ry="5.14"/><ellipse class="cls-9" cx="117.08" cy="693.7" rx="4.71" ry="5.14"/><ellipse class="cls-9" cx="171.66" cy="740.22" rx="4.71" ry="5.14"/><ellipse class="cls-9" cx="191.48" cy="680.13" rx="4.71" ry="5.14"/><ellipse class="cls-9" cx="194.09" cy="624.09" rx="4.71" ry="5.14"/><ellipse class="cls-9" cx="194.09" cy="556.01" rx="4.71" ry="5.14"/></g><path class="cls-8" d="M91.9,738.66V323.36c0-19.91,0-31.86,0-51.59-.8-34.38-38.08-58.91-38.08-103.73,0-61.86,37.52-106.28,92.79-111.16h0C87.29,56.88,36.35,103,36.35,168c0,44.82,37.29,69.35,38.08,103.73,0,19.73-.05,31.68-.05,51.59v415.3c0,42.06,25.29,63,63.66,63h0C103.81,796.9,91.9,777.47,91.9,738.66Z"/></g></svg>