<svg xmlns="http://www.w3.org/2000/svg" width="1080" height="840" viewBox="0 0 1080 840"><defs><style>.cls-1{fill:#e0bfa3;}.cls-2{fill:#c9ac93;}.cls-3{fill:#343434;}.cls-4{fill:#4d4d4d;}.cls-5{fill:#e5e5e5;}.cls-6{fill:#f5c408;}.cls-7{fill:#fff;}.cls-8{fill:#f5d660;}.cls-9{fill:#f5e9ba;}.cls-10{fill:#42210b;}.cls-11{fill:#603813;}</style></defs><g id="Figur"><g id="Arme"><g id="Fadøl_m_sidevogn"><g id="Højre_Arm" data-name="Højre Arm"><g id="Hånd_-_Bag" data-name="Hånd - Bag"><path class="cls-1" d="M641.89,506.74S654.62,491.58,669.5,463s56.13-33.63,65.6-27.71c0,0,34-22.8,58.17-9.74,16.77,9,13.36,19.82,9.29,23.42a116.55,116.55,0,0,1-9.76,7.16s23.87,13.49,26.14,31.38-7.88,20.71-11.27,21.65,24.06,7.56,21,22.65-1.8,18.31-12.57,24.14c0,0,15,.82,12.6,12.89s-14.41,23-14.41,23-36.51,39.52-126.93,14.77l-20.4,2.1-25.1-102"/><path class="cls-2" d="M748.48,467.09,748,464a.28.28,0,0,1,.18-.31L793,454.36a.25.25,0,0,1,.26.22l.45,3.1a.28.28,0,0,1-.19.31l-44.75,9.32C748.61,467.34,748.5,467.24,748.48,467.09Z"/><path class="cls-2" d="M739.66,513.57l-.09-3.14a.25.25,0,0,1,.21-.28l67.07-2.86a.24.24,0,0,1,.23.26l.1,3.14a.26.26,0,0,1-.22.27l-67.07,2.87A.25.25,0,0,1,739.66,513.57Z"/><path class="cls-2" d="M764.07,574.63l0,.2a1.91,1.91,0,0,1-1,2.28s-11.61,3.18-21,2c-10.87-1.32-20.63-7.59-21-11.29-1.34-12.67,37.76-30.4,45.14-29.23,11.89,1.88,48.91,15,48.91,15a1.91,1.91,0,0,1,1,2.28l0,.2a1.51,1.51,0,0,1-1.9,1.24s-36.24-13.83-49-15.06c-7.71-.74-43.18,15.75-41.6,25.1.45,2.62,8.45,7.78,18.51,8.6,9.65.79,20-2.63,20-2.63A1.51,1.51,0,0,1,764.07,574.63Z"/><path class="cls-2" d="M735.15,435.28s28.78,19.9,7.2,75.64c-16,41.25-35.81,17.39-38.09,5.9-1.77-8.92,2-32.59,2.27-34.4s.08-4.34,2.83-4,1.09,3.53.82,5.4c-3.06,21.23-3.23,24.66-2.28,33.34.45,4,14.36,29.67,31.19-7.18,10.06-22,11.75-46.82-3.41-68.5-5-7.14-22.18-4-30.75-1-8.89,3.13-20.58,3.8-29.69,19s-16.71,27-22.73,38.08.49,27.52-3.74,26.38l-2.23,1.52-4.6-18.69s29.85-47.63,31.95-50.54C689.09,435.18,725.76,428.27,735.15,435.28Z"/></g><path class="cls-3" d="M0,95.47s138.27,506.46,180.91,538.3c27.8,20.77,201.77-3,486.12-25l-25.09-102s-384.45,43.87-412.88,22.77C199.71,507.72,95.42,105.07,95.42,105.07L49.71,0Z"/><path class="cls-4" d="M0,95.47l6.8-13s138.27,506.45,180.9,538.3c27.48,20.53,197.89-2.49,476.31-24.24l3,12.27c-284.35,22-458.32,45.79-486.12,25C138.27,601.93,0,95.47,0,95.47Z"/></g><path class="cls-5" d="M1011.29,787.65H725.37a10.79,10.79,0,0,1-10.61-10.26L680.88,249H1037l-14,526.83A11.93,11.93,0,0,1,1011.29,787.65Z"/><path class="cls-6" d="M1004.29,763.54H733.19a10.22,10.22,0,0,1-10.06-9.72L691,252.84h337.66l-13.26,499.52A11.29,11.29,0,0,1,1004.29,763.54Z"/><path class="cls-7" d="M1060.83,241.89c-.07-19.33-21.82-32.13-41.49-32.13A42.72,42.72,0,0,0,984.5,228c-.64-.09-1.3-.16-2-.21a42.7,42.7,0,0,0-34.69-18,42.08,42.08,0,0,0-24.57,7.93,40.78,40.78,0,0,0-4.94,1.47,43.36,43.36,0,0,0-27.1-20.55,38.51,38.51,0,0,0-18.06-.43,43.62,43.62,0,0,0-32,27.08,31.38,31.38,0,0,0-16-4.35,31.8,31.8,0,0,0-23,9.88c-7.46-14.74-22.38-24.81-39.6-24.81a43.51,43.51,0,0,0-12.46,1.83c-17.12,4.48-30.46,18.75-34.08,36.71A42.82,42.82,0,0,0,701.65,242c-24.38,0-44.15,20.41-44.15,45.59a47,47,0,0,0,.34,5.6,26.31,26.31,0,0,0-15.07,24c0,14.51,11.39,26.27,25.44,26.27a24.77,24.77,0,0,0,6.71-.93s.51,0,1.35-.22v-1.46a23.57,23.57,0,0,0,13.92-21.69,26,26,0,0,0-.15-2.66,33.22,33.22,0,0,0,6.43.63c18.07,0,32.92-14.22,34.64-32.4a43.85,43.85,0,0,0,31.53,13.46c17.22,0,32.15-10.08,39.6-24.82h.9a25.7,25.7,0,0,0,28.05,3.23,21.2,21.2,0,0,0,30.51-2.87,38.5,38.5,0,0,0,39.82-.36h1.71a40.54,40.54,0,0,0,58.17.69,31,31,0,0,0,38.13-.69h.45a34.24,34.24,0,0,0,44.69,2.81C1052,270.36,1060.9,263,1060.83,241.89Z"/><polygon class="cls-8" points="812.78 763.54 760.38 763.54 733.58 312.81 812.78 312.81 812.78 763.54"/><path class="cls-7" d="M1060.83,284.31c-.07-19.33-21.82-32.13-41.49-32.13a42.73,42.73,0,0,0-34.84,18.26c-.64-.09-1.3-.16-2-.21a42.68,42.68,0,0,0-34.69-18.05,42,42,0,0,0-24.57,7.94,40.74,40.74,0,0,0-4.94,1.46A43.43,43.43,0,0,0,891.24,241a38.73,38.73,0,0,0-9.93-1.29,38.21,38.21,0,0,0-8.13.87,43.59,43.59,0,0,0-32,27.07,31.48,31.48,0,0,0-16-4.35,31.81,31.81,0,0,0-23,9.89c-7.46-14.74-22.38-24.81-39.6-24.81a43.51,43.51,0,0,0-12.46,1.83C733.06,254.72,719.72,269,716.1,287a42.82,42.82,0,0,0-14.45-2.51c-24.38,0-44.15,20.41-44.15,45.58a47.21,47.21,0,0,0,.34,5.61,26.31,26.31,0,0,0-15.07,24c0,14.51,11.39,26.28,25.44,26.28a24.77,24.77,0,0,0,6.71-.93,13.4,13.4,0,0,0,1.35-.23v-1.45a23.58,23.58,0,0,0,13.92-21.69,25.86,25.86,0,0,0-.15-2.66,34,34,0,0,0,6.43.62c18.07,0,32.92-14.21,34.64-32.4a43.81,43.81,0,0,0,31.53,13.46c17.22,0,32.15-10.07,39.6-24.82h.9A25.7,25.7,0,0,0,831.19,319a21.17,21.17,0,0,0,30.51-2.87,38.5,38.5,0,0,0,39.82-.36h1.71a40.52,40.52,0,0,0,58.17.7,31,31,0,0,0,38.13-.7h.45a34.26,34.26,0,0,0,44.69,2.82C1052,312.79,1060.9,305.38,1060.83,284.31Z"/><ellipse class="cls-9" cx="920.58" cy="427.95" rx="9.53" ry="9.84"/><ellipse class="cls-9" cx="876.27" cy="532.57" rx="9.53" ry="9.84"/><ellipse class="cls-7" cx="778.6" cy="710.75" rx="9.53" ry="9.84"/><ellipse class="cls-7" cx="800.28" cy="415.04" rx="9.53" ry="9.84"/><ellipse class="cls-9" cx="829.23" cy="631.57" rx="9.53" ry="9.84"/><ellipse class="cls-9" cx="939.64" cy="720.59" rx="9.53" ry="9.84"/><ellipse class="cls-9" cx="979.72" cy="605.59" rx="9.53" ry="9.84"/><ellipse class="cls-9" cx="985.01" cy="498.35" rx="9.53" ry="9.84"/><ellipse class="cls-9" cx="985.01" cy="368.07" rx="9.53" ry="9.84"/><path class="cls-5" d="M1067.66,840H930.43a5.18,5.18,0,0,1-5.09-4.92L909.08,581.5H1080l-6.71,252.84A5.72,5.72,0,0,1,1067.66,840Z"/><path class="cls-10" d="M1064.3,828.43H934.19a4.86,4.86,0,0,1-4.83-4.56l-15.42-235H1076l-6.36,234.37A5.36,5.36,0,0,1,1064.3,828.43Z"/><polygon class="cls-11" points="974.92 828.43 946.42 828.43 931.85 588.82 974.92 588.82 974.92 828.43"/></g></g></g></svg>