<svg xmlns="http://www.w3.org/2000/svg" width="1080" height="840" viewBox="0 0 1080 840"><defs><style>.cls-1{fill:#e0bfa3;}.cls-2{fill:#c9ac93;}.cls-3{fill:#343434;}.cls-4{fill:#4d4d4d;}.cls-5{fill:#383838;}.cls-6{fill:#1e1e1e;}.cls-7{fill:#616161;}</style></defs><g id="Figur"><g id="Arme"><g id="Telefon"><g id="Højre_Arm" data-name="Højre Arm"><g id="Hånd_-_Bag" data-name="Hånd - Bag"><path class="cls-1" d="M719.72,502.59s14.27-15,31-43.39,62.93-33.35,73.55-27.48c0,0,38.11-22.62,65.23-9.67,18.8,9,15,19.67,10.41,23.23a130,130,0,0,1-10.94,7.1s26.76,13.39,29.31,31.13S909.4,504.05,905.6,505s27,7.5,23.59,22.46-2,18.16-14.1,23.95c0,0,16.84.81,14.13,12.78S913.05,587,913.05,587s-40.93,39.2-142.31,14.65l-22.88,2.09L719.72,502.59"/><path class="cls-2" d="M839.23,463.27l-.5-3.08a.25.25,0,0,1,.2-.3l50.18-9.25a.25.25,0,0,1,.29.22l.51,3.07a.27.27,0,0,1-.21.31l-50.18,9.24A.24.24,0,0,1,839.23,463.27Z"/><path class="cls-2" d="M829.35,509.36l-.11-3.11a.27.27,0,0,1,.24-.28l75.2-2.84a.26.26,0,0,1,.26.26l.11,3.11a.27.27,0,0,1-.25.28l-75.19,2.84A.25.25,0,0,1,829.35,509.36Z"/><path class="cls-2" d="M856.72,569.92l0,.2a1.85,1.85,0,0,1-1.16,2.27s-13,3.15-23.57,2c-12.19-1.32-23.14-7.53-23.57-11.2-1.5-12.57,42.33-30.16,50.61-29,13.33,1.87,54.85,14.92,54.85,14.92a1.85,1.85,0,0,1,1.16,2.27l-.06.19a1.7,1.7,0,0,1-2.13,1.24S872.26,539.1,858,537.88c-8.64-.74-48.42,15.62-46.64,24.89.5,2.6,9.48,7.71,20.76,8.53,10.81.78,22.46-2.61,22.46-2.61A1.72,1.72,0,0,1,856.72,569.92Z"/><path class="cls-2" d="M824.28,431.72s32.28,19.73,8.08,75c-17.91,40.92-40.15,17.26-42.71,5.85-2-8.84,2.21-32.32,2.54-34.11s.09-4.3,3.18-4,1.22,3.5.92,5.36c-3.43,21.05-3.63,24.45-2.55,33.07.5,4,16.1,29.42,35-7.12,11.28-21.87,13.18-46.45-3.82-68-5.6-7.07-24.87-4-34.48-1-10,3.1-23.07,3.77-33.28,18.81s-18.74,26.76-25.5,37.78.56,27.29-4.19,26.16l-2.5,1.5-5.15-18.53s33.46-47.24,35.82-50.13C772.64,431.61,813.76,424.76,824.28,431.72Z"/></g><path class="cls-3" d="M0,94.69S155,597,202.84,628.58c31.18,20.6,226.24-3,545.07-24.81L719.78,502.59S288.71,546.1,256.84,525.17c-32.91-21.61-149.86-421-149.86-421L55.74,0Z"/><path class="cls-4" d="M0,94.69,7.62,81.75s155,502.3,202.84,533.89c30.81,20.35,221.89-2.47,534.07-24l3.38,12.17C429.08,625.56,234,649.18,202.84,628.58,155,597,0,94.69,0,94.69Z"/></g><path class="cls-5" d="M773.93,206.82c-13.17,23.86-40.54,104.83-9,306.9,24.53,157,97.29,309.13,112.76,319.14,17.81,11.52,190.56,14.79,202-35.1,4.71-20.56-47.14-113.36-61.89-122.91-11.69-7.56-69.74,5.38-93.11,2.3-25.26-3.33-97.38-284.87-48-338.6,3.15-3.43,23.29-6.27,74.77-12,24.47-2.72,49.27-130,32.68-140.69C916.79,142.33,788.05,181.26,773.93,206.82Z"/><path class="cls-6" d="M880.56,336.58c-16.84,2.34-24.69,4.16-26.55,6.18C805.16,396,876.56,674.69,901.57,678c6.77.89,16.47.42,27.1-.49-1.4-.08-2.74-.19-4-.35-25.26-3.33-97.38-284.87-48-338.6A9.49,9.49,0,0,1,880.56,336.58Z"/><path class="cls-7" d="M903.75,166.27c-20.17,34.44-26,127.52-23.19,170.31,8.32-2.68,29.44-5.41,70.87-10,24.47-2.72,49.27-130,32.68-140.69C961.9,171.51,933,166.12,903.75,166.27Z"/><path class="cls-7" d="M1079.7,797.76c4.71-20.56-47.14-113.36-61.89-122.91-11.29-7.29-65.74,4.5-90.54,2.56,0,.08,0,.17,0,.24-2.31,42.46,51.09,141.91,72.46,158.67C1039.5,831,1074.75,819.38,1079.7,797.76Z"/></g></g></g></svg>