<svg xmlns="http://www.w3.org/2000/svg" width="1080" height="840" viewBox="0 0 1080 840"><defs><style>.cls-1{fill:#e0bfa3;}.cls-2{fill:#c9ac93;}.cls-3{fill:#343434;}.cls-4{fill:#4d4d4d;}.cls-5{fill:#e5e5e5;}.cls-6{fill:#f5c408;}.cls-7{fill:#fff;}.cls-8{fill:#f5d660;}.cls-9{fill:#f5e9ba;}</style></defs><g id="Figur"><g id="Arme"><g id="Fadøl"><g id="Højre_Arm" data-name="Højre Arm"><g id="Hånd_-_Bag" data-name="Hånd - Bag"><path class="cls-1" d="M653.49,540.43s13-16.18,28.11-46.66,57.14-35.87,66.78-29.56c0,0,34.6-24.32,59.23-10.39,17.07,9.66,13.6,21.15,9.46,25a121.31,121.31,0,0,1-9.94,7.64s24.3,14.39,26.61,33.46-8,22.09-11.47,23.09,24.49,8.07,21.41,24.16-1.84,19.52-12.8,25.75c0,0,15.3.87,12.83,13.74S829,631.22,829,631.22,791.87,673.37,699.81,647L679,649.21,653.49,540.43"/><path class="cls-2" d="M762,498.14l-.45-3.3a.29.29,0,0,1,.18-.34l45.57-9.93c.12,0,.24.07.26.23l.46,3.3a.28.28,0,0,1-.19.33l-45.56,9.94A.24.24,0,0,1,762,498.14Z"/><path class="cls-2" d="M753,547.71l-.1-3.35a.28.28,0,0,1,.22-.3l68.28-3c.13,0,.23.11.24.27l.09,3.35a.27.27,0,0,1-.22.3L753.27,548A.25.25,0,0,1,753,547.71Z"/><path class="cls-2" d="M777.88,612.82l0,.21a2.07,2.07,0,0,1-1,2.44s-11.82,3.39-21.4,2.17c-11.07-1.42-21-8.1-21.41-12-1.36-13.52,38.44-32.43,46-31.18,12.1,2,49.8,16,49.8,16a2.08,2.08,0,0,1,1,2.44l0,.21a1.54,1.54,0,0,1-1.94,1.32S792,579.68,779.05,578.37c-7.85-.79-44,16.79-42.35,26.76.45,2.8,8.61,8.3,18.84,9.17,9.82.85,20.4-2.8,20.4-2.8A1.54,1.54,0,0,1,777.88,612.82Z"/><path class="cls-2" d="M748.43,464.21s29.31,21.22,7.34,80.67c-16.26,44-36.46,18.55-38.78,6.29-1.81-9.51,2-34.76,2.31-36.68s.08-4.63,2.88-4.29,1.11,3.76.83,5.76c-3.11,22.64-3.29,26.29-2.31,35.56.45,4.3,14.62,31.64,31.74-7.66,10.25-23.51,12-49.94-3.47-73.06-5.08-7.61-22.58-4.26-31.3-1-9,3.33-20.95,4.05-30.22,20.22s-17,28.78-23.15,40.62.5,29.35-3.81,28.14l-2.27,1.61-4.68-19.92s30.39-50.8,32.53-53.91C701.55,464.1,738.88,456.74,748.43,464.21Z"/></g><path class="cls-3" d="M0,101.82S140.77,641.94,184.18,675.9c28.31,22.15,205.42-3.25,494.91-26.69L653.54,540.43S262.14,587.2,233.2,564.7C203.32,541.46,97.14,112.05,97.14,112.05L50.61,0Z"/><path class="cls-4" d="M0,101.82,6.92,87.9S147.69,628,191.1,662c28,21.89,201.46-2.66,484.92-25.86l3.07,13.09c-289.49,23.44-466.6,48.84-494.91,26.69C140.77,641.94,0,101.82,0,101.82Z"/></g><path class="cls-5" d="M1029.57,840H738.48c-5.7,0-10.43-4.78-10.8-10.94L693.19,265.58h362.56l-14.23,561.85C1041.34,834.43,1036,840,1029.57,840Z"/><path class="cls-6" d="M1022.44,814.29h-276c-5.41,0-9.89-4.53-10.25-10.37l-32.7-534.27h343.77l-13.5,532.72C1033.6,809,1028.57,814.29,1022.44,814.29Z"/><path class="cls-7" d="M1080,258c-.07-20.62-22.21-34.27-42.23-34.27-14.57,0-27.47,7.67-35.47,19.47-.66-.1-1.33-.17-2-.23-8-11.67-20.84-19.24-35.32-19.24a41.46,41.46,0,0,0-25,8.46,41.38,41.38,0,0,0-5,1.56,44.47,44.47,0,0,0-27.59-21.91,37.4,37.4,0,0,0-18.39-.46c-14.83,3-27,14.11-32.57,28.88a30.89,30.89,0,0,0-16.25-4.64,31.75,31.75,0,0,0-23.41,10.54c-7.58-15.72-22.78-26.46-40.31-26.46a42.08,42.08,0,0,0-12.68,2c-17.43,4.77-31,20-34.7,39.14a42,42,0,0,0-14.71-2.67c-24.82,0-45,21.77-45,48.62a53.47,53.47,0,0,0,.35,6c-9,4.37-15.35,14.18-15.35,25.58,0,15.48,11.6,28,25.91,28a24.21,24.21,0,0,0,6.83-1,12.44,12.44,0,0,0,1.37-.24v-1.55c8.33-3.81,14.17-12.74,14.17-23.13a26.59,26.59,0,0,0-.15-2.84,32.92,32.92,0,0,0,6.55.67c18.39,0,33.51-15.16,35.26-34.56A43.68,43.68,0,0,0,776.42,318c17.54,0,32.73-10.75,40.32-26.47h.92a25.55,25.55,0,0,0,16.78,6.38A25.11,25.11,0,0,0,846.22,295a21,21,0,0,0,14.11,5.53,21.37,21.37,0,0,0,16.94-8.59,37.67,37.67,0,0,0,40.54-.38h1.74a40,40,0,0,0,59.22.74,30.45,30.45,0,0,0,38.83-.74h.45a33.69,33.69,0,0,0,45.5,3C1071,288.33,1080.08,280.44,1080,258Z"/><polygon class="cls-8" points="827.48 814.29 774.12 814.29 746.84 333.6 827.48 333.6 827.48 814.29"/><path class="cls-7" d="M1080,303.21c-.07-20.61-22.21-34.27-42.23-34.27-14.57,0-27.47,7.68-35.47,19.48-.66-.1-1.33-.18-2-.23-8-11.67-20.84-19.25-35.32-19.25a41.47,41.47,0,0,0-25,8.47,38.13,38.13,0,0,0-5,1.56,44.47,44.47,0,0,0-27.59-21.91A37.4,37.4,0,0,0,889,256.6c-14.83,3-27,14.1-32.57,28.87a31,31,0,0,0-16.25-4.63,31.71,31.71,0,0,0-23.41,10.54c-7.58-15.72-22.78-26.46-40.31-26.46a42.39,42.39,0,0,0-12.68,1.95c-17.43,4.78-31,20-34.7,39.15a41.76,41.76,0,0,0-14.71-2.68c-24.82,0-45,21.77-45,48.62a53.33,53.33,0,0,0,.35,6c-9,4.38-15.35,14.18-15.35,25.59,0,15.47,11.6,28,25.91,28a23.85,23.85,0,0,0,6.83-1,13.66,13.66,0,0,0,1.37-.23v-1.56c8.33-3.81,14.17-12.73,14.17-23.13a26.41,26.41,0,0,0-.15-2.83,32.92,32.92,0,0,0,6.55.66c18.39,0,33.51-15.16,35.26-34.55a43.67,43.67,0,0,0,32.1,14.35c17.54,0,32.73-10.74,40.32-26.47h.92a25.5,25.5,0,0,0,16.78,6.38,25.22,25.22,0,0,0,11.78-2.93,21,21,0,0,0,14.11,5.53,21.4,21.4,0,0,0,16.94-8.59,37.65,37.65,0,0,0,40.54-.39h1.74a40,40,0,0,0,59.22.75,30.43,30.43,0,0,0,38.83-.75h.45a33.2,33.2,0,0,0,24.35,10.44,32.87,32.87,0,0,0,21.15-7.44C1071,333.58,1080.08,325.68,1080,303.21Z"/><ellipse class="cls-9" cx="937.22" cy="456.4" rx="9.7" ry="10.49"/><ellipse class="cls-9" cx="892.11" cy="567.97" rx="9.7" ry="10.49"/><ellipse class="cls-7" cx="792.68" cy="757.99" rx="9.7" ry="10.49"/><ellipse class="cls-7" cx="814.74" cy="442.63" rx="9.7" ry="10.49"/><ellipse class="cls-9" cx="844.21" cy="673.55" rx="9.7" ry="10.49"/><ellipse class="cls-9" cx="956.62" cy="768.48" rx="9.7" ry="10.49"/><ellipse class="cls-9" cx="997.43" cy="645.84" rx="9.7" ry="10.49"/><ellipse class="cls-9" cx="1002.82" cy="531.48" rx="9.7" ry="10.49"/><ellipse class="cls-9" cx="1002.82" cy="392.54" rx="9.7" ry="10.49"/></g></g></g></svg>