<svg xmlns="http://www.w3.org/2000/svg" width="1080" height="840" viewBox="0 0 1080 840"><defs><style>.cls-1{fill:#e0bfa3;}.cls-2{fill:#c9ac93;}.cls-3{fill:#343434;}.cls-4{fill:#4d4d4d;}.cls-5{fill:#e5e5e5;}.cls-6{fill:#c2fcff;}.cls-7{fill:#e6ffff;}</style></defs><g id="Figur"><g id="Arme"><g id="Fadøl"><g id="Højre_Arm" data-name="Højre Arm"><g id="Hånd_-_Bag" data-name="Hånd - Bag"><path class="cls-1" d="M668.5,540.43s13.26-16.18,28.76-46.66,58.45-35.87,68.32-29.56c0,0,35.39-24.32,60.58-10.39,17.46,9.66,13.92,21.15,9.68,25a122.7,122.7,0,0,1-10.17,7.64s24.86,14.39,27.22,33.46S844.68,542,841.16,543s25.05,8.07,21.9,24.16S861.18,586.67,850,592.9c0,0,15.65.87,13.12,13.74s-15,24.58-15,24.58-38,42.15-132.19,15.75l-21.25,2.24L668.5,540.43"/><path class="cls-2" d="M779.51,498.14l-.47-3.3a.3.3,0,0,1,.19-.34l46.61-9.93a.23.23,0,0,1,.27.23l.47,3.3a.28.28,0,0,1-.19.33l-46.61,9.94A.24.24,0,0,1,779.51,498.14Z"/><path class="cls-2" d="M770.33,547.71l-.1-3.35a.28.28,0,0,1,.23-.3l69.84-3a.25.25,0,0,1,.24.27l.1,3.35a.28.28,0,0,1-.22.3L770.57,548A.25.25,0,0,1,770.33,547.71Z"/><path class="cls-2" d="M795.75,612.82l0,.21a2.06,2.06,0,0,1-1.08,2.44s-12.08,3.39-21.89,2.17c-11.32-1.42-21.49-8.1-21.9-12-1.39-13.52,39.33-32.43,47-31.18,12.38,2,50.94,16,50.94,16A2.06,2.06,0,0,1,850,592.9l-.05.21a1.58,1.58,0,0,1-2,1.32s-37.74-14.75-51-16.06c-8-.79-45,16.79-43.32,26.76.47,2.8,8.81,8.3,19.28,9.17,10.05.85,20.86-2.8,20.86-2.8A1.58,1.58,0,0,1,795.75,612.82Z"/><path class="cls-2" d="M765.63,464.21s30,21.22,7.5,80.67c-16.64,44-37.29,18.55-39.67,6.29-1.85-9.51,2-34.76,2.36-36.68s.08-4.63,2.95-4.29,1.13,3.76.85,5.76c-3.18,22.64-3.36,26.29-2.37,35.56.47,4.3,15,31.64,32.48-7.66,10.48-23.51,12.24-49.94-3.55-73.06-5.2-7.61-23.1-4.26-32-1-9.26,3.33-21.44,4.05-30.92,20.22s-17.41,28.78-23.68,40.62.51,29.35-3.9,28.14l-2.32,1.61-4.79-19.92s31.09-50.8,33.28-53.91C717.66,464.1,755.85,456.74,765.63,464.21Z"/></g><path class="cls-3" d="M0,101.82S144,641.94,188.41,675.9c29,22.15,210.14-3.25,506.28-26.69L668.55,540.43s-400.39,46.77-430,24.27C208,541.46,99.37,112.05,99.37,112.05L51.77,0Z"/><path class="cls-4" d="M0,101.82,7.08,87.9S151.08,628,195.49,662c28.61,21.89,206.09-2.66,496.05-25.86l3.15,13.09c-296.14,23.44-477.32,48.84-506.28,26.69C144,641.94,0,101.82,0,101.82Z"/></g><path class="cls-5" d="M1053.22,840H755.44a11.36,11.36,0,0,1-11.05-10.94L709.11,265.58H1080l-14.56,561.85C1065.26,834.43,1059.84,840,1053.22,840Z"/><path class="cls-6" d="M1045.92,814.29H763.58a10.5,10.5,0,0,1-10.47-9.83L719.66,297.93h351.66L1057.51,803A11.6,11.6,0,0,1,1045.92,814.29Z"/><polygon class="cls-7" points="851.97 814.29 790.13 814.29 758.5 297.93 851.97 297.93 851.97 814.29"/></g></g></g></svg>