<svg xmlns="http://www.w3.org/2000/svg" width="1920" height="1024" viewBox="0 0 1920 1024"><defs><style>.cls-1{fill:#3a2a1f;}.cls-2{fill:#d1c2a1;}.cls-3{fill:#e5e5e5;}.cls-4{fill:#f5c408;}.cls-5{fill:#fff;}.cls-6{fill:#f5d660;}.cls-7{fill:#f5e9ba;}.cls-8{fill:#383838;}.cls-9{fill:#1e1e1e;}.cls-10{fill:#616161;}.cls-11{fill:#c2fcff;}.cls-12{fill:#e6ffff;}.cls-13{fill:#42210b;}.cls-14{fill:#603813;}.cls-15{font-size:30px;font-family:NewYorkSmall-Medium, New York Small;font-weight:500;}.cls-15,.cls-24{letter-spacing:0.01em;}.cls-16{letter-spacing:0.02em;}.cls-17{letter-spacing:-0.02em;}.cls-18{letter-spacing:-0.01em;}.cls-19{letter-spacing:-0.01em;}.cls-20{letter-spacing:0.01em;}.cls-21{letter-spacing:0.01em;}.cls-22{letter-spacing:0.04em;}.cls-23{letter-spacing:-0.08em;}.cls-25{letter-spacing:0.02em;}.cls-26{letter-spacing:0.02em;}.cls-27{letter-spacing:0.02em;}.cls-28{letter-spacing:0em;}.cls-29{letter-spacing:-0.04em;}.cls-30{letter-spacing:-0.07em;}.cls-31{letter-spacing:-0.1em;}.cls-32{letter-spacing:0.02em;}.cls-33{letter-spacing:-0.02em;}.cls-34{letter-spacing:0em;}.cls-35{letter-spacing:-0.01em;}.cls-36{letter-spacing:0.02em;}.cls-37{letter-spacing:0.02em;}.cls-38{letter-spacing:0.01em;}.cls-39{letter-spacing:-0.05em;}.cls-40{font-size:46px;font-family:NewYorkSmall-Regular, New York Small;}.cls-41{letter-spacing:-0.06em;}.cls-42{letter-spacing:-0.03em;}.cls-43{letter-spacing:-0.04em;}</style></defs><g id="Assets"><g id="Info_Skærm" data-name="Info Skærm"><g id="Infoskærm"><g id="Tekst_Boks" data-name="Tekst Boks"><rect class="cls-1" x="206.52" y="136.48" width="1506.96" height="779.79" rx="71.11"/><rect class="cls-2" x="227.51" y="150.33" width="1461.71" height="746.14" rx="71.11"/></g><g id="Fadøl"><path class="cls-3" d="M405.21,797.54H307.05a3.78,3.78,0,0,1-3.64-3.69L291.78,603.52H414l-4.8,189.78A4.19,4.19,0,0,1,405.21,797.54Z"/><path class="cls-4" d="M402.8,788.86H309.73a3.59,3.59,0,0,1-3.45-3.5l-11-180.46H411.17l-4.55,179.93A4,4,0,0,1,402.8,788.86Z"/><path class="cls-5" d="M422.21,601c0-7-7.49-11.57-14.24-11.57A14.47,14.47,0,0,0,396,596c-.22,0-.45-.06-.67-.08a14.49,14.49,0,0,0-11.91-6.5,14,14,0,0,0-8.44,2.86,13.26,13.26,0,0,0-1.69.52,15.07,15.07,0,0,0-9.31-7.4,12.81,12.81,0,0,0-3.41-.46,12.3,12.3,0,0,0-2.79.31,15.18,15.18,0,0,0-11,9.75,10.47,10.47,0,0,0-5.48-1.56,10.65,10.65,0,0,0-7.89,3.56A15.23,15.23,0,0,0,319.85,588a14.14,14.14,0,0,0-4.28.66,16.76,16.76,0,0,0-11.7,13.22,14.16,14.16,0,0,0-5-.9c-8.37,0-15.16,7.35-15.16,16.42a17,17,0,0,0,.12,2,9.51,9.51,0,0,0-5.18,8.64c0,5.22,3.92,9.46,8.74,9.46a8.3,8.3,0,0,0,2.3-.33,3.86,3.86,0,0,0,.46-.09v-.52a8.52,8.52,0,0,0,4.78-7.81c0-.33,0-.65-.05-1a11.58,11.58,0,0,0,2.21.22c6.2,0,11.3-5.12,11.89-11.67a14.7,14.7,0,0,0,10.83,4.85,15.23,15.23,0,0,0,13.59-8.94h.31a8.59,8.59,0,0,0,5.66,2.16,8.41,8.41,0,0,0,4-1,7.06,7.06,0,0,0,4.76,1.87,7.21,7.21,0,0,0,5.71-2.9,12.66,12.66,0,0,0,13.67-.13h.59a13.46,13.46,0,0,0,20,.25,10.25,10.25,0,0,0,13.09-.25h.15a11.34,11.34,0,0,0,15.34,1C419.18,611.21,422.24,608.54,422.21,601Z"/><polygon class="cls-6" points="337.06 788.86 319.07 788.86 309.87 626.5 337.06 626.5 337.06 788.86"/><path class="cls-5" d="M422.21,616.23c0-7-7.49-11.57-14.24-11.57a14.47,14.47,0,0,0-12,6.58c-.22,0-.45-.06-.67-.08a14.49,14.49,0,0,0-11.91-6.5,14,14,0,0,0-8.44,2.86,11.86,11.86,0,0,0-1.69.53,15,15,0,0,0-9.31-7.4,12.43,12.43,0,0,0-3.41-.47,12.89,12.89,0,0,0-2.79.31,15.18,15.18,0,0,0-11,9.75,10.47,10.47,0,0,0-5.48-1.56,10.65,10.65,0,0,0-7.89,3.56,15.23,15.23,0,0,0-13.59-8.94,14.14,14.14,0,0,0-4.28.66,16.76,16.76,0,0,0-11.7,13.22,14.16,14.16,0,0,0-5-.9c-8.37,0-15.16,7.35-15.16,16.42a16.86,16.86,0,0,0,.12,2,9.52,9.52,0,0,0-5.18,8.64c0,5.23,3.92,9.46,8.74,9.46a8.3,8.3,0,0,0,2.3-.33s.18,0,.46-.08v-.53a8.52,8.52,0,0,0,4.78-7.81c0-.32,0-.64-.05-1a10.83,10.83,0,0,0,2.21.23c6.2,0,11.3-5.12,11.89-11.67a14.73,14.73,0,0,0,10.83,4.84,15.21,15.21,0,0,0,13.59-8.94h.31a8.48,8.48,0,0,0,9.63,1.17,7.09,7.09,0,0,0,4.76,1.86,7.18,7.18,0,0,0,5.71-2.9,12.66,12.66,0,0,0,13.67-.13h.59a13.47,13.47,0,0,0,20,.26,10.26,10.26,0,0,0,13.09-.26h.15a11.34,11.34,0,0,0,15.34,1C419.18,626.49,422.24,623.82,422.21,616.23Z"/><ellipse class="cls-7" cx="374.06" cy="667.97" rx="3.27" ry="3.54"/><ellipse class="cls-7" cx="358.85" cy="705.66" rx="3.27" ry="3.54"/><ellipse class="cls-5" cx="325.33" cy="769.84" rx="3.27" ry="3.54"/><ellipse class="cls-5" cx="332.77" cy="663.32" rx="3.27" ry="3.54"/><ellipse class="cls-7" cx="342.7" cy="741.32" rx="3.27" ry="3.54"/><ellipse class="cls-7" cx="380.61" cy="773.39" rx="3.27" ry="3.54"/><ellipse class="cls-7" cx="394.37" cy="731.96" rx="3.27" ry="3.54"/><ellipse class="cls-7" cx="396.18" cy="693.33" rx="3.27" ry="3.54"/><ellipse class="cls-7" cx="396.18" cy="646.41" rx="3.27" ry="3.54"/></g><g id="Telefon"><path class="cls-8" d="M1411.2,598.21c-3.52,7.56-10.83,33.22-2.4,97.25,6.56,49.75,26,98,30.12,101.13,4.76,3.65,50.91,4.69,54-11.12,1.26-6.52-12.59-35.92-16.53-39-3.13-2.39-18.63,1.71-24.87.73-6.75-1-26-90.27-12.84-107.29.84-1.09,6.22-2,20-3.8,6.53-.86,13.16-41.18,8.73-44.58C1449.36,577.78,1415,590.11,1411.2,598.21Z"/><path class="cls-9" d="M1439.69,639.33c-4.5.74-6.6,1.32-7.1,2-13,16.86,6,105.18,12.71,106.23a31.69,31.69,0,0,0,7.24-.16,10.5,10.5,0,0,1-1.06-.11c-6.75-1-26-90.27-12.84-107.29A2.46,2.46,0,0,1,1439.69,639.33Z"/><path class="cls-10" d="M1445.88,585.36c-5.39,10.92-7,40.41-6.19,54,2.22-.85,7.86-1.71,18.93-3.17,6.53-.86,13.16-41.18,8.73-44.58C1461.41,587,1453.69,585.32,1445.88,585.36Z"/><path class="cls-10" d="M1492.88,785.47c1.26-6.52-12.59-35.92-16.53-39-3-2.31-17.56,1.43-24.19.81a.19.19,0,0,1,0,.08c-.61,13.46,13.65,45,19.36,50.28C1482.14,796,1491.56,792.32,1492.88,785.47Z"/></g><g id="Fadøl-2" data-name="Fadøl"><path class="cls-3" d="M1139,798.48H1030.93a4.16,4.16,0,0,1-4-4.06l-12.8-209.52H1148.7l-5.28,208.91A4.62,4.62,0,0,1,1139,798.48Z"/><path class="cls-11" d="M1136.34,788.92H1033.88a3.85,3.85,0,0,1-3.8-3.65l-12.14-188.34h127.61l-5,187.79A4.25,4.25,0,0,1,1136.34,788.92Z"/><polygon class="cls-12" points="1065.96 788.92 1043.52 788.92 1032.04 596.92 1065.96 596.92 1065.96 788.92"/></g><g id="Fadøl_m_sidevogn"><path class="cls-3" d="M741.31,797.3H643.49a3.78,3.78,0,0,1-3.63-3.69L628.27,603.94H750.11l-4.79,189.12A4.17,4.17,0,0,1,741.31,797.3Z"/><path class="cls-4" d="M738.91,788.64H646.17a3.58,3.58,0,0,1-3.45-3.49l-11-179.84H747.26l-4.54,179.32A4,4,0,0,1,738.91,788.64Z"/><path class="cls-5" d="M758.26,601.38c0-6.94-7.47-11.54-14.19-11.54a14.43,14.43,0,0,0-11.92,6.56l-.67-.08a14.43,14.43,0,0,0-11.87-6.48,14,14,0,0,0-8.41,2.85,13.81,13.81,0,0,0-1.69.53,15,15,0,0,0-9.27-7.38,12.72,12.72,0,0,0-6.18-.15,15.15,15.15,0,0,0-10.94,9.72,10.43,10.43,0,0,0-5.47-1.56,10.65,10.65,0,0,0-7.86,3.55,15.19,15.19,0,0,0-13.55-8.91,14,14,0,0,0-4.26.66,16.73,16.73,0,0,0-11.66,13.17,14.05,14.05,0,0,0-4.94-.9c-8.34,0-15.11,7.33-15.11,16.37a16.69,16.69,0,0,0,.12,2,9.49,9.49,0,0,0-5.16,8.61c0,5.21,3.9,9.43,8.71,9.43a8.28,8.28,0,0,0,2.29-.33s.18,0,.46-.08v-.52a8.51,8.51,0,0,0,4.77-7.79,7.46,7.46,0,0,0-.06-1,11.48,11.48,0,0,0,2.2.22c6.19,0,11.27-5.1,11.86-11.63a14.66,14.66,0,0,0,10.78,4.83,15.19,15.19,0,0,0,13.55-8.91h.31a8.58,8.58,0,0,0,5.64,2.15,8.48,8.48,0,0,0,4-1,7,7,0,0,0,4.74,1.86,7.17,7.17,0,0,0,5.69-2.89,12.64,12.64,0,0,0,13.63-.13h.58a13.42,13.42,0,0,0,19.9.25,10.23,10.23,0,0,0,13-.25h.15a11.32,11.32,0,0,0,15.29,1C755.23,611.6,758.28,608.94,758.26,601.38Z"/><polygon class="cls-6" points="673.4 788.64 655.47 788.64 646.3 626.84 673.4 626.84 673.4 788.64"/><path class="cls-5" d="M758.26,616.61c0-6.94-7.47-11.54-14.19-11.54a14.43,14.43,0,0,0-11.92,6.56l-.67-.08a14.43,14.43,0,0,0-11.87-6.48,14,14,0,0,0-8.41,2.85,13.81,13.81,0,0,0-1.69.53,15,15,0,0,0-9.27-7.38,12.72,12.72,0,0,0-6.18-.15,15.15,15.15,0,0,0-10.94,9.72,10.43,10.43,0,0,0-5.47-1.56,10.65,10.65,0,0,0-7.86,3.55,15.19,15.19,0,0,0-13.55-8.91,14,14,0,0,0-4.26.66,16.73,16.73,0,0,0-11.66,13.17,14.05,14.05,0,0,0-4.94-.9c-8.34,0-15.11,7.33-15.11,16.37a16.69,16.69,0,0,0,.12,2,9.49,9.49,0,0,0-5.16,8.61c0,5.21,3.9,9.43,8.71,9.43a8.28,8.28,0,0,0,2.29-.33s.18,0,.46-.08v-.52a8.51,8.51,0,0,0,4.77-7.79,7.73,7.73,0,0,0-.06-1,10.74,10.74,0,0,0,2.2.23c6.19,0,11.27-5.1,11.86-11.63a14.66,14.66,0,0,0,10.78,4.83,15.19,15.19,0,0,0,13.55-8.91h.31a8.58,8.58,0,0,0,5.64,2.15,8.48,8.48,0,0,0,4-1,7,7,0,0,0,4.74,1.86,7.17,7.17,0,0,0,5.69-2.89,12.64,12.64,0,0,0,13.63-.13h.58a13.42,13.42,0,0,0,19.9.25,10.23,10.23,0,0,0,13-.25h.15a11.32,11.32,0,0,0,15.29,1C755.23,626.83,758.28,624.17,758.26,616.61Z"/><ellipse class="cls-7" cx="710.28" cy="668.17" rx="3.26" ry="3.53"/><ellipse class="cls-7" cx="695.12" cy="705.73" rx="3.26" ry="3.53"/><ellipse class="cls-5" cx="661.7" cy="769.69" rx="3.26" ry="3.53"/><ellipse class="cls-5" cx="669.12" cy="663.54" rx="3.26" ry="3.53"/><ellipse class="cls-7" cx="679.02" cy="741.27" rx="3.26" ry="3.53"/><ellipse class="cls-7" cx="716.8" cy="773.22" rx="3.26" ry="3.53"/><ellipse class="cls-7" cx="730.51" cy="731.94" rx="3.26" ry="3.53"/><ellipse class="cls-7" cx="732.32" cy="693.45" rx="3.26" ry="3.53"/><ellipse class="cls-7" cx="732.32" cy="646.68" rx="3.26" ry="3.53"/><path class="cls-3" d="M760.59,816.09H713.65a1.81,1.81,0,0,1-1.74-1.77l-5.57-91h58.48l-2.3,90.77A2,2,0,0,1,760.59,816.09Z"/><path class="cls-13" d="M759.44,811.94H714.93a1.7,1.7,0,0,1-1.65-1.64L708,725.92h55.44l-2.18,84.13A1.89,1.89,0,0,1,759.44,811.94Z"/><polygon class="cls-14" points="728.87 811.94 719.12 811.94 714.13 725.92 728.87 725.92 728.87 811.94"/></g><text class="cls-15" transform="translate(363.48 224.14)">V<tspan class="cls-16" x="21.94" y="0">i er </tspan><tspan class="cls-17" x="79.72" y="0">v</tspan><tspan class="cls-16" x="95.76" y="0">ed enden af Co</tspan><tspan class="cls-18" x="321.14" y="0">r</tspan><tspan class="cls-16" x="334.44" y="0">ona Loc</tspan><tspan class="cls-19" x="452.98" y="0">k</tspan><tspan class="cls-16" x="470.37" y="0">d</tspan><tspan class="cls-18" x="489.79" y="0">o</tspan><tspan class="cls-16" x="507.95" y="0">wn! </tspan><tspan class="cls-16"><tspan x="0" y="35">Det bet</tspan><tspan class="cls-17" x="109.72" y="35">y</tspan><tspan x="125.71" y="35">der at ba</tspan><tspan class="cls-18" x="258.87" y="35">r</tspan><tspan x="272.17" y="35">ene åbner! Du er </tspan><tspan class="cls-18" x="531.7" y="35">k</tspan><tspan x="549.09" y="35">ommet til </tspan><tspan class="cls-20" x="705.5" y="35">l</tspan><tspan class="cls-17" x="715.23" y="35">y</tspan><tspan x="731.23" y="35">g</tspan><tspan class="cls-21" x="749.21" y="35">t</tspan><tspan x="760.93" y="35">en. Du skal edder</tspan><tspan class="cls-22" x="1023.79" y="35">f</tspan><tspan x="1036.09" y="35">løjtme </tspan><tspan x="0" y="70">ba</tspan><tspan class="cls-18" x="36.5" y="70">r</tspan><tspan x="49.8" y="70">e h</tspan><tspan class="cls-18" x="95.29" y="70">a</tspan><tspan class="cls-17" x="111.93" y="70">v</tspan><tspan x="127.97" y="70">e kæp i ø</tspan><tspan class="cls-18" x="261.74" y="70">r</tspan><tspan x="275.04" y="70">et! </tspan><tspan class="cls-23" x="322.05" y="70">T</tspan><tspan x="340.05" y="70">ag imod alle de </tspan><tspan class="cls-24" x="577.97" y="70">f</tspan><tspan x="589.43" y="70">adøl du får tilbudt og f</tspan><tspan class="cls-25" x="929.93" y="70">å</tspan><tspan x="947.37" y="70" xml:space="preserve"> en p</tspan><tspan class="cls-18" x="1020.32" y="70">r</tspan><tspan class="cls-26" x="1033.62" y="70">omille p</tspan><tspan class="cls-27" x="1157.44" y="70">å</tspan><tspan x="1174.87" y="70"> </tspan></tspan><tspan class="cls-28"><tspan x="0" y="105">3</tspan><tspan class="cls-29" x="16.49" y="105">,</tspan><tspan class="cls-16" x="23.66" y="105">0 inden ba</tspan><tspan class="cls-19" x="183.52" y="105">r</tspan><tspan class="cls-16" x="196.82" y="105">en luk</tspan><tspan class="cls-18" x="290.3" y="105">k</tspan><tspan class="cls-26" x="307.69" y="105">e</tspan><tspan class="cls-30" x="324.86" y="105">r</tspan><tspan class="cls-16" x="336.35" y="105">. </tspan></tspan><tspan class="cls-31"><tspan x="0" y="175">V</tspan><tspan class="cls-16" x="18.49" y="175">ogt dig </tspan><tspan class="cls-20" x="131.49" y="175">f</tspan><tspan class="cls-16" x="142.79" y="175">or de </tspan><tspan class="cls-20" x="228.84" y="175">f</tspan><tspan class="cls-16" x="240.15" y="175">ornufti</tspan><tspan class="cls-24" x="347.13" y="175">g</tspan><tspan class="cls-16" x="364.82" y="175">e mennes</tspan><tspan class="cls-18" x="509.86" y="175">k</tspan><tspan class="cls-16" x="527.25" y="175">e</tspan><tspan class="cls-30" x="544.41" y="175">r</tspan><tspan class="cls-16" x="555.9" y="175">, </tspan><tspan class="cls-32" x="572.96" y="175">F</tspan><tspan class="cls-24" x="591.42" y="175">Ø</tspan><tspan class="cls-16" x="616.56" y="175">J!, der p</tspan><tspan class="cls-18" x="732.87" y="175">rø</tspan><tspan class="cls-17" x="764.23" y="175">v</tspan><tspan class="cls-16" x="780.27" y="175">er at </tspan><tspan class="cls-20" x="857.5" y="175">f</tspan><tspan class="cls-16" x="868.81" y="175">orpur</tspan><tspan class="cls-18" x="955.04" y="175">r</tspan><tspan class="cls-16" x="968.34" y="175">e din rus </tspan><tspan class="cls-17" x="1108.82" y="175">v</tspan><tspan class="cls-16" x="1124.86" y="175">ed at </tspan></tspan><tspan class="cls-16"><tspan x="0" y="210">til</tspan><tspan class="cls-18" x="32.46" y="210">b</tspan><tspan class="cls-33" x="50.63" y="210">y</tspan><tspan x="66.62" y="210">de dig </tspan><tspan class="cls-34" x="167.08" y="210">v</tspan><tspan x="183.56" y="210">and i </tspan><tspan class="cls-24" x="267.1" y="210">f</tspan><tspan class="cls-26" x="278.56" y="210">adølsgla</tspan><tspan class="cls-35" x="405.56" y="210">s</tspan><tspan class="cls-26" x="419.9" y="210">, nede</tspan><tspan class="cls-18" x="510.9" y="210">r</tspan><tspan x="524.2" y="210">d</tspan><tspan class="cls-36" x="543.62" y="210">r</tspan><tspan x="557.63" y="210">ægtigt!</tspan></tspan><tspan class="cls-28"><tspan x="0" y="245">F</tspan><tspan class="cls-16" x="17.84" y="245">år du </tspan><tspan class="cls-37" x="104.8" y="245">r</tspan><tspan class="cls-16" x="118.8" y="245">amt </tspan><tspan class="cls-38" x="186.24" y="245">t</tspan><tspan class="cls-16" x="197.96" y="245">ele</tspan><tspan class="cls-20" x="242.46" y="245">f</tspan><tspan class="cls-16" x="253.77" y="245">onen bl</tspan><tspan class="cls-20" x="367.62" y="245">i</tspan><tspan class="cls-17" x="377.35" y="245">v</tspan><tspan class="cls-16" x="393.39" y="245">er der rin</tspan><tspan class="cls-24" x="536.22" y="245">g</tspan><tspan class="cls-26" x="553.92" y="245">et ef</tspan><tspan class="cls-21" x="620.28" y="245">t</tspan><tspan class="cls-16" x="632" y="245">er taxa og ta</tspan><tspan class="cls-24" x="818.77" y="245">g</tspan><tspan class="cls-16" x="836.46" y="245">er dig hjem inden af</tspan><tspan class="cls-16" x="1141.02" y="245">-</tspan></tspan><tspan class="cls-21"><tspan x="0" y="280">t</tspan><tspan class="cls-16" x="11.72" y="280">enen er slut.. </tspan></tspan><tspan class="cls-16"><tspan x="490.83" y="316">Held og </tspan><tspan class="cls-39" x="616.32" y="316">L</tspan><tspan class="cls-20" x="632.74" y="316">y</tspan><tspan x="649.44" y="316">k</tspan><tspan class="cls-18" x="667.68" y="316">k</tspan><tspan class="cls-26" x="685.07" y="316">e!</tspan></tspan></text><text class="cls-40" transform="translate(429.39 722.79)">= +<tspan class="cls-41" x="64.64" y="0">0</tspan><tspan x="90.63" y="0">,3‰</tspan></text><text class="cls-40" transform="translate(1164.05 722.79)">= -<tspan class="cls-41" x="55.59" y="0">0</tspan><tspan x="81.58" y="0">,3‰</tspan></text><text class="cls-40" transform="translate(1482.96 722.79)">= </text><text class="cls-40" transform="translate(775.31 722.79)">= +<tspan class="cls-41" x="64.64" y="0">0</tspan><tspan class="cls-42" x="90.63" y="0">,</tspan><tspan x="101.37" y="0">6‰</tspan></text><text class="cls-40" transform="translate(1528.24 696.28)">Game <tspan x="11.58" y="55.2">O</tspan><tspan class="cls-43" x="49.11" y="55.2">v</tspan><tspan x="72.02" y="55.2">er</tspan></text></g></g></g></svg>