<svg xmlns="http://www.w3.org/2000/svg" width="1920" height="1024" viewBox="0 0 1920 1024"><defs><style>.cls-1{fill:#3a2a1f;}.cls-2{fill:#d1c2a1;}.cls-3{fill:#e5e5e5;}.cls-4{fill:#f5c408;}.cls-5{fill:#fff;}.cls-6{fill:#f5d660;}.cls-7{fill:#f5e9ba;}.cls-8{fill:#383838;}.cls-9{fill:#1e1e1e;}.cls-10{fill:#616161;}.cls-11{fill:#c2fcff;}.cls-12{fill:#e6ffff;}.cls-13{fill:#42210b;}.cls-14{fill:#603813;}.cls-15{font-size:46px;font-family:NewYorkSmall-Regular, New York Small;}.cls-16{letter-spacing:-0.06em;}.cls-17{letter-spacing:-0.03em;}.cls-18{letter-spacing:-0.04em;}</style></defs><g id="Assets"><g id="Info_Skærm" data-name="Info Skærm"><g id="Infoskærm"><g id="Tekst_Boks" data-name="Tekst Boks"><rect class="cls-1" x="206.52" y="136.48" width="1506.96" height="779.79" rx="71.11"/><rect class="cls-2" x="227.51" y="150.33" width="1461.71" height="746.14" rx="71.11"/></g><g id="Fadøl"><path class="cls-3" d="M405.21,797.54H307.05a3.78,3.78,0,0,1-3.64-3.69L291.78,603.52H414l-4.8,189.78A4.19,4.19,0,0,1,405.21,797.54Z"/><path class="cls-4" d="M402.8,788.86H309.73a3.59,3.59,0,0,1-3.45-3.5l-11-180.46H411.17l-4.55,179.93A4,4,0,0,1,402.8,788.86Z"/><path class="cls-5" d="M422.21,601c0-7-7.49-11.57-14.24-11.57A14.47,14.47,0,0,0,396,596c-.22,0-.45-.06-.67-.08a14.49,14.49,0,0,0-11.91-6.5,14,14,0,0,0-8.44,2.86,13.26,13.26,0,0,0-1.69.52,15.07,15.07,0,0,0-9.31-7.4,12.81,12.81,0,0,0-3.41-.46,12.3,12.3,0,0,0-2.79.31,15.18,15.18,0,0,0-11,9.75,10.47,10.47,0,0,0-5.48-1.56,10.65,10.65,0,0,0-7.89,3.56A15.23,15.23,0,0,0,319.85,588a14.14,14.14,0,0,0-4.28.66,16.76,16.76,0,0,0-11.7,13.22,14.16,14.16,0,0,0-5-.9c-8.37,0-15.16,7.35-15.16,16.42a17,17,0,0,0,.12,2,9.51,9.51,0,0,0-5.18,8.64c0,5.22,3.92,9.46,8.74,9.46a8.3,8.3,0,0,0,2.3-.33,3.86,3.86,0,0,0,.46-.09v-.52a8.52,8.52,0,0,0,4.78-7.81c0-.33,0-.65-.05-1a11.58,11.58,0,0,0,2.21.22c6.2,0,11.3-5.12,11.89-11.67a14.7,14.7,0,0,0,10.83,4.85,15.23,15.23,0,0,0,13.59-8.94h.31a8.59,8.59,0,0,0,5.66,2.16,8.41,8.41,0,0,0,4-1,7.06,7.06,0,0,0,4.76,1.87,7.21,7.21,0,0,0,5.71-2.9,12.66,12.66,0,0,0,13.67-.13h.59a13.46,13.46,0,0,0,20,.25,10.25,10.25,0,0,0,13.09-.25h.15a11.34,11.34,0,0,0,15.34,1C419.18,611.21,422.24,608.54,422.21,601Z"/><polygon class="cls-6" points="337.06 788.86 319.07 788.86 309.87 626.5 337.06 626.5 337.06 788.86"/><path class="cls-5" d="M422.21,616.23c0-7-7.49-11.57-14.24-11.57a14.47,14.47,0,0,0-12,6.58c-.22,0-.45-.06-.67-.08a14.49,14.49,0,0,0-11.91-6.5,14,14,0,0,0-8.44,2.86,11.86,11.86,0,0,0-1.69.53,15,15,0,0,0-9.31-7.4,12.43,12.43,0,0,0-3.41-.47,12.89,12.89,0,0,0-2.79.31,15.18,15.18,0,0,0-11,9.75,10.47,10.47,0,0,0-5.48-1.56,10.65,10.65,0,0,0-7.89,3.56,15.23,15.23,0,0,0-13.59-8.94,14.14,14.14,0,0,0-4.28.66,16.76,16.76,0,0,0-11.7,13.22,14.16,14.16,0,0,0-5-.9c-8.37,0-15.16,7.35-15.16,16.42a16.86,16.86,0,0,0,.12,2,9.52,9.52,0,0,0-5.18,8.64c0,5.23,3.92,9.46,8.74,9.46a8.3,8.3,0,0,0,2.3-.33s.18,0,.46-.08v-.53a8.52,8.52,0,0,0,4.78-7.81c0-.32,0-.64-.05-1a10.83,10.83,0,0,0,2.21.23c6.2,0,11.3-5.12,11.89-11.67a14.73,14.73,0,0,0,10.83,4.84,15.21,15.21,0,0,0,13.59-8.94h.31a8.48,8.48,0,0,0,9.63,1.17,7.09,7.09,0,0,0,4.76,1.86,7.18,7.18,0,0,0,5.71-2.9,12.66,12.66,0,0,0,13.67-.13h.59a13.47,13.47,0,0,0,20,.26,10.26,10.26,0,0,0,13.09-.26h.15a11.34,11.34,0,0,0,15.34,1C419.18,626.49,422.24,623.82,422.21,616.23Z"/><ellipse class="cls-7" cx="374.06" cy="667.97" rx="3.27" ry="3.54"/><ellipse class="cls-7" cx="358.85" cy="705.66" rx="3.27" ry="3.54"/><ellipse class="cls-5" cx="325.33" cy="769.84" rx="3.27" ry="3.54"/><ellipse class="cls-5" cx="332.77" cy="663.32" rx="3.27" ry="3.54"/><ellipse class="cls-7" cx="342.7" cy="741.32" rx="3.27" ry="3.54"/><ellipse class="cls-7" cx="380.61" cy="773.39" rx="3.27" ry="3.54"/><ellipse class="cls-7" cx="394.37" cy="731.96" rx="3.27" ry="3.54"/><ellipse class="cls-7" cx="396.18" cy="693.33" rx="3.27" ry="3.54"/><ellipse class="cls-7" cx="396.18" cy="646.41" rx="3.27" ry="3.54"/></g><g id="Telefon"><path class="cls-8" d="M1411.2,598.21c-3.52,7.56-10.83,33.22-2.4,97.25,6.56,49.75,26,98,30.12,101.13,4.76,3.65,50.91,4.69,54-11.12,1.26-6.52-12.59-35.92-16.53-39-3.13-2.39-18.63,1.71-24.87.73-6.75-1-26-90.27-12.84-107.29.84-1.09,6.22-2,20-3.8,6.53-.86,13.16-41.18,8.73-44.58C1449.36,577.78,1415,590.11,1411.2,598.21Z"/><path class="cls-9" d="M1439.69,639.33c-4.5.74-6.6,1.32-7.1,2-13,16.86,6,105.18,12.71,106.23a31.69,31.69,0,0,0,7.24-.16,10.5,10.5,0,0,1-1.06-.11c-6.75-1-26-90.27-12.84-107.29A2.46,2.46,0,0,1,1439.69,639.33Z"/><path class="cls-10" d="M1445.88,585.36c-5.39,10.92-7,40.41-6.19,54,2.22-.85,7.86-1.71,18.93-3.17,6.53-.86,13.16-41.18,8.73-44.58C1461.41,587,1453.69,585.32,1445.88,585.36Z"/><path class="cls-10" d="M1492.88,785.47c1.26-6.52-12.59-35.92-16.53-39-3-2.31-17.56,1.43-24.19.81a.19.19,0,0,1,0,.08c-.61,13.46,13.65,45,19.36,50.28C1482.14,796,1491.56,792.32,1492.88,785.47Z"/></g><g id="Fadøl-2" data-name="Fadøl"><path class="cls-3" d="M1139,798.48H1030.93a4.16,4.16,0,0,1-4-4.06l-12.8-209.52H1148.7l-5.28,208.91A4.62,4.62,0,0,1,1139,798.48Z"/><path class="cls-11" d="M1136.34,788.92H1033.88a3.85,3.85,0,0,1-3.8-3.65l-12.14-188.34h127.61l-5,187.79A4.25,4.25,0,0,1,1136.34,788.92Z"/><polygon class="cls-12" points="1065.96 788.92 1043.52 788.92 1032.04 596.92 1065.96 596.92 1065.96 788.92"/></g><g id="Fadøl_m_sidevogn"><path class="cls-3" d="M741.31,797.3H643.49a3.78,3.78,0,0,1-3.63-3.69L628.27,603.94H750.11l-4.79,189.12A4.17,4.17,0,0,1,741.31,797.3Z"/><path class="cls-4" d="M738.91,788.64H646.17a3.58,3.58,0,0,1-3.45-3.49l-11-179.84H747.26l-4.54,179.32A4,4,0,0,1,738.91,788.64Z"/><path class="cls-5" d="M758.26,601.38c0-6.94-7.47-11.54-14.19-11.54a14.43,14.43,0,0,0-11.92,6.56l-.67-.08a14.43,14.43,0,0,0-11.87-6.48,14,14,0,0,0-8.41,2.85,13.81,13.81,0,0,0-1.69.53,15,15,0,0,0-9.27-7.38,12.72,12.72,0,0,0-6.18-.15,15.15,15.15,0,0,0-10.94,9.72,10.43,10.43,0,0,0-5.47-1.56,10.65,10.65,0,0,0-7.86,3.55,15.19,15.19,0,0,0-13.55-8.91,14,14,0,0,0-4.26.66,16.73,16.73,0,0,0-11.66,13.17,14.05,14.05,0,0,0-4.94-.9c-8.34,0-15.11,7.33-15.11,16.37a16.69,16.69,0,0,0,.12,2,9.49,9.49,0,0,0-5.16,8.61c0,5.21,3.9,9.43,8.71,9.43a8.28,8.28,0,0,0,2.29-.33s.18,0,.46-.08v-.52a8.51,8.51,0,0,0,4.77-7.79,7.46,7.46,0,0,0-.06-1,11.48,11.48,0,0,0,2.2.22c6.19,0,11.27-5.1,11.86-11.63a14.66,14.66,0,0,0,10.78,4.83,15.19,15.19,0,0,0,13.55-8.91h.31a8.58,8.58,0,0,0,5.64,2.15,8.48,8.48,0,0,0,4-1,7,7,0,0,0,4.74,1.86,7.17,7.17,0,0,0,5.69-2.89,12.64,12.64,0,0,0,13.63-.13h.58a13.42,13.42,0,0,0,19.9.25,10.23,10.23,0,0,0,13-.25h.15a11.32,11.32,0,0,0,15.29,1C755.23,611.6,758.28,608.94,758.26,601.38Z"/><polygon class="cls-6" points="673.4 788.64 655.47 788.64 646.3 626.84 673.4 626.84 673.4 788.64"/><path class="cls-5" d="M758.26,616.61c0-6.94-7.47-11.54-14.19-11.54a14.43,14.43,0,0,0-11.92,6.56l-.67-.08a14.43,14.43,0,0,0-11.87-6.48,14,14,0,0,0-8.41,2.85,13.81,13.81,0,0,0-1.69.53,15,15,0,0,0-9.27-7.38,12.72,12.72,0,0,0-6.18-.15,15.15,15.15,0,0,0-10.94,9.72,10.43,10.43,0,0,0-5.47-1.56,10.65,10.65,0,0,0-7.86,3.55,15.19,15.19,0,0,0-13.55-8.91,14,14,0,0,0-4.26.66,16.73,16.73,0,0,0-11.66,13.17,14.05,14.05,0,0,0-4.94-.9c-8.34,0-15.11,7.33-15.11,16.37a16.69,16.69,0,0,0,.12,2,9.49,9.49,0,0,0-5.16,8.61c0,5.21,3.9,9.43,8.71,9.43a8.28,8.28,0,0,0,2.29-.33s.18,0,.46-.08v-.52a8.51,8.51,0,0,0,4.77-7.79,7.73,7.73,0,0,0-.06-1,10.74,10.74,0,0,0,2.2.23c6.19,0,11.27-5.1,11.86-11.63a14.66,14.66,0,0,0,10.78,4.83,15.19,15.19,0,0,0,13.55-8.91h.31a8.58,8.58,0,0,0,5.64,2.15,8.48,8.48,0,0,0,4-1,7,7,0,0,0,4.74,1.86,7.17,7.17,0,0,0,5.69-2.89,12.64,12.64,0,0,0,13.63-.13h.58a13.42,13.42,0,0,0,19.9.25,10.23,10.23,0,0,0,13-.25h.15a11.32,11.32,0,0,0,15.29,1C755.23,626.83,758.28,624.17,758.26,616.61Z"/><ellipse class="cls-7" cx="710.28" cy="668.17" rx="3.26" ry="3.53"/><ellipse class="cls-7" cx="695.12" cy="705.73" rx="3.26" ry="3.53"/><ellipse class="cls-5" cx="661.7" cy="769.69" rx="3.26" ry="3.53"/><ellipse class="cls-5" cx="669.12" cy="663.54" rx="3.26" ry="3.53"/><ellipse class="cls-7" cx="679.02" cy="741.27" rx="3.26" ry="3.53"/><ellipse class="cls-7" cx="716.8" cy="773.22" rx="3.26" ry="3.53"/><ellipse class="cls-7" cx="730.51" cy="731.94" rx="3.26" ry="3.53"/><ellipse class="cls-7" cx="732.32" cy="693.45" rx="3.26" ry="3.53"/><ellipse class="cls-7" cx="732.32" cy="646.68" rx="3.26" ry="3.53"/><path class="cls-3" d="M760.59,816.09H713.65a1.81,1.81,0,0,1-1.74-1.77l-5.57-91h58.48l-2.3,90.77A2,2,0,0,1,760.59,816.09Z"/><path class="cls-13" d="M759.44,811.94H714.93a1.7,1.7,0,0,1-1.65-1.64L708,725.92h55.44l-2.18,84.13A1.89,1.89,0,0,1,759.44,811.94Z"/><polygon class="cls-14" points="728.87 811.94 719.12 811.94 714.13 725.92 728.87 725.92 728.87 811.94"/></g><path d="M365.35,244.52V242c4.39-.42,4.87-1,4.87-3.48V209.61c0-2.52-.48-3.06-4.87-3.49v-2.49H383v2.49c-4.68.46-5.27,1.08-5.27,3.74v31.8l6.15-.22c6.17-.2,8.49-1.28,10.39-9.8h2.32l-.42,12.88Z"/><path d="M402,230.36c0-8.92,6.48-15.09,15.26-15.09,8.58,0,14.84,6.09,14.84,14.81,0,8.89-6.51,15.1-15.29,15.1C408.29,245.18,402,239.09,402,230.36Zm22.77.26c0-7.36-3.34-12-8-12s-7.48,4.22-7.48,11.22c0,7.36,3.32,12,7.93,12S424.8,237.61,424.8,230.62Z"/><path d="M448.76,222c3.31-4.47,6-6.63,8.75-6.63,2.49,0,3.42,1.73,3.42,3.74a4.74,4.74,0,0,1-.59,2.47,11.86,11.86,0,0,0-3.26-.37c-3.23,0-6.77,1.1-8.18,2.69v15.21c0,2.15.51,2.54,4.56,2.91v2.49H437.91V242c3.6-.37,4.08-.79,4.08-2.55V222.07c0-1.59-.26-2-1.87-2.38l-2.21-.54v-2.27l10.87-1.33Z"/><path d="M478.63,215.3c7.93,0,12.41,4.76,12.41,12.43a20.93,20.93,0,0,1-.12,2.18H471.55c.48,6.88,4.82,11.13,11.39,11.13a11.53,11.53,0,0,0,7.36-2.55V241c-2.15,2.47-6.17,4.2-11.16,4.2-8.27,0-14.64-5.5-14.64-14.73C464.5,221.44,470.34,215.3,478.63,215.3Zm-7.08,11.75h13.06v-.2c0-5.32-2.18-8.24-6-8.24S472,221.33,471.55,227.05Z"/><path d="M507.66,220.06a10.93,10.93,0,0,1,9.54-4.79c4.2,0,7.45,1.67,8.84,5.07,1.84-3.23,5.27-5.07,9.66-5.07,5.94,0,10,3.43,10,9.46v14.75c0,1.76.48,2.18,4.07,2.55v2.49H535.1V242c3.23-.37,3.66-.73,3.66-2.43V226.2c0-4.44-2.33-6.8-6.23-6.8a7,7,0,0,0-6,2.67,14,14,0,0,1,.2,2.23v15.3c0,1.7.42,2.06,3.68,2.43v2.49H516.18V242c3.23-.37,3.66-.73,3.66-2.43V226.2c0-4.44-2.27-6.8-6.06-6.8a6.93,6.93,0,0,0-6,2.89V239.6c0,1.7.43,2.06,3.68,2.43v2.49H496.81V242c3.6-.37,4.08-.79,4.08-2.55V222.07c0-1.59-.25-2-1.87-2.38l-2.21-.54v-2.27l10.85-1.33Z"/><path d="M607.42,239.48c0,1.76.48,2.18,4.08,2.55v2.49H596.43V242c3.6-.37,4.08-.79,4.08-2.55V222.07c0-1.59-.26-2-1.87-2.38l-2.21-.54v-2.27l11-1.33Zm-8.24-33.36a4.16,4.16,0,1,1,4.16,4A4,4,0,0,1,599.18,206.12Z"/><path d="M634.21,245.18a11.18,11.18,0,0,1-7.68-2.92v9.88c0,2.16.49,2.55,4.56,2.92v2.49H615.55v-2.49c3.62-.37,4.07-.79,4.07-2.55V222.07c0-1.59-.25-2-1.86-2.38l-2.21-.54v-2.27l10.84-1.33v4.85c1.56-3,5.3-5.13,9.58-5.13,6.37,0,11.69,5.47,11.69,14.58S641.74,245.18,634.21,245.18Zm-1.67-25.78a6.56,6.56,0,0,0-6,3.12V239c.85,1.53,3,2.77,5.87,2.77,4.73,0,8.1-4.19,8.1-11.27S637.32,219.4,632.54,219.4Z"/><path d="M666.44,215.27c4.53,0,7.93,1,9.74,2.15l.2,7.14h-2.3a7.25,7.25,0,0,0-7.53-5.95c-3.4,0-5.63,1.45-5.63,3.85s2,3.52,5.43,4.42l2.47.65c5.55,1.45,8.69,4,8.69,8.81,0,5.3-5.12,8.72-12.06,8.72a21.77,21.77,0,0,1-10.94-2.6l-.19-7.31h2.32c1,4.25,4.22,6.57,8.64,6.57,3.65,0,5.89-1.73,5.89-4.16S669.69,234,665.9,233l-2.49-.65c-5.33-1.39-8.84-3.91-8.84-8.61C654.57,218.53,659.13,215.27,666.44,215.27Z"/><path d="M693.34,234.22c0,4.44,2.32,6.82,6.26,6.82a6.73,6.73,0,0,0,5.86-2.94v-16c0-1.59-.25-2-1.84-2.38l-2.24-.54v-2.27l11-1.33v22.86c0,1.56.26,2,1.9,2.38l2.18.53v2.24l-10.88,1.3v-4.53c-1.61,2.72-4.9,4.85-9.46,4.85-5.8,0-9.71-3.46-9.71-9.43V222.07c0-1.59-.25-2-1.9-2.38l-2.18-.54v-2.27l11-1.33Z"/><path d="M731.88,220.06a10.93,10.93,0,0,1,9.55-4.79c4.19,0,7.45,1.67,8.83,5.07,1.84-3.23,5.27-5.07,9.66-5.07,6,0,10,3.43,10,9.46v14.75c0,1.76.48,2.18,4.08,2.55v2.49H759.33V242c3.22-.37,3.65-.73,3.65-2.43V226.2c0-4.44-2.32-6.8-6.23-6.8a7,7,0,0,0-6,2.67,12.93,12.93,0,0,1,.2,2.23v15.3c0,1.7.43,2.06,3.68,2.43v2.49H740.41V242c3.23-.37,3.65-.73,3.65-2.43V226.2c0-4.44-2.26-6.8-6.06-6.8a6.92,6.92,0,0,0-6,2.89V239.6c0,1.7.42,2.06,3.68,2.43v2.49H721V242c3.59-.37,4.08-.79,4.08-2.55V222.07c0-1.59-.26-2-1.87-2.38l-2.21-.54v-2.27l10.84-1.33Z"/><path d="M835,215.27a10.93,10.93,0,0,1,7.65,2.92v-9.41c0-1.55-.25-2-1.84-2.37l-2.24-.57v-2.21l11-1.33v36.11c0,1.56.25,2,1.93,2.38l2.15.53v2.24l-10.85,1.3v-4.75c-1.56,3-5.29,5.07-9.57,5.07-6.37,0-11.7-5.47-11.7-14.59S827.45,215.27,835,215.27ZM836.66,241a6.49,6.49,0,0,0,6-3.11V221.47c-.85-1.5-3-2.74-5.83-2.74-4.73,0-8.1,4.19-8.1,11.27S831.84,241,836.66,241Z"/><path d="M859.09,230.36c0-8.92,6.48-15.09,15.26-15.09,8.58,0,14.84,6.09,14.84,14.81,0,8.89-6.51,15.1-15.29,15.1C865.34,245.18,859.09,239.09,859.09,230.36Zm22.76.26c0-7.36-3.34-12-8-12s-7.48,4.22-7.48,11.22c0,7.36,3.31,12,7.93,12S881.85,237.61,881.85,230.62Z"/><path d="M906,239.48c0,1.76.49,2.18,4.08,2.55v2.49H895V242c3.59-.37,4.07-.79,4.07-2.55v-30.7c0-1.55-.25-2-1.86-2.37l-2.21-.57v-2.21l11-1.33Z"/><path d="M915.5,230.36c0-8.92,6.48-15.09,15.26-15.09,8.58,0,14.84,6.09,14.84,14.81,0,8.89-6.51,15.1-15.29,15.1C921.76,245.18,915.5,239.09,915.5,230.36Zm22.77.26c0-7.36-3.34-12-8-12s-7.48,4.22-7.48,11.22c0,7.36,3.32,12,7.93,12S938.27,237.61,938.27,230.62Z"/><path d="M962.22,222c3.32-4.47,6-6.63,8.76-6.63,2.49,0,3.42,1.73,3.42,3.74a4.74,4.74,0,0,1-.59,2.47,11.86,11.86,0,0,0-3.26-.37c-3.23,0-6.77,1.1-8.18,2.69v15.21c0,2.15.51,2.54,4.56,2.91v2.49H951.38V242c3.59-.37,4.08-.79,4.08-2.55V222.07c0-1.59-.26-2-1.87-2.38l-2.21-.54v-2.27l10.87-1.33Z"/><path d="M1034,215.27c4.53,0,7.93,1,9.74,2.15l.2,7.14h-2.3a7.25,7.25,0,0,0-7.53-5.95c-3.4,0-5.64,1.45-5.64,3.85s2,3.52,5.44,4.42l2.47.65c5.55,1.45,8.69,4,8.69,8.81,0,5.3-5.13,8.72-12.06,8.72a21.77,21.77,0,0,1-10.94-2.6l-.19-7.31h2.32c1,4.25,4.22,6.57,8.64,6.57,3.65,0,5.89-1.73,5.89-4.16s-1.48-3.54-5.27-4.56l-2.49-.65c-5.33-1.39-8.84-3.91-8.84-8.61C1022.11,218.53,1026.67,215.27,1034,215.27Z"/><path d="M1061.67,239.48c0,1.76.48,2.18,4.08,2.55v2.49h-15.07V242c3.6-.37,4.08-.79,4.08-2.55V222.07c0-1.59-.25-2-1.87-2.38l-2.21-.54v-2.27l11-1.33Zm-8.24-33.36a4.17,4.17,0,1,1,4.16,4A4,4,0,0,1,1053.43,206.12Z"/><path d="M1073.79,219.32H1070v-1.9l9.23-7.16h1.45v5.83l8.78-.17v3.4l-8.78-.14v15.55c0,4.9,2.21,6.42,5.26,6.42a7.73,7.73,0,0,0,4-1v2.49c-1.42,1.44-4.36,2.58-7.68,2.58-4.53,0-8.41-2.47-8.41-9.12Z"/><path d="M1136.71,237.9c0-4.59,3.2-7.39,11.21-9.15l6.63-1.44v-2c0-5-2.69-6.66-6.71-6.66a10.69,10.69,0,0,0-4.31.82,3.4,3.4,0,0,1,1.42,2.78,3.67,3.67,0,0,1-7.31,0c0-4,5.44-6.91,12.38-6.91s11.33,2.92,11.33,9.37v13.48c0,2.5,1.38,3.37,3,3.37a4.13,4.13,0,0,0,1.55-.25v2.32a8.91,8.91,0,0,1-5,1.45c-3.05,0-5.38-1.5-6.09-4.14-1.69,2.35-5.23,4.31-9.57,4.31C1140.25,245.18,1136.71,242.12,1136.71,237.9Zm12,3.42a7,7,0,0,0,5.86-2.74v-8.36l-3.77.8c-5.21,1.16-7.19,2.83-7.19,5.72S1145.74,241.32,1148.69,241.32Z"/><path d="M1180.69,220.06a10.93,10.93,0,0,1,9.54-4.79c4.2,0,7.45,1.67,8.84,5.07,1.84-3.23,5.27-5.07,9.66-5.07,5.94,0,10,3.43,10,9.46v14.75c0,1.76.48,2.18,4.07,2.55v2.49h-14.64V242c3.23-.37,3.66-.73,3.66-2.43V226.2c0-4.44-2.33-6.8-6.24-6.8a7,7,0,0,0-6,2.67,14,14,0,0,1,.2,2.23v15.3c0,1.7.42,2.06,3.68,2.43v2.49h-14.25V242c3.23-.37,3.66-.73,3.66-2.43V226.2c0-4.44-2.27-6.8-6.06-6.8a6.93,6.93,0,0,0-6,2.89V239.6c0,1.7.43,2.06,3.68,2.43v2.49h-14.67V242c3.6-.37,4.08-.79,4.08-2.55V222.07c0-1.59-.25-2-1.87-2.38l-2.21-.54v-2.27l10.85-1.33Z"/><path d="M1242.23,215.3c7.93,0,12.4,4.76,12.4,12.43a21.27,21.27,0,0,1-.11,2.18h-19.37c.48,6.88,4.81,11.13,11.38,11.13a11.53,11.53,0,0,0,7.37-2.55V241c-2.16,2.47-6.18,4.2-11.16,4.2-8.27,0-14.64-5.5-14.64-14.73C1228.1,221.44,1233.93,215.3,1242.23,215.3Zm-7.08,11.75h13v-.2c0-5.32-2.18-8.24-6-8.24S1235.54,221.33,1235.15,227.05Z"/><path d="M1263.86,219.32H1260v-1.9l9.23-7.16h1.45v5.83l8.78-.17v3.4l-8.78-.14v15.55c0,4.9,2.21,6.42,5.26,6.42a7.73,7.73,0,0,0,4-1v2.49c-1.42,1.44-4.36,2.58-7.68,2.58-4.53,0-8.41-2.47-8.41-9.12Z"/><path d="M1284.93,251c2.78-.53,5.07-2.63,5.07-5.15,0-2.24-1.84-3.74-4.44-3.88,0-3,1.64-5.55,4.47-5.55s4.79,2.63,4.79,6.31c0,5.7-4.62,9.6-9.29,10.45Z"/><path d="M1344.22,230.45c0-9.52,7-15.18,15-15.18,6.91,0,10.23,3.29,10.23,7.17a3.65,3.65,0,0,1-3.69,3.82,3.63,3.63,0,0,1-1.64-6.86,8.79,8.79,0,0,0-4-.79c-4.9,0-8.69,3.91-8.69,10.59,0,7.31,4.44,11.84,10.9,11.84a11.52,11.52,0,0,0,7.33-2.55V241c-2.09,2.44-6.09,4.2-11,4.2C1350.62,245.18,1344.22,239.51,1344.22,230.45Z"/><path d="M1375.49,230.36c0-8.92,6.48-15.09,15.26-15.09,8.58,0,14.84,6.09,14.84,14.81,0,8.89-6.51,15.1-15.29,15.1C1381.75,245.18,1375.49,239.09,1375.49,230.36Zm22.77.26c0-7.36-3.34-12-8-12s-7.48,4.22-7.48,11.22c0,7.36,3.32,12,7.93,12C1395.51,241.83,1398.26,237.61,1398.26,230.62Z"/><path d="M1422.22,220.11c1.61-2.72,5-4.84,9.68-4.84,5.95,0,10,3.4,10,9.23v15c0,1.76.45,2.18,4.08,2.55v2.49h-14.67V242c3.23-.37,3.65-.73,3.65-2.43V226.06c0-4.33-2.41-6.66-6.34-6.66a7.18,7.18,0,0,0-6.23,2.95V239.6c0,1.7.42,2.06,3.68,2.43v2.49h-14.67V242c3.6-.37,4.08-.79,4.08-2.55V222.07c0-1.59-.26-2-1.87-2.38l-2.21-.54v-2.27l10.85-1.33Z"/><path d="M1463.36,215.27c4.54,0,7.93,1,9.75,2.15l.19,7.14H1471a7.25,7.25,0,0,0-7.53-5.95c-3.4,0-5.64,1.45-5.64,3.85s2,3.52,5.44,4.42l2.46.65c5.55,1.45,8.7,4,8.7,8.81,0,5.3-5.13,8.72-12.07,8.72a21.73,21.73,0,0,1-10.93-2.6l-.2-7.31h2.33c1,4.25,4.22,6.57,8.63,6.57,3.66,0,5.89-1.73,5.89-4.16s-1.47-3.54-5.26-4.56l-2.5-.65c-5.32-1.39-8.83-3.91-8.83-8.61C1451.5,218.53,1456.06,215.27,1463.36,215.27Z"/><path d="M1495.08,215.3c7.93,0,12.41,4.76,12.41,12.43a20.93,20.93,0,0,1-.12,2.18H1488c.48,6.88,4.82,11.13,11.39,11.13a11.53,11.53,0,0,0,7.36-2.55V241c-2.15,2.47-6.17,4.2-11.16,4.2-8.27,0-14.64-5.5-14.64-14.73C1481,221.44,1486.78,215.3,1495.08,215.3ZM1488,227.05h13.06v-.2c0-5.32-2.18-8.24-6-8.24S1488.4,221.33,1488,227.05Z"/><path d="M1514.14,230.45c0-9.52,7-15.18,15-15.18,6.91,0,10.22,3.29,10.22,7.17a3.64,3.64,0,0,1-3.68,3.82,3.63,3.63,0,0,1-1.64-6.86,8.79,8.79,0,0,0-4-.79c-4.9,0-8.7,3.91-8.7,10.59,0,7.31,4.45,11.84,10.91,11.84a11.56,11.56,0,0,0,7.33-2.55V241c-2.09,2.44-6.09,4.2-11,4.2C1520.54,245.18,1514.14,239.51,1514.14,230.45Z"/><path d="M1546,230.42v-5.21h16.11v5.21Z"/><path d="M368.78,288.92H365V287l9.23-7.16h1.44v5.83l8.78-.17v3.4l-8.78-.14v15.54c0,4.9,2.21,6.43,5.27,6.43a7.73,7.73,0,0,0,4-1v2.49c-1.42,1.44-4.36,2.57-7.68,2.57-4.53,0-8.41-2.46-8.41-9.11Z"/><path d="M403,284.9c7.93,0,12.4,4.75,12.4,12.43a21.27,21.27,0,0,1-.11,2.18H395.91c.48,6.88,4.81,11.13,11.39,11.13a11.53,11.53,0,0,0,7.36-2.55v2.49c-2.15,2.47-6.18,4.19-11.16,4.19-8.27,0-14.64-5.49-14.64-14.72C388.86,291,394.69,284.9,403,284.9Zm-7.08,11.75H409v-.2c0-5.32-2.18-8.24-6-8.24S396.31,290.93,395.91,296.65Z"/><path d="M424.63,288.92H420.8V287l9.24-7.16h1.44v5.83l8.78-.17v3.4l-8.78-.14v15.54c0,4.9,2.21,6.43,5.27,6.43a7.69,7.69,0,0,0,4-1v2.49c-1.41,1.44-4.36,2.57-7.67,2.57-4.53,0-8.41-2.46-8.41-9.11Z"/><path d="M454.82,303.81c0,4.45,2.32,6.83,6.25,6.83a6.72,6.72,0,0,0,5.87-2.95v-16c0-1.58-.26-2-1.84-2.37l-2.24-.54v-2.27l11-1.33V308c0,1.55.25,2,1.89,2.37l2.18.54v2.24l-10.87,1.3v-4.53c-1.62,2.72-4.9,4.84-9.46,4.84-5.81,0-9.71-3.45-9.71-9.43V291.66c0-1.58-.26-2-1.9-2.37l-2.18-.54v-2.27l11-1.33Z"/><path d="M497.52,284.9c7.93,0,12.41,4.75,12.41,12.43a20.93,20.93,0,0,1-.12,2.18H490.44c.48,6.88,4.82,11.13,11.39,11.13a11.53,11.53,0,0,0,7.36-2.55v2.49c-2.15,2.47-6.17,4.19-11.16,4.19-8.27,0-14.64-5.49-14.64-14.72C483.39,291,489.22,284.9,497.52,284.9Zm-7.08,11.75H503.5v-.2c0-5.32-2.18-8.24-6-8.24S490.84,290.93,490.44,296.65Z"/><path d="M526.55,291.61c3.31-4.48,6-6.63,8.75-6.63,2.49,0,3.43,1.73,3.43,3.74a4.68,4.68,0,0,1-.6,2.46,12.25,12.25,0,0,0-3.25-.36c-3.23,0-6.77,1.1-8.19,2.69v15.2c0,2.16.51,2.55,4.56,2.92v2.49H515.7v-2.49c3.6-.37,4.08-.79,4.08-2.55V291.66c0-1.58-.25-2-1.87-2.37l-2.21-.54v-2.27l10.88-1.33Z"/><path d="M569.14,307.5c0-4.59,3.2-7.4,11.21-9.15L587,296.9v-2c0-5-2.69-6.66-6.71-6.66A10.69,10.69,0,0,0,576,289a3.4,3.4,0,0,1,1.42,2.78,3.67,3.67,0,0,1-7.31,0c0-4,5.44-6.91,12.38-6.91s11.32,2.92,11.32,9.37v13.48c0,2.49,1.39,3.37,3,3.37a4.15,4.15,0,0,0,1.56-.25v2.32a8.94,8.94,0,0,1-5,1.44c-3.06,0-5.38-1.5-6.09-4.13-1.7,2.35-5.24,4.3-9.57,4.3C572.68,314.77,569.14,311.72,569.14,307.5Zm12,3.42a7,7,0,0,0,5.86-2.74v-8.36l-3.77.79c-5.21,1.17-7.19,2.84-7.19,5.72S578.17,310.92,581.12,310.92Z"/><path d="M616.6,284.87a10.92,10.92,0,0,1,7.65,2.92v-9.41c0-1.55-.26-2-1.84-2.38l-2.24-.56v-2.21l11-1.33V308c0,1.55.26,2,1.93,2.37l2.15.54v2.24l-10.84,1.3v-4.75c-1.56,3-5.3,5.06-9.58,5.06-6.37,0-11.69-5.46-11.69-14.58S609.07,284.87,616.6,284.87Zm1.67,25.77a6.49,6.49,0,0,0,6-3.12V291.07c-.85-1.5-3-2.75-5.84-2.75-4.73,0-8.1,4.19-8.1,11.27S613.46,310.64,618.27,310.64Z"/><path d="M650.81,309.08c0,1.76.48,2.18,4.08,2.55v2.49H639.82v-2.49c3.6-.37,4.08-.79,4.08-2.55V291.66c0-1.58-.25-2-1.87-2.37l-2.21-.54v-2.27l11-1.33Zm-8.24-33.36a4.17,4.17,0,1,1,4.16,4A4,4,0,0,1,642.57,275.72Z"/><path d="M677.6,314.77a11.13,11.13,0,0,1-7.67-2.91v9.88c0,2.15.48,2.55,4.56,2.92v2.49H658.94v-2.49c3.62-.37,4.08-.79,4.08-2.55V291.66c0-1.58-.26-2-1.87-2.37l-2.21-.54v-2.27l10.84-1.33V290c1.56-3,5.3-5.12,9.58-5.12,6.37,0,11.69,5.46,11.69,14.58S685.13,314.77,677.6,314.77ZM675.93,289a6.51,6.51,0,0,0-6,3.12v16.42c.85,1.53,3,2.78,5.86,2.78,4.73,0,8.1-4.19,8.1-11.27S680.72,289,675.93,289Z"/><path d="M707.82,309.08c0,1.76.48,2.18,4.08,2.55v2.49H696.83v-2.49c3.6-.37,4.08-.79,4.08-2.55V291.66c0-1.58-.26-2-1.87-2.37l-2.21-.54v-2.27l11-1.33Zm-8.24-33.36a4.16,4.16,0,1,1,4.16,4A4,4,0,0,1,699.58,275.72Z"/><path d="M729.48,284.87c4.53,0,7.93,1,9.74,2.15l.2,7.14h-2.29a7.25,7.25,0,0,0-7.54-6c-3.39,0-5.63,1.44-5.63,3.85s2,3.51,5.44,4.42l2.46.65c5.55,1.45,8.69,4,8.69,8.81,0,5.29-5.12,8.72-12.06,8.72a21.73,21.73,0,0,1-10.93-2.6l-.2-7.31h2.32c1,4.25,4.22,6.57,8.64,6.57,3.65,0,5.89-1.73,5.89-4.16s-1.47-3.54-5.27-4.56l-2.49-.65c-5.32-1.39-8.83-3.91-8.83-8.61C717.62,288.12,722.18,284.87,729.48,284.87Z"/><path d="M747.07,300.05c0-9.52,7-15.18,15-15.18,6.91,0,10.22,3.28,10.22,7.16a3.64,3.64,0,0,1-3.68,3.83A3.62,3.62,0,0,1,767,289a8.71,8.71,0,0,0-4-.79c-4.9,0-8.69,3.91-8.69,10.59,0,7.31,4.45,11.84,10.9,11.84a11.57,11.57,0,0,0,7.34-2.55v2.49c-2.1,2.44-6.09,4.19-11,4.19C753.47,314.77,747.07,309.11,747.07,300.05Z"/><path d="M788.44,309.08c0,1.76.49,2.18,4.08,2.55v2.49H777.46v-2.49c3.59-.37,4.07-.79,4.07-2.55V291.66c0-1.58-.25-2-1.87-2.37l-2.2-.54v-2.27l11-1.33Zm-8.24-33.36a4.17,4.17,0,1,1,4.17,4A4,4,0,0,1,780.2,275.72Z"/><path d="M808,289.71c1.61-2.72,5-4.84,9.68-4.84,6,0,10,3.4,10,9.23v15c0,1.76.45,2.18,4.08,2.55v2.49H817v-2.49c3.23-.37,3.65-.74,3.65-2.43V295.66c0-4.33-2.41-6.66-6.34-6.66A7.16,7.16,0,0,0,808.1,292V309.2c0,1.69.42,2.06,3.68,2.43v2.49H797.11v-2.49c3.6-.37,4.08-.79,4.08-2.55V291.66c0-1.58-.26-2-1.87-2.37l-2.21-.54v-2.27L808,285.15Z"/><path d="M850.12,284.87a16.37,16.37,0,0,1,6.55,1.24l10.45-.59v3.4l-7.14-.4a7.74,7.74,0,0,1,3,6.26c0,6.12-5.86,9.71-12.6,9.71a21.6,21.6,0,0,1-3.48-.31c-2.21.74-3.15,1.84-3.15,3.15,0,1.7,1.5,2.6,4.28,2.6h6.88c6.94,0,10.93,2.89,10.93,7.85,0,6-6.2,10.25-15.49,10.25s-14.27-3-14.27-7.34c0-2.83,2.69-4.95,7.93-5.86-3.51-.25-6.12-2.09-6.12-5s2.46-5.07,6.63-6.35c-4-1-7.2-4.1-7.2-8.61C837.29,289,842.76,284.87,850.12,284.87Zm.46,39.82c5.55,0,9-2.27,9-5.3,0-2.38-1.78-3.91-6.06-3.91h-6.94c-2.71.48-4.24,2-4.24,4.25C842.31,322.65,845.28,324.69,850.58,324.69Zm-.23-23.25c3.23,0,5.72-2.75,5.72-6.6,0-4.28-2.35-6.91-6.12-6.91-3.42,0-5.72,2.8-5.72,6.6C844.23,299,846.92,301.44,850.35,301.44Z"/><path d="M911.29,284.9c7.93,0,12.4,4.75,12.4,12.43a21.27,21.27,0,0,1-.11,2.18H904.21c.48,6.88,4.81,11.13,11.38,11.13a11.53,11.53,0,0,0,7.37-2.55v2.49c-2.16,2.47-6.18,4.19-11.16,4.19-8.27,0-14.64-5.49-14.64-14.72C897.16,291,903,284.9,911.29,284.9Zm-7.08,11.75h13v-.2c0-5.32-2.18-8.24-6-8.24S904.6,290.93,904.21,296.65Z"/><path d="M940.46,309.08c0,1.76.48,2.18,4.08,2.55v2.49H929.47v-2.49c3.6-.37,4.08-.79,4.08-2.55v-30.7c0-1.55-.26-2-1.87-2.38l-2.21-.56v-2.21l11-1.33Z"/><path d="M960.11,309.08c0,1.76.48,2.18,4.08,2.55v2.49H949.12v-2.49c3.6-.37,4.08-.79,4.08-2.55V291.66c0-1.58-.25-2-1.87-2.37l-2.21-.54v-2.27l11-1.33Zm-8.24-33.36a4.17,4.17,0,1,1,4.16,4A4,4,0,0,1,951.87,275.72Z"/><path d="M972.23,288.92h-3.82V287l9.23-7.16h1.45v5.83l8.77-.17v3.4l-8.77-.14v15.54c0,4.9,2.2,6.43,5.26,6.43a7.73,7.73,0,0,0,4-1v2.49c-1.42,1.44-4.36,2.57-7.68,2.57-4.53,0-8.41-2.46-8.41-9.11Z"/><path d="M993.3,320.55c2.78-.54,5.07-2.63,5.07-5.15,0-2.24-1.84-3.74-4.45-3.88,0-3,1.65-5.55,4.48-5.55s4.78,2.63,4.78,6.31c0,5.69-4.61,9.6-9.28,10.45Z"/><path d="M1047.87,284.87c4.53,0,7.93,1,9.74,2.15l.2,7.14h-2.3a7.24,7.24,0,0,0-7.53-6c-3.4,0-5.64,1.44-5.64,3.85s2,3.51,5.44,4.42l2.47.65c5.55,1.45,8.69,4,8.69,8.81,0,5.29-5.13,8.72-12.06,8.72a21.77,21.77,0,0,1-10.94-2.6l-.19-7.31h2.32c1,4.25,4.22,6.57,8.64,6.57,3.65,0,5.89-1.73,5.89-4.16s-1.48-3.54-5.27-4.56l-2.49-.65c-5.33-1.39-8.84-3.91-8.84-8.61C1036,288.12,1040.56,284.87,1047.87,284.87Z"/><path d="M1079.59,284.9c7.92,0,12.4,4.75,12.4,12.43,0,.82-.06,1.64-.11,2.18h-19.37c.48,6.88,4.81,11.13,11.38,11.13a11.48,11.48,0,0,0,7.36-2.55v2.49c-2.15,2.47-6.17,4.19-11.16,4.19-8.26,0-14.64-5.49-14.64-14.72C1065.45,291,1071.29,284.9,1079.59,284.9Zm-7.08,11.75h13v-.2c0-5.32-2.18-8.24-6-8.24S1072.9,290.93,1072.51,296.65Z"/><path d="M1112.1,284.87a10.88,10.88,0,0,1,7.64,2.92v-9.41c0-1.55-.25-2-1.84-2.38l-2.24-.56v-2.21l11-1.33V308c0,1.55.26,2,1.93,2.37l2.15.54v2.24l-10.85,1.3v-4.75c-1.56,3-5.29,5.06-9.57,5.06-6.37,0-11.7-5.46-11.7-14.58S1104.56,284.87,1112.1,284.87Zm1.67,25.77a6.47,6.47,0,0,0,6-3.12V291.07c-.85-1.5-3-2.75-5.83-2.75-4.73,0-8.1,4.19-8.1,11.27S1109,310.64,1113.77,310.64Z"/><path d="M1175.05,284.87a10.88,10.88,0,0,1,7.64,2.92v-9.41c0-1.55-.25-2-1.84-2.38l-2.24-.56v-2.21l11-1.33V308c0,1.55.26,2,1.93,2.37l2.15.54v2.24l-10.85,1.3v-4.75c-1.56,3-5.29,5.06-9.57,5.06-6.37,0-11.7-5.46-11.7-14.58S1167.51,284.87,1175.05,284.87Zm1.67,25.77a6.47,6.47,0,0,0,6-3.12V291.07c-.85-1.5-3-2.75-5.83-2.75-4.73,0-8.1,4.19-8.1,11.27S1171.9,310.64,1176.72,310.64Z"/><path d="M1209.26,309.08c0,1.76.48,2.18,4.07,2.55v2.49h-15.06v-2.49c3.59-.37,4.08-.79,4.08-2.55V291.66c0-1.58-.26-2-1.87-2.37l-2.21-.54v-2.27l11-1.33ZM1201,275.72a4.17,4.17,0,1,1,4.17,4A4,4,0,0,1,1201,275.72Z"/><path d="M1218.6,307.5c0-4.59,3.2-7.4,11.22-9.15l6.62-1.45v-2c0-5-2.69-6.66-6.71-6.66a10.64,10.64,0,0,0-4.3.82,3.39,3.39,0,0,1,1.41,2.78,3.44,3.44,0,0,1-3.65,3.37,3.4,3.4,0,0,1-3.65-3.4c0-4,5.43-6.91,12.37-6.91s11.33,2.92,11.33,9.37v13.48c0,2.49,1.39,3.37,3,3.37a4.22,4.22,0,0,0,1.56-.25v2.32a8.94,8.94,0,0,1-5,1.44c-3.06,0-5.38-1.5-6.09-4.13-1.7,2.35-5.24,4.3-9.57,4.3C1222.14,314.77,1218.6,311.72,1218.6,307.5Zm12,3.42a7,7,0,0,0,5.86-2.74v-8.36l-3.76.79c-5.21,1.17-7.2,2.84-7.2,5.72S1227.64,310.92,1230.58,310.92Z"/><path d="M1262.58,289.65a11,11,0,0,1,9.55-4.78c4.19,0,7.44,1.67,8.83,5.07,1.84-3.23,5.27-5.07,9.66-5.07,6,0,10,3.42,10,9.46v14.75c0,1.76.48,2.18,4.08,2.55v2.49H1290v-2.49c3.23-.37,3.66-.74,3.66-2.43V295.8c0-4.45-2.33-6.8-6.23-6.8a7,7,0,0,0-6,2.66,14.13,14.13,0,0,1,.2,2.24v15.3c0,1.69.42,2.06,3.68,2.43v2.49h-14.24v-2.49c3.22-.37,3.65-.74,3.65-2.43V295.8c0-4.45-2.27-6.8-6.06-6.8a6.9,6.9,0,0,0-6,2.89V309.2c0,1.69.43,2.06,3.68,2.43v2.49h-14.67v-2.49c3.6-.37,4.08-.79,4.08-2.55V291.66c0-1.58-.25-2-1.87-2.37l-2.21-.54v-2.27l10.85-1.33Z"/><path d="M1345.35,289.71c1.62-2.72,5-4.84,9.69-4.84,6,0,10,3.4,10,9.23v15c0,1.76.45,2.18,4.08,2.55v2.49h-14.67v-2.49c3.22-.37,3.65-.74,3.65-2.43V295.66c0-4.33-2.41-6.66-6.34-6.66a7.15,7.15,0,0,0-6.23,2.95V309.2c0,1.69.42,2.06,3.68,2.43v2.49h-14.67v-2.49c3.59-.37,4.08-.79,4.08-2.55V291.66c0-1.58-.26-2-1.87-2.37l-2.21-.54v-2.27l10.84-1.33Z"/><path d="M1374.38,300c0-8.92,6.49-15.09,15.27-15.09,8.58,0,14.84,6.09,14.84,14.81,0,8.89-6.52,15.09-15.3,15.09C1380.64,314.77,1374.38,308.69,1374.38,300Zm22.77.26c0-7.37-3.34-12-8-12s-7.47,4.22-7.47,11.21c0,7.37,3.31,12,7.93,12S1397.15,307.21,1397.15,300.22Z"/><path d="M1421.11,289.71c1.61-2.72,5-4.84,9.69-4.84,5.94,0,10,3.4,10,9.23v15c0,1.76.46,2.18,4.08,2.55v2.49h-14.67v-2.49c3.23-.37,3.66-.74,3.66-2.43V295.66c0-4.33-2.41-6.66-6.35-6.66a7.16,7.16,0,0,0-6.23,2.95V309.2c0,1.69.43,2.06,3.68,2.43v2.49h-14.67v-2.49c3.6-.37,4.08-.79,4.08-2.55V291.66c0-1.58-.25-2-1.87-2.37l-2.21-.54v-2.27l10.85-1.33Z"/><path d="M1459.45,303.81c0,4.45,2.33,6.83,6.26,6.83a6.73,6.73,0,0,0,5.87-2.95v-16c0-1.58-.26-2-1.85-2.37l-2.23-.54v-2.27l11-1.33V308c0,1.55.26,2,1.9,2.37l2.18.54v2.24l-10.87,1.3v-4.53c-1.62,2.72-4.9,4.84-9.46,4.84-5.81,0-9.72-3.45-9.72-9.43V291.66c0-1.58-.25-2-1.89-2.37l-2.18-.54v-2.27l11-1.33Z"/><path d="M1498,289.65a10.94,10.94,0,0,1,9.54-4.78c4.19,0,7.45,1.67,8.84,5.07,1.84-3.23,5.26-5.07,9.65-5.07,6,0,10,3.42,10,9.46v14.75c0,1.76.48,2.18,4.08,2.55v2.49h-14.64v-2.49c3.23-.37,3.65-.74,3.65-2.43V295.8c0-4.45-2.32-6.8-6.23-6.8a7,7,0,0,0-6,2.66,14.13,14.13,0,0,1,.2,2.24v15.3c0,1.69.42,2.06,3.68,2.43v2.49h-14.25v-2.49c3.23-.37,3.66-.74,3.66-2.43V295.8c0-4.45-2.27-6.8-6.07-6.8a6.9,6.9,0,0,0-6,2.89V309.2c0,1.69.42,2.06,3.68,2.43v2.49h-14.67v-2.49c3.6-.37,4.08-.79,4.08-2.55V291.66c0-1.58-.26-2-1.87-2.37l-2.21-.54v-2.27l10.85-1.33Z"/><path d="M1546,300v-5.21h16.11V300Z"/><path d="M376.17,359.25c1.87-2.92,5.24-4.78,9.55-4.78s7.44,1.67,8.83,5.07c1.84-3.23,5.27-5.07,9.66-5.07,6,0,10,3.42,10,9.45v14.76c0,1.76.48,2.18,4.08,2.55v2.49H403.61v-2.49c3.23-.37,3.66-.74,3.66-2.44V365.4c0-4.45-2.32-6.8-6.23-6.8a7,7,0,0,0-6,2.66,13,13,0,0,1,.2,2.24v15.29c0,1.7.42,2.07,3.68,2.44v2.49H384.7v-2.49c3.23-.37,3.65-.74,3.65-2.44V365.4c0-4.45-2.27-6.8-6.06-6.8a6.9,6.9,0,0,0-6,2.89v17.3c0,1.7.43,2.07,3.69,2.44v2.49H365.33v-2.49c3.59-.37,4.07-.79,4.07-2.55V361.26c0-1.58-.25-2-1.87-2.38l-2.2-.53v-2.27l10.84-1.33Z"/><path d="M419.56,357.61v-2.49h15.12v2.49c-3.79.34-4.36,1-3.2,4.16l5.35,14.42,5.61-14.42c1.25-3.23.65-3.85-3.17-4.16v-2.49h11.52v2.49c-2.86.42-3.42.79-5,4.64L439.3,378,437,383.72l-4.73,13H425.9v-.14c1.93-3.32,5-8.64,7.31-12.86l-8.78-21.52C423,358.74,422.33,358.18,419.56,357.61Z"/><path d="M503,359.31c1.61-2.72,5-4.84,9.68-4.84,6,0,10,3.39,10,9.23v15c0,1.76.46,2.18,4.08,2.55v2.49H512.06v-2.49c3.23-.37,3.66-.74,3.66-2.44V365.26c0-4.34-2.41-6.66-6.35-6.66a7.16,7.16,0,0,0-6.23,2.95v17.24c0,1.7.43,2.07,3.68,2.44v2.49H492.15v-2.49c3.6-.37,4.08-.79,4.08-2.55V361.26c0-1.58-.25-2-1.87-2.38l-2.21-.53v-2.27L503,354.75Z"/><path d="M542.14,378.68c0,1.76.48,2.18,4.08,2.55v2.49H531.15v-2.49c3.6-.37,4.08-.79,4.08-2.55V361.26c0-1.58-.26-2-1.87-2.38l-2.21-.53v-2.27l11-1.33Zm-8.24-33.36a4.16,4.16,0,1,1,4.16,4A4,4,0,0,1,533.9,345.32Z"/><path d="M568.13,384.34a11,11,0,0,1-8.83-4l-2.83,3.43h-2.72V348c0-1.56-.26-2-1.87-2.38l-2.21-.56v-2.21l11-1.33v17.92c1.53-2.94,5.24-4.95,9.46-4.95,6.34,0,11.66,5.46,11.66,14.58S575.75,384.34,568.13,384.34Zm-1.44-25.74c-2.75,0-5,1.13-6,3.12v16.42a6.74,6.74,0,0,0,5.77,2.75c4.82,0,8.19-4.19,8.19-11.27C574.62,362.71,571.48,358.6,566.69,358.6Z"/><path d="M598.55,359.17c1.64-2.67,5-4.7,9.54-4.7,5.95,0,10,3.39,10,9.23v15c0,1.76.46,2.18,4.08,2.55v2.49H607.47v-2.49c3.23-.37,3.65-.74,3.65-2.44V365.26c0-4.34-2.4-6.66-6.34-6.66a7.16,7.16,0,0,0-6.23,2.95v17.24c0,1.7.42,2.07,3.68,2.44v2.49H587.56v-2.49c3.6-.37,4.08-.79,4.08-2.55V348c0-1.56-.25-2-1.87-2.38l-2.21-.56v-2.21l11-1.36Z"/><path d="M679.53,354.49c7.93,0,12.4,4.76,12.4,12.44a21.27,21.27,0,0,1-.11,2.18H672.45c.48,6.88,4.81,11.13,11.38,11.13a11.53,11.53,0,0,0,7.37-2.55v2.49c-2.16,2.46-6.18,4.19-11.16,4.19-8.27,0-14.64-5.49-14.64-14.72C665.4,360.64,671.23,354.49,679.53,354.49Zm-7.08,11.76h13v-.2c0-5.33-2.18-8.24-6-8.24S672.84,360.53,672.45,366.25Z"/><path d="M707.9,373.41c0,4.45,2.33,6.83,6.26,6.83a6.73,6.73,0,0,0,5.87-2.95v-16c0-1.58-.26-2-1.85-2.38l-2.23-.53v-2.27l11-1.33V377.6c0,1.56.26,2,1.9,2.38l2.18.54v2.24l-10.87,1.3v-4.53c-1.62,2.72-4.9,4.84-9.46,4.84-5.81,0-9.72-3.45-9.72-9.43V361.26c0-1.58-.25-2-1.89-2.38l-2.18-.53v-2.27l11-1.33Z"/><path d="M746.59,378.68c0,1.76.48,2.18,4.08,2.55v2.49H735.6v-2.49c3.6-.37,4.08-.79,4.08-2.55V361.26c0-1.58-.26-2-1.87-2.38l-2.21-.53v-2.27l11-1.33Zm-8.24-33.36a4.16,4.16,0,1,1,4.16,4A4,4,0,0,1,738.35,345.32Z"/><path d="M768.25,354.47c4.53,0,7.93,1,9.75,2.15l.19,7.13H775.9a7.24,7.24,0,0,0-7.53-5.94c-3.4,0-5.64,1.44-5.64,3.85s2,3.51,5.44,4.42l2.46.65c5.55,1.44,8.7,4,8.7,8.81,0,5.29-5.13,8.72-12.07,8.72a21.62,21.62,0,0,1-10.93-2.61l-.2-7.3h2.32c1,4.24,4.22,6.57,8.64,6.57,3.66,0,5.89-1.73,5.89-4.17s-1.47-3.54-5.26-4.56l-2.5-.65c-5.32-1.38-8.83-3.91-8.83-8.61C756.39,357.72,761,354.47,768.25,354.47Z"/><path d="M795.81,359.25a10.92,10.92,0,0,1,9.54-4.78c4.19,0,7.45,1.67,8.84,5.07,1.84-3.23,5.27-5.07,9.65-5.07,5.95,0,10,3.42,10,9.45v14.76c0,1.76.49,2.18,4.08,2.55v2.49H823.25v-2.49c3.23-.37,3.65-.74,3.65-2.44V365.4c0-4.45-2.32-6.8-6.23-6.8a7,7,0,0,0-6,2.66,14.13,14.13,0,0,1,.2,2.24v15.29c0,1.7.42,2.07,3.68,2.44v2.49H804.33v-2.49c3.23-.37,3.66-.74,3.66-2.44V365.4c0-4.45-2.27-6.8-6.06-6.8a6.9,6.9,0,0,0-6,2.89v17.3c0,1.7.42,2.07,3.68,2.44v2.49H785v-2.49c3.6-.37,4.08-.79,4.08-2.55V361.26c0-1.58-.26-2-1.87-2.38l-2.21-.53v-2.27l10.85-1.33Z"/><path d="M843.21,369.56c0-8.92,6.49-15.09,15.27-15.09,8.58,0,14.84,6.08,14.84,14.81,0,8.89-6.52,15.09-15.29,15.09C849.47,384.37,843.21,378.28,843.21,369.56Zm22.77.26c0-7.37-3.34-12-8-12S850.55,362,850.55,369c0,7.37,3.31,12,7.93,12S866,376.81,866,369.82Z"/><path d="M893.43,354.47a10.92,10.92,0,0,1,7.64,2.91V348c0-1.56-.25-2-1.84-2.38L897,345v-2.21l11-1.33v36.1c0,1.56.26,2,1.93,2.38l2.15.54v2.24l-10.85,1.3V379.3c-1.56,3-5.29,5.07-9.57,5.07-6.37,0-11.7-5.46-11.7-14.58S885.89,354.47,893.43,354.47Zm1.67,25.77a6.47,6.47,0,0,0,6-3.12V360.67c-.85-1.5-3-2.75-5.83-2.75-4.73,0-8.1,4.19-8.1,11.27S890.28,380.24,895.1,380.24Z"/><path d="M958.06,358.52h-3.82v-1.9l9.23-7.17h1.45v5.84l8.78-.17v3.4l-8.78-.15v15.55c0,4.9,2.21,6.43,5.26,6.43a7.63,7.63,0,0,0,4-1.05v2.49c-1.42,1.45-4.36,2.58-7.68,2.58-4.53,0-8.41-2.46-8.41-9.12Z"/><path d="M989.05,378.68c0,1.76.48,2.18,4.07,2.55v2.49H978.06v-2.49c3.59-.37,4.08-.79,4.08-2.55V361.26c0-1.58-.26-2-1.87-2.38l-2.21-.53v-2.27l11-1.33Zm-8.25-33.36a4.17,4.17,0,1,1,4.17,4A4,4,0,0,1,980.8,345.32Z"/><path d="M1008.56,359.31c1.61-2.72,5-4.84,9.68-4.84,6,0,10,3.39,10,9.23v15c0,1.76.45,2.18,4.08,2.55v2.49h-14.67v-2.49c3.23-.37,3.65-.74,3.65-2.44V365.26c0-4.34-2.4-6.66-6.34-6.66a7.16,7.16,0,0,0-6.23,2.95v17.24c0,1.7.42,2.07,3.68,2.44v2.49H997.71v-2.49c3.6-.37,4.08-.79,4.08-2.55V361.26c0-1.58-.26-2-1.87-2.38l-2.21-.53v-2.27l10.85-1.33Z"/><path d="M1037.58,369.65c0-9.52,7-15.18,15-15.18,6.91,0,10.23,3.28,10.23,7.16a3.64,3.64,0,0,1-3.69,3.82,3.62,3.62,0,0,1-1.64-6.85,8.67,8.67,0,0,0-4-.79c-4.9,0-8.69,3.91-8.69,10.59,0,7.31,4.44,11.84,10.9,11.84a11.52,11.52,0,0,0,7.33-2.55v2.49c-2.09,2.44-6.08,4.19-11,4.19C1044,384.37,1037.58,378.71,1037.58,369.65Z"/><path d="M1079,378.68c0,1.76.48,2.18,4.08,2.55v2.49H1068v-2.49c3.6-.37,4.08-.79,4.08-2.55V361.26c0-1.58-.26-2-1.87-2.38l-2.21-.53v-2.27l11-1.33Zm-8.24-33.36a4.16,4.16,0,1,1,4.16,4A4,4,0,0,1,1070.72,345.32Z"/><path d="M1102,354.47a10.93,10.93,0,0,1,7.65,2.91V348c0-1.56-.25-2-1.84-2.38l-2.24-.56v-2.21l11-1.33v36.1c0,1.56.25,2,1.93,2.38l2.15.54v2.24l-10.85,1.3V379.3c-1.56,3-5.3,5.07-9.57,5.07-6.37,0-11.7-5.46-11.7-14.58S1094.42,354.47,1102,354.47Zm1.68,25.77a6.47,6.47,0,0,0,6-3.12V360.67c-.85-1.5-3-2.75-5.83-2.75-4.73,0-8.1,4.19-8.1,11.27S1098.81,380.24,1103.63,380.24Z"/><path d="M1135.37,373.41c0,4.45,2.32,6.83,6.26,6.83a6.71,6.71,0,0,0,5.86-2.95v-16c0-1.58-.25-2-1.84-2.38l-2.23-.53v-2.27l11-1.33V377.6c0,1.56.26,2,1.9,2.38l2.18.54v2.24l-10.87,1.3v-4.53c-1.62,2.72-4.9,4.84-9.46,4.84-5.81,0-9.72-3.45-9.72-9.43V361.26c0-1.58-.25-2-1.9-2.38l-2.18-.53v-2.27l11-1.33Z"/><path d="M1173.92,359.31c1.61-2.72,5-4.84,9.68-4.84,6,0,10,3.39,10,9.23v15c0,1.76.45,2.18,4.08,2.55v2.49H1183v-2.49c3.23-.37,3.65-.74,3.65-2.44V365.26c0-4.34-2.41-6.66-6.34-6.66a7.16,7.16,0,0,0-6.23,2.95v17.24c0,1.7.42,2.07,3.68,2.44v2.49h-14.67v-2.49c3.6-.37,4.08-.79,4.08-2.55V361.26c0-1.58-.26-2-1.87-2.38l-2.21-.53v-2.27l10.85-1.33Z"/><path d="M1205.52,358.52h-3.82v-1.9l9.23-7.17h1.44v5.84l8.78-.17v3.4l-8.78-.15v15.55c0,4.9,2.21,6.43,5.27,6.43a7.66,7.66,0,0,0,4-1.05v2.49c-1.42,1.45-4.37,2.58-7.68,2.58-4.53,0-8.41-2.46-8.41-9.12Z"/><path d="M1273.67,373.41c0,4.45,2.32,6.83,6.26,6.83a6.71,6.71,0,0,0,5.86-2.95v-16c0-1.58-.25-2-1.84-2.38l-2.24-.53v-2.27l11-1.33V377.6c0,1.56.25,2,1.9,2.38l2.18.54v2.24l-10.88,1.3v-4.53c-1.61,2.72-4.9,4.84-9.46,4.84-5.8,0-9.71-3.45-9.71-9.43V361.26c0-1.58-.26-2-1.9-2.38l-2.18-.53v-2.27l11-1.33Z"/><path d="M1304.82,358.52H1301v-1.9l9.23-7.17h1.44v5.84l8.78-.17v3.4l-8.78-.15v15.55c0,4.9,2.21,6.43,5.27,6.43a7.63,7.63,0,0,0,4-1.05v2.49c-1.42,1.45-4.36,2.58-7.68,2.58-4.53,0-8.41-2.46-8.41-9.12Z"/><path d="M1373.76,378.68c0,1.76.48,2.18,4.08,2.55v2.49h-15.07v-2.49c3.6-.37,4.08-.79,4.08-2.55V348c0-1.56-.25-2-1.87-2.38l-2.21-.56v-2.21l11-1.33Z"/><path d="M1383.11,377.09c0-4.58,3.2-7.39,11.21-9.14l6.63-1.45v-2c0-4.95-2.69-6.65-6.71-6.65a10.69,10.69,0,0,0-4.31.82,3.37,3.37,0,0,1,1.42,2.77,3.67,3.67,0,0,1-7.31,0c0-4,5.44-6.91,12.38-6.91s11.33,2.91,11.33,9.37v13.48c0,2.49,1.38,3.37,3,3.37a4.13,4.13,0,0,0,1.55-.25v2.32a9,9,0,0,1-5,1.44c-3.06,0-5.38-1.5-6.09-4.13-1.69,2.35-5.23,4.3-9.57,4.3C1386.65,384.37,1383.11,381.31,1383.11,377.09Zm12,3.43a7,7,0,0,0,5.86-2.75v-8.35l-3.77.79c-5.21,1.16-7.19,2.83-7.19,5.72S1392.14,380.52,1395.09,380.52Z"/><path d="M1417.12,369.56c0-8.92,6.48-15.09,15.26-15.09,8.59,0,14.84,6.08,14.84,14.81,0,8.89-6.51,15.09-15.29,15.09C1423.38,384.37,1417.12,378.28,1417.12,369.56Zm22.77.26c0-7.37-3.34-12-8-12s-7.48,4.22-7.48,11.21c0,7.37,3.32,12,7.93,12S1439.89,376.81,1439.89,369.82Z"/><path d="M1463.85,361.21c3.31-4.48,6-6.63,8.75-6.63,2.49,0,3.43,1.73,3.43,3.74a4.7,4.7,0,0,1-.6,2.46,11.81,11.81,0,0,0-3.26-.37c-3.22,0-6.76,1.11-8.18,2.69v15.21c0,2.15.51,2.55,4.56,2.92v2.49H1453v-2.49c3.6-.37,4.08-.79,4.08-2.55V361.26c0-1.58-.26-2-1.87-2.38l-2.21-.53v-2.27l10.88-1.33Z"/><path d="M1493.72,354.49c7.93,0,12.41,4.76,12.41,12.44,0,.82-.06,1.64-.11,2.18h-19.38c.49,6.88,4.82,11.13,11.39,11.13a11.48,11.48,0,0,0,7.36-2.55v2.49c-2.15,2.46-6.17,4.19-11.16,4.19-8.26,0-14.64-5.49-14.64-14.72C1479.59,360.64,1485.43,354.49,1493.72,354.49Zm-7.08,11.76h13.06v-.2c0-5.33-2.18-8.24-6-8.24S1487,360.53,1486.64,366.25Z"/><path d="M1526.92,354.49c7.92,0,12.4,4.76,12.4,12.44,0,.82-.06,1.64-.11,2.18h-19.37c.48,6.88,4.81,11.13,11.38,11.13a11.48,11.48,0,0,0,7.36-2.55v2.49c-2.15,2.46-6.17,4.19-11.15,4.19-8.27,0-14.65-5.49-14.65-14.72C1512.78,360.64,1518.62,354.49,1526.92,354.49Zm-7.08,11.76h13.05v-.2c0-5.33-2.18-8.24-6-8.24S1520.23,360.53,1519.84,366.25Z"/><path d="M1548.55,358.52h-3.82v-1.9l9.23-7.17h1.44v5.84l8.78-.17v3.4l-8.78-.15v15.55c0,4.9,2.21,6.43,5.27,6.43a7.63,7.63,0,0,0,4-1.05v2.49c-1.42,1.45-4.36,2.58-7.68,2.58-4.53,0-8.41-2.46-8.41-9.12Z"/><path d="M379.66,424.06A10.92,10.92,0,0,1,387.3,427v-9.4c0-1.56-.25-2-1.84-2.38l-2.24-.57v-2.21l11-1.33V447.2c0,1.56.26,2,1.93,2.38l2.15.54v2.24l-10.85,1.3V448.9c-1.56,3-5.29,5.07-9.57,5.07-6.37,0-11.7-5.47-11.7-14.58S372.12,424.06,379.66,424.06Zm1.67,25.78a6.49,6.49,0,0,0,6-3.12V430.27c-.85-1.5-3-2.75-5.83-2.75-4.73,0-8.1,4.19-8.1,11.27S376.51,449.84,381.33,449.84Z"/><path d="M403.76,439.16c0-8.92,6.48-15.1,15.26-15.1,8.58,0,14.84,6.09,14.84,14.82,0,8.89-6.51,15.09-15.29,15.09C410,454,403.76,447.88,403.76,439.16Zm22.76.25c0-7.36-3.34-12-7.95-12s-7.48,4.22-7.48,11.21c0,7.36,3.31,12,7.93,12S426.52,446.41,426.52,439.41Z"/><path d="M450.62,448.28c0,1.75.49,2.18,4.08,2.55v2.49H439.64v-2.49c3.59-.37,4.07-.8,4.07-2.55v-30.7c0-1.56-.25-2-1.87-2.38l-2.2-.57v-2.21l11-1.33Z"/><path d="M460.17,439.16c0-8.92,6.48-15.1,15.26-15.1,8.58,0,14.84,6.09,14.84,14.82,0,8.89-6.51,15.09-15.29,15.09C466.43,454,460.17,447.88,460.17,439.16Zm22.77.25c0-7.36-3.34-12-8-12s-7.48,4.22-7.48,11.21c0,7.36,3.32,12,7.93,12S482.94,446.41,482.94,439.41Z"/><path d="M506.9,430.8c3.31-4.47,6-6.62,8.75-6.62,2.49,0,3.42,1.72,3.42,3.74a4.71,4.71,0,0,1-.59,2.46,11.86,11.86,0,0,0-3.26-.37c-3.23,0-6.77,1.11-8.18,2.69v15.21c0,2.15.51,2.55,4.56,2.92v2.49H496.05v-2.49c3.6-.37,4.08-.8,4.08-2.55V430.86c0-1.59-.26-2-1.87-2.38l-2.21-.54v-2.26l10.87-1.33Z"/><path d="M536.77,424.09c7.93,0,12.41,4.76,12.41,12.43a21,21,0,0,1-.12,2.19H529.69c.48,6.88,4.82,11.13,11.39,11.13a11.58,11.58,0,0,0,7.36-2.55v2.49c-2.15,2.46-6.17,4.19-11.16,4.19-8.27,0-14.64-5.49-14.64-14.73C522.64,430.24,528.47,424.09,536.77,424.09Zm-7.08,11.76h13.06v-.2c0-5.33-2.18-8.24-6-8.24S530.09,430.12,529.69,435.85Z"/><path d="M591.61,428.85c1.86-2.92,5.23-4.79,9.54-4.79s7.45,1.67,8.84,5.07c1.84-3.23,5.26-5.07,9.65-5.07,6,0,10,3.43,10,9.46v14.76c0,1.75.48,2.18,4.08,2.55v2.49H619.05v-2.49c3.23-.37,3.65-.74,3.65-2.44V435c0-4.45-2.32-6.8-6.23-6.8a7,7,0,0,0-6,2.66,14.17,14.17,0,0,1,.19,2.24v15.29c0,1.7.43,2.07,3.69,2.44v2.49H600.13v-2.49c3.23-.37,3.65-.74,3.65-2.44V435c0-4.45-2.26-6.8-6.06-6.8a6.9,6.9,0,0,0-6,2.89v17.3c0,1.7.42,2.07,3.68,2.44v2.49H580.76v-2.49c3.6-.37,4.08-.8,4.08-2.55V430.86c0-1.59-.26-2-1.87-2.38l-2.21-.54v-2.26l10.85-1.33Z"/><path d="M638.81,446.69c0-4.59,3.2-7.39,11.22-9.15l6.63-1.44v-2c0-5-2.69-6.65-6.72-6.65a10.67,10.67,0,0,0-4.3.82,3.36,3.36,0,0,1,1.41,2.77,3.66,3.66,0,0,1-7.3,0c0-4,5.44-6.91,12.37-6.91s11.33,2.92,11.33,9.38v13.48c0,2.49,1.39,3.37,3,3.37A4.17,4.17,0,0,0,668,450v2.33a9,9,0,0,1-5,1.44c-3.06,0-5.38-1.5-6.09-4.13-1.7,2.35-5.24,4.3-9.57,4.3C642.35,454,638.81,450.91,638.81,446.69Zm12,3.43a7,7,0,0,0,5.87-2.75V439l-3.77.79c-5.21,1.16-7.19,2.83-7.19,5.72S647.85,450.12,650.79,450.12Z"/><path d="M686,424.06a16.28,16.28,0,0,1,6.54,1.25l10.45-.59v3.39l-7.14-.39a7.72,7.72,0,0,1,3,6.26c0,6.11-5.87,9.71-12.61,9.71a22.82,22.82,0,0,1-3.48-.31c-2.21.73-3.14,1.84-3.14,3.14,0,1.7,1.5,2.61,4.27,2.61h6.88c6.94,0,10.94,2.89,10.94,7.84,0,6-6.21,10.25-15.5,10.25s-14.27-3-14.27-7.33c0-2.83,2.69-5,7.93-5.86-3.51-.26-6.12-2.1-6.12-5s2.47-5.07,6.63-6.34c-4.05-1-7.19-4.11-7.19-8.61C673.14,428.17,678.6,424.06,686,424.06Zm.45,39.82c5.55,0,9-2.26,9-5.29,0-2.38-1.79-3.91-6.06-3.91H682.4c-2.72.48-4.25,2-4.25,4.25C678.15,461.84,681.12,463.88,686.42,463.88Zm-.23-23.25c3.23,0,5.72-2.75,5.72-6.6,0-4.27-2.35-6.91-6.11-6.91-3.43,0-5.72,2.81-5.72,6.6C680.08,438.17,682.77,440.63,686.19,440.63Z"/><path d="M717.57,428.91c1.61-2.72,5-4.85,9.69-4.85,5.94,0,10,3.4,10,9.24v15c0,1.75.46,2.18,4.08,2.55v2.49H726.63v-2.49c3.23-.37,3.66-.74,3.66-2.44V434.85c0-4.33-2.41-6.65-6.35-6.65a7.18,7.18,0,0,0-6.23,2.94v17.25c0,1.7.43,2.07,3.68,2.44v2.49H706.72v-2.49c3.6-.37,4.08-.8,4.08-2.55V430.86c0-1.59-.25-2-1.87-2.38l-2.21-.54v-2.26l10.85-1.33Z"/><path d="M746.4,446.69c0-4.59,3.2-7.39,11.21-9.15l6.63-1.44v-2c0-5-2.69-6.65-6.71-6.65a10.72,10.72,0,0,0-4.31.82,3.37,3.37,0,0,1,1.42,2.77,3.67,3.67,0,0,1-7.31,0c0-4,5.44-6.91,12.38-6.91S771,427,771,433.44v13.48c0,2.49,1.39,3.37,3,3.37a4.2,4.2,0,0,0,1.56-.26v2.33a9,9,0,0,1-5,1.44c-3.06,0-5.39-1.5-6.09-4.13-1.7,2.35-5.24,4.3-9.58,4.3C749.94,454,746.4,450.91,746.4,446.69Zm12,3.43a7,7,0,0,0,5.86-2.75V439l-3.77.79c-5.21,1.16-7.19,2.83-7.19,5.72S755.43,450.12,758.38,450.12Z"/><path d="M806,446.69c0-4.59,3.2-7.39,11.21-9.15l6.63-1.44v-2c0-5-2.69-6.65-6.71-6.65a10.69,10.69,0,0,0-4.31.82,3.37,3.37,0,0,1,1.42,2.77,3.67,3.67,0,0,1-7.31,0c0-4,5.44-6.91,12.38-6.91s11.33,2.92,11.33,9.38v13.48c0,2.49,1.39,3.37,3,3.37a4.2,4.2,0,0,0,1.56-.26v2.33a9.05,9.05,0,0,1-5,1.44c-3.05,0-5.38-1.5-6.08-4.13-1.7,2.35-5.24,4.3-9.58,4.3C809.56,454,806,450.91,806,446.69Zm12,3.43a7,7,0,0,0,5.86-2.75V439l-3.77.79c-5.21,1.16-7.19,2.83-7.19,5.72S815.05,450.12,818,450.12Z"/><path d="M850.14,448.28c0,1.75.48,2.18,4.08,2.55v2.49H839.15v-2.49c3.6-.37,4.08-.8,4.08-2.55v-30.7c0-1.56-.25-2-1.87-2.38l-2.21-.57v-2.21l11-1.33Z"/><path d="M869.8,448.28c0,1.75.48,2.18,4.07,2.55v2.49H858.81v-2.49c3.59-.37,4.08-.8,4.08-2.55V430.86c0-1.59-.26-2-1.87-2.38l-2.21-.54v-2.26l11-1.33Zm-8.25-33.36a4.17,4.17,0,1,1,4.17,4A4,4,0,0,1,861.55,414.92Z"/><path d="M893,424a11.23,11.23,0,0,1,8.83,4l2.81-3.37h2.75v36.59c0,1.75.45,2.18,4.07,2.54v2.5H895.91v-2.5c4.07-.36,4.5-.76,4.53-2.91l.17-12.12c-1.56,3-5.3,5.09-9.58,5.09-6.37,0-11.69-5.43-11.69-14.55S885.34,424,893,424Zm1.47,25.77c2.69,0,5-1.16,6-3.15V430.21a6.74,6.74,0,0,0-5.75-2.72c-4.79,0-8.19,4.19-8.19,11.27S889.65,449.81,894.46,449.81Z"/><path d="M925.44,443c0,4.45,2.32,6.83,6.26,6.83a6.72,6.72,0,0,0,5.86-2.95v-16c0-1.59-.25-2-1.84-2.38l-2.23-.54v-2.26l11-1.33V447.2c0,1.56.26,2,1.9,2.38l2.18.54v2.24l-10.87,1.3v-4.53c-1.62,2.72-4.9,4.84-9.46,4.84-5.81,0-9.72-3.45-9.72-9.43V430.86c0-1.59-.25-2-1.89-2.38l-2.19-.54v-2.26l11-1.33Z"/><path d="M953.82,446.69c0-4.59,3.2-7.39,11.21-9.15l6.63-1.44v-2c0-5-2.69-6.65-6.71-6.65a10.69,10.69,0,0,0-4.31.82,3.37,3.37,0,0,1,1.42,2.77,3.67,3.67,0,0,1-7.31,0c0-4,5.44-6.91,12.38-6.91s11.33,2.92,11.33,9.38v13.48c0,2.49,1.38,3.37,3,3.37a4.2,4.2,0,0,0,1.56-.26v2.33a9.05,9.05,0,0,1-5,1.44c-3,0-5.38-1.5-6.08-4.13-1.7,2.35-5.24,4.3-9.58,4.3C957.36,454,953.82,450.91,953.82,446.69Zm12,3.43a7,7,0,0,0,5.86-2.75V439l-3.77.79c-5.21,1.16-7.19,2.83-7.19,5.72S962.85,450.12,965.8,450.12Z"/><path d="M997.8,428.85a10.93,10.93,0,0,1,9.54-4.79c4.19,0,7.45,1.67,8.84,5.07,1.84-3.23,5.27-5.07,9.66-5.07,5.94,0,10,3.43,10,9.46v14.76c0,1.75.49,2.18,4.08,2.55v2.49h-14.64v-2.49c3.23-.37,3.65-.74,3.65-2.44V435c0-4.45-2.32-6.8-6.23-6.8a7,7,0,0,0-6,2.66,14.13,14.13,0,0,1,.2,2.24v15.29c0,1.7.42,2.07,3.68,2.44v2.49h-14.25v-2.49c3.23-.37,3.66-.74,3.66-2.44V435c0-4.45-2.27-6.8-6.06-6.8a6.9,6.9,0,0,0-6,2.89v17.3c0,1.7.43,2.07,3.68,2.44v2.49H987v-2.49c3.6-.37,4.08-.8,4.08-2.55V430.86c0-1.59-.25-2-1.87-2.38l-2.21-.54v-2.26l10.85-1.33Z"/><path d="M1085.14,424.09c7.93,0,12.41,4.76,12.41,12.43a21,21,0,0,1-.12,2.19h-19.37c.48,6.88,4.82,11.13,11.39,11.13a11.58,11.58,0,0,0,7.36-2.55v2.49c-2.15,2.46-6.17,4.19-11.16,4.19-8.27,0-14.64-5.49-14.64-14.73C1071,430.24,1076.84,424.09,1085.14,424.09Zm-7.08,11.76h13.06v-.2c0-5.33-2.18-8.24-6-8.24S1078.46,430.12,1078.06,435.85Z"/><path d="M1114.17,430.8c3.31-4.47,6-6.62,8.75-6.62,2.49,0,3.43,1.72,3.43,3.74a4.7,4.7,0,0,1-.6,2.46,11.78,11.78,0,0,0-3.25-.37c-3.23,0-6.77,1.11-8.19,2.69v15.21c0,2.15.51,2.55,4.56,2.92v2.49h-15.55v-2.49c3.6-.37,4.08-.8,4.08-2.55V430.86c0-1.59-.25-2-1.87-2.38l-2.21-.54v-2.26l10.88-1.33Z"/><path d="M1131.08,446.69c0-4.59,3.2-7.39,11.21-9.15l6.63-1.44v-2c0-5-2.69-6.65-6.71-6.65a10.69,10.69,0,0,0-4.31.82,3.37,3.37,0,0,1,1.42,2.77,3.67,3.67,0,0,1-7.31,0c0-4,5.44-6.91,12.38-6.91s11.33,2.92,11.33,9.38v13.48c0,2.49,1.38,3.37,3,3.37a4.11,4.11,0,0,0,1.55-.26v2.33a9,9,0,0,1-5,1.44c-3.06,0-5.38-1.5-6.09-4.13-1.7,2.35-5.24,4.3-9.57,4.3C1134.62,454,1131.08,450.91,1131.08,446.69Zm12,3.43a7,7,0,0,0,5.86-2.75V439l-3.77.79c-5.21,1.16-7.19,2.83-7.19,5.72S1140.11,450.12,1143.06,450.12Z"/><path d="M1167.67,428.11h-3.83v-1.89l9.24-7.17h1.44v5.84l8.78-.17v3.39l-8.78-.14v15.55c0,4.9,2.21,6.43,5.27,6.43a7.69,7.69,0,0,0,4-1.05v2.49c-1.41,1.45-4.36,2.58-7.67,2.58-4.53,0-8.41-2.46-8.41-9.12Z"/><path d="M1212,427.21v-2.49h15.3v2.49c-3.77.31-4.42,1-3.23,4.16l5.52,14.78,5.55-14.78c1.19-3.2.54-3.85-3.26-4.16v-2.49h11.45v2.49c-2.81.42-3.35.82-4.9,4.64l-8.64,21.47h-4.25l-8.64-21.5C1215.45,428.37,1214.77,427.77,1212,427.21Z"/><path d="M1245.35,439.16c0-8.92,6.49-15.1,15.27-15.1,8.58,0,14.84,6.09,14.84,14.82,0,8.89-6.52,15.09-15.3,15.09C1251.61,454,1245.35,447.88,1245.35,439.16Zm22.77.25c0-7.36-3.34-12-8-12s-7.47,4.22-7.47,11.21c0,7.36,3.31,12,7.93,12S1268.12,446.41,1268.12,439.41Z"/><path d="M1292.22,448.28c0,1.75.48,2.18,4.08,2.55v2.49h-15.07v-2.49c3.6-.37,4.08-.8,4.08-2.55v-30.7c0-1.56-.25-2-1.87-2.38l-2.21-.57v-2.21l11-1.33Z"/><path d="M1311.08,443c0,4.45,2.32,6.83,6.26,6.83a6.74,6.74,0,0,0,5.86-2.95v-16c0-1.59-.25-2-1.84-2.38l-2.23-.54v-2.26l11-1.33V447.2c0,1.56.26,2,1.9,2.38l2.18.54v2.24l-10.88,1.3v-4.53c-1.61,2.72-4.89,4.84-9.45,4.84-5.81,0-9.72-3.45-9.72-9.43V430.86c0-1.59-.25-2-1.9-2.38l-2.18-.54v-2.26l11-1.33Z"/><path d="M1342.23,428.11h-3.82v-1.89l9.23-7.17h1.45v5.84l8.78-.17v3.39l-8.78-.14v15.55c0,4.9,2.21,6.43,5.26,6.43a7.73,7.73,0,0,0,4-1.05v2.49c-1.42,1.45-4.36,2.58-7.68,2.58-4.53,0-8.41-2.46-8.41-9.12Z"/><path d="M1380.35,454a11.09,11.09,0,0,1-7.67-2.92v9.89c0,2.15.48,2.55,4.56,2.91v2.5h-15.55v-2.5c3.62-.36,4.08-.79,4.08-2.54V430.86c0-1.59-.26-2-1.87-2.38l-2.21-.54v-2.26l10.85-1.33v4.84c1.55-3,5.29-5.13,9.57-5.13,6.37,0,11.69,5.47,11.69,14.59S1387.89,454,1380.35,454Zm-1.67-25.77a6.53,6.53,0,0,0-6,3.11v16.43c.85,1.53,3,2.78,5.86,2.78,4.73,0,8.1-4.2,8.1-11.28S1383.47,428.2,1378.68,428.2Z"/><path d="M1400.26,446.69c0-4.59,3.2-7.39,11.21-9.15l6.63-1.44v-2c0-5-2.69-6.65-6.71-6.65a10.64,10.64,0,0,0-4.3.82,3.38,3.38,0,0,1,1.41,2.77,3.67,3.67,0,0,1-7.31,0c0-4,5.44-6.91,12.38-6.91s11.33,2.92,11.33,9.38v13.48c0,2.49,1.39,3.37,3,3.37a4.2,4.2,0,0,0,1.56-.26v2.33a9,9,0,0,1-5,1.44c-3.06,0-5.39-1.5-6.09-4.13-1.7,2.35-5.24,4.3-9.58,4.3C1403.8,454,1400.26,450.91,1400.26,446.69Zm12,3.43a7,7,0,0,0,5.86-2.75V439l-3.76.79c-5.22,1.16-7.2,2.83-7.2,5.72S1409.29,450.12,1412.24,450.12Z"/><path d="M1436.85,428.11H1433v-1.89l9.23-7.17h1.44v5.84l8.78-.17v3.39l-8.78-.14v15.55c0,4.9,2.21,6.43,5.27,6.43a7.76,7.76,0,0,0,4-1.05v2.49c-1.42,1.45-4.37,2.58-7.68,2.58-4.53,0-8.41-2.46-8.41-9.12Z"/><path d="M1458.66,449.5a4.36,4.36,0,1,1,4.36,4.36A4.36,4.36,0,0,1,1458.66,449.5Z"/><path d="M1499.1,414.92v-2.5H1516v2.5c-4.39.42-4.84,1-4.84,3.48v19.26c0,7.73,4.87,11.78,11.24,11.78,6.85,0,11.1-4.08,11-12.35l-.14-18.38c0-2.77-.51-3.37-4.87-3.79v-2.5h13.4v2.52c-4.08.43-4.59,1-4.62,3.71l-.14,19.09c-.09,10.17-6.63,16.46-16.94,16.46-8.55,0-16.48-5.24-16.48-15.86V418.26C1503.69,415.82,1503.15,415.34,1499.1,414.92Z"/><path d="M1548.55,428.11h-3.82v-1.89l9.23-7.17h1.44v5.84l8.78-.17v3.39l-8.78-.14v15.55c0,4.9,2.21,6.43,5.27,6.43a7.76,7.76,0,0,0,4-1.05v2.49c-1.42,1.45-4.37,2.58-7.68,2.58-4.53,0-8.41-2.46-8.41-9.12Z"/><path d="M363.82,496.81v-2.5h14.45v2.5c-3.17.28-3.68,1-2.64,4.16l4.62,14.22,5-14.22c1.13-3.15.53-3.94-2.33-4.16v-2.5h13.54v2.5c-2.92.22-3.4,1-2.38,4.16l4.59,14.19,4.9-14.19c1.1-3.23.59-3.91-2.63-4.16v-2.5h10.73v2.5c-2.78.42-3.4.76-4.82,4.61l-7.9,21.5h-4.27l-6.86-19.77-7.19,19.77h-4.28l-7.64-21.5C367.45,497.94,366.57,497.37,363.82,496.81Z"/><path d="M426,517.88c0,1.75.49,2.18,4.08,2.54v2.5H415v-2.5c3.59-.36,4.07-.79,4.07-2.54V500.46c0-1.59-.25-2-1.87-2.38l-2.2-.54v-2.26l11-1.34Zm-8.24-33.37a4.17,4.17,0,1,1,4.17,4A4,4,0,0,1,417.77,484.51Z"/><path d="M447.68,493.66c4.53,0,7.93,1,9.74,2.15l.2,7.14h-2.3a7.25,7.25,0,0,0-7.53-5.95c-3.4,0-5.63,1.45-5.63,3.85s2,3.52,5.43,4.42l2.47.65c5.55,1.45,8.69,4,8.69,8.81,0,5.3-5.12,8.72-12.06,8.72a21.7,21.7,0,0,1-10.93-2.6l-.2-7.31h2.32c1,4.25,4.22,6.57,8.64,6.57,3.65,0,5.89-1.72,5.89-4.16s-1.48-3.54-5.27-4.56l-2.49-.65c-5.33-1.39-8.84-3.91-8.84-8.61C435.81,496.92,440.37,493.66,447.68,493.66Z"/><path d="M475.38,517.88c0,1.75.48,2.18,4.07,2.54v2.5H464.39v-2.5c3.59-.36,4.08-.79,4.08-2.54V500.46c0-1.59-.26-2-1.87-2.38l-2.21-.54v-2.26l11-1.34Zm-8.25-33.37a4.17,4.17,0,1,1,4.17,4A4,4,0,0,1,467.13,484.51Z"/><path d="M513,493.69c7.93,0,12.41,4.76,12.41,12.43a20.76,20.76,0,0,1-.12,2.18H505.94c.48,6.89,4.82,11.13,11.39,11.13a11.53,11.53,0,0,0,7.36-2.55v2.5c-2.15,2.46-6.18,4.19-11.16,4.19-8.27,0-14.64-5.5-14.64-14.73C498.89,499.84,504.72,493.69,513,493.69Zm-7.08,11.75H519v-.2c0-5.32-2.18-8.24-6-8.24S506.34,499.72,505.94,505.44Z"/><path d="M542.05,498.5c1.61-2.71,5-4.84,9.68-4.84,5.95,0,10,3.4,10,9.23v15c0,1.75.46,2.18,4.08,2.54v2.5H551.11v-2.5c3.23-.36,3.65-.73,3.65-2.43V504.45c0-4.33-2.4-6.65-6.34-6.65a7.18,7.18,0,0,0-6.23,2.94V518c0,1.7.42,2.07,3.68,2.43v2.5H531.2v-2.5c3.6-.36,4.08-.79,4.08-2.54V500.46c0-1.59-.26-2-1.87-2.38l-2.21-.54v-2.26l10.85-1.34Z"/><path d="M581.19,517.88c0,1.75.48,2.18,4.07,2.54v2.5H570.2v-2.5c3.59-.36,4.08-.79,4.08-2.54V500.46c0-1.59-.26-2-1.87-2.38l-2.21-.54v-2.26l11-1.34Zm-8.25-33.37a4.17,4.17,0,1,1,4.17,4A4,4,0,0,1,572.94,484.51Z"/><path d="M600.7,498.45a10.93,10.93,0,0,1,9.54-4.79c4.19,0,7.45,1.67,8.84,5.07,1.84-3.23,5.27-5.07,9.66-5.07,5.94,0,10,3.43,10,9.46v14.76c0,1.75.49,2.18,4.08,2.54v2.5H628.14v-2.5c3.23-.36,3.65-.73,3.65-2.43v-13.4c0-4.44-2.32-6.79-6.23-6.79a7,7,0,0,0-6,2.66,14,14,0,0,1,.2,2.24V518c0,1.7.42,2.07,3.68,2.43v2.5H609.22v-2.5c3.23-.36,3.66-.73,3.66-2.43v-13.4c0-4.44-2.27-6.79-6.06-6.79a6.9,6.9,0,0,0-6,2.89V518c0,1.7.42,2.07,3.68,2.43v2.5H589.85v-2.5c3.6-.36,4.08-.79,4.08-2.54V500.46c0-1.59-.25-2-1.87-2.38l-2.21-.54v-2.26l10.85-1.34Z"/><path d="M661.88,516.29c0-4.59,3.2-7.39,11.21-9.15l6.63-1.44v-2c0-5-2.69-6.66-6.71-6.66a10.86,10.86,0,0,0-4.31.82,3.53,3.53,0,1,1-5.89,2.75c0-4,5.44-6.91,12.38-6.91s11.33,2.92,11.33,9.38v13.48c0,2.49,1.38,3.37,3,3.37a4.11,4.11,0,0,0,1.55-.26V522a8.91,8.91,0,0,1-5,1.45c-3.06,0-5.38-1.5-6.09-4.14-1.7,2.35-5.24,4.31-9.57,4.31C665.42,523.57,661.88,520.51,661.88,516.29Zm12,3.43a7,7,0,0,0,5.86-2.75v-8.36l-3.77.8c-5.21,1.16-7.19,2.83-7.19,5.72S670.91,519.72,673.86,519.72Z"/><path d="M709.34,493.66a11,11,0,0,1,7.65,2.92v-9.4c0-1.56-.26-2-1.84-2.38l-2.24-.57V482l11-1.33V516.8c0,1.56.25,2,1.92,2.38l2.15.54V522l-10.84,1.31V518.5c-1.56,3-5.3,5.07-9.57,5.07-6.38,0-11.7-5.47-11.7-14.59S701.81,493.66,709.34,493.66ZM711,519.43a6.5,6.5,0,0,0,6-3.11V499.86c-.85-1.5-3-2.74-5.84-2.74-4.73,0-8.1,4.19-8.1,11.27S706.2,519.43,711,519.43Z"/><path d="M757.38,498.45a10.93,10.93,0,0,1,9.55-4.79c4.19,0,7.44,1.67,8.83,5.07,1.84-3.23,5.27-5.07,9.66-5.07,6,0,10,3.43,10,9.46v14.76c0,1.75.48,2.18,4.08,2.54v2.5H784.82v-2.5c3.23-.36,3.66-.73,3.66-2.43v-13.4c0-4.44-2.33-6.79-6.23-6.79a7,7,0,0,0-6,2.66,14,14,0,0,1,.2,2.24V518c0,1.7.42,2.07,3.68,2.43v2.5H765.91v-2.5c3.22-.36,3.65-.73,3.65-2.43v-13.4c0-4.44-2.27-6.79-6.06-6.79a6.9,6.9,0,0,0-6,2.89V518c0,1.7.43,2.07,3.68,2.43v2.5H746.53v-2.5c3.6-.36,4.08-.79,4.08-2.54V500.46c0-1.59-.25-2-1.87-2.38l-2.21-.54v-2.26l10.85-1.34Z"/><path d="M814.9,517.88c0,1.75.48,2.18,4.08,2.54v2.5H803.91v-2.5c3.6-.36,4.08-.79,4.08-2.54V500.46c0-1.59-.26-2-1.87-2.38l-2.21-.54v-2.26l11-1.34Zm-8.24-33.37a4.16,4.16,0,1,1,4.16,4A4,4,0,0,1,806.66,484.51Z"/><path d="M834.41,498.5c1.61-2.71,5-4.84,9.68-4.84,5.95,0,10,3.4,10,9.23v15c0,1.75.46,2.18,4.08,2.54v2.5H843.47v-2.5c3.23-.36,3.66-.73,3.66-2.43V504.45c0-4.33-2.41-6.65-6.35-6.65a7.18,7.18,0,0,0-6.23,2.94V518c0,1.7.43,2.07,3.68,2.43v2.5H823.56v-2.5c3.6-.36,4.08-.79,4.08-2.54V500.46c0-1.59-.25-2-1.87-2.38l-2.21-.54v-2.26l10.85-1.34Z"/><path d="M873.55,517.88c0,1.75.48,2.18,4.08,2.54v2.5H862.56v-2.5c3.6-.36,4.08-.79,4.08-2.54V500.46c0-1.59-.26-2-1.87-2.38l-2.21-.54v-2.26l11-1.34Zm-8.24-33.37a4.16,4.16,0,1,1,4.16,4A4,4,0,0,1,865.31,484.51Z"/><path d="M893.06,498.45a10.93,10.93,0,0,1,9.54-4.79c4.19,0,7.45,1.67,8.84,5.07,1.84-3.23,5.27-5.07,9.66-5.07,5.94,0,10,3.43,10,9.46v14.76c0,1.75.49,2.18,4.08,2.54v2.5H920.5v-2.5c3.23-.36,3.65-.73,3.65-2.43v-13.4c0-4.44-2.32-6.79-6.23-6.79a7,7,0,0,0-6,2.66,14,14,0,0,1,.2,2.24V518c0,1.7.42,2.07,3.68,2.43v2.5H901.58v-2.5c3.23-.36,3.66-.73,3.66-2.43v-13.4c0-4.44-2.27-6.79-6.06-6.79a6.9,6.9,0,0,0-6,2.89V518c0,1.7.43,2.07,3.68,2.43v2.5H882.21v-2.5c3.6-.36,4.08-.79,4.08-2.54V500.46c0-1.59-.25-2-1.87-2.38l-2.21-.54v-2.26l10.85-1.34Z"/><path d="M952.06,496.81v-2.5h15.29v2.5c-3.77.31-4.42,1-3.23,4.16l5.52,14.78L975.2,501c1.19-3.2.53-3.85-3.26-4.16v-2.5h11.44v2.5c-2.8.42-3.34.82-4.9,4.64l-8.64,21.47h-4.25L957,501.42C955.54,498,954.86,497.37,952.06,496.81Z"/><path d="M999.58,493.69c7.93,0,12.4,4.76,12.4,12.43a21.11,21.11,0,0,1-.11,2.18H992.5c.48,6.89,4.81,11.13,11.38,11.13a11.53,11.53,0,0,0,7.37-2.55v2.5c-2.16,2.46-6.18,4.19-11.16,4.19-8.27,0-14.64-5.5-14.64-14.73C985.45,499.84,991.28,493.69,999.58,493.69Zm-7.08,11.75h13v-.2c0-5.32-2.18-8.24-6-8.24S992.89,499.72,992.5,505.44Z"/><path d="M1028.61,498.5c1.61-2.71,5-4.84,9.68-4.84,6,0,10,3.4,10,9.23v15c0,1.75.45,2.18,4.08,2.54v2.5h-14.67v-2.5c3.23-.36,3.65-.73,3.65-2.43V504.45c0-4.33-2.41-6.65-6.34-6.65a7.18,7.18,0,0,0-6.23,2.94V518c0,1.7.42,2.07,3.68,2.43v2.5h-14.67v-2.5c3.6-.36,4.08-.79,4.08-2.54V500.46c0-1.59-.26-2-1.87-2.38l-2.21-.54v-2.26l10.85-1.34Z"/><path d="M1067.74,517.88c0,1.75.48,2.18,4.08,2.54v2.5h-15.06v-2.5c3.59-.36,4.07-.79,4.07-2.54V500.46c0-1.59-.25-2-1.87-2.38l-2.2-.54v-2.26l11-1.34Zm-8.24-33.37a4.17,4.17,0,1,1,4.17,4A4,4,0,0,1,1059.5,484.51Z"/><path d="M1077.09,516.29c0-4.59,3.2-7.39,11.21-9.15l6.63-1.44v-2c0-5-2.69-6.66-6.71-6.66a10.86,10.86,0,0,0-4.31.82,3.53,3.53,0,1,1-5.89,2.75c0-4,5.44-6.91,12.38-6.91s11.33,2.92,11.33,9.38v13.48c0,2.49,1.39,3.37,3,3.37a4.2,4.2,0,0,0,1.56-.26V522a9,9,0,0,1-5,1.45c-3,0-5.38-1.5-6.08-4.14-1.7,2.35-5.24,4.31-9.58,4.31C1080.63,523.57,1077.09,520.51,1077.09,516.29Zm12,3.43a7,7,0,0,0,5.86-2.75v-8.36l-3.77.8c-5.21,1.16-7.19,2.83-7.19,5.72S1086.12,519.72,1089.07,519.72Z"/><path d="M1121.07,498.45a10.93,10.93,0,0,1,9.54-4.79c4.19,0,7.45,1.67,8.84,5.07,1.84-3.23,5.27-5.07,9.66-5.07,5.94,0,10,3.43,10,9.46v14.76c0,1.75.48,2.18,4.07,2.54v2.5h-14.64v-2.5c3.23-.36,3.66-.73,3.66-2.43v-13.4c0-4.44-2.33-6.79-6.24-6.79a7,7,0,0,0-6,2.66,14,14,0,0,1,.2,2.24V518c0,1.7.42,2.07,3.68,2.43v2.5h-14.25v-2.5c3.23-.36,3.66-.73,3.66-2.43v-13.4c0-4.44-2.27-6.79-6.06-6.79a6.9,6.9,0,0,0-6,2.89V518c0,1.7.43,2.07,3.68,2.43v2.5h-14.67v-2.5c3.6-.36,4.08-.79,4.08-2.54V500.46c0-1.59-.25-2-1.87-2.38l-2.21-.54v-2.26l10.85-1.34Z"/><path d="M1168.67,529.35c2.78-.54,5.07-2.64,5.07-5.16,0-2.24-1.84-3.74-4.44-3.88,0-3,1.64-5.55,4.47-5.55s4.79,2.63,4.79,6.32c0,5.69-4.62,9.6-9.29,10.45Z"/><path d="M1213.34,493.63a11.28,11.28,0,0,1,8.84,4.05l2.8-3.37h2.75V530.9c0,1.76.45,2.18,4.08,2.55v2.49h-15.55v-2.49c4.08-.37,4.5-.76,4.53-2.92l.17-12.12c-1.56,3-5.29,5.1-9.57,5.1-6.37,0-11.7-5.44-11.7-14.56S1205.7,493.63,1213.34,493.63Zm1.48,25.77a6.45,6.45,0,0,0,6-3.14V499.81a6.74,6.74,0,0,0-5.75-2.72c-4.78,0-8.18,4.19-8.18,11.27S1210,519.4,1214.82,519.4Z"/><path d="M1245.8,512.61c0,4.44,2.32,6.82,6.26,6.82a6.73,6.73,0,0,0,5.86-2.94v-16c0-1.59-.26-2-1.84-2.38l-2.24-.54v-2.26l11-1.34V516.8c0,1.56.25,2,1.9,2.38l2.18.54V522l-10.88,1.31v-4.53c-1.61,2.71-4.9,4.84-9.46,4.84-5.8,0-9.71-3.46-9.71-9.43V500.46c0-1.59-.26-2-1.9-2.38l-2.18-.54v-2.26l11-1.34Z"/><path d="M1284.48,517.88c0,1.75.48,2.18,4.08,2.54v2.5h-15.07v-2.5c3.6-.36,4.08-.79,4.08-2.54V500.46c0-1.59-.25-2-1.87-2.38l-2.21-.54v-2.26l11-1.34Zm-8.24-33.37a4.17,4.17,0,1,1,4.16,4A4,4,0,0,1,1276.24,484.51Z"/><path d="M1306.15,493.66c4.53,0,7.93,1,9.74,2.15l.2,7.14h-2.3a7.25,7.25,0,0,0-7.53-5.95c-3.4,0-5.64,1.45-5.64,3.85s2,3.52,5.44,4.42l2.47.65c5.55,1.45,8.69,4,8.69,8.81,0,5.3-5.13,8.72-12.06,8.72a21.77,21.77,0,0,1-10.94-2.6l-.19-7.31h2.32c1,4.25,4.22,6.57,8.64,6.57,3.65,0,5.89-1.72,5.89-4.16s-1.48-3.54-5.27-4.56l-2.49-.65c-5.33-1.39-8.84-3.91-8.84-8.61C1294.28,496.92,1298.84,493.66,1306.15,493.66Z"/><path d="M1347.67,498.5c1.62-2.71,5-4.84,9.69-4.84,5.94,0,10,3.4,10,9.23v15c0,1.75.45,2.18,4.07,2.54v2.5h-14.67v-2.5c3.23-.36,3.66-.73,3.66-2.43V504.45c0-4.33-2.41-6.65-6.35-6.65a7.18,7.18,0,0,0-6.23,2.94V518c0,1.7.43,2.07,3.69,2.43v2.5h-14.67v-2.5c3.59-.36,4.07-.79,4.07-2.54V500.46c0-1.59-.25-2-1.87-2.38l-2.2-.54v-2.26l10.84-1.34Z"/><path d="M1376.7,508.76c0-8.92,6.49-15.1,15.27-15.1,8.58,0,14.83,6.09,14.83,14.81,0,8.9-6.51,15.1-15.29,15.1C1383,523.57,1376.7,517.48,1376.7,508.76Zm22.77.25c0-7.36-3.34-12-8-12s-7.47,4.22-7.47,11.22c0,7.36,3.31,12,7.93,12S1399.47,516,1399.47,509Z"/><path d="M1425.58,493.66c4.53,0,7.93,1,9.74,2.15l.2,7.14h-2.29a7.26,7.26,0,0,0-7.54-5.95c-3.39,0-5.63,1.45-5.63,3.85s2,3.52,5.44,4.42l2.46.65c5.55,1.45,8.69,4,8.69,8.81,0,5.3-5.12,8.72-12.06,8.72a21.7,21.7,0,0,1-10.93-2.6l-.2-7.31h2.32c1,4.25,4.22,6.57,8.64,6.57,3.65,0,5.89-1.72,5.89-4.16s-1.47-3.54-5.27-4.56l-2.49-.65c-5.32-1.39-8.84-3.91-8.84-8.61C1413.71,496.92,1418.27,493.66,1425.58,493.66Z"/><path d="M1445.74,497.71h-3.82v-1.9l9.23-7.16h1.45v5.83l8.78-.17v3.4l-8.78-.14v15.55c0,4.9,2.21,6.43,5.26,6.43a7.73,7.73,0,0,0,4-1V521c-1.42,1.45-4.36,2.58-7.68,2.58-4.53,0-8.41-2.47-8.41-9.12Z"/><path d="M1476.58,500.4c3.32-4.47,6-6.63,8.75-6.63,2.5,0,3.43,1.73,3.43,3.74a4.82,4.82,0,0,1-.59,2.47,11.86,11.86,0,0,0-3.26-.37c-3.23,0-6.77,1.1-8.19,2.69v15.21c0,2.15.51,2.55,4.56,2.91v2.5h-15.54v-2.5c3.59-.36,4.07-.79,4.07-2.54V500.46c0-1.59-.25-2-1.86-2.38l-2.21-.54v-2.26l10.87-1.34Z"/><path d="M1503.29,512.61c0,4.44,2.32,6.82,6.26,6.82a6.73,6.73,0,0,0,5.86-2.94v-16c0-1.59-.26-2-1.84-2.38l-2.24-.54v-2.26l11-1.34V516.8c0,1.56.25,2,1.9,2.38l2.18.54V522l-10.88,1.31v-4.53c-1.61,2.71-4.9,4.84-9.46,4.84-5.8,0-9.71-3.46-9.71-9.43V500.46c0-1.59-.26-2-1.9-2.38l-2.18-.54v-2.26l11-1.34Z"/><path d="M1545.32,493.66a10.92,10.92,0,0,1,7.64,2.92v-9.4c0-1.56-.25-2-1.84-2.38l-2.24-.57V482l11-1.33V516.8c0,1.56.26,2,1.93,2.38l2.15.54V522l-10.85,1.31V518.5c-1.56,3-5.29,5.07-9.57,5.07-6.37,0-11.7-5.47-11.7-14.59S1537.78,493.66,1545.32,493.66Zm1.67,25.77a6.49,6.49,0,0,0,6-3.11V499.86c-.85-1.5-3-2.74-5.83-2.74-4.73,0-8.1,4.19-8.1,11.27S1542.17,519.43,1547,519.43Z"/><text class="cls-15" transform="translate(429.39 722.79)">= +<tspan class="cls-16" x="64.64" y="0">0</tspan><tspan x="90.63" y="0">,3‰</tspan></text><text class="cls-15" transform="translate(1164.05 722.79)">= -<tspan class="cls-16" x="55.59" y="0">0</tspan><tspan x="81.58" y="0">,3‰</tspan></text><text class="cls-15" transform="translate(1482.96 722.79)">= </text><text class="cls-15" transform="translate(775.31 722.79)">= +<tspan class="cls-16" x="64.64" y="0">0</tspan><tspan class="cls-17" x="90.63" y="0">,</tspan><tspan x="101.37" y="0">6‰</tspan></text><text class="cls-15" transform="translate(1528.24 696.28)">Game <tspan x="11.58" y="55.2">O</tspan><tspan class="cls-18" x="49.11" y="55.2">v</tspan><tspan x="72.02" y="55.2">er</tspan></text></g></g></g></svg>