<svg xmlns="http://www.w3.org/2000/svg" width="680" height="680" viewBox="0 0 680 680"><defs><style>.cls-1{fill:#848484;}.cls-2{fill:#606060;}</style></defs><g id="Assets"><g id="Play_Knap" data-name="Play Knap"><path class="cls-1" d="M381.7,163.6l-141.1,81H105.66c-19.08,0-34.55,17.15-34.55,38.32V438.23c0,21.16,15.47,38.32,34.55,38.32H240.6L385,524.11c11.94,3.94,23.94-6,23.94-19.81V182C408.89,166.47,394.1,156.49,381.7,163.6Z"/></g><path class="cls-2" d="M397.85,163.08a22.84,22.84,0,0,1,1,6.88V492.3c0,13.82-12,23.75-23.94,19.81L230.6,464.55H95.66a32.16,32.16,0,0,1-19.79-6.92c6,11.32,17.1,18.92,29.79,18.92H240.6L385,524.11c11.94,3.94,23.94-6,23.94-19.81V182C408.89,173.22,404.18,166.23,397.85,163.08Z"/><path class="cls-1" d="M520.93,534.48a9.5,9.5,0,0,1-5.31-17.38c.18-.12,19.74-13.58,39-41.66,17.7-25.82,38.8-69.73,38.8-132.32s-21.1-106.5-38.8-132.32c-19.26-28.08-38.82-41.53-39-41.66a9.5,9.5,0,0,1,10.62-15.76c.9.6,22.23,15.13,43.51,45.87,19.48,28.14,42.69,75.94,42.69,143.87S589.21,458.85,569.73,487c-21.28,30.75-42.61,45.27-43.51,45.88A9.48,9.48,0,0,1,520.93,534.48Z"/><path class="cls-1" d="M492.2,480a9.5,9.5,0,0,1-5.3-17.39c.1-.07,13.52-9.34,26.71-28.66,17.61-25.78,26.54-56.35,26.54-90.87s-8.93-65.09-26.54-90.87c-13.19-19.32-26.61-28.59-26.74-28.68a9.5,9.5,0,0,1,10.62-15.75c2.52,1.69,61.66,42.5,61.66,135.3S500,476.73,497.49,478.42A9.45,9.45,0,0,1,492.2,480Z"/><path class="cls-1" d="M460,424.12a9.5,9.5,0,0,1-5.31-17.39c1.1-.76,28-19.84,28-63.61s-26.93-62.85-28.08-63.64a9.5,9.5,0,0,1,10.65-15.74c1.48,1,36.43,25.11,36.43,79.38s-34.95,78.38-36.43,79.38A9.5,9.5,0,0,1,460,424.12Z"/></g></svg>