<svg xmlns="http://www.w3.org/2000/svg" width="680" height="680" viewBox="0 0 680 680"><defs><style>.cls-1{fill:#848484;}.cls-2{fill:#606060;}.cls-3{fill:#b20404;}</style></defs><g id="Assets"><g id="Play_Knap" data-name="Play Knap"><path class="cls-1" d="M481.7,160.48l-141.1,81H205.66c-19.08,0-34.55,17.15-34.55,38.31V435.11c0,21.16,15.47,38.32,34.55,38.32H340.6L485,521c11.94,3.94,23.94-6,23.94-19.81V178.83C508.89,163.35,494.1,153.36,481.7,160.48Z"/></g><path class="cls-2" d="M497.85,160.08a22.84,22.84,0,0,1,1,6.88V489.3c0,13.82-12,23.75-23.94,19.81L330.6,461.55H195.66a32.16,32.16,0,0,1-19.79-6.92c6,11.32,17.1,18.92,29.79,18.92H340.6L485,521.11c11.94,3.94,23.94-6,23.94-19.81V179C508.89,170.22,504.18,163.23,497.85,160.08Z"/><rect class="cls-3" x="327.85" y="23.26" width="49.35" height="670.19" transform="translate(-150.14 354.23) rotate(-45)"/></g></svg>