<svg xmlns="http://www.w3.org/2000/svg" width="680" height="680" viewBox="0 0 680 680"><defs><style>.cls-1{fill:#7e4222;}.cls-2{fill:#66351b;}.cls-3{fill:#fff;}</style></defs><g id="Assets"><g id="Ur"><g id="Play_Knap" data-name="Play Knap"><circle class="cls-1" cx="340" cy="340" r="340"/><path class="cls-2" d="M547.38,70.57A339.31,339.31,0,0,1,670,332c0,187.78-152.22,340-340,340a338.53,338.53,0,0,1-207.38-70.57A338.67,338.67,0,0,0,340,680c187.78,0,340-152.22,340-340C680,230.29,628,132.74,547.38,70.57Z"/><circle class="cls-3" cx="340" cy="340" r="299.53"/></g><rect x="333.4" y="48.52" width="13.2" height="72.53"/><rect x="333.4" y="559.13" width="13.2" height="72.53"/><rect x="588.71" y="303.82" width="13.2" height="72.53" transform="translate(935.4 -255.22) rotate(90)"/><rect x="78.09" y="303.82" width="13.2" height="72.53" transform="translate(424.78 255.4) rotate(90)"/><rect x="556.17" y="460.12" width="13.2" height="50.98" transform="translate(1277.1 280.05) rotate(123.15)"/><rect x="110.38" y="169.21" width="13.2" height="50.37" transform="translate(343.71 202.78) rotate(123.15)"/><rect x="466.31" y="545.12" width="13.2" height="50.98" transform="translate(1167.6 828.73) rotate(150.03)"/><rect x="200.35" y="84.12" width="13.2" height="50.37" transform="translate(440.83 100.65) rotate(150.03)"/><rect x="187.88" y="537.37" width="13.2" height="50.98" transform="translate(49.47 1140.44) rotate(-146.85)"/><rect x="479.09" y="91.88" width="13.2" height="50.37" transform="translate(828.28 480.71) rotate(-146.85)"/><rect x="102.88" y="447.51" width="13.2" height="50.98" transform="translate(-245.6 804.09) rotate(-119.97)"/><rect x="564.18" y="181.85" width="13.2" height="50.37" transform="translate(676.51 804.92) rotate(-119.97)"/></g></g></svg>