<svg xmlns="http://www.w3.org/2000/svg" width="240" height="970" viewBox="0 0 240 970"><defs><style>.cls-1{fill:#424242;}.cls-2{fill:#343434;}.cls-3{fill:#4d4d4d;}.cls-4{fill:#262626;}</style></defs><g id="Figur"><g id="Ensemble_-_Kvinde" data-name="Ensemble - Kvinde"><path id="Hår" class="cls-1" d="M78.7,17.77C95.92,15.49,98.59.05,125.26,0s56.9,24.62,63.12,36.05,21,53.69,21,85c0,34.87-7.82,68.46-8.58,79.54s3.11,42,11.56,58.45,8.27,35,0,42.86-43.64,2-57.35,0-80-2.16-86.46,4-35.78,12-48.67-7.13,3.56-41.55,5.34-69.88,9.25-64,13.73-83.16S36.8,99.55,33.69,83.56s.61-42,5.29-56.19S78.7,17.77,78.7,17.77Z"/><g id="Krop"><g id="Trøje"><path class="cls-2" d="M156,289.44H81.6c-16.17,0-29.29,18.22-29.29,40.68V635.8h133V330.12C185.3,307.66,172.18,289.44,156,289.44Z"/><polyline class="cls-3" points="52.28 589.62 52.28 635.8 185.3 635.8 185.3 630.33 57.6 630.33 57.6 589.63"/><path class="cls-3" d="M57.6,589.62l-1-264.68c0-9.84,1.73-20.26,7.39-27.3-7.33,8.17-11.69,19.86-11.69,32.48v259.5"/><path class="cls-2" d="M157.5,289.44a16.12,16.12,0,0,1-1.54,3.29c-3,4-14.8,9.16-33,9.16s-29.86-5.3-33-9.16a10.36,10.36,0,0,1-1.49-3.29"/></g><polygon id="Bukser" class="cls-2" points="52.28 635.8 52.28 945.24 95.17 945.24 95.17 681.75 143.94 681.75 143.94 945.24 185.3 945.24 185.3 635.8 52.28 635.8"/><polygon class="cls-3" points="57.6 939.77 57.6 635.8 52.28 635.8 52.28 945.24 95.17 945.24 95.17 939.77 57.6 939.77"/><polygon class="cls-3" points="143.94 681.75 143.94 945.24 185.3 945.24 185.3 939.77 149.26 939.77 149.26 681.75 143.94 681.75"/><g id="Sko"><path class="cls-4" d="M52.28,945.24S6.5,961.49,0,970H94.58l.59-24.76Z"/><path class="cls-4" d="M187.72,945.24S233.5,961.49,240,970H145.42l-.59-24.76Z"/></g></g><g id="Ansigt"><g id="Øre"><ellipse class="cls-2" cx="176.79" cy="197.4" rx="29.59" ry="23.1"/><ellipse class="cls-2" cx="68.58" cy="197.4" rx="29.59" ry="23.1"/><path class="cls-3" d="M74.13,214.8c-16.35,0-29.6-10.34-29.6-23.1a19.16,19.16,0,0,1,3.75-11c-5.7,4.21-9.3,10.13-9.3,16.74,0,12.76,13.25,23.1,29.6,23.1,11.19,0,20.81-4.9,25.84-12.06A34.2,34.2,0,0,1,74.13,214.8Z"/></g><g id="Hoved"><path id="Hoved-2" data-name="Hoved" class="cls-2" d="M123,34.21c-33.2,0-60.11,26.08-60.11,58.25v149.3C62.91,273.92,89.82,300,123,300s60.11-26.08,60.11-58.24V92.46C183.13,60.29,156.22,34.21,123,34.21Z"/><path id="Skygge" class="cls-3" d="M128.57,294.3c-33.2,0-60.11-26.08-60.11-58.25V86.76A56.94,56.94,0,0,1,82,50a57.23,57.23,0,0,0-19,42.45v149.3C62.91,273.92,89.83,300,123,300a60.69,60.69,0,0,0,46.62-21.5A60.88,60.88,0,0,1,128.57,294.3Z"/></g></g></g></g></svg>