<svg xmlns="http://www.w3.org/2000/svg" width="240" height="970" viewBox="0 0 240 970"><defs><style>.cls-1{fill:#343434;}.cls-2{fill:#4d4d4d;}.cls-3{fill:#262626;}</style></defs><g id="Figur"><g id="Ensemble_-_Skaldet" data-name="Ensemble - Skaldet"><g id="Krop"><g id="Trøje"><path class="cls-1" d="M156,264.56H81.6c-16.17,0-29.29,18.88-29.29,42.17V623.58h133V306.73C185.3,283.44,172.18,264.56,156,264.56Z"/><polyline class="cls-2" points="52.28 575.71 52.28 623.58 185.3 623.58 185.3 617.91 57.6 617.91 57.6 575.72"/><path class="cls-2" d="M57.6,575.72l-1-274.36c0-10.2,1.73-21,7.39-28.3-7.33,8.47-11.69,20.58-11.69,33.67v269"/><path class="cls-1" d="M157.5,264.56A17,17,0,0,1,156,268c-3,4.19-14.8,9.49-33,9.49S93.06,272,89.88,268a10.93,10.93,0,0,1-1.49-3.41"/></g><polygon id="Bukser" class="cls-1" points="52.28 623.58 52.28 944.33 95.17 944.33 95.17 671.22 143.94 671.22 143.94 944.33 185.3 944.33 185.3 623.58 52.28 623.58"/><polygon class="cls-2" points="57.6 938.66 57.6 623.58 52.28 623.58 52.28 944.33 95.17 944.33 95.17 938.66 57.6 938.66"/><polygon class="cls-2" points="143.94 671.22 143.94 944.33 185.3 944.33 185.3 938.66 149.26 938.66 149.26 671.22 143.94 671.22"/><g id="Sko"><path class="cls-3" d="M52.28,944.33S6.5,961.18,0,970H94.58l.59-25.67Z"/><path class="cls-3" d="M187.72,944.33S233.5,961.18,240,970H145.42l-.59-25.67Z"/></g></g><g id="Ansigt"><g id="Øre"><ellipse class="cls-1" cx="176.79" cy="169.15" rx="29.59" ry="23.95"/><ellipse class="cls-1" cx="68.58" cy="169.15" rx="29.59" ry="23.95"/><path class="cls-2" d="M74.13,187.19c-16.35,0-29.6-10.72-29.6-23.95a20.32,20.32,0,0,1,3.75-11.44c-5.7,4.37-9.3,10.5-9.3,17.35,0,13.23,13.25,23.95,29.6,23.95,11.19,0,20.81-5.09,25.84-12.5A33.41,33.41,0,0,1,74.13,187.19Z"/></g><g id="Hoved"><path id="Hoved-2" data-name="Hoved" class="cls-1" d="M123,0A60.24,60.24,0,0,0,62.91,60.38V215.13a60.11,60.11,0,1,0,120.22,0V60.38A60.24,60.24,0,0,0,123,0Z"/><path id="Skygge" class="cls-2" d="M128.57,269.6a60.25,60.25,0,0,1-60.11-60.38V54.47A60.34,60.34,0,0,1,82,16.37a60.29,60.29,0,0,0-19,44V215.13a60,60,0,0,0,106.73,38.09A59.69,59.69,0,0,1,128.57,269.6Z"/></g></g></g></g></svg>