<svg xmlns="http://www.w3.org/2000/svg" width="240" height="970" viewBox="0 0 240 970"><defs><style>.cls-1{fill:#343434;}.cls-2{fill:#4d4d4d;}.cls-3{fill:#262626;}.cls-4{fill:#5e5e5e;}</style></defs><g id="Figur"><g id="Ensemble_-_Mand" data-name="Ensemble - Mand"><g id="Krop"><g id="Trøje"><path class="cls-1" d="M156,306.36H81.6c-16.17,0-29.29,17.76-29.29,39.67V644.11h133V346C185.3,324.12,172.18,306.36,156,306.36Z"/><polyline class="cls-2" points="52.28 599.07 52.28 644.11 185.3 644.11 185.3 638.77 57.6 638.77 57.6 599.08"/><path class="cls-2" d="M57.6,599.08l-1-258.1c0-9.6,1.73-19.77,7.39-26.63-7.33,8-11.69,19.37-11.69,31.68v253"/><path class="cls-1" d="M157.5,306.36a15.47,15.47,0,0,1-1.54,3.2c-3,3.95-14.8,8.93-33,8.93s-29.86-5.16-33-8.93a10,10,0,0,1-1.49-3.2"/></g><polygon id="Bukser" class="cls-1" points="52.28 644.11 52.28 945.85 95.17 945.85 95.17 688.92 143.94 688.92 143.94 945.85 185.3 945.85 185.3 644.11 52.28 644.11"/><polygon class="cls-2" points="57.6 940.52 57.6 644.11 52.28 644.11 52.28 945.85 95.17 945.85 95.17 940.52 57.6 940.52"/><polygon class="cls-2" points="143.94 688.92 143.94 945.85 185.3 945.85 185.3 940.52 149.26 940.52 149.26 688.92 143.94 688.92"/><g id="Sko"><path class="cls-3" d="M52.28,945.85S6.5,961.7,0,970H94.58l.59-24.15Z"/><path class="cls-3" d="M187.72,945.85S233.5,961.7,240,970H145.42l-.59-24.15Z"/></g></g><g id="Ansigt"><g id="Hår"><path id="Hår-2" data-name="Hår" class="cls-2" d="M62.91,211.18S45.34,66.28,72.16,12.05a89.36,89.36,0,0,1,22.2,25s10.17-25,30.51-37.08c0,0,11.1,11.12,16.65,30.59,0,0,14.79-.93,24-12s35.61,78.79,17.57,192.22c0,0-4.75-101.38-13.07-123.62S103.93,66.28,91.9,74.62,62.91,211.18,62.91,211.18Z"/><g id="Skygger"><path class="cls-4" d="M99.9,37.08s9-22.13,27-34.79c-1.23-1.48-2-2.29-2-2.29-14.73,8.73-24.1,24.21-28.16,32.12C97.8,33.7,98.88,35.33,99.9,37.08Z"/><path class="cls-4" d="M147.07,30.59s13.85-.9,23.12-11c-1.75-2.1-3.36-2.54-4.63-1-5.75,6.92-13.64,9.89-18.79,11.15C146.86,30,147,30.27,147.07,30.59Z"/><path class="cls-4" d="M76.23,15.37c-2.44-2.13-4.07-3.32-4.07-3.32-26.82,54.23-9.25,199.13-9.25,199.13s1.24-9.31,3.27-23C62.58,146.17,57.81,57.66,76.23,15.37Z"/></g></g><g id="Øre"><ellipse class="cls-1" cx="176.79" cy="216.6" rx="29.59" ry="22.53"/><ellipse class="cls-1" cx="68.58" cy="216.6" rx="29.59" ry="22.53"/><path class="cls-2" d="M74.13,233.57c-16.35,0-29.6-10.08-29.6-22.53a18.37,18.37,0,0,1,3.75-10.76c-5.7,4.11-9.3,9.88-9.3,16.32,0,12.45,13.25,22.53,29.6,22.53,11.19,0,20.81-4.78,25.84-11.76A34.82,34.82,0,0,1,74.13,233.57Z"/></g><g id="Hoved"><path id="Hoved-2" data-name="Hoved" class="cls-1" d="M123,57.47c-33.2,0-60.11,25.43-60.11,56.8V259.86c0,31.37,26.91,56.8,60.11,56.8s60.11-25.43,60.11-56.8V114.27C183.13,82.9,156.22,57.47,123,57.47Z"/><path id="Skygge" class="cls-2" d="M128.57,311.09c-33.2,0-60.11-25.43-60.11-56.8V108.71A54.68,54.68,0,0,1,82,72.88a55.19,55.19,0,0,0-19,41.39V259.86c0,31.37,26.92,56.8,60.11,56.8a61.35,61.35,0,0,0,46.62-21A61.74,61.74,0,0,1,128.57,311.09Z"/></g></g></g></g></svg>