<svg xmlns="http://www.w3.org/2000/svg" width="790" height="910" viewBox="0 0 790 910"><defs><style>.cls-1{fill:#503e62;}.cls-2{fill:#41324f;}.cls-3{fill:#e0bfa3;}.cls-4{fill:#ccae94;}.cls-5{fill:#c9ac93;}.cls-6{fill:#fff;}.cls-7{fill:#e6e6e6;}.cls-8{fill:#050505;}.cls-9{fill:#212121;}.cls-10{fill:#57191c;}.cls-11{fill:#b54744;}.cls-12{fill:#a6a6a6;}.cls-13{fill:#b8b8b8;}.cls-14{fill:#a8a8a8;}.cls-15{fill:#262626;}.cls-16{fill:#91004b;}.cls-17{fill:#820043;}.cls-18{fill:#660035;}</style></defs><g id="Figur"><g id="Person"><g id="Ansigt"><g id="Hår"><path id="Hår-2" data-name="Hår" class="cls-1" d="M221.32,171.88S143.17,31,84,0a98.65,98.65,0,0,0-3.66,36.77S55,21,29,23.47c0,0-2.73,17.14,4.91,38.14,0,0-13.85,8.78-29.33,4.85S23.76,160,113.4,249.58c0,0-61.44-93.65-68.4-118.92s45.71-61.59,61.88-61.94S221.32,171.88,221.32,171.88Z"/></g><path class="cls-2" d="M39.76,60.86a43.92,43.92,0,0,1-19.1,5.79,43.44,43.44,0,0,0,13.26-5C26.28,40.61,29,23.47,29,23.47c1.93-.18,3.85-.24,5.77-.23C34.41,26.11,32.85,41.89,39.76,60.86Z"/><path class="cls-2" d="M86.49,40.08s-2.29-1.41-6.13-3.31A102.06,102.06,0,0,1,84,0c1.6.84,3.22,1.79,4.84,2.79C87.35,8.71,85.09,25.5,86.49,40.08Z"/><path class="cls-2" d="M112.72,68c12.12-.27,70.34,57.8,98.76,86.92,6.23,10.47,9.84,17,9.84,17s-95.09-100.15-113.54-103A20.43,20.43,0,0,1,112.72,68Z"/><path class="cls-2" d="M4.59,66.46c1,.24,1.94.44,2.9.59-5.39,11.14,24.38,85.86,92.06,161,8.13,12.8,13.85,21.52,13.85,21.52C23.76,160-10.9,62.53,4.59,66.46Z"/><g id="Øre"><ellipse class="cls-3" cx="122.86" cy="250.68" rx="32.73" ry="24.86" transform="translate(-123.77 119.88) rotate(-35.95)"/><path class="cls-4" d="M137.16,263.82c-15.5,9.31-33.8,7.31-40.86-4.46-2.23-3.71-1.5-8.64-1.13-13-3.07,7.13-4.64,15.32-1,21.42,7.07,11.77,24.92,14.74,40.87,4.46,10.41-6.7,17-16.38,17.83-25.84A38.59,38.59,0,0,1,137.16,263.82Z"/></g><g id="Hoved"><path id="Hoved-2" data-name="Hoved" class="cls-3" d="M67.9,73.61c29.73-21.56,70.31-16.32,90.63,11.7l94.33,130.05c20.32,28,12.7,68.22-17,89.78s-70.3,16.32-90.62-11.7l-94.33-130C30.55,135.36,38.18,95.17,67.9,73.61Z"/><path id="Skygge" class="cls-5" d="M234.16,298.38c-30.09,21-70.57,15.11-90.41-13.26L51.68,153.46a60.26,60.26,0,0,1-10.43-41c-4,16.78-1.42,34.73,8.92,49.51l92.07,131.65C162.08,322,202.55,328,232.65,306.93,249.71,295,261,279.31,262.92,260.76,259.2,276.19,248.58,288.3,234.16,298.38Z"/></g><g id="Øjne"><circle id="Venstre_Øje" data-name="Venstre Øje" class="cls-6" cx="180.76" cy="139.41" r="35.49"/><path class="cls-7" d="M151.63,155a35.48,35.48,0,0,0,63.76-7.86A35.49,35.49,0,1,1,147,128.36,35.42,35.42,0,0,0,151.63,155Z"/><rect class="cls-8" x="187.18" y="124.13" width="2.51" height="12.03" rx="0.16" transform="translate(-40.52 135.43) rotate(-35.95)"/><rect class="cls-8" x="182.29" y="128.89" width="12.29" height="2.51" rx="0.16" transform="translate(-40.52 135.43) rotate(-35.95)"/><rect class="cls-8" x="187.18" y="124.55" width="2.51" height="11.2" rx="0.16" transform="translate(346.59 -35.47) rotate(99.05)"/><rect class="cls-8" x="187.18" y="125.4" width="2.51" height="9.49" rx="0.16" transform="translate(359.28 282.66) rotate(-172.88)"/><circle id="Højre_øje" data-name="Højre øje" class="cls-6" cx="121.3" cy="181.12" r="35.49"/><path class="cls-7" d="M92.18,196.7a35.49,35.49,0,0,0,63.76-7.85,35.49,35.49,0,1,1-68.36-18.78A35.33,35.33,0,0,0,92.18,196.7Z"/><rect class="cls-8" x="127.72" y="165.84" width="2.51" height="12.03" rx="0.16" transform="translate(-76.33 108.46) rotate(-35.95)"/><rect class="cls-8" x="122.83" y="170.6" width="12.29" height="2.51" rx="0.16" transform="translate(-76.33 108.47) rotate(-35.95)"/><rect class="cls-8" x="127.72" y="166.26" width="2.51" height="11.2" rx="0.16" transform="translate(318.98 71.51) rotate(99.05)"/><rect class="cls-8" x="127.72" y="167.11" width="2.51" height="9.49" rx="0.16" transform="translate(235.65 358.39) rotate(-172.88)"/></g><g id="Træk"><path class="cls-8" d="M143.69,241.74h0c-1.06-.38-2,.59-2.72,2.17-7.5,16.72-4.58,29,8.12,42,1.2,1.23,2,1.31,3,.72h0c1-.59.24-1.17-1-2.3-13-11.92-15.81-24-8.16-40C143.64,242.82,144.75,242.11,143.69,241.74Z"/><path class="cls-8" d="M231.85,260.85h0a1.42,1.42,0,0,0-1.29-.32,27.74,27.74,0,0,0-12,7.46c-.28.31,0,.64.32.89h0a.85.85,0,0,0,1.14-.14,21,21,0,0,1,11.48-7.17C232,261.46,232.21,261.19,231.85,260.85Z"/><g id="Næse"><path class="cls-8" d="M180.59,182.29c26.34,10.77,24.58,42.87-6.17,30.15-1.28-.52-1.32-1-1.33-1.65h0c0-.65.51-1.62,1.63-1.06,27,13.53,29.42-16.15,3.77-25.08-1.07-.37-.64-1.53-.31-2h0A2.12,2.12,0,0,1,180.59,182.29Z"/></g><path class="cls-9" d="M143.12,100.52c9.51-10.57,24.19-11.6,38-12A4.56,4.56,0,0,0,185.59,83h0c-.42-3-2.49-4.75-5.82-4.72-15.26.13-31.65,2-42.28,13.57-2.32,2.53-2.52,5.26-.94,7.49h0C138.13,101.61,141,102.83,143.12,100.52Z"/><path class="cls-9" d="M73.6,163c1.56-14.78,13.36-24.4,24.79-33,2.49-1.87,2.61-5.06.43-7.38h0c-2.18-2.32-5-2.62-7.82-.61-12.84,9.18-25.59,20.51-27.47,36.84-.41,3.56,1.09,6,3.8,7h0C70,166.93,73.26,166.26,73.6,163Z"/></g><path class="cls-10" d="M172.83,276.84c31.24-4.57,60.55-24.63,79.88-49.35,8.92-11.4,8.93-20.82,1.39-28.62h0c-7.53-7.8-16.47-8.21-24.46,2.51-17.31,23.25-41.06,38.31-69.24,42.83-13,2.09-16,10.52-12.71,20.12h0C151,273.94,158.42,279,172.83,276.84Z"/><path class="cls-11" d="M202.06,268s-5.78-15.75,2.15-23.56,10.49-.34,10.07,1.19-3.86,2.76-5.7,3.78-2.86,6.09-2.62,8.78,2.36,6.72,2.36,6.72l-2.84,1.49Z"/></g><g id="Krop"><g id="Ben"><path class="cls-12" d="M113.88,782.87s-21.16,2.46-22.39,34.53l30.36.62Z"/><rect class="cls-3" x="81.34" y="788.87" width="21.97" height="33.47" transform="translate(-674.73 542.64) rotate(-64.54)"/><path class="cls-12" d="M648.23,774.63s13.85,11,41-6.14l-16.68-25.37-14,3.32Z"/><rect class="cls-3" x="667.63" y="754.58" width="21.97" height="33.47" transform="translate(-173.83 197.92) rotate(-14.73)"/><path class="cls-13" d="M422.37,589.12l12.19,24.11h4.94l188.23-35.67s9.49-.76,11.77,4.17,49.71,186.72,49.71,186.72-34.91-12.68-41,6.18c0,0,3.41-8.7.75-25.78s-27.7-126.51-27.7-126.51-242.51,22.24-270.21,58.94l-43.26,216.2L283.52,910l-192-92.6s19.73-5.31,22.39-34.53L276.31,869l21.25-161.66s-23.8-17.07-10.95-55h0l135.76-63.21"/><path class="cls-14" d="M287.29,650.3l.18-.52Z"/><path class="cls-14" d="M287.47,649.78l.45-1.34C287.78,648.87,287.63,649.32,287.47,649.78Z"/><path class="cls-14" d="M287.92,648.44l.31-.91C288.13,647.84,288,648.14,287.92,648.44Z"/><path class="cls-14" d="M286.83,651.66c.12-.34.27-.8.46-1.36Z"/><path class="cls-14" d="M286.69,652.08c.05-.15.09-.28.14-.42C286.77,651.83,286.73,652,286.69,652.08Z"/><path class="cls-14" d="M286.69,652.08l-.08.25Z"/><path class="cls-14" d="M101.09,811.62c5.43-4.89,11.41-13.58,12.79-28.75l3.81,2C114.81,800.79,106.53,808.3,101.09,811.62Z"/><path class="cls-14" d="M302.11,703.93,280.86,865.6l-3.84-2,20.54-156.21s-23.8-17.07-10.95-55l4.12-1.92C279,687.29,302.11,703.93,302.11,703.93Z"/><path class="cls-14" d="M288.62,646.38l2.09-6.17C290.06,642.13,289.31,644.36,288.62,646.38Z"/><path class="cls-14" d="M288.23,647.53c.13-.37.26-.76.39-1.15Z"/><path class="cls-14" d="M687.86,763.26c.86,3.29,1.35,5.19,1.35,5.19s-21.52-7.77-33.7-2C662.72,758.2,679,761,687.86,763.26Z"/><path class="cls-14" d="M97.26,814.57l190.81,92,20-10.29-.23,1.19L283.52,910l-192-92.6A23.43,23.43,0,0,0,97.26,814.57Z"/><path class="cls-14" d="M621.28,622.34s-212.72,19.51-262.45,52.14c39.37-34.68,267-55.56,267-55.56s25,109.44,27.71,126.52c1.65,10.59,1,17.94.2,22a13.05,13.05,0,0,0-5.51,7.18s3.41-8.7.75-25.78S621.28,622.34,621.28,622.34Z"/><path class="cls-14" d="M290.71,640.21l.07-.2Z"/><path class="cls-14" d="M290.78,640c.32-.94.57-1.71.79-2.33C291.34,638.35,291.07,639.14,290.78,640Z"/><path class="cls-14" d="M291.57,637.68Z"/><g id="Sko"><path class="cls-15" d="M716.87,774.63S779,777.5,790,785.33L673.51,819.65,664,790.2Z"/><path class="cls-15" d="M66.46,827.83S14.06,862.11,0,862.07l72.43-97.48,26.88,19Z"/></g></g><g id="Overkrop"><g id="Højre_Arm" data-name="Højre Arm"><g id="Hånd_-_Bag" data-name="Hånd - Bag"><path class="cls-3" d="M171.65,622.32a76,76,0,0,0,15.84,1.43c9.78,0,18.6,11.38,18.88,15.08,0,0,11.87,6.52,13.1,15.66.85,6.33-2.43,7-4.06,6.33-1.3-.52-3.56-1.78-3.56-1.78s1.07,9.11-2.91,12.52-6.55.86-7.4,0,2.56,8.26-1.71,9.68-4.84,2.28-8.26,0c0,0,2.57,4.56-.85,5.69s-8.33-.71-8.33-.71-16.43-4.69-27-35.15l-4.27-5.69,20.49-23.06"/><rect class="cls-5" x="206.12" y="645.33" width="1.07" height="15.94" rx="0.08" transform="translate(-382.9 304.13) rotate(-41.81)"/><rect class="cls-5" x="194.35" y="649.93" width="1.07" height="23.47" rx="0.08" transform="translate(-336.61 222.01) rotate(-33.99)"/><path class="cls-5" d="M177.4,668.76l0,0a.53.53,0,0,1-.75,0,27,27,0,0,1-4.36-5.88c-1.68-3.41-1.93-7.25-1.09-7.93,2.87-2.34,14.43,6.46,15.5,8.82,1.72,3.79,5.29,16.72,5.29,16.72a.54.54,0,0,1-.38.66l0,0a.54.54,0,0,1-.66-.37s-3.26-12.81-5.29-16.75c-1.24-2.39-11.82-10.31-13.83-8.41-.56.53-.36,3.69,1.29,6.78a24.38,24.38,0,0,0,4.33,5.5A.53.53,0,0,1,177.4,668.76Z"/><path class="cls-5" d="M206.38,638.85s.4,11.54-17.29,13.73c-13.09,1.62-10.86-7.89-8.45-10.32,1.86-1.89,8.38-4.42,8.88-4.61s1.08-.65,1.51.21-.67.87-1.18,1.07c-5.78,2.36-6.66,2.84-8.62,4.45-.91.75-4.67,8.79,7.5,8.09,7.27-.42,13.68-3.72,16.23-11.52.84-2.56-3.09-7.15-5.41-9.21s-4.72-5.49-10.13-5.84-9.71-.79-13.55-.86-6.68,4.37-7.18,3l-.78-.43,3.75-4.22S188.87,623.83,190,624C197.94,625.25,206.38,635,206.38,638.85Z"/></g><path class="cls-16" d="M154.87,370s-99.24,118.5-99.24,136c0,11.39,37.85,59,95.54,139.47l20.49-23S90.18,515.73,90.15,504.12c0-12,79.9-104.55,79.9-104.55L187.5,370Z"/><path class="cls-17" d="M154.87,370h4.46s-99.23,118.5-99.23,136c0,11.26,37,58,93.53,136.7l-2.46,2.77C93.48,564.94,55.63,517.31,55.63,505.92,55.63,488.47,154.87,370,154.87,370Z"/></g><rect class="cls-16" x="210.8" y="309.86" width="149.76" height="326.1" transform="translate(-172.9 164.75) rotate(-24.96)"/><polygon class="cls-17" points="153.42 354.63 288.79 645.39 420.11 584.26 422.38 589.12 286.61 652.33 148.98 356.7 153.42 354.63"/><g id="Venstre_Arm" data-name="Venstre Arm"><g id="Hånd_-_Front" data-name="Hånd - Front"><path class="cls-3" d="M296,83.57a61.69,61.69,0,0,0-12-10.2c-3.42-2.31-10.36-6-12.89-9.25-1.23-1.6-2.07-3.06-1.19-6.69.66-2.74,6.27-6,6.88-7.13,0,0-6.17-12-2.07-20.3,2.84-5.72,5.92-4.43,6.9-3,.79,1.15,2,3.46,2,3.46s2.23-7.9,7.44-8.5,7.89,2.72,8.12,3.91.93-6,5.35-6.57,6.77.33,8.32,4.13c0,0,.43-5.21,3.9-4.24s6.5,5.26,6.5,5.26,11,13.09,2.65,44.22l.34,7.11-29.89,7.62"/><rect class="cls-5" x="313.11" y="23.27" width="1.07" height="6.51" rx="0.08" transform="translate(2.19 72.06) rotate(-13.15)"/><rect class="cls-5" x="299.36" y="25.87" width="1.07" height="6.51" rx="0.08" transform="translate(1.24 69) rotate(-13.15)"/><rect class="cls-5" x="283.78" y="30.3" width="1.07" height="6.71" rx="0.08" transform="translate(-0.2 65.57) rotate(-13.15)"/></g><path class="cls-16" d="M326.4,75.78s46.72,134,53.7,154.72c2.62,7.78,6.51,16.61,2.15,19.46C346.42,273.32,178.57,349.43,157,360.62c-4,2.07-5.33,2.07-7.65-2.93-2.54-5.47-3.41-7.35-8.35-19.21-1.9-4.55-.68-10,4.79-12.63,9.22-4.41,197.49-97.05,197.49-97.05L296,83.57Z"/><path class="cls-17" d="M145.8,325.85c9.22-4.41,197.49-97.05,197.49-97.05L296,83.57l30.36-7.79.38,1.07-26.2,6.72L347.83,228.8s-188.27,92.64-197.49,97.05c-5.47,2.61-6.69,8.08-4.8,12.63,5,11.86,5.82,13.74,8.36,19.21A11.43,11.43,0,0,0,156,361.1c-3.24,1.53-4.55,1.15-6.67-3.41-2.54-5.47-3.41-7.35-8.35-19.21C139.11,333.93,140.33,328.46,145.8,325.85Z"/><path class="cls-18" d="M188.66,348l-.85-1.79a.17.17,0,0,1,.08-.23l99.37-47.09,1,2.11-99.37,47.09A.17.17,0,0,1,188.66,348Z"/></g></g></g></g></g></svg>