<svg xmlns="http://www.w3.org/2000/svg" width="790" height="910" viewBox="0 0 790 910"><defs><style>.cls-1{fill:#503e62;}.cls-2{fill:#41324f;}.cls-3{fill:#e0bfa3;}.cls-4{fill:#ccae94;}.cls-5{fill:#c9ac93;}.cls-6{fill:#fff;}.cls-7{fill:#e6e6e6;}.cls-8{fill:#050505;}.cls-9{fill:#212121;}.cls-10{fill:#57191c;}.cls-11{fill:#b54744;}.cls-12{fill:#a6a6a6;}.cls-13{fill:#b8b8b8;}.cls-14{fill:#a8a8a8;}.cls-15{fill:#262626;}.cls-16{fill:#91004b;}.cls-17{fill:#820043;}.cls-18{fill:#660035;}</style></defs><g id="Figur"><g id="Person"><g id="Ansigt"><g id="Hår"><path id="Hår-2" data-name="Hår" class="cls-1" d="M568.68,171.88S646.83,31,706,0a98.65,98.65,0,0,1,3.66,36.77S735,21,761,23.47c0,0,2.73,17.14-4.91,38.14,0,0,13.85,8.78,29.33,4.85S766.24,160,676.6,249.58c0,0,61.44-93.65,68.4-118.92s-45.71-61.59-61.88-61.94S568.68,171.88,568.68,171.88Z"/></g><path class="cls-2" d="M750.24,60.86a43.92,43.92,0,0,0,19.1,5.79,43.44,43.44,0,0,1-13.26-5c7.64-21,4.91-38.14,4.91-38.14-1.93-.18-3.85-.24-5.77-.23C755.59,26.11,757.15,41.89,750.24,60.86Z"/><path class="cls-2" d="M703.51,40.08s2.29-1.41,6.13-3.31A102.06,102.06,0,0,0,706,0c-1.6.84-3.22,1.79-4.84,2.79C702.65,8.71,704.91,25.5,703.51,40.08Z"/><path class="cls-2" d="M677.28,68c-12.12-.27-70.34,57.8-98.76,86.92-6.23,10.47-9.84,17-9.84,17s95.09-100.15,113.54-103A20.43,20.43,0,0,0,677.28,68Z"/><path class="cls-2" d="M785.41,66.46c-1,.24-1.94.44-2.9.59,5.39,11.14-24.38,85.86-92.06,161-8.13,12.8-13.85,21.52-13.85,21.52C766.24,160,800.9,62.53,785.41,66.46Z"/><g id="Øre"><ellipse class="cls-3" cx="667.14" cy="250.68" rx="24.86" ry="32.73" transform="translate(72.53 643.56) rotate(-54.05)"/><path class="cls-4" d="M652.84,263.82c15.5,9.31,33.8,7.31,40.86-4.46,2.23-3.71,1.5-8.64,1.13-13,3.07,7.13,4.64,15.32,1,21.42-7.07,11.77-24.92,14.74-40.87,4.46-10.41-6.7-17-16.38-17.83-25.84A38.59,38.59,0,0,0,652.84,263.82Z"/></g><g id="Hoved"><path id="Hoved-2" data-name="Hoved" class="cls-3" d="M722.1,73.61c-29.73-21.56-70.31-16.32-90.63,11.7L537.14,215.36c-20.32,28-12.7,68.22,17,89.78s70.3,16.32,90.62-11.7l94.33-130C759.45,135.36,751.82,95.17,722.1,73.61Z"/><path id="Skygge" class="cls-5" d="M555.84,298.38c30.09,21,70.57,15.11,90.41-13.26l92.07-131.66a60.26,60.26,0,0,0,10.43-41c4,16.78,1.42,34.73-8.92,49.51L647.76,293.66C627.92,322,587.45,328,557.35,306.93,540.29,295,529,279.31,527.08,260.76,530.8,276.19,541.42,288.3,555.84,298.38Z"/></g><g id="Øjne"><circle id="Venstre_Øje" data-name="Venstre Øje" class="cls-6" cx="609.24" cy="139.41" r="35.49"/><path class="cls-7" d="M638.37,155a35.48,35.48,0,0,1-63.76-7.86A35.49,35.49,0,1,0,643,128.36,35.42,35.42,0,0,1,638.37,155Z"/><rect class="cls-8" x="595.55" y="128.89" width="12.03" height="2.51" rx="0.16" transform="translate(143.02 540.71) rotate(-54.05)"/><rect class="cls-8" x="600.31" y="124.01" width="2.51" height="12.29" rx="0.16" transform="translate(143.01 540.7) rotate(-54.05)"/><rect class="cls-8" x="600.31" y="124.55" width="2.51" height="11.2" rx="0.16" transform="matrix(0.16, 0.99, -0.99, 0.16, 635.5, -484.4)"/><rect class="cls-8" x="600.31" y="125.4" width="2.51" height="9.49" rx="0.16" transform="translate(-11.49 75.58) rotate(-7.12)"/><circle id="Højre_øje" data-name="Højre øje" class="cls-6" cx="668.7" cy="181.12" r="35.49"/><path class="cls-7" d="M697.82,196.7a35.49,35.49,0,0,1-63.76-7.85,35.49,35.49,0,1,0,68.36-18.78A35.33,35.33,0,0,1,697.82,196.7Z"/><rect class="cls-8" x="655.01" y="170.6" width="12.03" height="2.51" rx="0.16" transform="translate(133.8 606.06) rotate(-54.05)"/><rect class="cls-8" x="659.77" y="165.72" width="2.51" height="12.29" rx="0.16" transform="matrix(0.59, -0.81, 0.81, 0.59, 133.8, 606.05)"/><rect class="cls-8" x="659.77" y="166.26" width="2.51" height="11.2" rx="0.16" transform="translate(726.8 -507.96) rotate(80.95)"/><rect class="cls-8" x="659.77" y="167.11" width="2.51" height="9.49" rx="0.16" transform="translate(-16.21 83.28) rotate(-7.12)"/></g><g id="Træk"><path class="cls-8" d="M646.31,241.74h0c1.06-.38,2,.59,2.72,2.17,7.5,16.72,4.58,29-8.12,42-1.2,1.23-2,1.31-3,.72h0c-1-.59-.24-1.17,1-2.3,13-11.92,15.81-24,8.16-40C646.36,242.82,645.25,242.11,646.31,241.74Z"/><path class="cls-8" d="M558.15,260.85h0a1.42,1.42,0,0,1,1.29-.32,27.74,27.74,0,0,1,12,7.46c.28.31,0,.64-.32.89h0a.85.85,0,0,1-1.14-.14,21,21,0,0,0-11.48-7.17C558.05,261.46,557.79,261.19,558.15,260.85Z"/><g id="Næse"><path class="cls-8" d="M609.41,182.29c-26.34,10.77-24.58,42.87,6.17,30.15,1.28-.52,1.32-1,1.33-1.65h0c0-.65-.51-1.62-1.63-1.06-27,13.53-29.42-16.15-3.77-25.08,1.07-.37.64-1.53.31-2h0A2.12,2.12,0,0,0,609.41,182.29Z"/></g><path class="cls-9" d="M646.88,100.52c-9.51-10.57-24.19-11.6-38-12A4.56,4.56,0,0,1,604.41,83h0c.42-3,2.49-4.75,5.82-4.72,15.26.13,31.65,2,42.28,13.57,2.32,2.53,2.52,5.26.94,7.49h0C651.87,101.61,649,102.83,646.88,100.52Z"/><path class="cls-9" d="M716.4,163c-1.56-14.78-13.36-24.4-24.79-33-2.49-1.87-2.61-5.06-.43-7.38h0c2.18-2.32,5-2.62,7.82-.61,12.84,9.18,25.59,20.51,27.47,36.84.41,3.56-1.09,6-3.8,7h0C720,166.93,716.74,166.26,716.4,163Z"/></g><path class="cls-10" d="M617.17,276.84c-31.24-4.57-60.55-24.63-79.88-49.35-8.92-11.4-8.93-20.82-1.39-28.62h0c7.53-7.8,16.47-8.21,24.46,2.51,17.31,23.25,41.06,38.31,69.24,42.83,13,2.09,16,10.52,12.71,20.12h0C639,273.94,631.58,279,617.17,276.84Z"/><path class="cls-11" d="M587.94,268s5.78-15.75-2.15-23.56-10.49-.34-10.07,1.19,3.86,2.76,5.7,3.78,2.86,6.09,2.62,8.78-2.36,6.72-2.36,6.72l2.84,1.49Z"/></g><g id="Krop"><g id="Ben"><path class="cls-12" d="M676.12,782.87s21.16,2.46,22.39,34.53l-30.36.62Z"/><rect class="cls-3" x="680.94" y="794.62" width="33.47" height="21.97" transform="translate(-278.57 378.16) rotate(-25.46)"/><path class="cls-12" d="M141.77,774.63s-13.85,11-41-6.14l16.68-25.37,14,3.32Z"/><rect class="cls-3" x="94.65" y="760.34" width="33.47" height="21.97" transform="translate(-662.91 682.9) rotate(-75.27)"/><path class="cls-13" d="M367.63,589.12l-12.19,24.11H350.5L162.27,577.56s-9.49-.76-11.77,4.17-49.71,186.72-49.71,186.72,34.91-12.68,41,6.18c0,0-3.41-8.7-.75-25.78s27.7-126.51,27.7-126.51,242.51,22.24,270.21,58.94l43.26,216.2L506.48,910l192-92.6s-19.73-5.31-22.39-34.53L513.69,869,492.44,707.35s23.8-17.07,10.95-55h0L367.63,589.12"/><path class="cls-14" d="M502.71,650.3l-.18-.52Z"/><path class="cls-14" d="M502.53,649.78l-.45-1.34C502.22,648.87,502.37,649.32,502.53,649.78Z"/><path class="cls-14" d="M502.08,648.44l-.31-.91C501.87,647.84,502,648.14,502.08,648.44Z"/><path class="cls-14" d="M503.17,651.66c-.12-.34-.27-.8-.46-1.36Z"/><path class="cls-14" d="M503.31,652.08c-.05-.15-.09-.28-.14-.42C503.23,651.83,503.27,652,503.31,652.08Z"/><path class="cls-14" d="M503.31,652.08l.08.25Z"/><path class="cls-14" d="M688.91,811.62c-5.43-4.89-11.41-13.58-12.79-28.75l-3.81,2C675.19,800.79,683.47,808.3,688.91,811.62Z"/><path class="cls-14" d="M487.89,703.93,509.14,865.6l3.84-2L492.44,707.35s23.8-17.07,10.95-55l-4.12-1.92C511,687.29,487.89,703.93,487.89,703.93Z"/><path class="cls-14" d="M501.38,646.38l-2.09-6.17C499.94,642.13,500.69,644.36,501.38,646.38Z"/><path class="cls-14" d="M501.77,647.53c-.13-.37-.26-.76-.39-1.15Z"/><path class="cls-14" d="M102.14,763.26c-.86,3.29-1.35,5.19-1.35,5.19s21.52-7.77,33.7-2C127.28,758.2,111,761,102.14,763.26Z"/><path class="cls-14" d="M692.74,814.57l-190.81,92-20-10.29.23,1.19L506.48,910l192-92.6A23.43,23.43,0,0,1,692.74,814.57Z"/><path class="cls-14" d="M168.72,622.34s212.72,19.51,262.45,52.14c-39.37-34.68-267-55.56-267-55.56s-25,109.44-27.71,126.52c-1.65,10.59-1,17.94-.2,22a13.05,13.05,0,0,1,5.51,7.18s-3.41-8.7-.75-25.78S168.72,622.34,168.72,622.34Z"/><path class="cls-14" d="M499.29,640.21l-.07-.2Z"/><path class="cls-14" d="M499.22,640c-.32-.94-.57-1.71-.79-2.33C498.66,638.35,498.93,639.14,499.22,640Z"/><path class="cls-14" d="M498.43,637.68Z"/><g id="Sko"><path class="cls-15" d="M73.13,774.63S11,777.5,0,785.33l116.49,34.32L126,790.2Z"/><path class="cls-15" d="M723.54,827.83s52.4,34.28,66.46,34.24l-72.43-97.48-26.88,19Z"/></g></g><g id="Overkrop"><g id="Højre_Arm" data-name="Højre Arm"><g id="Hånd_-_Bag" data-name="Hånd - Bag"><path class="cls-3" d="M618.35,622.32a76,76,0,0,1-15.84,1.43c-9.78,0-18.6,11.38-18.88,15.08,0,0-11.87,6.52-13.1,15.66-.85,6.33,2.43,7,4.06,6.33,1.3-.52,3.56-1.78,3.56-1.78s-1.07,9.11,2.91,12.52,6.55.86,7.4,0-2.56,8.26,1.71,9.68,4.84,2.28,8.26,0c0,0-2.57,4.56.85,5.69s8.33-.71,8.33-.71,16.43-4.69,27-35.15l4.27-5.69-20.49-23.06"/><rect class="cls-5" x="575.37" y="652.76" width="15.94" height="1.07" rx="0.08" transform="translate(-292.49 652.57) rotate(-48.19)"/><rect class="cls-5" x="583.38" y="661.14" width="23.47" height="1.07" rx="0.08" transform="matrix(0.56, -0.83, 0.83, 0.56, -286.2, 785.19)"/><path class="cls-5" d="M612.6,668.76l0,0a.53.53,0,0,0,.75,0,27,27,0,0,0,4.36-5.88c1.68-3.41,1.93-7.25,1.09-7.93-2.87-2.34-14.43,6.46-15.5,8.82-1.72,3.79-5.29,16.72-5.29,16.72a.54.54,0,0,0,.38.66l.05,0a.54.54,0,0,0,.66-.37s3.26-12.81,5.29-16.75c1.24-2.39,11.82-10.31,13.83-8.41.56.53.36,3.69-1.29,6.78a24.38,24.38,0,0,1-4.33,5.5A.53.53,0,0,0,612.6,668.76Z"/><path class="cls-5" d="M583.62,638.85s-.4,11.54,17.29,13.73c13.09,1.62,10.86-7.89,8.45-10.32-1.86-1.89-8.38-4.42-8.88-4.61s-1.08-.65-1.51.21.67.87,1.18,1.07c5.78,2.36,6.66,2.84,8.62,4.45.91.75,4.67,8.79-7.5,8.09C594,651.05,587.59,647.75,585,640c-.84-2.56,3.09-7.15,5.41-9.21s4.72-5.49,10.13-5.84,9.71-.79,13.55-.86,6.68,4.37,7.18,3l.78-.43-3.75-4.22S601.13,623.83,600,624C592.06,625.25,583.62,635,583.62,638.85Z"/></g><path class="cls-16" d="M635.13,370s99.24,118.5,99.24,136c0,11.39-37.85,59-95.54,139.47l-20.49-23s81.48-106.61,81.51-118.22c0-12-79.9-104.55-79.9-104.55L602.5,370Z"/><path class="cls-17" d="M635.13,370h-4.46s99.23,118.5,99.23,136c0,11.26-37,58-93.53,136.7l2.46,2.77c57.69-80.45,95.54-128.08,95.54-139.47C734.37,488.47,635.13,370,635.13,370Z"/></g><rect class="cls-16" x="341.28" y="398.03" width="326.1" height="149.76" transform="translate(-137.25 730.53) rotate(-65.04)"/><polygon class="cls-17" points="636.58 354.63 501.21 645.39 369.89 584.26 367.63 589.12 503.39 652.33 641.02 356.7 636.58 354.63"/><g id="Venstre_Arm" data-name="Venstre Arm"><g id="Hånd_-_Front" data-name="Hånd - Front"><path class="cls-3" d="M494,83.57a61.69,61.69,0,0,1,12-10.2c3.42-2.31,10.36-6,12.89-9.25,1.23-1.6,2.07-3.06,1.19-6.69-.66-2.74-6.27-6-6.88-7.13,0,0,6.17-12,2.07-20.3-2.84-5.72-5.92-4.43-6.9-3-.79,1.15-2,3.46-2,3.46s-2.23-7.9-7.44-8.5-7.89,2.72-8.12,3.91-.93-6-5.35-6.57-6.77.33-8.32,4.13c0,0-.43-5.21-3.9-4.24s-6.5,5.26-6.5,5.26-11,13.09-2.65,44.22l-.34,7.11,29.89,7.62"/><rect class="cls-5" x="473.1" y="25.99" width="6.51" height="1.07" rx="0.08" transform="translate(342.15 484.35) rotate(-76.85)"/><rect class="cls-5" x="486.85" y="28.6" width="6.51" height="1.07" rx="0.08" transform="translate(350.23 499.75) rotate(-76.85)"/><rect class="cls-5" x="502.34" y="33.12" width="6.71" height="1.07" rx="0.08" transform="translate(357.87 518.43) rotate(-76.85)"/></g><path class="cls-16" d="M463.6,75.78s-46.72,134-53.7,154.72c-2.62,7.78-6.51,16.61-2.15,19.46C443.58,273.32,611.43,349.43,633,360.62c4,2.07,5.33,2.07,7.65-2.93,2.54-5.47,3.41-7.35,8.35-19.21,1.9-4.55.68-10-4.79-12.63C635,321.44,446.71,228.8,446.71,228.8L494,83.57Z"/><path class="cls-17" d="M644.2,325.85C635,321.44,446.71,228.8,446.71,228.8L494,83.57,463.6,75.78l-.38,1.07,26.2,6.72L442.17,228.8s188.27,92.64,197.49,97.05c5.47,2.61,6.69,8.08,4.8,12.63-5,11.86-5.82,13.74-8.36,19.21A11.43,11.43,0,0,1,634,361.1c3.24,1.53,4.55,1.15,6.67-3.41,2.54-5.47,3.41-7.35,8.35-19.21C650.89,333.93,649.67,328.46,644.2,325.85Z"/><path class="cls-18" d="M601.34,348l.85-1.79a.17.17,0,0,0-.08-.23l-99.37-47.09-1,2.11,99.37,47.09A.17.17,0,0,0,601.34,348Z"/></g></g></g></g></g></svg>