<svg xmlns="http://www.w3.org/2000/svg" width="240" height="970" viewBox="0 0 240 970"><defs><style>.cls-1{fill:#91004b;}.cls-2{fill:#75003c;}.cls-3{fill:#660035;}.cls-4{fill:#e0bfa3;}.cls-5{fill:#b8b8b8;}.cls-6{fill:#a8a8a8;}.cls-7{fill:#262626;}.cls-8{fill:#c7aa91;}.cls-9{fill:#503e62;}.cls-10{fill:#473757;}.cls-11{fill:#ccae94;}.cls-12{fill:#c9ac93;}.cls-13{fill:#fff;}.cls-14{fill:#e6e6e6;}.cls-15{fill:#050505;}.cls-16{fill:#212121;}</style></defs><g id="Figur"><g id="Person_-_Stående" data-name="Person - Stående"><g id="Krop"><g id="Trøje"><path class="cls-1" d="M169.83,306.36H69.28A39.62,39.62,0,0,0,29.71,346v253H52.28v45h133v-45h24.11V346A39.62,39.62,0,0,0,169.83,306.36Z"/><polyline class="cls-2" points="52.28 599.07 52.28 644.11 185.3 644.11 185.3 638.77 57.6 638.77 57.6 599.08"/><path class="cls-2" d="M52.31,593.74H35v-253a39.55,39.55,0,0,1,9.06-25.26A39.61,39.61,0,0,0,29.71,346v253H52.28"/><path class="cls-3" d="M52.48,395H54a.17.17,0,0,1,.17.17v204a0,0,0,0,1,0,0H52.31a0,0,0,0,1,0,0v-204A.17.17,0,0,1,52.48,395Z"/><path class="cls-3" d="M184.56,395H186a.17.17,0,0,1,.17.17v204a0,0,0,0,1,0,0h-1.82a0,0,0,0,1,0,0v-204a.17.17,0,0,1,.17-.17Z"/><path class="cls-4" d="M157.5,306.36a15.47,15.47,0,0,1-1.54,3.2c-3,3.95-14.8,8.93-33,8.93s-29.86-5.16-33-8.93a10,10,0,0,1-1.49-3.2"/></g><polygon id="Bukser" class="cls-5" points="52.28 644.11 52.28 945.85 95.17 945.85 95.17 688.92 143.94 688.92 143.94 945.85 185.3 945.85 185.3 644.11 52.28 644.11"/><polygon class="cls-6" points="57.6 940.52 57.6 644.11 52.28 644.11 52.28 945.85 95.17 945.85 95.17 940.52 57.6 940.52"/><polygon class="cls-6" points="143.94 688.92 143.94 945.85 185.3 945.85 185.3 940.52 149.26 940.52 149.26 688.92 143.94 688.92"/><g id="Sko"><path class="cls-7" d="M52.28,945.85S6.5,961.7,0,970H94.58l.59-24.15Z"/><path class="cls-7" d="M187.72,945.85S233.5,961.7,240,970H145.42l-.59-24.15Z"/></g><g id="Hænder"><path class="cls-4" d="M29.65,599.07H52.13s-.31,12.57.76,16.1,7.29,18,7.42,22.87c.07,2.92-9.71-10-9.71-10-.8-2.48-3.13,12.94-.08,28.36C52,664.09,44,653.33,43.41,642a62.7,62.7,0,0,0,0,18.64c1.36,8-6.38-7.3-6.38-18.49,0,0-1.43,10.68-.36,17.37.55,3.42-6.14-9.4-6.29-17.52a69.53,69.53,0,0,0-.23,12.49c.26,2.92-8.11-19.08-2.45-44.22C27.66,610.26,28.88,607.66,29.65,599.07Z"/><path class="cls-8" d="M36.32,656.6c-1.82-3.34-4.88-10.93-5-16.39,0,0-.33,2.73-.4,6.31,1.65,7.55,6.14,15.82,5.69,13C36.49,658.6,36.39,657.62,36.32,656.6Z"/><path class="cls-8" d="M43.28,660C41.38,657,38,647.76,38,640.36c0,0-.38,2.86-.6,6.55,1.56,10.18,7.16,20.61,6,13.72C43.33,660.42,43.31,660.22,43.28,660Z"/><path class="cls-8" d="M28.66,608.48s1.05-2.25,1.81-9.41h-.82c-.77,8.59-2,11.19-2,11.19C22,635.4,30.37,657.4,30.11,654.48c-.13-1.45-.18-2.91-.19-4.31A86.21,86.21,0,0,1,28.66,608.48Z"/><path class="cls-8" d="M44.41,640.21s-.36,2.11-.58,5.31c1.73,9.6,7.71,17.32,6.78,11.39C48.67,655.37,44.83,647.93,44.41,640.21Z"/><path class="cls-8" d="M51.6,626.26c-.23-.72-.59.07-.91,1.9,1,1.29,9.69,12.63,9.62,9.88a13.22,13.22,0,0,0-.25-1.91C57.44,634,51.6,626.26,51.6,626.26Z"/><path class="cls-4" d="M209.06,599.08h-23.8s.32,13.31-.81,17-7.72,19.06-7.85,24.22c-.08,3.09,10.28-10.59,10.28-10.59.84-2.62,3.31,13.7.08,30-1.61,8.14,6.88-3.25,7.53-15.26a66.15,66.15,0,0,1,0,19.73c-1.44,8.47,6.76-7.72,6.76-19.57,0,0,1.51,11.31.38,18.4-.58,3.62,6.5-10,6.66-18.56a74,74,0,0,1,.24,13.23c-.27,3.09,8.58-20.21,2.59-46.82C211.16,610.93,209.87,608.17,209.06,599.08Z"/><path class="cls-8" d="M177.93,639.67c.13-5.16,6.72-20.49,7.85-24.22,1-3.23.87-13.64.83-16.37h-1.35s.32,13.31-.81,17-7.72,19.06-7.85,24.22c0,.74.57.51,1.47-.27C178,640,177.92,639.89,177.93,639.67Z"/><path class="cls-8" d="M188.29,659.11c3.23-16.32.76-32.65-.08-30l-.76,1c1,2.94,2.15,16.32-.49,29.7-.59,3,.18,3.34,1.42,2C188.05,661.54,188,660.71,188.29,659.11Z"/><path class="cls-8" d="M209.66,643.85a27.37,27.37,0,0,1-.94,6.12,62.57,62.57,0,0,1-.15,7.78c-.08.9.62-.46,1.5-3.48A78.13,78.13,0,0,0,209.66,643.85Z"/><path class="cls-8" d="M202.62,644a36.09,36.09,0,0,1-.74,6.9,59.53,59.53,0,0,1-.21,12.17c-.2,1.2.46.5,1.42-1.27C204.05,654.7,202.62,644,202.62,644Z"/><path class="cls-8" d="M195.87,663.59a66.4,66.4,0,0,0-.05-19.74,31.94,31.94,0,0,1-.78,5.4,62.85,62.85,0,0,1-.51,15c-.49,2.89.14,2.91,1.18,1.21A7.24,7.24,0,0,1,195.87,663.59Z"/></g></g><g id="Ansigt"><g id="Hår"><path id="Hår-2" data-name="Hår" class="cls-9" d="M62.91,211.18S45.34,66.28,72.16,12.05a89.36,89.36,0,0,1,22.2,25s10.17-25,30.51-37.08c0,0,11.1,11.12,16.65,30.59,0,0,14.79-.93,24-12s35.61,78.79,17.57,192.22c0,0-4.75-101.38-13.07-123.62S103.93,66.28,91.9,74.62,62.91,211.18,62.91,211.18Z"/><g id="Skygger"><path class="cls-10" d="M99.9,37.08s9-22.13,27-34.79c-1.23-1.48-2-2.29-2-2.29-14.73,8.73-24.1,24.21-28.16,32.12C97.8,33.7,98.88,35.33,99.9,37.08Z"/><path class="cls-10" d="M147.07,30.59s13.85-.9,23.12-11c-1.75-2.1-3.36-2.54-4.63-1-5.75,6.92-13.64,9.89-18.79,11.15C146.86,30,147,30.27,147.07,30.59Z"/><path class="cls-10" d="M76.23,15.37c-2.44-2.13-4.07-3.32-4.07-3.32-26.82,54.23-9.25,199.13-9.25,199.13s1.24-9.31,3.27-23C62.58,146.17,57.81,57.66,76.23,15.37Z"/><path class="cls-10" d="M175.61,87.14c-5.22-14-29.9-18.61-50.55-18.08,19.31.38,40.24,5.35,45,18.08,8.32,22.24,13.07,123.62,13.07,123.62,1.63-10.2,2.88-20.21,3.83-30C184.88,149,181,101.53,175.61,87.14Z"/></g></g><g id="Øre"><ellipse class="cls-4" cx="176.79" cy="216.6" rx="29.59" ry="22.53"/><ellipse class="cls-4" cx="68.58" cy="216.6" rx="29.59" ry="22.53"/><path class="cls-11" d="M74.13,233.57c-16.35,0-29.6-10.08-29.6-22.53a18.37,18.37,0,0,1,3.75-10.76c-5.7,4.11-9.3,9.88-9.3,16.32,0,12.45,13.25,22.53,29.6,22.53,11.19,0,20.81-4.78,25.84-11.76A34.82,34.82,0,0,1,74.13,233.57Z"/></g><g id="Hoved"><path id="Hoved-2" data-name="Hoved" class="cls-4" d="M123,57.47c-33.2,0-60.11,25.43-60.11,56.8V259.86c0,31.37,26.91,56.8,60.11,56.8s60.11-25.43,60.11-56.8V114.27C183.13,82.9,156.22,57.47,123,57.47Z"/><path id="Skygge" class="cls-12" d="M128.57,311.09c-33.2,0-60.11-25.43-60.11-56.8V108.71A54.68,54.68,0,0,1,82,72.88a55.19,55.19,0,0,0-19,41.39V259.86c0,31.37,26.92,56.8,60.11,56.8a61.35,61.35,0,0,0,46.62-21A61.74,61.74,0,0,1,128.57,311.09Z"/></g><g id="Øjne"><ellipse id="Venstre_Øje" data-name="Venstre Øje" class="cls-13" cx="85.14" cy="166.16" rx="32.09" ry="32.16"/><ellipse id="Højre_øje" data-name="Højre øje" class="cls-13" cx="157.21" cy="166.16" rx="32.09" ry="32.16"/><path class="cls-14" d="M87.24,196a32.17,32.17,0,0,1-24.69-52.69,32.12,32.12,0,1,0,47.29,43.36A32,32,0,0,1,87.24,196Z"/><path class="cls-14" d="M159.25,196a32.17,32.17,0,0,1-24.69-52.69,32.12,32.12,0,1,0,47.28,43.36A32,32,0,0,1,159.25,196Z"/><rect class="cls-15" x="84" y="163.86" width="2.27" height="10.91" rx="1.14"/><rect class="cls-15" x="84" y="163.76" width="2.28" height="11.11" rx="1.14" transform="translate(254.45 84.17) rotate(90)"/><path class="cls-15" d="M81.56,172.9h0a1.15,1.15,0,0,1,0-1.61l5.55-5.57a1.15,1.15,0,0,1,1.61,0h0a1.15,1.15,0,0,1,0,1.61l-5.56,5.57A1.13,1.13,0,0,1,81.56,172.9Z"/><path class="cls-15" d="M88.07,172.45h0a1.14,1.14,0,0,1-1.61,0l-4.31-4.62a1.15,1.15,0,0,1,.06-1.61h0a1.13,1.13,0,0,1,1.6.05l4.31,4.62A1.14,1.14,0,0,1,88.07,172.45Z"/><rect class="cls-15" x="156.07" y="163.86" width="2.27" height="10.91" rx="1.14"/><rect class="cls-15" x="156.07" y="163.76" width="2.28" height="11.11" rx="1.14" transform="translate(326.52 12.1) rotate(90)"/><path class="cls-15" d="M153.63,172.9h0a1.15,1.15,0,0,1,0-1.61l5.55-5.57a1.15,1.15,0,0,1,1.61,0h0a1.15,1.15,0,0,1,0,1.61l-5.56,5.57A1.13,1.13,0,0,1,153.63,172.9Z"/><path class="cls-15" d="M160.14,172.45h0a1.14,1.14,0,0,1-1.61,0l-4.31-4.62a1.15,1.15,0,0,1,.06-1.61h0a1.13,1.13,0,0,1,1.6.05l4.31,4.62A1.14,1.14,0,0,1,160.14,172.45Z"/></g><g id="Træk"><path class="cls-15" d="M154.2,257c-25.58-4.89-43.49-2.11-68.64,4.13a1.89,1.89,0,0,1-2.5-1.54h0a2.07,2.07,0,0,1,1.66-2.63c25-6,43.87-10.27,69.23-3.65A2.33,2.33,0,0,1,156,255.4h0C156.15,256.14,156,257.32,154.2,257Z"/><path class="cls-15" d="M84,277.66h0c-.35.31-1,.36-2.09-.44-11.51-8.43-12.58-12.81-9-26.52.34-1.29.66-1.35,1.17-1.47h0c.51-.12,1.48-.14,1.11,1.14-4,13.47-3,17.55,8.47,25.85C84.78,277,84.37,277.34,84,277.66Z"/><path class="cls-15" d="M168.52,246.39h0c.62,0,1,.63,1.13,1.55,1.32,9.73-.43,16.84-7,24.1a1.38,1.38,0,0,1-1.74.47c-.59-.23.58.24,0,0a.85.85,0,0,1-.25-1.52c7-6.94,8.53-13.67,7.09-23.32C167.57,246.76,167.9,246.38,168.52,246.39Z"/><path class="cls-15" d="M112.82,275.83c.09-.44-.08.43,0,0a1.3,1.3,0,0,1,.78-.93,25.07,25.07,0,0,1,12.71-.89c.37.08.37.45.24.82s.13-.37,0,0a.77.77,0,0,1-.91.51,19,19,0,0,0-12.21.84C113.08,276.33,112.74,276.26,112.82,275.83Z"/><path class="cls-15" d="M118.75,99.65c-1.93-.36-1.39,3.25-6.48,4.4,0,0-9.85-.92-17.34.81-7,1.63-14.09,4.59-14.45,8.81-.23,2.82.7,6.63,8.27,3.59,2.06-.83,9.19-5,13.75-4.81s8.52,2,11.51.87C117.71,112,123,100.46,118.75,99.65Z"/><path class="cls-16" d="M115,111.62c-3,1.09-6.94-.63-11.5-.86s-11.69,4-13.76,4.8c-7.57,3-8.5-.77-8.26-3.59a4.24,4.24,0,0,1,.29-1,4.93,4.93,0,0,0-1.29,2.74c-.23,2.82.7,6.63,8.27,3.59,2.06-.83,9.19-5,13.75-4.81s8.52,2,11.51.87c1.5-.54,3.24-2.77,4.52-5.27C117.41,109.78,116.14,111.21,115,111.62Z"/><path class="cls-15" d="M139.9,113.79c-.27,5.71,6.41,3.6,8.79,1.7,2.55-2,6-8.19,9.47-9.12s10.41,9.87,15.26,10.2,3.21-4.54,2.62-7.11-12-14.22-15.79-14.21C150.3,95.26,140.13,108.92,139.9,113.79Z"/><path class="cls-16" d="M173.81,115c-4.86-.33-11.79-11.13-15.26-10.2s-6.93,7.07-9.48,9.11c-2.37,1.91-9.06,4-8.78-1.69a1.66,1.66,0,0,1,0-.22,6.71,6.71,0,0,0-.42,1.84c-.27,5.71,6.41,3.6,8.79,1.7,2.55-2,6-8.19,9.47-9.12s10.41,9.87,15.26,10.2c2.61.18,3.32-1.16,3.35-2.83C176.32,114.54,175.46,115.06,173.81,115Z"/><g id="Næse"><path class="cls-15" d="M135.15,199c2.24,25.69-24.29,37.59-26.8,7.54-.1-1.25.27-1.48.78-1.76h0a1,1,0,0,1,1.53.88c.3,27.35,25.15,17,21.72-7.37-.14-1,1-1.15,1.46-1.06h0A1.92,1.92,0,0,1,135.15,199Z"/></g></g></g></g></g></svg>