<svg xmlns="http://www.w3.org/2000/svg" width="465" height="880" viewBox="0 0 465 880"><defs><style>.cls-1{fill:#503e62;}.cls-2{fill:#473757;}.cls-3{fill:#e0bfa3;}.cls-4{fill:#ccae94;}.cls-5{fill:#c9ac93;}.cls-6{fill:#fff;}.cls-7{fill:#e6e6e6;}.cls-8{fill:#050505;}.cls-9{fill:#789e3a;}.cls-10{fill:#57191c;}.cls-11{fill:#b54744;}.cls-12{fill:#212121;}</style></defs><g id="Figur"><g id="Ansigt_-_Stiv" data-name="Ansigt - Stiv"><g id="Hår"><path id="Hår-2" data-name="Hår" class="cls-1" d="M66.47,586.88S17.66,184.19,92.16,33.49c0,0,36,25.76,61.65,69.55,0,0,28.26-69.55,84.77-103,0,0,30.83,30.91,46.24,85,0,0,41.1-2.57,66.79-33.49s98.9,219,48.81,534.19c0,0-13.2-281.73-36.32-343.55s-183.7-58-217.1-34.78S66.47,586.88,66.47,586.88Z"/><g id="Skygger"><path class="cls-2" d="M169.22,103s25-61.48,75-96.67C240.78,2.25,238.58,0,238.58,0c-40.92,24.25-67,67.29-78.24,89.26C163.38,93.66,166.38,98.2,169.22,103Z"/><path class="cls-2" d="M300.23,85s38.48-2.49,64.25-30.69c-4.89-5.81-9.34-7-12.87-2.8-16,19.23-37.91,27.49-52.21,31C299.66,83.38,300,84.13,300.23,85Z"/><path class="cls-2" d="M103.45,42.72c-6.77-5.92-11.29-9.23-11.29-9.23-74.5,150.7-25.69,553.39-25.69,553.39s3.43-25.88,9.06-64C65.55,406.2,52.28,160.23,103.45,42.72Z"/><path class="cls-2" d="M379.52,242.16c-14.51-38.78-83.07-51.7-140.42-50.24,53.64,1.06,111.78,14.88,125,50.24,23.12,61.82,36.32,343.55,36.32,343.55,4.5-28.36,8-56.16,10.61-83.31C405.27,414.15,394.47,282.16,379.52,242.16Z"/></g></g><g id="Øre"><ellipse class="cls-3" cx="382.8" cy="601.95" rx="82.2" ry="62.61"/><ellipse class="cls-3" cx="82.2" cy="601.95" rx="82.2" ry="62.61"/><path class="cls-4" d="M97.62,649.11c-45.4,0-82.21-28-82.21-62.61,0-10.9,4-21,10.41-29.92C10,568,0,584,0,602c0,34.58,36.8,62.61,82.2,62.61,31.09,0,57.83-13.3,71.8-32.7C139.27,642.49,119.5,649.11,97.62,649.11Z"/></g><g id="Hoved"><path id="Hoved-2" data-name="Hoved" class="cls-3" d="M233.44,159.72c-92.21,0-167,70.67-167,157.85V722.15c0,87.18,74.76,157.85,167,157.85s167-70.67,167-157.85V317.57C400.42,230.39,325.66,159.72,233.44,159.72Z"/><path id="Skygge" class="cls-5" d="M248.86,864.54c-92.22,0-167-70.67-167-157.85V302.11c0-37.77,14.07-72.41,37.48-99.58-32.48,28.8-52.89,69.62-52.89,115V722.15c0,87.18,74.76,157.85,167,157.85,52.27,0,98.88-22.73,129.5-58.27A171.46,171.46,0,0,1,248.86,864.54Z"/></g><g id="Øjne"><ellipse id="Venstre_Øje" data-name="Venstre Øje" class="cls-6" cx="128.21" cy="461.77" rx="89.13" ry="89.38"/><ellipse id="Højre_øje" data-name="Højre øje" class="cls-6" cx="328.4" cy="461.77" rx="89.13" ry="89.38"/><path class="cls-7" d="M134.06,544.75a89.42,89.42,0,0,1-68.6-146.43A89.24,89.24,0,1,0,196.81,518.81,88.7,88.7,0,0,1,134.06,544.75Z"/><path class="cls-7" d="M334.08,544.75a89.42,89.42,0,0,1-68.6-146.43A89.24,89.24,0,1,0,396.83,518.81,88.7,88.7,0,0,1,334.08,544.75Z"/><rect class="cls-8" x="104.54" y="485.67" width="6.31" height="30.31" rx="3.15"/><rect class="cls-8" x="104.53" y="485.4" width="6.32" height="30.85" rx="3.16" transform="translate(608.52 393.13) rotate(90)"/><path class="cls-8" d="M97.75,510.8h0a3.18,3.18,0,0,1,0-4.48l15.43-15.47a3.16,3.16,0,0,1,4.46,0h0a3.17,3.17,0,0,1,0,4.47L102.21,510.8A3.16,3.16,0,0,1,97.75,510.8Z"/><path class="cls-8" d="M115.83,509.55h0a3.14,3.14,0,0,1-4.46-.15l-12-12.84a3.17,3.17,0,0,1,.15-4.47h0a3.16,3.16,0,0,1,4.46.15l12,12.84A3.17,3.17,0,0,1,115.83,509.55Z"/><rect class="cls-8" x="347.32" y="414.4" width="6.31" height="30.31" rx="3.15"/><rect class="cls-8" x="347.31" y="414.12" width="6.32" height="30.85" rx="3.16" transform="translate(780.02 79.07) rotate(90)"/><path class="cls-8" d="M340.53,439.52h0a3.17,3.17,0,0,1,0-4.47L356,419.58a3.14,3.14,0,0,1,4.46,0h0a3.17,3.17,0,0,1,0,4.47L345,439.52A3.14,3.14,0,0,1,340.53,439.52Z"/><path class="cls-8" d="M358.62,438.28h0a3.16,3.16,0,0,1-4.46-.15l-12-12.84a3.16,3.16,0,0,1,.15-4.47h0a3.14,3.14,0,0,1,4.45.15l12,12.84A3.18,3.18,0,0,1,358.62,438.28Z"/></g><g id="Træk"><g id="Næse"><path class="cls-8" d="M267.12,552.9c6.23,71.38-67.45,104.46-74.42,20.94-.29-3.46.73-4.11,2.16-4.88h0c1.44-.77,4.21-.71,4.25,2.44.81,76,69.86,47.26,60.32-20.47-.39-2.81,2.67-3.2,4.05-3h0C264.86,548.21,266.86,549.94,267.12,552.9Z"/></g></g><g id="Mund"><path class="cls-9" d="M276.72,767.58s-1.5,13.19,5,21,7.9.8,13.71,3.82,10.32,13.55,11.32,20.08,2.41,32.2,9.85,34.91C332,853,328,821.49,329.29,818.53a3.23,3.23,0,0,1,4.7-1.19c2.47,1.89.73,11,3.47,13a1.87,1.87,0,0,0,2.55,0c.81-.85,1.55-2.57,1.8-5.15.53-5.66-.09-30.36,3.46-36.58s6.17-11.49,6.11-14.63S301.25,757.79,276.72,767.58Z"/><path class="cls-9" d="M324.47,781.18s1.5,13.2-5,21-7.9.81-13.71,3.82-10.32,13.55-11.32,20.08S292,858.31,284.58,861c-15.35,5.59-11.42-25.93-12.68-28.88a3.23,3.23,0,0,0-4.7-1.2c-2.47,1.89-.74,11.06-3.47,13a1.88,1.88,0,0,1-2.56,0c-.8-.85-1.54-2.57-1.79-5.16-.53-5.65.09-30.36-3.46-36.58s-6.17-11.49-6.11-14.63S299.94,771.4,324.47,781.18Z"/><path class="cls-9" d="M123.22,774.59s-1,8.76,3.33,14,5.24.53,9.1,2.53,6.86,9,7.52,13.34,1.6,21.4,6.55,23.2c10.19,3.71,7.58-17.23,8.42-19.19a2.13,2.13,0,0,1,3.12-.79c1.64,1.25.49,7.34,2.31,8.61a1.22,1.22,0,0,0,1.69,0,5.88,5.88,0,0,0,1.2-3.42c.35-3.76-.06-20.17,2.3-24.3s4.09-7.63,4.05-9.72S139.51,768.09,123.22,774.59Z"/><path class="cls-10" d="M366.06,785.43a1188.33,1188.33,0,0,1-260.55,0C74.43,782,53.15,755.3,57.81,727.5v-.06c4.66-27.85,31-46.68,58.89-43.63a1086,1086,0,0,0,238.15,0c27.93-3,54.23,15.78,58.89,43.63v.06C418.42,755.3,397.14,782,366.06,785.43Z"/><path class="cls-11" d="M207.42,792.29s-1.85-26.7,18.35-37.49,20.88,5.47,19.15,8.26-9.21,3.18-13.45,4.12-9.2,10.37-10.29,15.83-1.71,9.49-1.71,9.49l-5.65,0Z"/></g></g><path class="cls-12" d="M170.82,332.27c-13.31-5.1-59.34,1.89-71.85,7.82a4.57,4.57,0,0,1-6.49-2.85c-.17.13-.22-1.35-.22-1.35-1-2.84.27-4,3.26-5.51,13.68-6.84,61.6-13.9,76.39-8.39,3.22,1.21,4.64,3.55,4.25,6.26h0C175.77,331,173.73,333.39,170.82,332.27Z"/><path class="cls-12" d="M363.82,319.55c-12.91-4.24-58.28,3.49-70.73,9.25-2.72,1.26-5.4.17-6.28-2.39-.17.13-.18-1.21-.18-1.21-.88-2.56.39-3.67,3.37-5.12,13.62-6.62,60.85-14.47,75.19-9.9,3.13,1,4.45,3.08,4,5.55h0C368.71,318.21,366.64,320.48,363.82,319.55Z"/></g></svg>