<svg xmlns="http://www.w3.org/2000/svg" width="465" height="880" viewBox="0 0 465 880"><defs><style>.cls-1{fill:#503e62;}.cls-2{fill:#473757;}.cls-3{fill:#e0bfa3;}.cls-4{fill:#ccae94;}.cls-5{fill:#c9ac93;}.cls-6{fill:#fff;}.cls-7{fill:#e6e6e6;}.cls-8{fill:#050505;}.cls-9{fill:#212121;}</style></defs><g id="Figur"><g id="Ansigt_-_Stor" data-name="Ansigt - Stor"><g id="Hår"><path id="Hår-2" data-name="Hår" class="cls-1" d="M66.47,586.88S17.66,184.19,92.16,33.49c0,0,36,25.76,61.65,69.55,0,0,28.26-69.55,84.77-103,0,0,30.83,30.91,46.24,85,0,0,41.1-2.57,66.79-33.49s98.9,219,48.81,534.19c0,0-13.2-281.73-36.32-343.55s-183.7-58-217.1-34.78S66.47,586.88,66.47,586.88Z"/><g id="Skygger"><path class="cls-2" d="M169.22,103s25-61.48,75-96.67C240.78,2.25,238.58,0,238.58,0c-40.92,24.25-67,67.29-78.24,89.26C163.38,93.66,166.38,98.2,169.22,103Z"/><path class="cls-2" d="M300.23,85s38.48-2.49,64.25-30.69c-4.89-5.81-9.34-7-12.87-2.8-16,19.23-37.91,27.49-52.21,31C299.66,83.38,300,84.13,300.23,85Z"/><path class="cls-2" d="M103.45,42.72c-6.77-5.92-11.29-9.23-11.29-9.23-74.5,150.7-25.69,553.39-25.69,553.39s3.43-25.88,9.06-64C65.55,406.2,52.28,160.23,103.45,42.72Z"/><path class="cls-2" d="M379.52,242.16c-14.51-38.78-83.07-51.7-140.42-50.24,53.64,1.06,111.78,14.88,125,50.24,23.12,61.82,36.32,343.55,36.32,343.55,4.5-28.36,8-56.16,10.61-83.31C405.27,414.15,394.47,282.16,379.52,242.16Z"/></g></g><g id="Øre"><ellipse class="cls-3" cx="382.8" cy="601.95" rx="82.2" ry="62.61"/><ellipse class="cls-3" cx="82.2" cy="601.95" rx="82.2" ry="62.61"/><path class="cls-4" d="M97.62,649.11c-45.4,0-82.21-28-82.21-62.61,0-10.9,4-21,10.41-29.92C10,568,0,584,0,602c0,34.58,36.8,62.61,82.2,62.61,31.09,0,57.83-13.3,71.8-32.7C139.27,642.49,119.5,649.11,97.62,649.11Z"/></g><g id="Hoved"><path id="Hoved-2" data-name="Hoved" class="cls-3" d="M233.44,159.72c-92.21,0-167,70.67-167,157.85V722.15c0,87.18,74.76,157.85,167,157.85s167-70.67,167-157.85V317.57C400.42,230.39,325.66,159.72,233.44,159.72Z"/><path id="Skygge" class="cls-5" d="M248.86,864.54c-92.22,0-167-70.67-167-157.85V302.11c0-37.77,14.07-72.41,37.48-99.58-32.48,28.8-52.89,69.62-52.89,115V722.15c0,87.18,74.76,157.85,167,157.85,52.27,0,98.88-22.73,129.5-58.27A171.46,171.46,0,0,1,248.86,864.54Z"/></g><g id="Øjne"><ellipse id="Venstre_Øje" data-name="Venstre Øje" class="cls-6" cx="128.21" cy="461.77" rx="89.13" ry="89.38"/><ellipse id="Højre_øje" data-name="Højre øje" class="cls-6" cx="328.4" cy="461.77" rx="89.13" ry="89.38"/><path class="cls-7" d="M134.06,544.75a89.42,89.42,0,0,1-68.6-146.43A89.24,89.24,0,1,0,196.81,518.81,88.7,88.7,0,0,1,134.06,544.75Z"/><path class="cls-7" d="M334.08,544.75a89.42,89.42,0,0,1-68.6-146.43A89.24,89.24,0,1,0,396.83,518.81,88.7,88.7,0,0,1,334.08,544.75Z"/><rect class="cls-8" x="125.05" y="455.37" width="6.31" height="30.31" rx="3.15"/><rect class="cls-8" x="125.05" y="455.09" width="6.32" height="30.85" rx="3.16" transform="translate(598.73 342.31) rotate(90)"/><path class="cls-8" d="M118.26,480.49h0a3.17,3.17,0,0,1,0-4.47l15.43-15.47a3.14,3.14,0,0,1,4.46,0h0a3.17,3.17,0,0,1,0,4.47l-15.43,15.47A3.14,3.14,0,0,1,118.26,480.49Z"/><path class="cls-8" d="M136.35,479.25h0a3.16,3.16,0,0,1-4.46-.15l-12-12.84a3.17,3.17,0,0,1,.15-4.47h0a3.15,3.15,0,0,1,4.46.15l12,12.84A3.17,3.17,0,0,1,136.35,479.25Z"/><rect class="cls-8" x="325.25" y="455.37" width="6.31" height="30.31" rx="3.15"/><rect class="cls-8" x="325.24" y="455.09" width="6.32" height="30.85" rx="3.16" transform="matrix(0, 1, -1, 0, 798.92, 142.12)"/><path class="cls-8" d="M318.46,480.49h0a3.17,3.17,0,0,1,0-4.47l15.43-15.47a3.14,3.14,0,0,1,4.46,0h0a3.17,3.17,0,0,1,0,4.47l-15.43,15.47A3.14,3.14,0,0,1,318.46,480.49Z"/><path class="cls-8" d="M336.54,479.25h0a3.16,3.16,0,0,1-4.46-.15l-12-12.84a3.17,3.17,0,0,1,.15-4.47h0a3.15,3.15,0,0,1,4.46.15l12,12.84A3.17,3.17,0,0,1,336.54,479.25Z"/></g><g id="Træk"><path class="cls-8" d="M320.05,714.16c-71.05-13.61-120.82-5.87-190.67,11.48-4.77,1.18-6.32-2.1-6.94-4.28h0a5.76,5.76,0,0,1,4.61-7.32c69.29-16.6,121.85-28.53,192.31-10.12,4.81,1.25,5.25,3.78,5.68,5.84h0C325.47,711.83,324.91,715.09,320.05,714.16Z"/><path class="cls-8" d="M125.08,771.62h0c-1,.88-2.78,1-5.8-1.21-32-23.44-35-35.61-24.93-73.7.94-3.6,1.84-3.74,3.25-4.08h0c1.41-.34,4.11-.39,3.07,3.15-11,37.45-8.21,48.78,23.55,71.86C127.22,769.82,126.06,770.73,125.08,771.62Z"/><path class="cls-8" d="M359.83,684.73c1.73,0-1.74,0,0,0s2.79,1.76,3.14,4.32c3.66,27-1.2,46.77-19.56,67-1.74,1.91-3.23,2-4.84,1.31h0c-1.62-.65-2.55-2.4-.7-4.23,19.5-19.31,23.71-38,19.7-64.81C357.19,685.75,358.09,684.71,359.83,684.73Z"/><path class="cls-8" d="M205.11,766.53c.25-1.21-.24,1.21,0,0a3.55,3.55,0,0,1,2.15-2.56c10.61-4,24.33-4.64,35.31-2.48,1,.21,1.05,1.24.67,2.28s.38-1,0,0a2.12,2.12,0,0,1-2.52,1.41c-10.91-3.33-23.51-1.83-33.92,2.35C205.81,767.92,204.87,767.74,205.11,766.53Z"/><path class="cls-8" d="M221.56,276.93c-5.34-1-3.85,9-18,12.24,0,0-27.37-2.57-48.17,2.25-19.42,4.51-39.15,12.74-40.13,24.48-.66,7.82,1.92,18.43,23,10,5.73-2.31,25.52-14,38.21-13.36s23.66,5.44,32,2.41C218.69,311.17,233.44,279.19,221.56,276.93Z"/><path class="cls-9" d="M211.15,310.21c-8.28,3-19.26-1.77-32-2.42S146.73,318.85,141,321.16c-21,8.45-23.61-2.17-23-10a11.91,11.91,0,0,1,.83-2.89,13.42,13.42,0,0,0-3.58,7.62c-.66,7.82,1.92,18.43,23,10,5.73-2.31,25.52-14,38.21-13.36s23.66,5.44,32,2.41c4.17-1.52,9-7.72,12.57-14.66C217.86,305.09,214.33,309.05,211.15,310.21Z"/><path class="cls-8" d="M280.32,316.22c-.75,15.89,17.81,10,24.41,4.72,7.08-5.69,16.7-22.75,26.33-25.33S360,323,373.44,324s8.91-12.63,7.28-19.75c-1.71-7.52-33.39-39.52-43.87-39.5C309.22,264.73,281,302.69,280.32,316.22Z"/><path class="cls-9" d="M374.51,319.44c-13.48-.92-32.75-30.91-42.38-28.34s-19.25,19.65-26.33,25.33c-6.6,5.3-25.16,11.17-24.41-4.72,0-.17.08-.4.1-.58a19.31,19.31,0,0,0-1.17,5.09c-.75,15.89,17.81,10,24.41,4.72,7.08-5.69,16.7-22.75,26.33-25.33S360,323,373.44,324c7.26.49,9.22-3.23,9.29-7.85C381.5,318.31,379.11,319.75,374.51,319.44Z"/><g id="Næse"><path class="cls-8" d="M267.12,552.9c6.23,71.38-67.45,104.46-74.42,20.94-.29-3.46.73-4.11,2.16-4.88h0c1.44-.77,4.21-.71,4.25,2.44.81,76,69.86,47.26,60.32-20.47-.39-2.81,2.67-3.2,4.05-3h0C264.86,548.21,266.86,549.94,267.12,552.9Z"/></g></g></g></g></svg>