<svg xmlns="http://www.w3.org/2000/svg" width="680" height="680" viewBox="0 0 680 680"><defs><style>.cls-1,.cls-4{fill:#f7931e;}.cls-2{fill:#fce895;}.cls-3{fill:#d3b740;}.cls-4{stroke:#f7931e;stroke-miterlimit:10;stroke-width:6px;}</style></defs><g id="Assets"><g id="Play_Knap" data-name="Play Knap"><circle class="cls-1" cx="340" cy="340" r="340"/></g><polygon class="cls-2" points="158.3 138.91 340 217.01 521.7 138.91 521.7 522.87 340 561.91 158.3 503.35 158.3 138.91"/><polygon class="cls-3" points="521.7 138.91 513.7 142.35 513.7 515.87 332 554.91 158.3 498.92 158.3 503.35 340 561.91 521.7 522.87 521.7 138.91"/><line class="cls-4" x1="192.94" y1="230.91" x2="312.44" y2="278.91"/><line class="cls-4" x1="192.94" y1="282.35" x2="312.44" y2="330.35"/><line class="cls-4" x1="192.94" y1="333.78" x2="312.44" y2="381.78"/><line class="cls-4" x1="192.94" y1="385.22" x2="312.44" y2="433.22"/><line class="cls-4" x1="192.94" y1="436.65" x2="312.44" y2="484.65"/><line class="cls-4" x1="484.1" y1="230.91" x2="364.59" y2="278.91"/><line class="cls-4" x1="484.1" y1="282.35" x2="364.59" y2="330.35"/><line class="cls-4" x1="484.1" y1="333.78" x2="364.59" y2="381.78"/><line class="cls-4" x1="484.1" y1="385.22" x2="364.59" y2="433.22"/><line class="cls-4" x1="484.1" y1="436.65" x2="364.59" y2="484.65"/></g></svg>