<svg xmlns="http://www.w3.org/2000/svg" width="680" height="678.88" viewBox="0 0 680 678.88"><defs><style>.cls-1{fill:#f7931e;}.cls-2{fill:#fce895;}.cls-3{fill:#d3b740;}</style></defs><g id="Assets"><g id="Hjem_Knap" data-name="Hjem Knap"><g id="Replay_Knap" data-name="Replay Knap"><ellipse class="cls-1" cx="340" cy="339.44" rx="340" ry="339.44"/></g><path class="cls-2" d="M506.57,283.31,344,115.87a5.57,5.57,0,0,0-8,0L173.43,283.31a5.56,5.56,0,0,0,4,9.44h23.18V515a12.9,12.9,0,0,0,12.92,12.9H315.76V367h78.31V527.91H471A12.91,12.91,0,0,0,483.89,515V292.75h18.68A5.56,5.56,0,0,0,506.57,283.31Z"/><path class="cls-3" d="M506.57,283.31l-8.1-8.51a5.76,5.76,0,0,0-1.2-.91l-1.06-.92a5.56,5.56,0,0,1-4,9.43H473.52V504.66a12.92,12.92,0,0,1-12.93,12.91H394.07v10.34H471A12.91,12.91,0,0,0,483.89,515V292.75h18.68A5.56,5.56,0,0,0,506.57,283.31Z"/><path class="cls-3" d="M394.07,356.62H305.4v161H203.17a12.78,12.78,0,0,1-2.33-.24,12.9,12.9,0,0,0,12.69,10.58H315.76V367h78.31Z"/></g></g></svg>