<svg xmlns="http://www.w3.org/2000/svg" width="680" height="680" viewBox="0 0 680 680"><defs><style>.cls-1{fill:#fff;}.cls-2{fill:#989a9b;}.cls-3{fill:#6b6b6b;}</style></defs><g id="Assets"><g id="Hjem_Knap" data-name="Hjem Knap"><g id="Replay_Knap" data-name="Replay Knap"><circle class="cls-1" cx="340" cy="340" r="340"/></g><path class="cls-2" d="M506.57,283.78,344,116.06a5.57,5.57,0,0,0-8,0L173.43,283.78a5.57,5.57,0,0,0,4,9.45h23.18V515.86a12.92,12.92,0,0,0,12.92,12.93H315.76V367.57h78.31V528.79H471a12.93,12.93,0,0,0,12.93-12.93V293.23h18.68A5.57,5.57,0,0,0,506.57,283.78Z"/><path class="cls-3" d="M506.57,283.78l-8.1-8.52a5.48,5.48,0,0,0-1.2-.92l-1.06-.92a5.57,5.57,0,0,1-4,9.45H473.52V505.49a12.93,12.93,0,0,1-12.93,12.93H394.07v10.37H471a12.93,12.93,0,0,0,12.93-12.93V293.23h18.68A5.57,5.57,0,0,0,506.57,283.78Z"/><path class="cls-3" d="M394.07,357.21H305.4V518.42H203.17a12.78,12.78,0,0,1-2.33-.23,12.92,12.92,0,0,0,12.69,10.6H315.76V367.57h78.31Z"/></g></g></svg>