<svg xmlns="http://www.w3.org/2000/svg" width="776.48" height="345" viewBox="0 0 776.48 345"><defs><style>.cls-1{fill:#c6c6c6;}.cls-2{fill:#f7931e;}.cls-3{fill:#fff;}.cls-4{fill:#3f230a;}.cls-5{fill:#663910;}.cls-6{fill:#d3d3d3;}</style></defs><g id="Assets"><g id="Start_Knap" data-name="Start Knap"><rect class="cls-1" x="35.36" y="75.37" width="714.34" height="269.63" rx="58.54"/><rect class="cls-2" x="48.13" y="86.68" width="688.82" height="248.08" rx="53.86"/><rect class="cls-3" x="66.81" y="185.33" width="20.69" height="66.24" rx="4.5"/><rect class="cls-3" x="66.81" y="258.34" width="20.69" height="24.41" rx="4.5"/><ellipse class="cls-3" cx="327.35" cy="159.81" rx="5.61" ry="5.63"/><ellipse class="cls-3" cx="191.82" cy="198.3" rx="5.61" ry="5.63"/><ellipse class="cls-3" cx="547.57" cy="250.27" rx="5.61" ry="5.63"/><ellipse class="cls-3" cx="677.22" cy="227.56" rx="5.61" ry="5.63"/><ellipse class="cls-3" cx="484.55" cy="203.93" rx="5.61" ry="5.63"/><ellipse class="cls-3" cx="458.69" cy="270.54" rx="5.61" ry="5.63"/><ellipse class="cls-3" cx="382.63" cy="238.81" rx="5.61" ry="5.63"/><ellipse class="cls-3" cx="558.8" cy="133.14" rx="5.61" ry="5.63"/><ellipse class="cls-3" cx="231.84" cy="280.51" rx="5.61" ry="5.63"/><path class="cls-4" d="M211.14,259.66l.93-4.41c.66-2.81,2.93-3.87,5.73-2.94,4.13,1.2,11.59,3.34,20,3.34,7.72,0,13.45-4.54,13.45-12.15,0-19-39-13.5-39-43.15,0-15.09,12.66-24.58,29.17-24.58a63.1,63.1,0,0,1,20.25,3.61c2.67.93,3.6,3.34,2.8,6l-1.33,4.14c-.8,2.67-2.93,3.87-5.73,2.94a52.55,52.55,0,0,0-16-2.81c-8.65,0-12.52,4.28-12.52,10.42,0,17.64,39,11.89,39,43.15,0,17.5-14.25,26.31-30.1,26.31a77.42,77.42,0,0,1-23.71-3.87C211.54,264.87,210.47,262.6,211.14,259.66Z"/><path class="cls-4" d="M307.71,225.06h10.93v-2.54c0-7.88-3.87-12.29-10.93-12.29a65.29,65.29,0,0,0-14.25,2c-2.8.8-4.93-.54-5.59-3.34l-.94-3.34a4.63,4.63,0,0,1,3.33-6,64.88,64.88,0,0,1,17.45-2.81c16,0,26.65,10,26.65,25.78v23.91c0,13.23-12.13,23.11-26.38,23.11-14.92,0-26.38-10-26.38-23.11C281.6,232.27,292.26,225.06,307.71,225.06Zm.27,31c6.66,0,10.66-4.81,10.66-9.62v-9.88H307.58c-7.46,0-10.12,4.54-10.12,9.62S300.92,256.05,308,256.05Z"/><path class="cls-4" d="M353.81,175.64c0-2.81,1.46-4.94,4.39-5.34l5.86-1.21c3.2-.4,5.33,1.34,5.33,4.41v89.63a4.41,4.41,0,0,1-4.66,4.68h-6.26a4.41,4.41,0,0,1-4.66-4.68Z"/><path class="cls-5" d="M366.73,265.81h-6.26a4.41,4.41,0,0,1-4.66-4.68V173.64a6.22,6.22,0,0,1,.6-2.79,5,5,0,0,0-2.6,4.79v87.49a4.41,4.41,0,0,0,4.66,4.68h6.26a4.39,4.39,0,0,0,4.18-2.48A5,5,0,0,1,366.73,265.81Z"/><path class="cls-4" d="M390.7,203.16a4.42,4.42,0,0,1,4.67-4.68h6.12a4.42,4.42,0,0,1,4.67,4.68v37.13c0,10.42,4.79,15.76,12,15.76S430,250.71,430,240.29V203.16a4.41,4.41,0,0,1,4.66-4.68h6.26a4.42,4.42,0,0,1,4.67,4.68V241c0,18.7-12.53,28.58-27.45,28.58-15.18,0-27.44-9.88-27.44-28.58Z"/><path class="cls-5" d="M432,238.29V201.16a5.12,5.12,0,0,1,.48-2.2,4.39,4.39,0,0,0-2.48,4.2v37.13c0,5.12-1.16,9-3.18,11.65C430.05,249.49,432,244.92,432,238.29Z"/><path class="cls-5" d="M420.15,267.54c-15.19,0-27.45-9.88-27.45-28.58v-37.8a5.12,5.12,0,0,1,.48-2.2,4.39,4.39,0,0,0-2.48,4.2V241c0,18.7,12.26,28.58,27.45,28.58,8.12,0,15.52-2.93,20.59-8.62A27.67,27.67,0,0,1,420.15,267.54Z"/><path class="cls-4" d="M470.23,209.3H465c-2.27,0-3.6-.94-4.27-3.47l-.93-3.48c-.67-2.27.53-3.87,2.8-3.87h7.59V183.92a5,5,0,0,1,4.66-5.34l5.46-.94c3.33-.53,5.6,1.07,5.6,3.88v17h8.52a3.5,3.5,0,0,1,3.73,3.74v3.34a3.5,3.5,0,0,1-3.73,3.74H486v53.83a4.41,4.41,0,0,1-4.66,4.68h-6.4a4.41,4.41,0,0,1-4.66-4.68Z"/><path class="cls-5" d="M472.23,196.48V181.92a5.83,5.83,0,0,1,.63-2.72,5,5,0,0,0-2.63,4.72v12.56Z"/><path class="cls-5" d="M483.29,265.81h-6.4a4.41,4.41,0,0,1-4.66-4.68V207.3H467c-2.27,0-3.6-.94-4.27-3.47l-.93-3.48a3.72,3.72,0,0,1-.11-1.76c-1.66.38-2.46,1.82-1.89,3.76l.93,3.48c.67,2.53,2,3.47,4.27,3.47h5.19v53.83a4.41,4.41,0,0,0,4.66,4.68h6.4a4.39,4.39,0,0,0,4.18-2.48A5.06,5.06,0,0,1,483.29,265.81Z"/><path class="cls-5" d="M496.47,207.3H488v2h6.52a3.45,3.45,0,0,0,3.48-2.25A4.29,4.29,0,0,1,496.47,207.3Z"/><path class="cls-4" d="M510.46,225.46c0-18.7,12.26-28.72,27.31-28.72s27.44,10.69,27.44,26.19v10a4.41,4.41,0,0,1-4.66,4.68H525.91v2.54c0,10.82,5.2,15.89,14.12,15.89a55.71,55.71,0,0,0,14.26-2c2.79-.67,4.92.4,5.59,3.07l.93,4c.67,2.94-.66,5.21-3.33,6a59.13,59.13,0,0,1-17.45,2.4c-17.58,0-29.57-10.15-29.57-29.38Zm39.16.67v-3.2c0-7.22-4.66-12.7-11.85-12.7-6.93,0-11.86,5.08-11.86,13.63v2.27Z"/><path class="cls-5" d="M551.62,224.13v-3.2c0-7.22-4.66-12.7-11.85-12.7a11.07,11.07,0,0,0-9.06,4.27,11.47,11.47,0,0,1,7.06-2.27c7.19,0,11.85,5.48,11.85,12.7v1.2Z"/><path class="cls-5" d="M559.48,265.14a59.13,59.13,0,0,1-17.45,2.4c-17.58,0-29.57-10.15-29.57-29.38v-14.7c0-8.62,2.61-15.38,6.89-20.18-5.46,4.83-8.89,12.29-8.89,22.18v14.7c0,19.23,12,29.38,29.57,29.38a59.13,59.13,0,0,0,17.45-2.4,4.79,4.79,0,0,0,3-2.41A6.09,6.09,0,0,1,559.48,265.14Z"/><path class="cls-5" d="M562.55,235.62H527.91v2h32.64a4.39,4.39,0,0,0,4.18-2.48A5.06,5.06,0,0,1,562.55,235.62Z"/><path class="cls-5" d="M287.87,208.9c.66,2.8,2.79,4.14,5.59,3.34a65.29,65.29,0,0,1,14.25-2c7.06,0,10.93,4.41,10.93,12.29v.54h2v-2.54c0-7.88-3.87-12.29-10.93-12.29a65.29,65.29,0,0,0-14.25,2c-2.8.8-4.93-.54-5.59-3.34l-.94-3.34a5,5,0,0,1,.26-3.56,4.55,4.55,0,0,0-2.26,5.56Z"/><path class="cls-5" d="M310,267.54c-14.92,0-26.38-10-26.38-23.11A20,20,0,0,1,288.16,231c-4.16,3.56-6.56,8.71-6.56,15.41,0,13.09,11.46,23.11,26.38,23.11a27.9,27.9,0,0,0,20.89-8.92A28.39,28.39,0,0,1,310,267.54Z"/><path class="cls-5" d="M316.78,251.91a9.44,9.44,0,0,0,3.86-7.48v-9.88H309.58c-4.26,0-7,1.49-8.48,3.71a11.22,11.22,0,0,1,6.48-1.71h11.06v9.88A9.24,9.24,0,0,1,316.78,251.91Z"/><path class="cls-5" d="M259.36,190.47a52.55,52.55,0,0,0-16-2.81c-5.32,0-8.83,1.63-10.74,4.3,2-1.46,4.92-2.3,8.74-2.3a52.55,52.55,0,0,1,16,2.81c2.45.82,4.39,0,5.37-2A4.63,4.63,0,0,1,259.36,190.47Z"/><path class="cls-5" d="M251.23,243.5a11.82,11.82,0,0,1-2.33,7.32,11.37,11.37,0,0,0,4.33-9.32c0-19-39-13.5-39-43.15a22.56,22.56,0,0,1,5.6-15.27,22.47,22.47,0,0,0-7.6,17.27C212.2,230,251.23,224.53,251.23,243.5Z"/><path class="cls-5" d="M239.78,267.54a77.42,77.42,0,0,1-23.71-3.87c-2.53-.8-3.6-3.07-2.93-6l.93-4.41a5.15,5.15,0,0,1,.32-1,4,4,0,0,0-2.32,3l-.93,4.41c-.67,2.94.4,5.21,2.93,6a77.42,77.42,0,0,0,23.71,3.87c9.51,0,18.44-3.18,24.07-9.49C256.22,265,248.23,267.54,239.78,267.54Z"/><g id="Skum"><path class="cls-3" d="M776.43,112c0-2.8.05-5.58.05-8.33A63.44,63.44,0,0,0,688.55,45a70.71,70.71,0,0,0-23.46,10.6,46.44,46.44,0,0,0-64.46,6.63A62,62,0,0,0,491,42.84c-.93-.12-1.86-.22-2.81-.29A61.89,61.89,0,0,0,403,28.44a60.9,60.9,0,0,0-7.09,2A62.23,62.23,0,0,0,357,1.81a57.08,57.08,0,0,0-26-.6A62.21,62.21,0,0,0,285.08,39a46.45,46.45,0,0,0-56,7.73,64,64,0,0,0-74.79-32.06,67,67,0,0,0-49,51.22A63.45,63.45,0,0,0,21.66,133.8a36.65,36.65,0,0,0,24.53,68.84s.73-.07,1.94-.32v-2a32.86,32.86,0,0,0,20-30.26,32.42,32.42,0,0,0-.22-3.71,50,50,0,0,0,59-44.34,64,64,0,0,0,102.19-15.85h1.3a37.83,37.83,0,0,0,40.3,4.5,31,31,0,0,0,43.83-4,56.74,56.74,0,0,0,57.21-.5h2.46c10,10.77,25.22,17.66,42.23,17.66,16.51,0,31.3-6.47,41.34-16.69a45.55,45.55,0,0,0,54.78-1h.64a48.71,48.71,0,0,0,34.37,13.66,49.49,49.49,0,0,0,29.85-9.74c5.81,13.4,22.7,23.09,42.63,23.09a58.34,58.34,0,0,0,16.4-2.32,70.89,70.89,0,0,0,110.46,41.1l2.8,1.29c20.6-6.57,25.37-29.16,26.46-52.53.19-2.16.31-4.34.31-6.56C776.48,113.41,776.45,112.7,776.43,112Z"/><path class="cls-6" d="M54.59,194.54a17.57,17.57,0,0,1-1.93.31A36.63,36.63,0,0,1,12,140.18a36.62,36.62,0,0,0,34.22,62.46s.73-.07,1.94-.32v-2a32.84,32.84,0,0,0,15.34-13.41"/><path class="cls-6" d="M291.54,31.21a62.15,62.15,0,0,1,6.79-12.41,62.18,62.18,0,0,0-8.79,11.35C290.21,30.5,290.89,30.84,291.54,31.21Z"/><path class="cls-6" d="M756.17,165.42c-.93-.41-1.86-.84-2.79-1.28A70.9,70.9,0,0,1,642.91,123a58.28,58.28,0,0,1-16.4,2.32c-19.93,0-36.81-9.69-42.62-23.09A49.49,49.49,0,0,1,554,112a48.69,48.69,0,0,1-34.37-13.66H519a45.6,45.6,0,0,1-54.79,1c-10,10.22-24.82,16.69-41.33,16.69-17,0-32.19-6.89-42.24-17.66h-2.45a56.76,56.76,0,0,1-57.22.5,31,31,0,0,1-43.82,4,37.83,37.83,0,0,1-40.3-4.5h-1.3a64.74,64.74,0,0,1-4.92,8,37.79,37.79,0,0,0,40,4.32,31,31,0,0,0,43.83-4,56.74,56.74,0,0,0,57.21-.5h2.46c10,10.77,25.22,17.66,42.23,17.66,16.51,0,31.3-6.47,41.34-16.69a45.55,45.55,0,0,0,54.78-1h.64a48.71,48.71,0,0,0,34.37,13.66,49.49,49.49,0,0,0,29.85-9.74c5.81,13.4,22.7,23.09,42.63,23.09a58.34,58.34,0,0,0,16.4-2.32,70.89,70.89,0,0,0,110.46,41.1l2.8,1.29a31,31,0,0,0,17.5-14A30.66,30.66,0,0,1,756.17,165.42Z"/><path class="cls-6" d="M83.62,159.41c-3.16,0-12.3-.21-15.3-.78a32.86,32.86,0,0,1-.15,8.56c1,.05,8,0,9,0a49.92,49.92,0,0,0,41.45-22.11A49.76,49.76,0,0,1,83.62,159.41Z"/><path class="cls-6" d="M178.69,133C161,133,141,122.16,129.4,110.55A49.84,49.84,0,0,1,126.92,122a61.28,61.28,0,0,0,45.3,18.78c21.55-.58,40.95-9.34,52.38-27.22A63.8,63.8,0,0,1,178.69,133Z"/></g></g></g></svg>