<svg xmlns="http://www.w3.org/2000/svg" width="776.48" height="345" viewBox="0 0 776.48 345"><defs><style>.cls-1{fill:#c6c6c6;}.cls-2{fill:#f7931e;}.cls-3{fill:#fff;}.cls-4{font-size:133.58px;fill:#3f230a;font-family:Mic32NewRounded-Medium, "Mic 32 New Rounded";font-weight:500;letter-spacing:0.02em;}.cls-5{letter-spacing:-0.04em;}.cls-6{fill:#d3d3d3;}</style></defs><g id="Assets"><g id="Start_Knap" data-name="Start Knap"><rect class="cls-1" x="35.36" y="75.37" width="714.34" height="269.63" rx="58.54"/><rect class="cls-2" x="48.13" y="86.68" width="688.82" height="248.08" rx="53.86"/><rect class="cls-3" x="66.81" y="185.33" width="20.69" height="66.24" rx="4.5"/><rect class="cls-3" x="66.81" y="258.34" width="20.69" height="24.41" rx="4.5"/><ellipse class="cls-3" cx="327.35" cy="159.81" rx="5.61" ry="5.63"/><ellipse class="cls-3" cx="191.82" cy="198.3" rx="5.61" ry="5.63"/><ellipse class="cls-3" cx="547.57" cy="250.27" rx="5.61" ry="5.63"/><ellipse class="cls-3" cx="677.22" cy="227.56" rx="5.61" ry="5.63"/><ellipse class="cls-3" cx="484.55" cy="203.93" rx="5.61" ry="5.63"/><ellipse class="cls-3" cx="458.69" cy="270.54" rx="5.61" ry="5.63"/><ellipse class="cls-3" cx="382.63" cy="238.81" rx="5.61" ry="5.63"/><ellipse class="cls-3" cx="558.8" cy="133.14" rx="5.61" ry="5.63"/><ellipse class="cls-3" cx="231.84" cy="280.51" rx="5.61" ry="5.63"/><text class="cls-4" transform="translate(204.81 267.81)">S<tspan class="cls-5" x="71.46" y="0">T</tspan><tspan x="135.85" y="0">ART</tspan></text><g id="Skum"><path class="cls-3" d="M776.43,112c0-2.8.05-5.58.05-8.33A63.44,63.44,0,0,0,688.55,45a70.71,70.71,0,0,0-23.46,10.6,46.44,46.44,0,0,0-64.46,6.63A62,62,0,0,0,491,42.84c-.93-.12-1.86-.22-2.81-.29A61.89,61.89,0,0,0,403,28.44a60.9,60.9,0,0,0-7.09,2A62.23,62.23,0,0,0,357,1.81a57.08,57.08,0,0,0-26-.6A62.21,62.21,0,0,0,285.08,39a46.45,46.45,0,0,0-56,7.73,64,64,0,0,0-74.79-32.06,67,67,0,0,0-49,51.22A63.45,63.45,0,0,0,21.66,133.8a36.65,36.65,0,0,0,24.53,68.84s.73-.07,1.94-.32v-2a32.86,32.86,0,0,0,20-30.26,32.42,32.42,0,0,0-.22-3.71,50,50,0,0,0,59-44.34,64,64,0,0,0,102.19-15.85h1.3a37.83,37.83,0,0,0,40.3,4.5,31,31,0,0,0,43.83-4,56.74,56.74,0,0,0,57.21-.5h2.46c10,10.77,25.22,17.66,42.23,17.66,16.51,0,31.3-6.47,41.34-16.69a45.55,45.55,0,0,0,54.78-1h.64a48.71,48.71,0,0,0,34.37,13.66,49.49,49.49,0,0,0,29.85-9.74c5.81,13.4,22.7,23.09,42.63,23.09a58.34,58.34,0,0,0,16.4-2.32,70.89,70.89,0,0,0,110.46,41.1l2.8,1.29c20.6-6.57,25.37-29.16,26.46-52.53.19-2.16.31-4.34.31-6.56C776.48,113.41,776.45,112.7,776.43,112Z"/><path class="cls-6" d="M54.59,194.54a17.57,17.57,0,0,1-1.93.31A36.63,36.63,0,0,1,12,140.18a36.62,36.62,0,0,0,34.22,62.46s.73-.07,1.94-.32v-2a32.84,32.84,0,0,0,15.34-13.41"/><path class="cls-6" d="M291.54,31.21a62.15,62.15,0,0,1,6.79-12.41,62.18,62.18,0,0,0-8.79,11.35C290.21,30.5,290.89,30.84,291.54,31.21Z"/><path class="cls-6" d="M756.17,165.42c-.93-.41-1.86-.84-2.79-1.28A70.9,70.9,0,0,1,642.91,123a58.28,58.28,0,0,1-16.4,2.32c-19.93,0-36.81-9.69-42.62-23.09A49.49,49.49,0,0,1,554,112a48.69,48.69,0,0,1-34.37-13.66H519a45.6,45.6,0,0,1-54.79,1c-10,10.22-24.82,16.69-41.33,16.69-17,0-32.19-6.89-42.24-17.66h-2.45a56.76,56.76,0,0,1-57.22.5,31,31,0,0,1-43.82,4,37.83,37.83,0,0,1-40.3-4.5h-1.3a64.74,64.74,0,0,1-4.92,8,37.79,37.79,0,0,0,40,4.32,31,31,0,0,0,43.83-4,56.74,56.74,0,0,0,57.21-.5h2.46c10,10.77,25.22,17.66,42.23,17.66,16.51,0,31.3-6.47,41.34-16.69a45.55,45.55,0,0,0,54.78-1h.64a48.71,48.71,0,0,0,34.37,13.66,49.49,49.49,0,0,0,29.85-9.74c5.81,13.4,22.7,23.09,42.63,23.09a58.34,58.34,0,0,0,16.4-2.32,70.89,70.89,0,0,0,110.46,41.1l2.8,1.29a31,31,0,0,0,17.5-14A30.66,30.66,0,0,1,756.17,165.42Z"/><path class="cls-6" d="M83.62,159.41c-3.16,0-12.3-.21-15.3-.78a32.86,32.86,0,0,1-.15,8.56c1,.05,8,0,9,0a49.92,49.92,0,0,0,41.45-22.11A49.76,49.76,0,0,1,83.62,159.41Z"/><path class="cls-6" d="M178.69,133C161,133,141,122.16,129.4,110.55A49.84,49.84,0,0,1,126.92,122a61.28,61.28,0,0,0,45.3,18.78c21.55-.58,40.95-9.34,52.38-27.22A63.8,63.8,0,0,1,178.69,133Z"/></g></g></g></svg>