<svg xmlns="http://www.w3.org/2000/svg" width="680" height="680" viewBox="0 0 680 680"><defs><style>.cls-1{fill:#f7931e;}.cls-2{fill:#fce895;}.cls-3{fill:#d3b740;}</style></defs><g id="Assets"><g id="Play_Knap" data-name="Play Knap"><circle class="cls-1" cx="340" cy="340" r="340"/><path class="cls-2" d="M376.41,179.14V378c0,102.67-50.38,155.25-120.2,155.25-66.64,0-123.37-50.6-123.37-155.25V179.14h52V378c0,62.49,28.56,95.72,71.8,95.72s67.83-36.2,67.83-95.72V179.14Z"/><path class="cls-2" d="M436.3,525.85V178.64h52V525.85Z"/><polygon class="cls-3" points="481.27 178.64 481.27 519.85 436.3 519.85 436.3 525.85 488.27 525.85 488.27 178.64 481.27 178.64"/><path class="cls-3" d="M176.81,179.14V371c0,40.53,12,68.73,32.26,83.56-15.37-16-24.26-41.7-24.26-76.56V179.14Z"/><path class="cls-3" d="M368.41,371c0,102.67-50.38,155.25-120.2,155.25-26.52,0-51.46-8-71.89-24.26,21.74,20.94,49.8,31.26,79.89,31.26,69.82,0,120.2-52.58,120.2-155.25V179.14h-8Z"/></g></g></svg>